M48
; DRILL file {KiCad 9.0.2} date 2025-05-12T22:54:16+0800
; FORMAT={-:-/ absolute / metric / decimal}
; #@! TF.CreationDate,2025-05-12T22:54:16+08:00
; #@! TF.GenerationSoftware,Kicad,Pcbnew,9.0.2
; #@! TF.FileFunction,Plated,1,2,PTH
FMAT,2
METRIC
; #@! TA.AperFunction,Plated,PTH,ComponentDrill
T1C0.800
; #@! TA.AperFunction,Plated,PTH,ComponentDrill
T2C1.000
; #@! TA.AperFunction,Plated,PTH,ComponentDrill
T3C1.500
; #@! TA.AperFunction,Plated,PTH,ComponentDrill
T4C2.000
; #@! TA.AperFunction,Plated,PTH,ComponentDrill
T5C3.200
; #@! TA.AperFunction,Plated,PTH,ComponentDrill
T6C3.300
%
G90
G05
T1
X38.333Y-106.553
X38.333Y-122.174
X40.873Y-106.553
X40.873Y-122.174
X43.413Y-106.553
X43.413Y-122.174
X45.953Y-106.553
X45.953Y-122.174
X48.493Y-106.553
X48.493Y-122.174
X49.6Y-49.5
X49.6Y-52.04
X49.6Y-54.58
X49.6Y-57.12
X49.6Y-81.3
X49.6Y-83.84
X49.6Y-86.38
X49.6Y-88.92
X51.033Y-106.553
X51.033Y-122.174
X53.573Y-106.553
X53.573Y-122.174
X56.113Y-106.553
X56.113Y-122.174
X62.08Y-107.65
X62.08Y-110.19
X62.08Y-112.73
X62.08Y-115.27
X62.08Y-117.81
X62.08Y-120.35
X98.13Y-110.22
X98.13Y-112.76
X98.13Y-115.3
X98.13Y-117.84
X106.4Y-49.5
X106.4Y-52.04
X106.4Y-54.58
X106.4Y-57.12
X106.4Y-81.3
X106.4Y-83.84
X106.4Y-86.38
X106.4Y-88.92
X115.57Y-43.18
X115.57Y-48.26
X115.57Y-60.96
X115.57Y-66.04
X115.57Y-78.74
X115.57Y-83.82
X128.27Y-43.18
X128.27Y-48.26
X128.27Y-60.96
X128.27Y-66.04
X128.27Y-78.74
X128.27Y-83.82
T2
X120.66Y-107.96
X120.66Y-115.56
T3
X41.0Y-88.8
X105.0Y-122.1
X106.7Y-106.9
X116.84Y-93.98
X116.84Y-101.6
X124.46Y-93.98
X124.46Y-101.6
T4
X68.5Y-105.0
X68.5Y-123.0
X95.0Y-105.0
T5
X40.0Y-35.0
X40.0Y-80.0
X40.0Y-130.0
X90.0Y-35.0
X90.0Y-130.0
X135.0Y-35.0
X135.0Y-80.0
X135.0Y-130.0
T6
X49.6Y-42.05
X49.6Y-63.55
X49.6Y-73.85
X49.6Y-95.35
X109.6Y-42.05
X109.6Y-63.55
X109.6Y-73.85
X109.6Y-95.35
M30
