%TF.GenerationSoftware,KiCad,Pcbnew,9.0.2*%
%TF.CreationDate,2025-05-12T22:54:10+08:00*%
%TF.ProjectId,paxclock_a,70617863-6c6f-4636-9b5f-612e6b696361,rev?*%
%TF.SameCoordinates,Original*%
%TF.FileFunction,Legend,Bot*%
%TF.FilePolarity,Positive*%
%FSLAX46Y46*%
G04 Gerber Fmt 4.6, Leading zero omitted, Abs format (unit mm)*
G04 Created by KiCad (PCBNEW 9.0.2) date 2025-05-12 22:54:10*
%MOMM*%
%LPD*%
G01*
G04 APERTURE LIST*
G04 Aperture macros list*
%AMRoundRect*
0 Rectangle with rounded corners*
0 $1 Rounding radius*
0 $2 $3 $4 $5 $6 $7 $8 $9 X,Y pos of 4 corners*
0 Add a 4 corners polygon primitive as box body*
4,1,4,$2,$3,$4,$5,$6,$7,$8,$9,$2,$3,0*
0 Add four circle primitives for the rounded corners*
1,1,$1+$1,$2,$3*
1,1,$1+$1,$4,$5*
1,1,$1+$1,$6,$7*
1,1,$1+$1,$8,$9*
0 Add four rect primitives between the rounded corners*
20,1,$1+$1,$2,$3,$4,$5,0*
20,1,$1+$1,$4,$5,$6,$7,0*
20,1,$1+$1,$6,$7,$8,$9,0*
20,1,$1+$1,$8,$9,$2,$3,0*%
G04 Aperture macros list end*
%ADD10C,0.160000*%
%ADD11C,0.100000*%
%ADD12C,4.000000*%
%ADD13RoundRect,0.190500X-1.079500X-0.444500X1.079500X-0.444500X1.079500X0.444500X-1.079500X0.444500X0*%
%ADD14C,3.000000*%
%ADD15RoundRect,0.190500X0.444500X-1.079500X0.444500X1.079500X-0.444500X1.079500X-0.444500X-1.079500X0*%
%ADD16C,5.700000*%
%ADD17R,2.000000X2.000000*%
%ADD18C,2.000000*%
%ADD19RoundRect,0.190500X-0.444500X1.079500X-0.444500X-1.079500X0.444500X-1.079500X0.444500X1.079500X0*%
%ADD20C,2.540000*%
%ADD21C,2.430000*%
%ADD22C,1.200000*%
G04 APERTURE END LIST*
D10*
X44954299Y-113538095D02*
X45763822Y-113538095D01*
X45763822Y-113538095D02*
X45859060Y-113585714D01*
X45859060Y-113585714D02*
X45906680Y-113633333D01*
X45906680Y-113633333D02*
X45954299Y-113728571D01*
X45954299Y-113728571D02*
X45954299Y-113919047D01*
X45954299Y-113919047D02*
X45906680Y-114014285D01*
X45906680Y-114014285D02*
X45859060Y-114061904D01*
X45859060Y-114061904D02*
X45763822Y-114109523D01*
X45763822Y-114109523D02*
X44954299Y-114109523D01*
X45954299Y-115109523D02*
X45954299Y-114538095D01*
X45954299Y-114823809D02*
X44954299Y-114823809D01*
X44954299Y-114823809D02*
X45097156Y-114728571D01*
X45097156Y-114728571D02*
X45192394Y-114633333D01*
X45192394Y-114633333D02*
X45240013Y-114538095D01*
X40416918Y-118667167D02*
X40369299Y-118571929D01*
X40369299Y-118571929D02*
X40369299Y-118429072D01*
X40369299Y-118429072D02*
X40416918Y-118286215D01*
X40416918Y-118286215D02*
X40512156Y-118190977D01*
X40512156Y-118190977D02*
X40607394Y-118143358D01*
X40607394Y-118143358D02*
X40797870Y-118095739D01*
X40797870Y-118095739D02*
X40940727Y-118095739D01*
X40940727Y-118095739D02*
X41131203Y-118143358D01*
X41131203Y-118143358D02*
X41226441Y-118190977D01*
X41226441Y-118190977D02*
X41321680Y-118286215D01*
X41321680Y-118286215D02*
X41369299Y-118429072D01*
X41369299Y-118429072D02*
X41369299Y-118524310D01*
X41369299Y-118524310D02*
X41321680Y-118667167D01*
X41321680Y-118667167D02*
X41274060Y-118714786D01*
X41274060Y-118714786D02*
X40940727Y-118714786D01*
X40940727Y-118714786D02*
X40940727Y-118524310D01*
X47869299Y-118048120D02*
X47869299Y-118667167D01*
X47869299Y-118667167D02*
X48250251Y-118333834D01*
X48250251Y-118333834D02*
X48250251Y-118476691D01*
X48250251Y-118476691D02*
X48297870Y-118571929D01*
X48297870Y-118571929D02*
X48345489Y-118619548D01*
X48345489Y-118619548D02*
X48440727Y-118667167D01*
X48440727Y-118667167D02*
X48678822Y-118667167D01*
X48678822Y-118667167D02*
X48774060Y-118619548D01*
X48774060Y-118619548D02*
X48821680Y-118571929D01*
X48821680Y-118571929D02*
X48869299Y-118476691D01*
X48869299Y-118476691D02*
X48869299Y-118190977D01*
X48869299Y-118190977D02*
X48821680Y-118095739D01*
X48821680Y-118095739D02*
X48774060Y-118048120D01*
X51369299Y-109667167D02*
X51369299Y-109095739D01*
X51369299Y-109381453D02*
X50369299Y-109381453D01*
X50369299Y-109381453D02*
X50512156Y-109286215D01*
X50512156Y-109286215D02*
X50607394Y-109190977D01*
X50607394Y-109190977D02*
X50655013Y-109095739D01*
X50369299Y-110286215D02*
X50369299Y-110381453D01*
X50369299Y-110381453D02*
X50416918Y-110476691D01*
X50416918Y-110476691D02*
X50464537Y-110524310D01*
X50464537Y-110524310D02*
X50559775Y-110571929D01*
X50559775Y-110571929D02*
X50750251Y-110619548D01*
X50750251Y-110619548D02*
X50988346Y-110619548D01*
X50988346Y-110619548D02*
X51178822Y-110571929D01*
X51178822Y-110571929D02*
X51274060Y-110524310D01*
X51274060Y-110524310D02*
X51321680Y-110476691D01*
X51321680Y-110476691D02*
X51369299Y-110381453D01*
X51369299Y-110381453D02*
X51369299Y-110286215D01*
X51369299Y-110286215D02*
X51321680Y-110190977D01*
X51321680Y-110190977D02*
X51274060Y-110143358D01*
X51274060Y-110143358D02*
X51178822Y-110095739D01*
X51178822Y-110095739D02*
X50988346Y-110048120D01*
X50988346Y-110048120D02*
X50750251Y-110048120D01*
X50750251Y-110048120D02*
X50559775Y-110095739D01*
X50559775Y-110095739D02*
X50464537Y-110143358D01*
X50464537Y-110143358D02*
X50416918Y-110190977D01*
X50416918Y-110190977D02*
X50369299Y-110286215D01*
X53869299Y-118667167D02*
X53869299Y-118095739D01*
X53869299Y-118381453D02*
X52869299Y-118381453D01*
X52869299Y-118381453D02*
X53012156Y-118286215D01*
X53012156Y-118286215D02*
X53107394Y-118190977D01*
X53107394Y-118190977D02*
X53155013Y-118095739D01*
X52964537Y-109095739D02*
X52916918Y-109143358D01*
X52916918Y-109143358D02*
X52869299Y-109238596D01*
X52869299Y-109238596D02*
X52869299Y-109476691D01*
X52869299Y-109476691D02*
X52916918Y-109571929D01*
X52916918Y-109571929D02*
X52964537Y-109619548D01*
X52964537Y-109619548D02*
X53059775Y-109667167D01*
X53059775Y-109667167D02*
X53155013Y-109667167D01*
X53155013Y-109667167D02*
X53297870Y-109619548D01*
X53297870Y-109619548D02*
X53869299Y-109048120D01*
X53869299Y-109048120D02*
X53869299Y-109667167D01*
X52869299Y-110286215D02*
X52869299Y-110381453D01*
X52869299Y-110381453D02*
X52916918Y-110476691D01*
X52916918Y-110476691D02*
X52964537Y-110524310D01*
X52964537Y-110524310D02*
X53059775Y-110571929D01*
X53059775Y-110571929D02*
X53250251Y-110619548D01*
X53250251Y-110619548D02*
X53488346Y-110619548D01*
X53488346Y-110619548D02*
X53678822Y-110571929D01*
X53678822Y-110571929D02*
X53774060Y-110524310D01*
X53774060Y-110524310D02*
X53821680Y-110476691D01*
X53821680Y-110476691D02*
X53869299Y-110381453D01*
X53869299Y-110381453D02*
X53869299Y-110286215D01*
X53869299Y-110286215D02*
X53821680Y-110190977D01*
X53821680Y-110190977D02*
X53774060Y-110143358D01*
X53774060Y-110143358D02*
X53678822Y-110095739D01*
X53678822Y-110095739D02*
X53488346Y-110048120D01*
X53488346Y-110048120D02*
X53250251Y-110048120D01*
X53250251Y-110048120D02*
X53059775Y-110095739D01*
X53059775Y-110095739D02*
X52964537Y-110143358D01*
X52964537Y-110143358D02*
X52916918Y-110190977D01*
X52916918Y-110190977D02*
X52869299Y-110286215D01*
X42869299Y-118048120D02*
X42869299Y-118667167D01*
X42869299Y-118667167D02*
X43250251Y-118333834D01*
X43250251Y-118333834D02*
X43250251Y-118476691D01*
X43250251Y-118476691D02*
X43297870Y-118571929D01*
X43297870Y-118571929D02*
X43345489Y-118619548D01*
X43345489Y-118619548D02*
X43440727Y-118667167D01*
X43440727Y-118667167D02*
X43678822Y-118667167D01*
X43678822Y-118667167D02*
X43774060Y-118619548D01*
X43774060Y-118619548D02*
X43821680Y-118571929D01*
X43821680Y-118571929D02*
X43869299Y-118476691D01*
X43869299Y-118476691D02*
X43869299Y-118190977D01*
X43869299Y-118190977D02*
X43821680Y-118095739D01*
X43821680Y-118095739D02*
X43774060Y-118048120D01*
X43774060Y-119095739D02*
X43821680Y-119143358D01*
X43821680Y-119143358D02*
X43869299Y-119095739D01*
X43869299Y-119095739D02*
X43821680Y-119048120D01*
X43821680Y-119048120D02*
X43774060Y-119095739D01*
X43774060Y-119095739D02*
X43869299Y-119095739D01*
X42869299Y-119476691D02*
X42869299Y-120095738D01*
X42869299Y-120095738D02*
X43250251Y-119762405D01*
X43250251Y-119762405D02*
X43250251Y-119905262D01*
X43250251Y-119905262D02*
X43297870Y-120000500D01*
X43297870Y-120000500D02*
X43345489Y-120048119D01*
X43345489Y-120048119D02*
X43440727Y-120095738D01*
X43440727Y-120095738D02*
X43678822Y-120095738D01*
X43678822Y-120095738D02*
X43774060Y-120048119D01*
X43774060Y-120048119D02*
X43821680Y-120000500D01*
X43821680Y-120000500D02*
X43869299Y-119905262D01*
X43869299Y-119905262D02*
X43869299Y-119619548D01*
X43869299Y-119619548D02*
X43821680Y-119524310D01*
X43821680Y-119524310D02*
X43774060Y-119476691D01*
X55369299Y-118333834D02*
X55369299Y-118429072D01*
X55369299Y-118429072D02*
X55416918Y-118524310D01*
X55416918Y-118524310D02*
X55464537Y-118571929D01*
X55464537Y-118571929D02*
X55559775Y-118619548D01*
X55559775Y-118619548D02*
X55750251Y-118667167D01*
X55750251Y-118667167D02*
X55988346Y-118667167D01*
X55988346Y-118667167D02*
X56178822Y-118619548D01*
X56178822Y-118619548D02*
X56274060Y-118571929D01*
X56274060Y-118571929D02*
X56321680Y-118524310D01*
X56321680Y-118524310D02*
X56369299Y-118429072D01*
X56369299Y-118429072D02*
X56369299Y-118333834D01*
X56369299Y-118333834D02*
X56321680Y-118238596D01*
X56321680Y-118238596D02*
X56274060Y-118190977D01*
X56274060Y-118190977D02*
X56178822Y-118143358D01*
X56178822Y-118143358D02*
X55988346Y-118095739D01*
X55988346Y-118095739D02*
X55750251Y-118095739D01*
X55750251Y-118095739D02*
X55559775Y-118143358D01*
X55559775Y-118143358D02*
X55464537Y-118190977D01*
X55464537Y-118190977D02*
X55416918Y-118238596D01*
X55416918Y-118238596D02*
X55369299Y-118333834D01*
X37869299Y-118619548D02*
X37869299Y-118143358D01*
X37869299Y-118143358D02*
X38345489Y-118095739D01*
X38345489Y-118095739D02*
X38297870Y-118143358D01*
X38297870Y-118143358D02*
X38250251Y-118238596D01*
X38250251Y-118238596D02*
X38250251Y-118476691D01*
X38250251Y-118476691D02*
X38297870Y-118571929D01*
X38297870Y-118571929D02*
X38345489Y-118619548D01*
X38345489Y-118619548D02*
X38440727Y-118667167D01*
X38440727Y-118667167D02*
X38678822Y-118667167D01*
X38678822Y-118667167D02*
X38774060Y-118619548D01*
X38774060Y-118619548D02*
X38821680Y-118571929D01*
X38821680Y-118571929D02*
X38869299Y-118476691D01*
X38869299Y-118476691D02*
X38869299Y-118238596D01*
X38869299Y-118238596D02*
X38821680Y-118143358D01*
X38821680Y-118143358D02*
X38774060Y-118095739D01*
X37869299Y-118952882D02*
X38869299Y-119286215D01*
X38869299Y-119286215D02*
X37869299Y-119619548D01*
X50464537Y-118095739D02*
X50416918Y-118143358D01*
X50416918Y-118143358D02*
X50369299Y-118238596D01*
X50369299Y-118238596D02*
X50369299Y-118476691D01*
X50369299Y-118476691D02*
X50416918Y-118571929D01*
X50416918Y-118571929D02*
X50464537Y-118619548D01*
X50464537Y-118619548D02*
X50559775Y-118667167D01*
X50559775Y-118667167D02*
X50655013Y-118667167D01*
X50655013Y-118667167D02*
X50797870Y-118619548D01*
X50797870Y-118619548D02*
X51369299Y-118048120D01*
X51369299Y-118048120D02*
X51369299Y-118667167D01*
X48869299Y-109190977D02*
X48869299Y-109381453D01*
X48869299Y-109381453D02*
X48821680Y-109476691D01*
X48821680Y-109476691D02*
X48774060Y-109524310D01*
X48774060Y-109524310D02*
X48631203Y-109619548D01*
X48631203Y-109619548D02*
X48440727Y-109667167D01*
X48440727Y-109667167D02*
X48059775Y-109667167D01*
X48059775Y-109667167D02*
X47964537Y-109619548D01*
X47964537Y-109619548D02*
X47916918Y-109571929D01*
X47916918Y-109571929D02*
X47869299Y-109476691D01*
X47869299Y-109476691D02*
X47869299Y-109286215D01*
X47869299Y-109286215D02*
X47916918Y-109190977D01*
X47916918Y-109190977D02*
X47964537Y-109143358D01*
X47964537Y-109143358D02*
X48059775Y-109095739D01*
X48059775Y-109095739D02*
X48297870Y-109095739D01*
X48297870Y-109095739D02*
X48393108Y-109143358D01*
X48393108Y-109143358D02*
X48440727Y-109190977D01*
X48440727Y-109190977D02*
X48488346Y-109286215D01*
X48488346Y-109286215D02*
X48488346Y-109476691D01*
X48488346Y-109476691D02*
X48440727Y-109571929D01*
X48440727Y-109571929D02*
X48393108Y-109619548D01*
X48393108Y-109619548D02*
X48297870Y-109667167D01*
X42869299Y-109048120D02*
X42869299Y-109714786D01*
X42869299Y-109714786D02*
X43869299Y-109286215D01*
X55464537Y-109095739D02*
X55416918Y-109143358D01*
X55416918Y-109143358D02*
X55369299Y-109238596D01*
X55369299Y-109238596D02*
X55369299Y-109476691D01*
X55369299Y-109476691D02*
X55416918Y-109571929D01*
X55416918Y-109571929D02*
X55464537Y-109619548D01*
X55464537Y-109619548D02*
X55559775Y-109667167D01*
X55559775Y-109667167D02*
X55655013Y-109667167D01*
X55655013Y-109667167D02*
X55797870Y-109619548D01*
X55797870Y-109619548D02*
X56369299Y-109048120D01*
X56369299Y-109048120D02*
X56369299Y-109667167D01*
X56369299Y-110619548D02*
X56369299Y-110048120D01*
X56369299Y-110333834D02*
X55369299Y-110333834D01*
X55369299Y-110333834D02*
X55512156Y-110238596D01*
X55512156Y-110238596D02*
X55607394Y-110143358D01*
X55607394Y-110143358D02*
X55655013Y-110048120D01*
X40369299Y-109571929D02*
X40369299Y-109381453D01*
X40369299Y-109381453D02*
X40416918Y-109286215D01*
X40416918Y-109286215D02*
X40464537Y-109238596D01*
X40464537Y-109238596D02*
X40607394Y-109143358D01*
X40607394Y-109143358D02*
X40797870Y-109095739D01*
X40797870Y-109095739D02*
X41178822Y-109095739D01*
X41178822Y-109095739D02*
X41274060Y-109143358D01*
X41274060Y-109143358D02*
X41321680Y-109190977D01*
X41321680Y-109190977D02*
X41369299Y-109286215D01*
X41369299Y-109286215D02*
X41369299Y-109476691D01*
X41369299Y-109476691D02*
X41321680Y-109571929D01*
X41321680Y-109571929D02*
X41274060Y-109619548D01*
X41274060Y-109619548D02*
X41178822Y-109667167D01*
X41178822Y-109667167D02*
X40940727Y-109667167D01*
X40940727Y-109667167D02*
X40845489Y-109619548D01*
X40845489Y-109619548D02*
X40797870Y-109571929D01*
X40797870Y-109571929D02*
X40750251Y-109476691D01*
X40750251Y-109476691D02*
X40750251Y-109286215D01*
X40750251Y-109286215D02*
X40797870Y-109190977D01*
X40797870Y-109190977D02*
X40845489Y-109143358D01*
X40845489Y-109143358D02*
X40940727Y-109095739D01*
X45702632Y-118571929D02*
X46369299Y-118571929D01*
X45321680Y-118333834D02*
X46035965Y-118095739D01*
X46035965Y-118095739D02*
X46035965Y-118714786D01*
X45797870Y-109286215D02*
X45750251Y-109190977D01*
X45750251Y-109190977D02*
X45702632Y-109143358D01*
X45702632Y-109143358D02*
X45607394Y-109095739D01*
X45607394Y-109095739D02*
X45559775Y-109095739D01*
X45559775Y-109095739D02*
X45464537Y-109143358D01*
X45464537Y-109143358D02*
X45416918Y-109190977D01*
X45416918Y-109190977D02*
X45369299Y-109286215D01*
X45369299Y-109286215D02*
X45369299Y-109476691D01*
X45369299Y-109476691D02*
X45416918Y-109571929D01*
X45416918Y-109571929D02*
X45464537Y-109619548D01*
X45464537Y-109619548D02*
X45559775Y-109667167D01*
X45559775Y-109667167D02*
X45607394Y-109667167D01*
X45607394Y-109667167D02*
X45702632Y-109619548D01*
X45702632Y-109619548D02*
X45750251Y-109571929D01*
X45750251Y-109571929D02*
X45797870Y-109476691D01*
X45797870Y-109476691D02*
X45797870Y-109286215D01*
X45797870Y-109286215D02*
X45845489Y-109190977D01*
X45845489Y-109190977D02*
X45893108Y-109143358D01*
X45893108Y-109143358D02*
X45988346Y-109095739D01*
X45988346Y-109095739D02*
X46178822Y-109095739D01*
X46178822Y-109095739D02*
X46274060Y-109143358D01*
X46274060Y-109143358D02*
X46321680Y-109190977D01*
X46321680Y-109190977D02*
X46369299Y-109286215D01*
X46369299Y-109286215D02*
X46369299Y-109476691D01*
X46369299Y-109476691D02*
X46321680Y-109571929D01*
X46321680Y-109571929D02*
X46274060Y-109619548D01*
X46274060Y-109619548D02*
X46178822Y-109667167D01*
X46178822Y-109667167D02*
X45988346Y-109667167D01*
X45988346Y-109667167D02*
X45893108Y-109619548D01*
X45893108Y-109619548D02*
X45845489Y-109571929D01*
X45845489Y-109571929D02*
X45797870Y-109476691D01*
X37869299Y-109619548D02*
X37869299Y-109143358D01*
X37869299Y-109143358D02*
X38345489Y-109095739D01*
X38345489Y-109095739D02*
X38297870Y-109143358D01*
X38297870Y-109143358D02*
X38250251Y-109238596D01*
X38250251Y-109238596D02*
X38250251Y-109476691D01*
X38250251Y-109476691D02*
X38297870Y-109571929D01*
X38297870Y-109571929D02*
X38345489Y-109619548D01*
X38345489Y-109619548D02*
X38440727Y-109667167D01*
X38440727Y-109667167D02*
X38678822Y-109667167D01*
X38678822Y-109667167D02*
X38774060Y-109619548D01*
X38774060Y-109619548D02*
X38821680Y-109571929D01*
X38821680Y-109571929D02*
X38869299Y-109476691D01*
X38869299Y-109476691D02*
X38869299Y-109238596D01*
X38869299Y-109238596D02*
X38821680Y-109143358D01*
X38821680Y-109143358D02*
X38774060Y-109095739D01*
X86151879Y-95969299D02*
X85532832Y-95969299D01*
X85532832Y-95969299D02*
X85866165Y-96350251D01*
X85866165Y-96350251D02*
X85723308Y-96350251D01*
X85723308Y-96350251D02*
X85628070Y-96397870D01*
X85628070Y-96397870D02*
X85580451Y-96445489D01*
X85580451Y-96445489D02*
X85532832Y-96540727D01*
X85532832Y-96540727D02*
X85532832Y-96778822D01*
X85532832Y-96778822D02*
X85580451Y-96874060D01*
X85580451Y-96874060D02*
X85628070Y-96921680D01*
X85628070Y-96921680D02*
X85723308Y-96969299D01*
X85723308Y-96969299D02*
X86009022Y-96969299D01*
X86009022Y-96969299D02*
X86104260Y-96921680D01*
X86104260Y-96921680D02*
X86151879Y-96874060D01*
X85151879Y-96064537D02*
X85104260Y-96016918D01*
X85104260Y-96016918D02*
X85009022Y-95969299D01*
X85009022Y-95969299D02*
X84770927Y-95969299D01*
X84770927Y-95969299D02*
X84675689Y-96016918D01*
X84675689Y-96016918D02*
X84628070Y-96064537D01*
X84628070Y-96064537D02*
X84580451Y-96159775D01*
X84580451Y-96159775D02*
X84580451Y-96255013D01*
X84580451Y-96255013D02*
X84628070Y-96397870D01*
X84628070Y-96397870D02*
X85199498Y-96969299D01*
X85199498Y-96969299D02*
X84580451Y-96969299D01*
X84151879Y-96969299D02*
X84151879Y-95969299D01*
X83580451Y-96969299D02*
X84009022Y-96397870D01*
X83580451Y-95969299D02*
X84151879Y-96540727D01*
X85485213Y-119469299D02*
X85818546Y-118993108D01*
X86056641Y-119469299D02*
X86056641Y-118469299D01*
X86056641Y-118469299D02*
X85675689Y-118469299D01*
X85675689Y-118469299D02*
X85580451Y-118516918D01*
X85580451Y-118516918D02*
X85532832Y-118564537D01*
X85532832Y-118564537D02*
X85485213Y-118659775D01*
X85485213Y-118659775D02*
X85485213Y-118802632D01*
X85485213Y-118802632D02*
X85532832Y-118897870D01*
X85532832Y-118897870D02*
X85580451Y-118945489D01*
X85580451Y-118945489D02*
X85675689Y-118993108D01*
X85675689Y-118993108D02*
X86056641Y-118993108D01*
X85056641Y-118945489D02*
X84723308Y-118945489D01*
X84580451Y-119469299D02*
X85056641Y-119469299D01*
X85056641Y-119469299D02*
X85056641Y-118469299D01*
X85056641Y-118469299D02*
X84580451Y-118469299D01*
X83818546Y-118945489D02*
X84151879Y-118945489D01*
X84151879Y-119469299D02*
X84151879Y-118469299D01*
X84151879Y-118469299D02*
X83675689Y-118469299D01*
X83151879Y-118469299D02*
X83151879Y-118707394D01*
X83389974Y-118612156D02*
X83151879Y-118707394D01*
X83151879Y-118707394D02*
X82913784Y-118612156D01*
X83294736Y-118897870D02*
X83151879Y-118707394D01*
X83151879Y-118707394D02*
X83009022Y-118897870D01*
X82389974Y-118469299D02*
X82389974Y-118707394D01*
X82628069Y-118612156D02*
X82389974Y-118707394D01*
X82389974Y-118707394D02*
X82151879Y-118612156D01*
X82532831Y-118897870D02*
X82389974Y-118707394D01*
X82389974Y-118707394D02*
X82247117Y-118897870D01*
X96854260Y-110671680D02*
X96711403Y-110719299D01*
X96711403Y-110719299D02*
X96473308Y-110719299D01*
X96473308Y-110719299D02*
X96378070Y-110671680D01*
X96378070Y-110671680D02*
X96330451Y-110624060D01*
X96330451Y-110624060D02*
X96282832Y-110528822D01*
X96282832Y-110528822D02*
X96282832Y-110433584D01*
X96282832Y-110433584D02*
X96330451Y-110338346D01*
X96330451Y-110338346D02*
X96378070Y-110290727D01*
X96378070Y-110290727D02*
X96473308Y-110243108D01*
X96473308Y-110243108D02*
X96663784Y-110195489D01*
X96663784Y-110195489D02*
X96759022Y-110147870D01*
X96759022Y-110147870D02*
X96806641Y-110100251D01*
X96806641Y-110100251D02*
X96854260Y-110005013D01*
X96854260Y-110005013D02*
X96854260Y-109909775D01*
X96854260Y-109909775D02*
X96806641Y-109814537D01*
X96806641Y-109814537D02*
X96759022Y-109766918D01*
X96759022Y-109766918D02*
X96663784Y-109719299D01*
X96663784Y-109719299D02*
X96425689Y-109719299D01*
X96425689Y-109719299D02*
X96282832Y-109766918D01*
X95282832Y-110624060D02*
X95330451Y-110671680D01*
X95330451Y-110671680D02*
X95473308Y-110719299D01*
X95473308Y-110719299D02*
X95568546Y-110719299D01*
X95568546Y-110719299D02*
X95711403Y-110671680D01*
X95711403Y-110671680D02*
X95806641Y-110576441D01*
X95806641Y-110576441D02*
X95854260Y-110481203D01*
X95854260Y-110481203D02*
X95901879Y-110290727D01*
X95901879Y-110290727D02*
X95901879Y-110147870D01*
X95901879Y-110147870D02*
X95854260Y-109957394D01*
X95854260Y-109957394D02*
X95806641Y-109862156D01*
X95806641Y-109862156D02*
X95711403Y-109766918D01*
X95711403Y-109766918D02*
X95568546Y-109719299D01*
X95568546Y-109719299D02*
X95473308Y-109719299D01*
X95473308Y-109719299D02*
X95330451Y-109766918D01*
X95330451Y-109766918D02*
X95282832Y-109814537D01*
X94378070Y-110719299D02*
X94854260Y-110719299D01*
X94854260Y-110719299D02*
X94854260Y-109719299D01*
X65782832Y-120016918D02*
X65878070Y-119969299D01*
X65878070Y-119969299D02*
X66020927Y-119969299D01*
X66020927Y-119969299D02*
X66163784Y-120016918D01*
X66163784Y-120016918D02*
X66259022Y-120112156D01*
X66259022Y-120112156D02*
X66306641Y-120207394D01*
X66306641Y-120207394D02*
X66354260Y-120397870D01*
X66354260Y-120397870D02*
X66354260Y-120540727D01*
X66354260Y-120540727D02*
X66306641Y-120731203D01*
X66306641Y-120731203D02*
X66259022Y-120826441D01*
X66259022Y-120826441D02*
X66163784Y-120921680D01*
X66163784Y-120921680D02*
X66020927Y-120969299D01*
X66020927Y-120969299D02*
X65925689Y-120969299D01*
X65925689Y-120969299D02*
X65782832Y-120921680D01*
X65782832Y-120921680D02*
X65735213Y-120874060D01*
X65735213Y-120874060D02*
X65735213Y-120540727D01*
X65735213Y-120540727D02*
X65925689Y-120540727D01*
X65306641Y-120969299D02*
X65306641Y-119969299D01*
X65306641Y-119969299D02*
X64735213Y-120969299D01*
X64735213Y-120969299D02*
X64735213Y-119969299D01*
X64259022Y-120969299D02*
X64259022Y-119969299D01*
X64259022Y-119969299D02*
X64020927Y-119969299D01*
X64020927Y-119969299D02*
X63878070Y-120016918D01*
X63878070Y-120016918D02*
X63782832Y-120112156D01*
X63782832Y-120112156D02*
X63735213Y-120207394D01*
X63735213Y-120207394D02*
X63687594Y-120397870D01*
X63687594Y-120397870D02*
X63687594Y-120540727D01*
X63687594Y-120540727D02*
X63735213Y-120731203D01*
X63735213Y-120731203D02*
X63782832Y-120826441D01*
X63782832Y-120826441D02*
X63878070Y-120921680D01*
X63878070Y-120921680D02*
X64020927Y-120969299D01*
X64020927Y-120969299D02*
X64259022Y-120969299D01*
X86104260Y-99421680D02*
X85961403Y-99469299D01*
X85961403Y-99469299D02*
X85723308Y-99469299D01*
X85723308Y-99469299D02*
X85628070Y-99421680D01*
X85628070Y-99421680D02*
X85580451Y-99374060D01*
X85580451Y-99374060D02*
X85532832Y-99278822D01*
X85532832Y-99278822D02*
X85532832Y-99183584D01*
X85532832Y-99183584D02*
X85580451Y-99088346D01*
X85580451Y-99088346D02*
X85628070Y-99040727D01*
X85628070Y-99040727D02*
X85723308Y-98993108D01*
X85723308Y-98993108D02*
X85913784Y-98945489D01*
X85913784Y-98945489D02*
X86009022Y-98897870D01*
X86009022Y-98897870D02*
X86056641Y-98850251D01*
X86056641Y-98850251D02*
X86104260Y-98755013D01*
X86104260Y-98755013D02*
X86104260Y-98659775D01*
X86104260Y-98659775D02*
X86056641Y-98564537D01*
X86056641Y-98564537D02*
X86009022Y-98516918D01*
X86009022Y-98516918D02*
X85913784Y-98469299D01*
X85913784Y-98469299D02*
X85675689Y-98469299D01*
X85675689Y-98469299D02*
X85532832Y-98516918D01*
X84437594Y-99564537D02*
X84532832Y-99516918D01*
X84532832Y-99516918D02*
X84628070Y-99421680D01*
X84628070Y-99421680D02*
X84770927Y-99278822D01*
X84770927Y-99278822D02*
X84866165Y-99231203D01*
X84866165Y-99231203D02*
X84961403Y-99231203D01*
X84913784Y-99469299D02*
X85009022Y-99421680D01*
X85009022Y-99421680D02*
X85104260Y-99326441D01*
X85104260Y-99326441D02*
X85151879Y-99135965D01*
X85151879Y-99135965D02*
X85151879Y-98802632D01*
X85151879Y-98802632D02*
X85104260Y-98612156D01*
X85104260Y-98612156D02*
X85009022Y-98516918D01*
X85009022Y-98516918D02*
X84913784Y-98469299D01*
X84913784Y-98469299D02*
X84723308Y-98469299D01*
X84723308Y-98469299D02*
X84628070Y-98516918D01*
X84628070Y-98516918D02*
X84532832Y-98612156D01*
X84532832Y-98612156D02*
X84485213Y-98802632D01*
X84485213Y-98802632D02*
X84485213Y-99135965D01*
X84485213Y-99135965D02*
X84532832Y-99326441D01*
X84532832Y-99326441D02*
X84628070Y-99421680D01*
X84628070Y-99421680D02*
X84723308Y-99469299D01*
X84723308Y-99469299D02*
X84913784Y-99469299D01*
X84151879Y-98469299D02*
X83913784Y-99469299D01*
X83913784Y-99469299D02*
X83723308Y-98755013D01*
X83723308Y-98755013D02*
X83532832Y-99469299D01*
X83532832Y-99469299D02*
X83294737Y-98469299D01*
X89104260Y-114564537D02*
X89056641Y-114516918D01*
X89056641Y-114516918D02*
X88961403Y-114469299D01*
X88961403Y-114469299D02*
X88723308Y-114469299D01*
X88723308Y-114469299D02*
X88628070Y-114516918D01*
X88628070Y-114516918D02*
X88580451Y-114564537D01*
X88580451Y-114564537D02*
X88532832Y-114659775D01*
X88532832Y-114659775D02*
X88532832Y-114755013D01*
X88532832Y-114755013D02*
X88580451Y-114897870D01*
X88580451Y-114897870D02*
X89151879Y-115469299D01*
X89151879Y-115469299D02*
X88532832Y-115469299D01*
X88104260Y-115374060D02*
X88056641Y-115421680D01*
X88056641Y-115421680D02*
X88104260Y-115469299D01*
X88104260Y-115469299D02*
X88151879Y-115421680D01*
X88151879Y-115421680D02*
X88104260Y-115374060D01*
X88104260Y-115374060D02*
X88104260Y-115469299D01*
X87675689Y-114564537D02*
X87628070Y-114516918D01*
X87628070Y-114516918D02*
X87532832Y-114469299D01*
X87532832Y-114469299D02*
X87294737Y-114469299D01*
X87294737Y-114469299D02*
X87199499Y-114516918D01*
X87199499Y-114516918D02*
X87151880Y-114564537D01*
X87151880Y-114564537D02*
X87104261Y-114659775D01*
X87104261Y-114659775D02*
X87104261Y-114755013D01*
X87104261Y-114755013D02*
X87151880Y-114897870D01*
X87151880Y-114897870D02*
X87723308Y-115469299D01*
X87723308Y-115469299D02*
X87104261Y-115469299D01*
X86675689Y-115469299D02*
X86675689Y-114469299D01*
X86675689Y-114469299D02*
X86342356Y-115183584D01*
X86342356Y-115183584D02*
X86009023Y-114469299D01*
X86009023Y-114469299D02*
X86009023Y-115469299D01*
X85532832Y-115469299D02*
X85532832Y-114469299D01*
X85532832Y-114469299D02*
X85199499Y-115183584D01*
X85199499Y-115183584D02*
X84866166Y-114469299D01*
X84866166Y-114469299D02*
X84866166Y-115469299D01*
X83056642Y-115374060D02*
X83104261Y-115421680D01*
X83104261Y-115421680D02*
X83247118Y-115469299D01*
X83247118Y-115469299D02*
X83342356Y-115469299D01*
X83342356Y-115469299D02*
X83485213Y-115421680D01*
X83485213Y-115421680D02*
X83580451Y-115326441D01*
X83580451Y-115326441D02*
X83628070Y-115231203D01*
X83628070Y-115231203D02*
X83675689Y-115040727D01*
X83675689Y-115040727D02*
X83675689Y-114897870D01*
X83675689Y-114897870D02*
X83628070Y-114707394D01*
X83628070Y-114707394D02*
X83580451Y-114612156D01*
X83580451Y-114612156D02*
X83485213Y-114516918D01*
X83485213Y-114516918D02*
X83342356Y-114469299D01*
X83342356Y-114469299D02*
X83247118Y-114469299D01*
X83247118Y-114469299D02*
X83104261Y-114516918D01*
X83104261Y-114516918D02*
X83056642Y-114564537D01*
X82151880Y-115469299D02*
X82628070Y-115469299D01*
X82628070Y-115469299D02*
X82628070Y-114469299D01*
X81818546Y-114945489D02*
X81485213Y-114945489D01*
X81342356Y-115469299D02*
X81818546Y-115469299D01*
X81818546Y-115469299D02*
X81818546Y-114469299D01*
X81818546Y-114469299D02*
X81342356Y-114469299D01*
X80961403Y-115183584D02*
X80485213Y-115183584D01*
X81056641Y-115469299D02*
X80723308Y-114469299D01*
X80723308Y-114469299D02*
X80389975Y-115469299D01*
X79485213Y-115469299D02*
X79818546Y-114993108D01*
X80056641Y-115469299D02*
X80056641Y-114469299D01*
X80056641Y-114469299D02*
X79675689Y-114469299D01*
X79675689Y-114469299D02*
X79580451Y-114516918D01*
X79580451Y-114516918D02*
X79532832Y-114564537D01*
X79532832Y-114564537D02*
X79485213Y-114659775D01*
X79485213Y-114659775D02*
X79485213Y-114802632D01*
X79485213Y-114802632D02*
X79532832Y-114897870D01*
X79532832Y-114897870D02*
X79580451Y-114945489D01*
X79580451Y-114945489D02*
X79675689Y-114993108D01*
X79675689Y-114993108D02*
X80056641Y-114993108D01*
X79104260Y-115183584D02*
X78628070Y-115183584D01*
X79199498Y-115469299D02*
X78866165Y-114469299D01*
X78866165Y-114469299D02*
X78532832Y-115469299D01*
X78199498Y-115469299D02*
X78199498Y-114469299D01*
X78199498Y-114469299D02*
X77628070Y-115469299D01*
X77628070Y-115469299D02*
X77628070Y-114469299D01*
X76580451Y-115374060D02*
X76628070Y-115421680D01*
X76628070Y-115421680D02*
X76770927Y-115469299D01*
X76770927Y-115469299D02*
X76866165Y-115469299D01*
X76866165Y-115469299D02*
X77009022Y-115421680D01*
X77009022Y-115421680D02*
X77104260Y-115326441D01*
X77104260Y-115326441D02*
X77151879Y-115231203D01*
X77151879Y-115231203D02*
X77199498Y-115040727D01*
X77199498Y-115040727D02*
X77199498Y-114897870D01*
X77199498Y-114897870D02*
X77151879Y-114707394D01*
X77151879Y-114707394D02*
X77104260Y-114612156D01*
X77104260Y-114612156D02*
X77009022Y-114516918D01*
X77009022Y-114516918D02*
X76866165Y-114469299D01*
X76866165Y-114469299D02*
X76770927Y-114469299D01*
X76770927Y-114469299D02*
X76628070Y-114516918D01*
X76628070Y-114516918D02*
X76580451Y-114564537D01*
X76151879Y-114945489D02*
X75818546Y-114945489D01*
X75675689Y-115469299D02*
X76151879Y-115469299D01*
X76151879Y-115469299D02*
X76151879Y-114469299D01*
X76151879Y-114469299D02*
X75675689Y-114469299D01*
X114532832Y-106016918D02*
X114628070Y-105969299D01*
X114628070Y-105969299D02*
X114770927Y-105969299D01*
X114770927Y-105969299D02*
X114913784Y-106016918D01*
X114913784Y-106016918D02*
X115009022Y-106112156D01*
X115009022Y-106112156D02*
X115056641Y-106207394D01*
X115056641Y-106207394D02*
X115104260Y-106397870D01*
X115104260Y-106397870D02*
X115104260Y-106540727D01*
X115104260Y-106540727D02*
X115056641Y-106731203D01*
X115056641Y-106731203D02*
X115009022Y-106826441D01*
X115009022Y-106826441D02*
X114913784Y-106921680D01*
X114913784Y-106921680D02*
X114770927Y-106969299D01*
X114770927Y-106969299D02*
X114675689Y-106969299D01*
X114675689Y-106969299D02*
X114532832Y-106921680D01*
X114532832Y-106921680D02*
X114485213Y-106874060D01*
X114485213Y-106874060D02*
X114485213Y-106540727D01*
X114485213Y-106540727D02*
X114675689Y-106540727D01*
X114056641Y-106969299D02*
X114056641Y-105969299D01*
X114056641Y-105969299D02*
X113485213Y-106969299D01*
X113485213Y-106969299D02*
X113485213Y-105969299D01*
X113009022Y-106969299D02*
X113009022Y-105969299D01*
X113009022Y-105969299D02*
X112770927Y-105969299D01*
X112770927Y-105969299D02*
X112628070Y-106016918D01*
X112628070Y-106016918D02*
X112532832Y-106112156D01*
X112532832Y-106112156D02*
X112485213Y-106207394D01*
X112485213Y-106207394D02*
X112437594Y-106397870D01*
X112437594Y-106397870D02*
X112437594Y-106540727D01*
X112437594Y-106540727D02*
X112485213Y-106731203D01*
X112485213Y-106731203D02*
X112532832Y-106826441D01*
X112532832Y-106826441D02*
X112628070Y-106921680D01*
X112628070Y-106921680D02*
X112770927Y-106969299D01*
X112770927Y-106969299D02*
X113009022Y-106969299D01*
X115104260Y-101921680D02*
X114961403Y-101969299D01*
X114961403Y-101969299D02*
X114723308Y-101969299D01*
X114723308Y-101969299D02*
X114628070Y-101921680D01*
X114628070Y-101921680D02*
X114580451Y-101874060D01*
X114580451Y-101874060D02*
X114532832Y-101778822D01*
X114532832Y-101778822D02*
X114532832Y-101683584D01*
X114532832Y-101683584D02*
X114580451Y-101588346D01*
X114580451Y-101588346D02*
X114628070Y-101540727D01*
X114628070Y-101540727D02*
X114723308Y-101493108D01*
X114723308Y-101493108D02*
X114913784Y-101445489D01*
X114913784Y-101445489D02*
X115009022Y-101397870D01*
X115009022Y-101397870D02*
X115056641Y-101350251D01*
X115056641Y-101350251D02*
X115104260Y-101255013D01*
X115104260Y-101255013D02*
X115104260Y-101159775D01*
X115104260Y-101159775D02*
X115056641Y-101064537D01*
X115056641Y-101064537D02*
X115009022Y-101016918D01*
X115009022Y-101016918D02*
X114913784Y-100969299D01*
X114913784Y-100969299D02*
X114675689Y-100969299D01*
X114675689Y-100969299D02*
X114532832Y-101016918D01*
X114104260Y-101969299D02*
X114104260Y-100969299D01*
X114104260Y-100969299D02*
X113866165Y-100969299D01*
X113866165Y-100969299D02*
X113723308Y-101016918D01*
X113723308Y-101016918D02*
X113628070Y-101112156D01*
X113628070Y-101112156D02*
X113580451Y-101207394D01*
X113580451Y-101207394D02*
X113532832Y-101397870D01*
X113532832Y-101397870D02*
X113532832Y-101540727D01*
X113532832Y-101540727D02*
X113580451Y-101731203D01*
X113580451Y-101731203D02*
X113628070Y-101826441D01*
X113628070Y-101826441D02*
X113723308Y-101921680D01*
X113723308Y-101921680D02*
X113866165Y-101969299D01*
X113866165Y-101969299D02*
X114104260Y-101969299D01*
X113151879Y-101683584D02*
X112675689Y-101683584D01*
X113247117Y-101969299D02*
X112913784Y-100969299D01*
X112913784Y-100969299D02*
X112580451Y-101969299D01*
X86104260Y-101921680D02*
X85961403Y-101969299D01*
X85961403Y-101969299D02*
X85723308Y-101969299D01*
X85723308Y-101969299D02*
X85628070Y-101921680D01*
X85628070Y-101921680D02*
X85580451Y-101874060D01*
X85580451Y-101874060D02*
X85532832Y-101778822D01*
X85532832Y-101778822D02*
X85532832Y-101683584D01*
X85532832Y-101683584D02*
X85580451Y-101588346D01*
X85580451Y-101588346D02*
X85628070Y-101540727D01*
X85628070Y-101540727D02*
X85723308Y-101493108D01*
X85723308Y-101493108D02*
X85913784Y-101445489D01*
X85913784Y-101445489D02*
X86009022Y-101397870D01*
X86009022Y-101397870D02*
X86056641Y-101350251D01*
X86056641Y-101350251D02*
X86104260Y-101255013D01*
X86104260Y-101255013D02*
X86104260Y-101159775D01*
X86104260Y-101159775D02*
X86056641Y-101064537D01*
X86056641Y-101064537D02*
X86009022Y-101016918D01*
X86009022Y-101016918D02*
X85913784Y-100969299D01*
X85913784Y-100969299D02*
X85675689Y-100969299D01*
X85675689Y-100969299D02*
X85532832Y-101016918D01*
X84532832Y-101874060D02*
X84580451Y-101921680D01*
X84580451Y-101921680D02*
X84723308Y-101969299D01*
X84723308Y-101969299D02*
X84818546Y-101969299D01*
X84818546Y-101969299D02*
X84961403Y-101921680D01*
X84961403Y-101921680D02*
X85056641Y-101826441D01*
X85056641Y-101826441D02*
X85104260Y-101731203D01*
X85104260Y-101731203D02*
X85151879Y-101540727D01*
X85151879Y-101540727D02*
X85151879Y-101397870D01*
X85151879Y-101397870D02*
X85104260Y-101207394D01*
X85104260Y-101207394D02*
X85056641Y-101112156D01*
X85056641Y-101112156D02*
X84961403Y-101016918D01*
X84961403Y-101016918D02*
X84818546Y-100969299D01*
X84818546Y-100969299D02*
X84723308Y-100969299D01*
X84723308Y-100969299D02*
X84580451Y-101016918D01*
X84580451Y-101016918D02*
X84532832Y-101064537D01*
X83628070Y-101969299D02*
X84104260Y-101969299D01*
X84104260Y-101969299D02*
X84104260Y-100969299D01*
X115199498Y-103469299D02*
X114866165Y-104469299D01*
X114866165Y-104469299D02*
X114532832Y-103469299D01*
X113628070Y-104374060D02*
X113675689Y-104421680D01*
X113675689Y-104421680D02*
X113818546Y-104469299D01*
X113818546Y-104469299D02*
X113913784Y-104469299D01*
X113913784Y-104469299D02*
X114056641Y-104421680D01*
X114056641Y-104421680D02*
X114151879Y-104326441D01*
X114151879Y-104326441D02*
X114199498Y-104231203D01*
X114199498Y-104231203D02*
X114247117Y-104040727D01*
X114247117Y-104040727D02*
X114247117Y-103897870D01*
X114247117Y-103897870D02*
X114199498Y-103707394D01*
X114199498Y-103707394D02*
X114151879Y-103612156D01*
X114151879Y-103612156D02*
X114056641Y-103516918D01*
X114056641Y-103516918D02*
X113913784Y-103469299D01*
X113913784Y-103469299D02*
X113818546Y-103469299D01*
X113818546Y-103469299D02*
X113675689Y-103516918D01*
X113675689Y-103516918D02*
X113628070Y-103564537D01*
X112628070Y-104374060D02*
X112675689Y-104421680D01*
X112675689Y-104421680D02*
X112818546Y-104469299D01*
X112818546Y-104469299D02*
X112913784Y-104469299D01*
X112913784Y-104469299D02*
X113056641Y-104421680D01*
X113056641Y-104421680D02*
X113151879Y-104326441D01*
X113151879Y-104326441D02*
X113199498Y-104231203D01*
X113199498Y-104231203D02*
X113247117Y-104040727D01*
X113247117Y-104040727D02*
X113247117Y-103897870D01*
X113247117Y-103897870D02*
X113199498Y-103707394D01*
X113199498Y-103707394D02*
X113151879Y-103612156D01*
X113151879Y-103612156D02*
X113056641Y-103516918D01*
X113056641Y-103516918D02*
X112913784Y-103469299D01*
X112913784Y-103469299D02*
X112818546Y-103469299D01*
X112818546Y-103469299D02*
X112675689Y-103516918D01*
X112675689Y-103516918D02*
X112628070Y-103564537D01*
X66449498Y-117219299D02*
X66116165Y-118219299D01*
X66116165Y-118219299D02*
X65782832Y-117219299D01*
X64878070Y-118124060D02*
X64925689Y-118171680D01*
X64925689Y-118171680D02*
X65068546Y-118219299D01*
X65068546Y-118219299D02*
X65163784Y-118219299D01*
X65163784Y-118219299D02*
X65306641Y-118171680D01*
X65306641Y-118171680D02*
X65401879Y-118076441D01*
X65401879Y-118076441D02*
X65449498Y-117981203D01*
X65449498Y-117981203D02*
X65497117Y-117790727D01*
X65497117Y-117790727D02*
X65497117Y-117647870D01*
X65497117Y-117647870D02*
X65449498Y-117457394D01*
X65449498Y-117457394D02*
X65401879Y-117362156D01*
X65401879Y-117362156D02*
X65306641Y-117266918D01*
X65306641Y-117266918D02*
X65163784Y-117219299D01*
X65163784Y-117219299D02*
X65068546Y-117219299D01*
X65068546Y-117219299D02*
X64925689Y-117266918D01*
X64925689Y-117266918D02*
X64878070Y-117314537D01*
X63878070Y-118124060D02*
X63925689Y-118171680D01*
X63925689Y-118171680D02*
X64068546Y-118219299D01*
X64068546Y-118219299D02*
X64163784Y-118219299D01*
X64163784Y-118219299D02*
X64306641Y-118171680D01*
X64306641Y-118171680D02*
X64401879Y-118076441D01*
X64401879Y-118076441D02*
X64449498Y-117981203D01*
X64449498Y-117981203D02*
X64497117Y-117790727D01*
X64497117Y-117790727D02*
X64497117Y-117647870D01*
X64497117Y-117647870D02*
X64449498Y-117457394D01*
X64449498Y-117457394D02*
X64401879Y-117362156D01*
X64401879Y-117362156D02*
X64306641Y-117266918D01*
X64306641Y-117266918D02*
X64163784Y-117219299D01*
X64163784Y-117219299D02*
X64068546Y-117219299D01*
X64068546Y-117219299D02*
X63925689Y-117266918D01*
X63925689Y-117266918D02*
X63878070Y-117314537D01*
X96854260Y-113171680D02*
X96711403Y-113219299D01*
X96711403Y-113219299D02*
X96473308Y-113219299D01*
X96473308Y-113219299D02*
X96378070Y-113171680D01*
X96378070Y-113171680D02*
X96330451Y-113124060D01*
X96330451Y-113124060D02*
X96282832Y-113028822D01*
X96282832Y-113028822D02*
X96282832Y-112933584D01*
X96282832Y-112933584D02*
X96330451Y-112838346D01*
X96330451Y-112838346D02*
X96378070Y-112790727D01*
X96378070Y-112790727D02*
X96473308Y-112743108D01*
X96473308Y-112743108D02*
X96663784Y-112695489D01*
X96663784Y-112695489D02*
X96759022Y-112647870D01*
X96759022Y-112647870D02*
X96806641Y-112600251D01*
X96806641Y-112600251D02*
X96854260Y-112505013D01*
X96854260Y-112505013D02*
X96854260Y-112409775D01*
X96854260Y-112409775D02*
X96806641Y-112314537D01*
X96806641Y-112314537D02*
X96759022Y-112266918D01*
X96759022Y-112266918D02*
X96663784Y-112219299D01*
X96663784Y-112219299D02*
X96425689Y-112219299D01*
X96425689Y-112219299D02*
X96282832Y-112266918D01*
X95854260Y-113219299D02*
X95854260Y-112219299D01*
X95854260Y-112219299D02*
X95616165Y-112219299D01*
X95616165Y-112219299D02*
X95473308Y-112266918D01*
X95473308Y-112266918D02*
X95378070Y-112362156D01*
X95378070Y-112362156D02*
X95330451Y-112457394D01*
X95330451Y-112457394D02*
X95282832Y-112647870D01*
X95282832Y-112647870D02*
X95282832Y-112790727D01*
X95282832Y-112790727D02*
X95330451Y-112981203D01*
X95330451Y-112981203D02*
X95378070Y-113076441D01*
X95378070Y-113076441D02*
X95473308Y-113171680D01*
X95473308Y-113171680D02*
X95616165Y-113219299D01*
X95616165Y-113219299D02*
X95854260Y-113219299D01*
X94901879Y-112933584D02*
X94425689Y-112933584D01*
X94997117Y-113219299D02*
X94663784Y-112219299D01*
X94663784Y-112219299D02*
X94330451Y-113219299D01*
D11*
%TO.C,U1*%
X35500000Y-104300000D02*
X35500000Y-124300000D01*
X35500000Y-124300000D02*
X58000000Y-124300000D01*
X58000000Y-104300000D02*
X35500000Y-104300000D01*
X58000000Y-124300000D02*
X58000000Y-104300000D01*
%TO.C,U6*%
X60800000Y-104000000D02*
X60900000Y-124000000D01*
X60900000Y-124000000D02*
X62300000Y-125400000D01*
X62200000Y-102600000D02*
X60800000Y-104000000D01*
X62300000Y-125400000D02*
X98000000Y-125400000D01*
X79400000Y-106100000D02*
X77900000Y-107600000D01*
X80900000Y-106100000D02*
X77900000Y-109100000D01*
X82400000Y-106100000D02*
X77900000Y-110600000D01*
X82400000Y-113600000D02*
X88400000Y-107600000D01*
X83900000Y-106100000D02*
X77900000Y-112100000D01*
X83900000Y-113600000D02*
X88400000Y-109100000D01*
X85400000Y-106100000D02*
X77900000Y-113600000D01*
X85400000Y-113600000D02*
X88400000Y-110600000D01*
X86900000Y-106100000D02*
X79400000Y-113600000D01*
X88400000Y-106100000D02*
X80900000Y-113600000D01*
X88400000Y-112100000D02*
X86900000Y-113600000D01*
X98000000Y-102600000D02*
X62200000Y-102600000D01*
X99400000Y-104000000D02*
X98000000Y-102600000D01*
X99400000Y-124000000D02*
X98000000Y-125400000D01*
X99400000Y-124000000D02*
X99400000Y-104000000D01*
X88400000Y-106100000D02*
X77900000Y-106100000D01*
X77900000Y-113600000D01*
X88400000Y-113600000D01*
X88400000Y-106100000D01*
%TD*%
%LPC*%
D12*
%TO.C,U2*%
X49600000Y-42050000D03*
X49600000Y-63550000D03*
X109600000Y-42050000D03*
X109600000Y-63550000D03*
D13*
X49600000Y-49500000D03*
X49600000Y-52040000D03*
X49600000Y-54580000D03*
X49600000Y-57120000D03*
X106400000Y-49500000D03*
X106400000Y-52040000D03*
X106400000Y-54580000D03*
X106400000Y-57120000D03*
%TD*%
D14*
%TO.C,P_GND1*%
X124460000Y-101600000D03*
%TD*%
D15*
%TO.C,SW2*%
X115570000Y-43180000D03*
X128270000Y-43180000D03*
X115570000Y-48260000D03*
X128270000Y-48260000D03*
%TD*%
D16*
%TO.C,H7*%
X90000000Y-35000000D03*
%TD*%
%TO.C,H5*%
X40000000Y-35000000D03*
%TD*%
%TO.C,H8*%
X40000000Y-130000000D03*
%TD*%
D14*
%TO.C,P_3V3*%
X116840000Y-93980000D03*
%TD*%
D16*
%TO.C,H10*%
X135000000Y-130000000D03*
%TD*%
D17*
%TO.C,BZ1*%
X120660000Y-107960000D03*
D18*
X120660000Y-115560000D03*
%TD*%
D15*
%TO.C,SW3*%
X115570000Y-60960000D03*
X128270000Y-60960000D03*
X115570000Y-66040000D03*
X128270000Y-66040000D03*
%TD*%
D14*
%TO.C,P_D7*%
X106700000Y-106900000D03*
%TD*%
D16*
%TO.C,H11*%
X135000000Y-80000000D03*
%TD*%
D14*
%TO.C,P_D5*%
X41000000Y-88800000D03*
%TD*%
%TO.C,P_GND2*%
X124460000Y-93980000D03*
%TD*%
%TO.C,P_D4*%
X105000000Y-122100000D03*
%TD*%
D15*
%TO.C,SW4*%
X115570000Y-78740000D03*
X128270000Y-78740000D03*
X115570000Y-83820000D03*
X128270000Y-83820000D03*
%TD*%
D16*
%TO.C,H9*%
X90000000Y-130000000D03*
%TD*%
%TO.C,H6*%
X135000000Y-35000000D03*
%TD*%
D12*
%TO.C,U4*%
X49600000Y-73850000D03*
X49600000Y-95350000D03*
X109600000Y-73850000D03*
X109600000Y-95350000D03*
D13*
X49600000Y-81300000D03*
X49600000Y-83840000D03*
X49600000Y-86380000D03*
X49600000Y-88920000D03*
X106400000Y-81300000D03*
X106400000Y-83840000D03*
X106400000Y-86380000D03*
X106400000Y-88920000D03*
%TD*%
D14*
%TO.C,P_5V1*%
X116840000Y-101600000D03*
%TD*%
D16*
%TO.C,H12*%
X40000000Y-80000000D03*
%TD*%
D19*
%TO.C,U1*%
X56113000Y-122174000D03*
X53573000Y-122174000D03*
X51033000Y-122174000D03*
X48493000Y-122174000D03*
X43413000Y-122174000D03*
X45953000Y-122174000D03*
X38333000Y-106553000D03*
X38333000Y-122174000D03*
X40873000Y-106553000D03*
X43413000Y-106553000D03*
X45953000Y-106553000D03*
X48493000Y-106553000D03*
X51033000Y-106553000D03*
X53573000Y-106553000D03*
X56113000Y-106553000D03*
X40873000Y-122174000D03*
%TD*%
D20*
%TO.C,U6*%
X95000000Y-105000000D03*
X68500000Y-123000000D03*
D21*
X68500000Y-105000000D03*
D22*
X98130000Y-110220000D03*
X98130000Y-112760000D03*
X98130000Y-115300000D03*
X98130000Y-117840000D03*
X62080000Y-107650000D03*
X62080000Y-110190000D03*
X62080000Y-112730000D03*
X62080000Y-115270000D03*
X62080000Y-117810000D03*
X62080000Y-120350000D03*
%TD*%
%LPD*%
M02*
