%TF.GenerationSoftware,KiCad,Pcbnew,9.0.2*%
%TF.CreationDate,2025-05-12T22:54:10+08:00*%
%TF.ProjectId,paxclock_a,70617863-6c6f-4636-9b5f-612e6b696361,rev?*%
%TF.SameCoordinates,Original*%
%TF.FileFunction,Soldermask,Top*%
%TF.FilePolarity,Negative*%
%FSLAX46Y46*%
G04 Gerber Fmt 4.6, Leading zero omitted, Abs format (unit mm)*
G04 Created by KiCad (PCBNEW 9.0.2) date 2025-05-12 22:54:10*
%MOMM*%
%LPD*%
G01*
G04 APERTURE LIST*
G04 Aperture macros list*
%AMRoundRect*
0 Rectangle with rounded corners*
0 $1 Rounding radius*
0 $2 $3 $4 $5 $6 $7 $8 $9 X,Y pos of 4 corners*
0 Add a 4 corners polygon primitive as box body*
4,1,4,$2,$3,$4,$5,$6,$7,$8,$9,$2,$3,0*
0 Add four circle primitives for the rounded corners*
1,1,$1+$1,$2,$3*
1,1,$1+$1,$4,$5*
1,1,$1+$1,$6,$7*
1,1,$1+$1,$8,$9*
0 Add four rect primitives between the rounded corners*
20,1,$1+$1,$2,$3,$4,$5,0*
20,1,$1+$1,$4,$5,$6,$7,0*
20,1,$1+$1,$6,$7,$8,$9,0*
20,1,$1+$1,$8,$9,$2,$3,0*%
G04 Aperture macros list end*
%ADD10C,4.000000*%
%ADD11RoundRect,0.190500X-1.079500X-0.444500X1.079500X-0.444500X1.079500X0.444500X-1.079500X0.444500X0*%
%ADD12C,3.000000*%
%ADD13RoundRect,0.190500X0.444500X-1.079500X0.444500X1.079500X-0.444500X1.079500X-0.444500X-1.079500X0*%
%ADD14C,5.700000*%
%ADD15R,2.000000X2.000000*%
%ADD16C,2.000000*%
%ADD17RoundRect,0.190500X-0.444500X1.079500X-0.444500X-1.079500X0.444500X-1.079500X0.444500X1.079500X0*%
%ADD18C,2.540000*%
%ADD19C,2.430000*%
%ADD20C,1.200000*%
G04 APERTURE END LIST*
D10*
%TO.C,U2*%
X49600000Y-42050000D03*
X49600000Y-63550000D03*
X109600000Y-42050000D03*
X109600000Y-63550000D03*
D11*
X49600000Y-49500000D03*
X49600000Y-52040000D03*
X49600000Y-54580000D03*
X49600000Y-57120000D03*
X106400000Y-49500000D03*
X106400000Y-52040000D03*
X106400000Y-54580000D03*
X106400000Y-57120000D03*
%TD*%
D12*
%TO.C,P_GND1*%
X124460000Y-101600000D03*
%TD*%
D13*
%TO.C,SW2*%
X115570000Y-43180000D03*
X128270000Y-43180000D03*
X115570000Y-48260000D03*
X128270000Y-48260000D03*
%TD*%
D14*
%TO.C,H7*%
X90000000Y-35000000D03*
%TD*%
%TO.C,H5*%
X40000000Y-35000000D03*
%TD*%
%TO.C,H8*%
X40000000Y-130000000D03*
%TD*%
D12*
%TO.C,P_3V3*%
X116840000Y-93980000D03*
%TD*%
D14*
%TO.C,H10*%
X135000000Y-130000000D03*
%TD*%
D15*
%TO.C,BZ1*%
X120660000Y-107960000D03*
D16*
X120660000Y-115560000D03*
%TD*%
D13*
%TO.C,SW3*%
X115570000Y-60960000D03*
X128270000Y-60960000D03*
X115570000Y-66040000D03*
X128270000Y-66040000D03*
%TD*%
D12*
%TO.C,P_D7*%
X106700000Y-106900000D03*
%TD*%
D14*
%TO.C,H11*%
X135000000Y-80000000D03*
%TD*%
D12*
%TO.C,P_D5*%
X41000000Y-88800000D03*
%TD*%
%TO.C,P_GND2*%
X124460000Y-93980000D03*
%TD*%
%TO.C,P_D4*%
X105000000Y-122100000D03*
%TD*%
D13*
%TO.C,SW4*%
X115570000Y-78740000D03*
X128270000Y-78740000D03*
X115570000Y-83820000D03*
X128270000Y-83820000D03*
%TD*%
D14*
%TO.C,H9*%
X90000000Y-130000000D03*
%TD*%
%TO.C,H6*%
X135000000Y-35000000D03*
%TD*%
D10*
%TO.C,U4*%
X49600000Y-73850000D03*
X49600000Y-95350000D03*
X109600000Y-73850000D03*
X109600000Y-95350000D03*
D11*
X49600000Y-81300000D03*
X49600000Y-83840000D03*
X49600000Y-86380000D03*
X49600000Y-88920000D03*
X106400000Y-81300000D03*
X106400000Y-83840000D03*
X106400000Y-86380000D03*
X106400000Y-88920000D03*
%TD*%
D12*
%TO.C,P_5V1*%
X116840000Y-101600000D03*
%TD*%
D14*
%TO.C,H12*%
X40000000Y-80000000D03*
%TD*%
D17*
%TO.C,U1*%
X56113000Y-122174000D03*
X53573000Y-122174000D03*
X51033000Y-122174000D03*
X48493000Y-122174000D03*
X43413000Y-122174000D03*
X45953000Y-122174000D03*
X38333000Y-106553000D03*
X38333000Y-122174000D03*
X40873000Y-106553000D03*
X43413000Y-106553000D03*
X45953000Y-106553000D03*
X48493000Y-106553000D03*
X51033000Y-106553000D03*
X53573000Y-106553000D03*
X56113000Y-106553000D03*
X40873000Y-122174000D03*
%TD*%
D18*
%TO.C,U6*%
X95000000Y-105000000D03*
X68500000Y-123000000D03*
D19*
X68500000Y-105000000D03*
D20*
X98130000Y-110220000D03*
X98130000Y-112760000D03*
X98130000Y-115300000D03*
X98130000Y-117840000D03*
X62080000Y-107650000D03*
X62080000Y-110190000D03*
X62080000Y-112730000D03*
X62080000Y-115270000D03*
X62080000Y-117810000D03*
X62080000Y-120350000D03*
%TD*%
M02*
