%TF.GenerationSoftware,KiCad,Pcbnew,9.0.2*%
%TF.CreationDate,2025-05-12T22:54:16+08:00*%
%TF.ProjectId,paxclock_a,70617863-6c6f-4636-9b5f-612e6b696361,rev?*%
%TF.SameCoordinates,Original*%
%TF.FileFunction,Drillmap*%
%TF.FilePolarity,Positive*%
%FSLAX45Y45*%
G04 Gerber Fmt 4.5, Leading zero omitted, Abs format (unit mm)*
G04 Created by KiCad (PCBNEW 9.0.2) date 2025-05-12 22:54:16*
%MOMM*%
%LPD*%
G01*
G04 APERTURE LIST*
%ADD10C,0.038100*%
%ADD11C,0.100000*%
%ADD12C,0.200000*%
G04 APERTURE END LIST*
D10*
X14000000Y-13500000D02*
X3500000Y-13500000D01*
D11*
X14000000Y-13500000D02*
X14000000Y-3000000D01*
D10*
X3500000Y-13500000D02*
X3500000Y-3000000D01*
X14000000Y-3000000D02*
X3500000Y-3000000D01*
D12*
X3758872Y-13816484D02*
X3758872Y-13616484D01*
X3758872Y-13616484D02*
X3806491Y-13616484D01*
X3806491Y-13616484D02*
X3835062Y-13626008D01*
X3835062Y-13626008D02*
X3854110Y-13645055D01*
X3854110Y-13645055D02*
X3863634Y-13664103D01*
X3863634Y-13664103D02*
X3873157Y-13702198D01*
X3873157Y-13702198D02*
X3873157Y-13730769D01*
X3873157Y-13730769D02*
X3863634Y-13768865D01*
X3863634Y-13768865D02*
X3854110Y-13787912D01*
X3854110Y-13787912D02*
X3835062Y-13806960D01*
X3835062Y-13806960D02*
X3806491Y-13816484D01*
X3806491Y-13816484D02*
X3758872Y-13816484D01*
X3958872Y-13816484D02*
X3958872Y-13683150D01*
X3958872Y-13721246D02*
X3968396Y-13702198D01*
X3968396Y-13702198D02*
X3977919Y-13692674D01*
X3977919Y-13692674D02*
X3996967Y-13683150D01*
X3996967Y-13683150D02*
X4016015Y-13683150D01*
X4082681Y-13816484D02*
X4082681Y-13683150D01*
X4082681Y-13616484D02*
X4073157Y-13626008D01*
X4073157Y-13626008D02*
X4082681Y-13635531D01*
X4082681Y-13635531D02*
X4092205Y-13626008D01*
X4092205Y-13626008D02*
X4082681Y-13616484D01*
X4082681Y-13616484D02*
X4082681Y-13635531D01*
X4206491Y-13816484D02*
X4187443Y-13806960D01*
X4187443Y-13806960D02*
X4177919Y-13787912D01*
X4177919Y-13787912D02*
X4177919Y-13616484D01*
X4311253Y-13816484D02*
X4292205Y-13806960D01*
X4292205Y-13806960D02*
X4282681Y-13787912D01*
X4282681Y-13787912D02*
X4282681Y-13616484D01*
X4539824Y-13816484D02*
X4539824Y-13616484D01*
X4539824Y-13616484D02*
X4606491Y-13759341D01*
X4606491Y-13759341D02*
X4673158Y-13616484D01*
X4673158Y-13616484D02*
X4673158Y-13816484D01*
X4854110Y-13816484D02*
X4854110Y-13711722D01*
X4854110Y-13711722D02*
X4844586Y-13692674D01*
X4844586Y-13692674D02*
X4825539Y-13683150D01*
X4825539Y-13683150D02*
X4787443Y-13683150D01*
X4787443Y-13683150D02*
X4768396Y-13692674D01*
X4854110Y-13806960D02*
X4835062Y-13816484D01*
X4835062Y-13816484D02*
X4787443Y-13816484D01*
X4787443Y-13816484D02*
X4768396Y-13806960D01*
X4768396Y-13806960D02*
X4758872Y-13787912D01*
X4758872Y-13787912D02*
X4758872Y-13768865D01*
X4758872Y-13768865D02*
X4768396Y-13749817D01*
X4768396Y-13749817D02*
X4787443Y-13740293D01*
X4787443Y-13740293D02*
X4835062Y-13740293D01*
X4835062Y-13740293D02*
X4854110Y-13730769D01*
X4949348Y-13683150D02*
X4949348Y-13883150D01*
X4949348Y-13692674D02*
X4968396Y-13683150D01*
X4968396Y-13683150D02*
X5006491Y-13683150D01*
X5006491Y-13683150D02*
X5025539Y-13692674D01*
X5025539Y-13692674D02*
X5035062Y-13702198D01*
X5035062Y-13702198D02*
X5044586Y-13721246D01*
X5044586Y-13721246D02*
X5044586Y-13778388D01*
X5044586Y-13778388D02*
X5035062Y-13797436D01*
X5035062Y-13797436D02*
X5025539Y-13806960D01*
X5025539Y-13806960D02*
X5006491Y-13816484D01*
X5006491Y-13816484D02*
X4968396Y-13816484D01*
X4968396Y-13816484D02*
X4949348Y-13806960D01*
X5130300Y-13797436D02*
X5139824Y-13806960D01*
X5139824Y-13806960D02*
X5130300Y-13816484D01*
X5130300Y-13816484D02*
X5120777Y-13806960D01*
X5120777Y-13806960D02*
X5130300Y-13797436D01*
X5130300Y-13797436D02*
X5130300Y-13816484D01*
X5130300Y-13692674D02*
X5139824Y-13702198D01*
X5139824Y-13702198D02*
X5130300Y-13711722D01*
X5130300Y-13711722D02*
X5120777Y-13702198D01*
X5120777Y-13702198D02*
X5130300Y-13692674D01*
X5130300Y-13692674D02*
X5130300Y-13711722D01*
M02*
