%TF.GenerationSoftware,KiCad,Pcbnew,9.0.2*%
%TF.CreationDate,2025-05-12T22:54:10+08:00*%
%TF.ProjectId,paxclock_a,70617863-6c6f-4636-9b5f-612e6b696361,rev?*%
%TF.SameCoordinates,Original*%
%TF.FileFunction,Legend,Top*%
%TF.FilePolarity,Positive*%
%FSLAX46Y46*%
G04 Gerber Fmt 4.6, Leading zero omitted, Abs format (unit mm)*
G04 Created by KiCad (PCBNEW 9.0.2) date 2025-05-12 22:54:10*
%MOMM*%
%LPD*%
G01*
G04 APERTURE LIST*
G04 Aperture macros list*
%AMRoundRect*
0 Rectangle with rounded corners*
0 $1 Rounding radius*
0 $2 $3 $4 $5 $6 $7 $8 $9 X,Y pos of 4 corners*
0 Add a 4 corners polygon primitive as box body*
4,1,4,$2,$3,$4,$5,$6,$7,$8,$9,$2,$3,0*
0 Add four circle primitives for the rounded corners*
1,1,$1+$1,$2,$3*
1,1,$1+$1,$4,$5*
1,1,$1+$1,$6,$7*
1,1,$1+$1,$8,$9*
0 Add four rect primitives between the rounded corners*
20,1,$1+$1,$2,$3,$4,$5,0*
20,1,$1+$1,$4,$5,$6,$7,0*
20,1,$1+$1,$6,$7,$8,$9,0*
20,1,$1+$1,$8,$9,$2,$3,0*%
G04 Aperture macros list end*
%ADD10C,0.160000*%
%ADD11C,0.100000*%
%ADD12C,0.120000*%
%ADD13C,4.000000*%
%ADD14RoundRect,0.190500X-1.079500X-0.444500X1.079500X-0.444500X1.079500X0.444500X-1.079500X0.444500X0*%
%ADD15C,3.000000*%
%ADD16RoundRect,0.190500X0.444500X-1.079500X0.444500X1.079500X-0.444500X1.079500X-0.444500X-1.079500X0*%
%ADD17C,5.700000*%
%ADD18R,2.000000X2.000000*%
%ADD19C,2.000000*%
%ADD20RoundRect,0.190500X-0.444500X1.079500X-0.444500X-1.079500X0.444500X-1.079500X0.444500X1.079500X0*%
%ADD21C,2.540000*%
%ADD22C,2.430000*%
%ADD23C,1.200000*%
G04 APERTURE END LIST*
D10*
X112962405Y-122478276D02*
X112962405Y-120978276D01*
X112962405Y-120978276D02*
X113533834Y-120978276D01*
X113533834Y-120978276D02*
X113676691Y-121049705D01*
X113676691Y-121049705D02*
X113748120Y-121121133D01*
X113748120Y-121121133D02*
X113819548Y-121263990D01*
X113819548Y-121263990D02*
X113819548Y-121478276D01*
X113819548Y-121478276D02*
X113748120Y-121621133D01*
X113748120Y-121621133D02*
X113676691Y-121692562D01*
X113676691Y-121692562D02*
X113533834Y-121763990D01*
X113533834Y-121763990D02*
X112962405Y-121763990D01*
X115105263Y-122478276D02*
X115105263Y-121692562D01*
X115105263Y-121692562D02*
X115033834Y-121549705D01*
X115033834Y-121549705D02*
X114890977Y-121478276D01*
X114890977Y-121478276D02*
X114605263Y-121478276D01*
X114605263Y-121478276D02*
X114462405Y-121549705D01*
X115105263Y-122406848D02*
X114962405Y-122478276D01*
X114962405Y-122478276D02*
X114605263Y-122478276D01*
X114605263Y-122478276D02*
X114462405Y-122406848D01*
X114462405Y-122406848D02*
X114390977Y-122263990D01*
X114390977Y-122263990D02*
X114390977Y-122121133D01*
X114390977Y-122121133D02*
X114462405Y-121978276D01*
X114462405Y-121978276D02*
X114605263Y-121906848D01*
X114605263Y-121906848D02*
X114962405Y-121906848D01*
X114962405Y-121906848D02*
X115105263Y-121835419D01*
X115676691Y-122478276D02*
X116462406Y-121478276D01*
X115676691Y-121478276D02*
X116462406Y-122478276D01*
X117033834Y-122478276D02*
X117033834Y-121478276D01*
X117033834Y-121763990D02*
X117105263Y-121621133D01*
X117105263Y-121621133D02*
X117176692Y-121549705D01*
X117176692Y-121549705D02*
X117319549Y-121478276D01*
X117319549Y-121478276D02*
X117462406Y-121478276D01*
X117962405Y-122478276D02*
X117962405Y-121478276D01*
X117962405Y-120978276D02*
X117890977Y-121049705D01*
X117890977Y-121049705D02*
X117962405Y-121121133D01*
X117962405Y-121121133D02*
X118033834Y-121049705D01*
X118033834Y-121049705D02*
X117962405Y-120978276D01*
X117962405Y-120978276D02*
X117962405Y-121121133D01*
X119248120Y-122406848D02*
X119105263Y-122478276D01*
X119105263Y-122478276D02*
X118819549Y-122478276D01*
X118819549Y-122478276D02*
X118676691Y-122406848D01*
X118676691Y-122406848D02*
X118605263Y-122263990D01*
X118605263Y-122263990D02*
X118605263Y-121692562D01*
X118605263Y-121692562D02*
X118676691Y-121549705D01*
X118676691Y-121549705D02*
X118819549Y-121478276D01*
X118819549Y-121478276D02*
X119105263Y-121478276D01*
X119105263Y-121478276D02*
X119248120Y-121549705D01*
X119248120Y-121549705D02*
X119319549Y-121692562D01*
X119319549Y-121692562D02*
X119319549Y-121835419D01*
X119319549Y-121835419D02*
X118605263Y-121978276D01*
X120176691Y-122478276D02*
X120033834Y-122406848D01*
X120033834Y-122406848D02*
X119962405Y-122263990D01*
X119962405Y-122263990D02*
X119962405Y-120978276D01*
X112748120Y-123393192D02*
X113248120Y-124893192D01*
X113248120Y-124893192D02*
X113748120Y-123393192D01*
X114819548Y-124821764D02*
X114676691Y-124893192D01*
X114676691Y-124893192D02*
X114390977Y-124893192D01*
X114390977Y-124893192D02*
X114248119Y-124821764D01*
X114248119Y-124821764D02*
X114176691Y-124678906D01*
X114176691Y-124678906D02*
X114176691Y-124107478D01*
X114176691Y-124107478D02*
X114248119Y-123964621D01*
X114248119Y-123964621D02*
X114390977Y-123893192D01*
X114390977Y-123893192D02*
X114676691Y-123893192D01*
X114676691Y-123893192D02*
X114819548Y-123964621D01*
X114819548Y-123964621D02*
X114890977Y-124107478D01*
X114890977Y-124107478D02*
X114890977Y-124250335D01*
X114890977Y-124250335D02*
X114176691Y-124393192D01*
X115533833Y-124893192D02*
X115533833Y-123893192D01*
X115533833Y-124178906D02*
X115605262Y-124036049D01*
X115605262Y-124036049D02*
X115676691Y-123964621D01*
X115676691Y-123964621D02*
X115819548Y-123893192D01*
X115819548Y-123893192D02*
X115962405Y-123893192D01*
X116319547Y-123893192D02*
X116676690Y-124893192D01*
X117033833Y-123893192D02*
X116676690Y-124893192D01*
X116676690Y-124893192D02*
X116533833Y-125250335D01*
X116533833Y-125250335D02*
X116462404Y-125321764D01*
X116462404Y-125321764D02*
X116319547Y-125393192D01*
X118748118Y-124893192D02*
X118748118Y-123393192D01*
X119462404Y-123893192D02*
X119462404Y-124893192D01*
X119462404Y-124036049D02*
X119533833Y-123964621D01*
X119533833Y-123964621D02*
X119676690Y-123893192D01*
X119676690Y-123893192D02*
X119890976Y-123893192D01*
X119890976Y-123893192D02*
X120033833Y-123964621D01*
X120033833Y-123964621D02*
X120105262Y-124107478D01*
X120105262Y-124107478D02*
X120105262Y-124893192D01*
X121390976Y-124821764D02*
X121248119Y-124893192D01*
X121248119Y-124893192D02*
X120962405Y-124893192D01*
X120962405Y-124893192D02*
X120819547Y-124821764D01*
X120819547Y-124821764D02*
X120748119Y-124678906D01*
X120748119Y-124678906D02*
X120748119Y-124107478D01*
X120748119Y-124107478D02*
X120819547Y-123964621D01*
X120819547Y-123964621D02*
X120962405Y-123893192D01*
X120962405Y-123893192D02*
X121248119Y-123893192D01*
X121248119Y-123893192D02*
X121390976Y-123964621D01*
X121390976Y-123964621D02*
X121462405Y-124107478D01*
X121462405Y-124107478D02*
X121462405Y-124250335D01*
X121462405Y-124250335D02*
X120748119Y-124393192D01*
X121890976Y-123893192D02*
X122462404Y-123893192D01*
X122105261Y-124893192D02*
X122105261Y-123607478D01*
X122105261Y-123607478D02*
X122176690Y-123464621D01*
X122176690Y-123464621D02*
X122319547Y-123393192D01*
X122319547Y-123393192D02*
X122462404Y-123393192D01*
X122748119Y-123893192D02*
X123319547Y-123893192D01*
X122962404Y-124893192D02*
X122962404Y-123607478D01*
X122962404Y-123607478D02*
X123033833Y-123464621D01*
X123033833Y-123464621D02*
X123176690Y-123393192D01*
X123176690Y-123393192D02*
X123319547Y-123393192D01*
X123819547Y-124893192D02*
X123819547Y-123893192D01*
X123819547Y-123393192D02*
X123748119Y-123464621D01*
X123748119Y-123464621D02*
X123819547Y-123536049D01*
X123819547Y-123536049D02*
X123890976Y-123464621D01*
X123890976Y-123464621D02*
X123819547Y-123393192D01*
X123819547Y-123393192D02*
X123819547Y-123536049D01*
X125176691Y-124821764D02*
X125033833Y-124893192D01*
X125033833Y-124893192D02*
X124748119Y-124893192D01*
X124748119Y-124893192D02*
X124605262Y-124821764D01*
X124605262Y-124821764D02*
X124533833Y-124750335D01*
X124533833Y-124750335D02*
X124462405Y-124607478D01*
X124462405Y-124607478D02*
X124462405Y-124178906D01*
X124462405Y-124178906D02*
X124533833Y-124036049D01*
X124533833Y-124036049D02*
X124605262Y-123964621D01*
X124605262Y-123964621D02*
X124748119Y-123893192D01*
X124748119Y-123893192D02*
X125033833Y-123893192D01*
X125033833Y-123893192D02*
X125176691Y-123964621D01*
X125819547Y-124893192D02*
X125819547Y-123893192D01*
X125819547Y-123393192D02*
X125748119Y-123464621D01*
X125748119Y-123464621D02*
X125819547Y-123536049D01*
X125819547Y-123536049D02*
X125890976Y-123464621D01*
X125890976Y-123464621D02*
X125819547Y-123393192D01*
X125819547Y-123393192D02*
X125819547Y-123536049D01*
X127105262Y-124821764D02*
X126962405Y-124893192D01*
X126962405Y-124893192D02*
X126676691Y-124893192D01*
X126676691Y-124893192D02*
X126533833Y-124821764D01*
X126533833Y-124821764D02*
X126462405Y-124678906D01*
X126462405Y-124678906D02*
X126462405Y-124107478D01*
X126462405Y-124107478D02*
X126533833Y-123964621D01*
X126533833Y-123964621D02*
X126676691Y-123893192D01*
X126676691Y-123893192D02*
X126962405Y-123893192D01*
X126962405Y-123893192D02*
X127105262Y-123964621D01*
X127105262Y-123964621D02*
X127176691Y-124107478D01*
X127176691Y-124107478D02*
X127176691Y-124250335D01*
X127176691Y-124250335D02*
X126462405Y-124393192D01*
X127819547Y-123893192D02*
X127819547Y-124893192D01*
X127819547Y-124036049D02*
X127890976Y-123964621D01*
X127890976Y-123964621D02*
X128033833Y-123893192D01*
X128033833Y-123893192D02*
X128248119Y-123893192D01*
X128248119Y-123893192D02*
X128390976Y-123964621D01*
X128390976Y-123964621D02*
X128462405Y-124107478D01*
X128462405Y-124107478D02*
X128462405Y-124893192D01*
X128962405Y-123893192D02*
X129533833Y-123893192D01*
X129176690Y-123393192D02*
X129176690Y-124678906D01*
X129176690Y-124678906D02*
X129248119Y-124821764D01*
X129248119Y-124821764D02*
X129390976Y-124893192D01*
X129390976Y-124893192D02*
X129533833Y-124893192D01*
X132033833Y-124750335D02*
X131962405Y-124821764D01*
X131962405Y-124821764D02*
X131748119Y-124893192D01*
X131748119Y-124893192D02*
X131605262Y-124893192D01*
X131605262Y-124893192D02*
X131390976Y-124821764D01*
X131390976Y-124821764D02*
X131248119Y-124678906D01*
X131248119Y-124678906D02*
X131176690Y-124536049D01*
X131176690Y-124536049D02*
X131105262Y-124250335D01*
X131105262Y-124250335D02*
X131105262Y-124036049D01*
X131105262Y-124036049D02*
X131176690Y-123750335D01*
X131176690Y-123750335D02*
X131248119Y-123607478D01*
X131248119Y-123607478D02*
X131390976Y-123464621D01*
X131390976Y-123464621D02*
X131605262Y-123393192D01*
X131605262Y-123393192D02*
X131748119Y-123393192D01*
X131748119Y-123393192D02*
X131962405Y-123464621D01*
X131962405Y-123464621D02*
X132033833Y-123536049D01*
X132890976Y-124893192D02*
X132748119Y-124821764D01*
X132748119Y-124821764D02*
X132676690Y-124678906D01*
X132676690Y-124678906D02*
X132676690Y-123393192D01*
X133676690Y-124893192D02*
X133533833Y-124821764D01*
X133533833Y-124821764D02*
X133462404Y-124750335D01*
X133462404Y-124750335D02*
X133390976Y-124607478D01*
X133390976Y-124607478D02*
X133390976Y-124178906D01*
X133390976Y-124178906D02*
X133462404Y-124036049D01*
X133462404Y-124036049D02*
X133533833Y-123964621D01*
X133533833Y-123964621D02*
X133676690Y-123893192D01*
X133676690Y-123893192D02*
X133890976Y-123893192D01*
X133890976Y-123893192D02*
X134033833Y-123964621D01*
X134033833Y-123964621D02*
X134105262Y-124036049D01*
X134105262Y-124036049D02*
X134176690Y-124178906D01*
X134176690Y-124178906D02*
X134176690Y-124607478D01*
X134176690Y-124607478D02*
X134105262Y-124750335D01*
X134105262Y-124750335D02*
X134033833Y-124821764D01*
X134033833Y-124821764D02*
X133890976Y-124893192D01*
X133890976Y-124893192D02*
X133676690Y-124893192D01*
X135462405Y-124821764D02*
X135319547Y-124893192D01*
X135319547Y-124893192D02*
X135033833Y-124893192D01*
X135033833Y-124893192D02*
X134890976Y-124821764D01*
X134890976Y-124821764D02*
X134819547Y-124750335D01*
X134819547Y-124750335D02*
X134748119Y-124607478D01*
X134748119Y-124607478D02*
X134748119Y-124178906D01*
X134748119Y-124178906D02*
X134819547Y-124036049D01*
X134819547Y-124036049D02*
X134890976Y-123964621D01*
X134890976Y-123964621D02*
X135033833Y-123893192D01*
X135033833Y-123893192D02*
X135319547Y-123893192D01*
X135319547Y-123893192D02*
X135462405Y-123964621D01*
X136105261Y-124893192D02*
X136105261Y-123393192D01*
X136248119Y-124321764D02*
X136676690Y-124893192D01*
X136676690Y-123893192D02*
X136105261Y-124464621D01*
X112890977Y-125950965D02*
X112962405Y-125879537D01*
X112962405Y-125879537D02*
X113105263Y-125808108D01*
X113105263Y-125808108D02*
X113462405Y-125808108D01*
X113462405Y-125808108D02*
X113605263Y-125879537D01*
X113605263Y-125879537D02*
X113676691Y-125950965D01*
X113676691Y-125950965D02*
X113748120Y-126093822D01*
X113748120Y-126093822D02*
X113748120Y-126236680D01*
X113748120Y-126236680D02*
X113676691Y-126450965D01*
X113676691Y-126450965D02*
X112819548Y-127308108D01*
X112819548Y-127308108D02*
X113748120Y-127308108D01*
X114676691Y-125808108D02*
X114819548Y-125808108D01*
X114819548Y-125808108D02*
X114962405Y-125879537D01*
X114962405Y-125879537D02*
X115033834Y-125950965D01*
X115033834Y-125950965D02*
X115105262Y-126093822D01*
X115105262Y-126093822D02*
X115176691Y-126379537D01*
X115176691Y-126379537D02*
X115176691Y-126736680D01*
X115176691Y-126736680D02*
X115105262Y-127022394D01*
X115105262Y-127022394D02*
X115033834Y-127165251D01*
X115033834Y-127165251D02*
X114962405Y-127236680D01*
X114962405Y-127236680D02*
X114819548Y-127308108D01*
X114819548Y-127308108D02*
X114676691Y-127308108D01*
X114676691Y-127308108D02*
X114533834Y-127236680D01*
X114533834Y-127236680D02*
X114462405Y-127165251D01*
X114462405Y-127165251D02*
X114390976Y-127022394D01*
X114390976Y-127022394D02*
X114319548Y-126736680D01*
X114319548Y-126736680D02*
X114319548Y-126379537D01*
X114319548Y-126379537D02*
X114390976Y-126093822D01*
X114390976Y-126093822D02*
X114462405Y-125950965D01*
X114462405Y-125950965D02*
X114533834Y-125879537D01*
X114533834Y-125879537D02*
X114676691Y-125808108D01*
X115748119Y-125950965D02*
X115819547Y-125879537D01*
X115819547Y-125879537D02*
X115962405Y-125808108D01*
X115962405Y-125808108D02*
X116319547Y-125808108D01*
X116319547Y-125808108D02*
X116462405Y-125879537D01*
X116462405Y-125879537D02*
X116533833Y-125950965D01*
X116533833Y-125950965D02*
X116605262Y-126093822D01*
X116605262Y-126093822D02*
X116605262Y-126236680D01*
X116605262Y-126236680D02*
X116533833Y-126450965D01*
X116533833Y-126450965D02*
X115676690Y-127308108D01*
X115676690Y-127308108D02*
X116605262Y-127308108D01*
X117962404Y-125808108D02*
X117248118Y-125808108D01*
X117248118Y-125808108D02*
X117176690Y-126522394D01*
X117176690Y-126522394D02*
X117248118Y-126450965D01*
X117248118Y-126450965D02*
X117390976Y-126379537D01*
X117390976Y-126379537D02*
X117748118Y-126379537D01*
X117748118Y-126379537D02*
X117890976Y-126450965D01*
X117890976Y-126450965D02*
X117962404Y-126522394D01*
X117962404Y-126522394D02*
X118033833Y-126665251D01*
X118033833Y-126665251D02*
X118033833Y-127022394D01*
X118033833Y-127022394D02*
X117962404Y-127165251D01*
X117962404Y-127165251D02*
X117890976Y-127236680D01*
X117890976Y-127236680D02*
X117748118Y-127308108D01*
X117748118Y-127308108D02*
X117390976Y-127308108D01*
X117390976Y-127308108D02*
X117248118Y-127236680D01*
X117248118Y-127236680D02*
X117176690Y-127165251D01*
X118676689Y-126736680D02*
X119819547Y-126736680D01*
X120819547Y-125808108D02*
X120962404Y-125808108D01*
X120962404Y-125808108D02*
X121105261Y-125879537D01*
X121105261Y-125879537D02*
X121176690Y-125950965D01*
X121176690Y-125950965D02*
X121248118Y-126093822D01*
X121248118Y-126093822D02*
X121319547Y-126379537D01*
X121319547Y-126379537D02*
X121319547Y-126736680D01*
X121319547Y-126736680D02*
X121248118Y-127022394D01*
X121248118Y-127022394D02*
X121176690Y-127165251D01*
X121176690Y-127165251D02*
X121105261Y-127236680D01*
X121105261Y-127236680D02*
X120962404Y-127308108D01*
X120962404Y-127308108D02*
X120819547Y-127308108D01*
X120819547Y-127308108D02*
X120676690Y-127236680D01*
X120676690Y-127236680D02*
X120605261Y-127165251D01*
X120605261Y-127165251D02*
X120533832Y-127022394D01*
X120533832Y-127022394D02*
X120462404Y-126736680D01*
X120462404Y-126736680D02*
X120462404Y-126379537D01*
X120462404Y-126379537D02*
X120533832Y-126093822D01*
X120533832Y-126093822D02*
X120605261Y-125950965D01*
X120605261Y-125950965D02*
X120676690Y-125879537D01*
X120676690Y-125879537D02*
X120819547Y-125808108D01*
X122676689Y-125808108D02*
X121962403Y-125808108D01*
X121962403Y-125808108D02*
X121890975Y-126522394D01*
X121890975Y-126522394D02*
X121962403Y-126450965D01*
X121962403Y-126450965D02*
X122105261Y-126379537D01*
X122105261Y-126379537D02*
X122462403Y-126379537D01*
X122462403Y-126379537D02*
X122605261Y-126450965D01*
X122605261Y-126450965D02*
X122676689Y-126522394D01*
X122676689Y-126522394D02*
X122748118Y-126665251D01*
X122748118Y-126665251D02*
X122748118Y-127022394D01*
X122748118Y-127022394D02*
X122676689Y-127165251D01*
X122676689Y-127165251D02*
X122605261Y-127236680D01*
X122605261Y-127236680D02*
X122462403Y-127308108D01*
X122462403Y-127308108D02*
X122105261Y-127308108D01*
X122105261Y-127308108D02*
X121962403Y-127236680D01*
X121962403Y-127236680D02*
X121890975Y-127165251D01*
X123390974Y-126736680D02*
X124533832Y-126736680D01*
X126033832Y-127308108D02*
X125176689Y-127308108D01*
X125605260Y-127308108D02*
X125605260Y-125808108D01*
X125605260Y-125808108D02*
X125462403Y-126022394D01*
X125462403Y-126022394D02*
X125319546Y-126165251D01*
X125319546Y-126165251D02*
X125176689Y-126236680D01*
X126605260Y-125950965D02*
X126676688Y-125879537D01*
X126676688Y-125879537D02*
X126819546Y-125808108D01*
X126819546Y-125808108D02*
X127176688Y-125808108D01*
X127176688Y-125808108D02*
X127319546Y-125879537D01*
X127319546Y-125879537D02*
X127390974Y-125950965D01*
X127390974Y-125950965D02*
X127462403Y-126093822D01*
X127462403Y-126093822D02*
X127462403Y-126236680D01*
X127462403Y-126236680D02*
X127390974Y-126450965D01*
X127390974Y-126450965D02*
X126533831Y-127308108D01*
X126533831Y-127308108D02*
X127462403Y-127308108D01*
X70886215Y-44897870D02*
X70790977Y-44850251D01*
X70790977Y-44850251D02*
X70743358Y-44802632D01*
X70743358Y-44802632D02*
X70695739Y-44707394D01*
X70695739Y-44707394D02*
X70695739Y-44659775D01*
X70695739Y-44659775D02*
X70743358Y-44564537D01*
X70743358Y-44564537D02*
X70790977Y-44516918D01*
X70790977Y-44516918D02*
X70886215Y-44469299D01*
X70886215Y-44469299D02*
X71076691Y-44469299D01*
X71076691Y-44469299D02*
X71171929Y-44516918D01*
X71171929Y-44516918D02*
X71219548Y-44564537D01*
X71219548Y-44564537D02*
X71267167Y-44659775D01*
X71267167Y-44659775D02*
X71267167Y-44707394D01*
X71267167Y-44707394D02*
X71219548Y-44802632D01*
X71219548Y-44802632D02*
X71171929Y-44850251D01*
X71171929Y-44850251D02*
X71076691Y-44897870D01*
X71076691Y-44897870D02*
X70886215Y-44897870D01*
X70886215Y-44897870D02*
X70790977Y-44945489D01*
X70790977Y-44945489D02*
X70743358Y-44993108D01*
X70743358Y-44993108D02*
X70695739Y-45088346D01*
X70695739Y-45088346D02*
X70695739Y-45278822D01*
X70695739Y-45278822D02*
X70743358Y-45374060D01*
X70743358Y-45374060D02*
X70790977Y-45421680D01*
X70790977Y-45421680D02*
X70886215Y-45469299D01*
X70886215Y-45469299D02*
X71076691Y-45469299D01*
X71076691Y-45469299D02*
X71171929Y-45421680D01*
X71171929Y-45421680D02*
X71219548Y-45374060D01*
X71219548Y-45374060D02*
X71267167Y-45278822D01*
X71267167Y-45278822D02*
X71267167Y-45088346D01*
X71267167Y-45088346D02*
X71219548Y-44993108D01*
X71219548Y-44993108D02*
X71171929Y-44945489D01*
X71171929Y-44945489D02*
X71076691Y-44897870D01*
X71695739Y-45469299D02*
X71695739Y-44469299D01*
X71695739Y-44469299D02*
X72029072Y-45183584D01*
X72029072Y-45183584D02*
X72362405Y-44469299D01*
X72362405Y-44469299D02*
X72362405Y-45469299D01*
X72838596Y-45469299D02*
X72838596Y-44469299D01*
X72838596Y-44469299D02*
X73171929Y-45183584D01*
X73171929Y-45183584D02*
X73505262Y-44469299D01*
X73505262Y-44469299D02*
X73505262Y-45469299D01*
X74600501Y-44469299D02*
X75171929Y-44469299D01*
X74886215Y-45469299D02*
X74886215Y-44469299D01*
X75695739Y-44469299D02*
X75886215Y-44469299D01*
X75886215Y-44469299D02*
X75981453Y-44516918D01*
X75981453Y-44516918D02*
X76076691Y-44612156D01*
X76076691Y-44612156D02*
X76124310Y-44802632D01*
X76124310Y-44802632D02*
X76124310Y-45135965D01*
X76124310Y-45135965D02*
X76076691Y-45326441D01*
X76076691Y-45326441D02*
X75981453Y-45421680D01*
X75981453Y-45421680D02*
X75886215Y-45469299D01*
X75886215Y-45469299D02*
X75695739Y-45469299D01*
X75695739Y-45469299D02*
X75600501Y-45421680D01*
X75600501Y-45421680D02*
X75505263Y-45326441D01*
X75505263Y-45326441D02*
X75457644Y-45135965D01*
X75457644Y-45135965D02*
X75457644Y-44802632D01*
X75457644Y-44802632D02*
X75505263Y-44612156D01*
X75505263Y-44612156D02*
X75600501Y-44516918D01*
X75600501Y-44516918D02*
X75695739Y-44469299D01*
X76552882Y-45469299D02*
X76552882Y-44469299D01*
X76552882Y-44469299D02*
X76933834Y-44469299D01*
X76933834Y-44469299D02*
X77029072Y-44516918D01*
X77029072Y-44516918D02*
X77076691Y-44564537D01*
X77076691Y-44564537D02*
X77124310Y-44659775D01*
X77124310Y-44659775D02*
X77124310Y-44802632D01*
X77124310Y-44802632D02*
X77076691Y-44897870D01*
X77076691Y-44897870D02*
X77029072Y-44945489D01*
X77029072Y-44945489D02*
X76933834Y-44993108D01*
X76933834Y-44993108D02*
X76552882Y-44993108D01*
X78886215Y-45374060D02*
X78838596Y-45421680D01*
X78838596Y-45421680D02*
X78695739Y-45469299D01*
X78695739Y-45469299D02*
X78600501Y-45469299D01*
X78600501Y-45469299D02*
X78457644Y-45421680D01*
X78457644Y-45421680D02*
X78362406Y-45326441D01*
X78362406Y-45326441D02*
X78314787Y-45231203D01*
X78314787Y-45231203D02*
X78267168Y-45040727D01*
X78267168Y-45040727D02*
X78267168Y-44897870D01*
X78267168Y-44897870D02*
X78314787Y-44707394D01*
X78314787Y-44707394D02*
X78362406Y-44612156D01*
X78362406Y-44612156D02*
X78457644Y-44516918D01*
X78457644Y-44516918D02*
X78600501Y-44469299D01*
X78600501Y-44469299D02*
X78695739Y-44469299D01*
X78695739Y-44469299D02*
X78838596Y-44516918D01*
X78838596Y-44516918D02*
X78886215Y-44564537D01*
X79790977Y-45469299D02*
X79314787Y-45469299D01*
X79314787Y-45469299D02*
X79314787Y-44469299D01*
X80124311Y-44945489D02*
X80457644Y-44945489D01*
X80600501Y-45469299D02*
X80124311Y-45469299D01*
X80124311Y-45469299D02*
X80124311Y-44469299D01*
X80124311Y-44469299D02*
X80600501Y-44469299D01*
X80981454Y-45183584D02*
X81457644Y-45183584D01*
X80886216Y-45469299D02*
X81219549Y-44469299D01*
X81219549Y-44469299D02*
X81552882Y-45469299D01*
X82457644Y-45469299D02*
X82124311Y-44993108D01*
X81886216Y-45469299D02*
X81886216Y-44469299D01*
X81886216Y-44469299D02*
X82267168Y-44469299D01*
X82267168Y-44469299D02*
X82362406Y-44516918D01*
X82362406Y-44516918D02*
X82410025Y-44564537D01*
X82410025Y-44564537D02*
X82457644Y-44659775D01*
X82457644Y-44659775D02*
X82457644Y-44802632D01*
X82457644Y-44802632D02*
X82410025Y-44897870D01*
X82410025Y-44897870D02*
X82362406Y-44945489D01*
X82362406Y-44945489D02*
X82267168Y-44993108D01*
X82267168Y-44993108D02*
X81886216Y-44993108D01*
X82838597Y-45183584D02*
X83314787Y-45183584D01*
X82743359Y-45469299D02*
X83076692Y-44469299D01*
X83076692Y-44469299D02*
X83410025Y-45469299D01*
X83743359Y-45469299D02*
X83743359Y-44469299D01*
X83743359Y-44469299D02*
X84314787Y-45469299D01*
X84314787Y-45469299D02*
X84314787Y-44469299D01*
X85362406Y-45374060D02*
X85314787Y-45421680D01*
X85314787Y-45421680D02*
X85171930Y-45469299D01*
X85171930Y-45469299D02*
X85076692Y-45469299D01*
X85076692Y-45469299D02*
X84933835Y-45421680D01*
X84933835Y-45421680D02*
X84838597Y-45326441D01*
X84838597Y-45326441D02*
X84790978Y-45231203D01*
X84790978Y-45231203D02*
X84743359Y-45040727D01*
X84743359Y-45040727D02*
X84743359Y-44897870D01*
X84743359Y-44897870D02*
X84790978Y-44707394D01*
X84790978Y-44707394D02*
X84838597Y-44612156D01*
X84838597Y-44612156D02*
X84933835Y-44516918D01*
X84933835Y-44516918D02*
X85076692Y-44469299D01*
X85076692Y-44469299D02*
X85171930Y-44469299D01*
X85171930Y-44469299D02*
X85314787Y-44516918D01*
X85314787Y-44516918D02*
X85362406Y-44564537D01*
X85790978Y-44945489D02*
X86124311Y-44945489D01*
X86267168Y-45469299D02*
X85790978Y-45469299D01*
X85790978Y-45469299D02*
X85790978Y-44469299D01*
X85790978Y-44469299D02*
X86267168Y-44469299D01*
X99943358Y-52679299D02*
X99943358Y-51679299D01*
X99943358Y-51679299D02*
X100181453Y-51679299D01*
X100181453Y-51679299D02*
X100324310Y-51726918D01*
X100324310Y-51726918D02*
X100419548Y-51822156D01*
X100419548Y-51822156D02*
X100467167Y-51917394D01*
X100467167Y-51917394D02*
X100514786Y-52107870D01*
X100514786Y-52107870D02*
X100514786Y-52250727D01*
X100514786Y-52250727D02*
X100467167Y-52441203D01*
X100467167Y-52441203D02*
X100419548Y-52536441D01*
X100419548Y-52536441D02*
X100324310Y-52631680D01*
X100324310Y-52631680D02*
X100181453Y-52679299D01*
X100181453Y-52679299D02*
X99943358Y-52679299D01*
X100943358Y-52679299D02*
X100943358Y-51679299D01*
X101610024Y-51679299D02*
X101800500Y-51679299D01*
X101800500Y-51679299D02*
X101895738Y-51726918D01*
X101895738Y-51726918D02*
X101990976Y-51822156D01*
X101990976Y-51822156D02*
X102038595Y-52012632D01*
X102038595Y-52012632D02*
X102038595Y-52345965D01*
X102038595Y-52345965D02*
X101990976Y-52536441D01*
X101990976Y-52536441D02*
X101895738Y-52631680D01*
X101895738Y-52631680D02*
X101800500Y-52679299D01*
X101800500Y-52679299D02*
X101610024Y-52679299D01*
X101610024Y-52679299D02*
X101514786Y-52631680D01*
X101514786Y-52631680D02*
X101419548Y-52536441D01*
X101419548Y-52536441D02*
X101371929Y-52345965D01*
X101371929Y-52345965D02*
X101371929Y-52012632D01*
X101371929Y-52012632D02*
X101419548Y-51822156D01*
X101419548Y-51822156D02*
X101514786Y-51726918D01*
X101514786Y-51726918D02*
X101610024Y-51679299D01*
X100419548Y-56569299D02*
X99943358Y-56569299D01*
X99943358Y-56569299D02*
X99895739Y-57045489D01*
X99895739Y-57045489D02*
X99943358Y-56997870D01*
X99943358Y-56997870D02*
X100038596Y-56950251D01*
X100038596Y-56950251D02*
X100276691Y-56950251D01*
X100276691Y-56950251D02*
X100371929Y-56997870D01*
X100371929Y-56997870D02*
X100419548Y-57045489D01*
X100419548Y-57045489D02*
X100467167Y-57140727D01*
X100467167Y-57140727D02*
X100467167Y-57378822D01*
X100467167Y-57378822D02*
X100419548Y-57474060D01*
X100419548Y-57474060D02*
X100371929Y-57521680D01*
X100371929Y-57521680D02*
X100276691Y-57569299D01*
X100276691Y-57569299D02*
X100038596Y-57569299D01*
X100038596Y-57569299D02*
X99943358Y-57521680D01*
X99943358Y-57521680D02*
X99895739Y-57474060D01*
X100752882Y-56569299D02*
X101086215Y-57569299D01*
X101086215Y-57569299D02*
X101419548Y-56569299D01*
X74295739Y-50544649D02*
X74343358Y-50497030D01*
X74343358Y-50497030D02*
X74438596Y-50449411D01*
X74438596Y-50449411D02*
X74676691Y-50449411D01*
X74676691Y-50449411D02*
X74771929Y-50497030D01*
X74771929Y-50497030D02*
X74819548Y-50544649D01*
X74819548Y-50544649D02*
X74867167Y-50639887D01*
X74867167Y-50639887D02*
X74867167Y-50735125D01*
X74867167Y-50735125D02*
X74819548Y-50877982D01*
X74819548Y-50877982D02*
X74248120Y-51449411D01*
X74248120Y-51449411D02*
X74867167Y-51449411D01*
X75295739Y-51354172D02*
X75343358Y-51401792D01*
X75343358Y-51401792D02*
X75295739Y-51449411D01*
X75295739Y-51449411D02*
X75248120Y-51401792D01*
X75248120Y-51401792D02*
X75295739Y-51354172D01*
X75295739Y-51354172D02*
X75295739Y-51449411D01*
X76200500Y-50782744D02*
X76200500Y-51449411D01*
X75962405Y-50401792D02*
X75724310Y-51116077D01*
X75724310Y-51116077D02*
X76343357Y-51116077D01*
X76724310Y-51449411D02*
X76724310Y-50449411D01*
X76724310Y-50449411D02*
X77057643Y-51163696D01*
X77057643Y-51163696D02*
X77390976Y-50449411D01*
X77390976Y-50449411D02*
X77390976Y-51449411D01*
X77867167Y-51449411D02*
X77867167Y-50449411D01*
X77867167Y-50449411D02*
X78200500Y-51163696D01*
X78200500Y-51163696D02*
X78533833Y-50449411D01*
X78533833Y-50449411D02*
X78533833Y-51449411D01*
X74676691Y-52535545D02*
X74819548Y-52583164D01*
X74819548Y-52583164D02*
X74867167Y-52630783D01*
X74867167Y-52630783D02*
X74914786Y-52726021D01*
X74914786Y-52726021D02*
X74914786Y-52868878D01*
X74914786Y-52868878D02*
X74867167Y-52964116D01*
X74867167Y-52964116D02*
X74819548Y-53011736D01*
X74819548Y-53011736D02*
X74724310Y-53059355D01*
X74724310Y-53059355D02*
X74343358Y-53059355D01*
X74343358Y-53059355D02*
X74343358Y-52059355D01*
X74343358Y-52059355D02*
X74676691Y-52059355D01*
X74676691Y-52059355D02*
X74771929Y-52106974D01*
X74771929Y-52106974D02*
X74819548Y-52154593D01*
X74819548Y-52154593D02*
X74867167Y-52249831D01*
X74867167Y-52249831D02*
X74867167Y-52345069D01*
X74867167Y-52345069D02*
X74819548Y-52440307D01*
X74819548Y-52440307D02*
X74771929Y-52487926D01*
X74771929Y-52487926D02*
X74676691Y-52535545D01*
X74676691Y-52535545D02*
X74343358Y-52535545D01*
X75533834Y-52059355D02*
X75724310Y-52059355D01*
X75724310Y-52059355D02*
X75819548Y-52106974D01*
X75819548Y-52106974D02*
X75914786Y-52202212D01*
X75914786Y-52202212D02*
X75962405Y-52392688D01*
X75962405Y-52392688D02*
X75962405Y-52726021D01*
X75962405Y-52726021D02*
X75914786Y-52916497D01*
X75914786Y-52916497D02*
X75819548Y-53011736D01*
X75819548Y-53011736D02*
X75724310Y-53059355D01*
X75724310Y-53059355D02*
X75533834Y-53059355D01*
X75533834Y-53059355D02*
X75438596Y-53011736D01*
X75438596Y-53011736D02*
X75343358Y-52916497D01*
X75343358Y-52916497D02*
X75295739Y-52726021D01*
X75295739Y-52726021D02*
X75295739Y-52392688D01*
X75295739Y-52392688D02*
X75343358Y-52202212D01*
X75343358Y-52202212D02*
X75438596Y-52106974D01*
X75438596Y-52106974D02*
X75533834Y-52059355D01*
X76248120Y-52059355D02*
X76819548Y-52059355D01*
X76533834Y-53059355D02*
X76533834Y-52059355D01*
X77010025Y-52059355D02*
X77581453Y-52059355D01*
X77295739Y-53059355D02*
X77295739Y-52059355D01*
X78105263Y-52059355D02*
X78295739Y-52059355D01*
X78295739Y-52059355D02*
X78390977Y-52106974D01*
X78390977Y-52106974D02*
X78486215Y-52202212D01*
X78486215Y-52202212D02*
X78533834Y-52392688D01*
X78533834Y-52392688D02*
X78533834Y-52726021D01*
X78533834Y-52726021D02*
X78486215Y-52916497D01*
X78486215Y-52916497D02*
X78390977Y-53011736D01*
X78390977Y-53011736D02*
X78295739Y-53059355D01*
X78295739Y-53059355D02*
X78105263Y-53059355D01*
X78105263Y-53059355D02*
X78010025Y-53011736D01*
X78010025Y-53011736D02*
X77914787Y-52916497D01*
X77914787Y-52916497D02*
X77867168Y-52726021D01*
X77867168Y-52726021D02*
X77867168Y-52392688D01*
X77867168Y-52392688D02*
X77914787Y-52202212D01*
X77914787Y-52202212D02*
X78010025Y-52106974D01*
X78010025Y-52106974D02*
X78105263Y-52059355D01*
X78962406Y-53059355D02*
X78962406Y-52059355D01*
X78962406Y-52059355D02*
X79295739Y-52773640D01*
X79295739Y-52773640D02*
X79629072Y-52059355D01*
X79629072Y-52059355D02*
X79629072Y-53059355D01*
X74914786Y-54574060D02*
X74867167Y-54621680D01*
X74867167Y-54621680D02*
X74724310Y-54669299D01*
X74724310Y-54669299D02*
X74629072Y-54669299D01*
X74629072Y-54669299D02*
X74486215Y-54621680D01*
X74486215Y-54621680D02*
X74390977Y-54526441D01*
X74390977Y-54526441D02*
X74343358Y-54431203D01*
X74343358Y-54431203D02*
X74295739Y-54240727D01*
X74295739Y-54240727D02*
X74295739Y-54097870D01*
X74295739Y-54097870D02*
X74343358Y-53907394D01*
X74343358Y-53907394D02*
X74390977Y-53812156D01*
X74390977Y-53812156D02*
X74486215Y-53716918D01*
X74486215Y-53716918D02*
X74629072Y-53669299D01*
X74629072Y-53669299D02*
X74724310Y-53669299D01*
X74724310Y-53669299D02*
X74867167Y-53716918D01*
X74867167Y-53716918D02*
X74914786Y-53764537D01*
X75819548Y-54669299D02*
X75343358Y-54669299D01*
X75343358Y-54669299D02*
X75343358Y-53669299D01*
X76152882Y-54145489D02*
X76486215Y-54145489D01*
X76629072Y-54669299D02*
X76152882Y-54669299D01*
X76152882Y-54669299D02*
X76152882Y-53669299D01*
X76152882Y-53669299D02*
X76629072Y-53669299D01*
X77010025Y-54383584D02*
X77486215Y-54383584D01*
X76914787Y-54669299D02*
X77248120Y-53669299D01*
X77248120Y-53669299D02*
X77581453Y-54669299D01*
X78486215Y-54669299D02*
X78152882Y-54193108D01*
X77914787Y-54669299D02*
X77914787Y-53669299D01*
X77914787Y-53669299D02*
X78295739Y-53669299D01*
X78295739Y-53669299D02*
X78390977Y-53716918D01*
X78390977Y-53716918D02*
X78438596Y-53764537D01*
X78438596Y-53764537D02*
X78486215Y-53859775D01*
X78486215Y-53859775D02*
X78486215Y-54002632D01*
X78486215Y-54002632D02*
X78438596Y-54097870D01*
X78438596Y-54097870D02*
X78390977Y-54145489D01*
X78390977Y-54145489D02*
X78295739Y-54193108D01*
X78295739Y-54193108D02*
X77914787Y-54193108D01*
X78867168Y-54383584D02*
X79343358Y-54383584D01*
X78771930Y-54669299D02*
X79105263Y-53669299D01*
X79105263Y-53669299D02*
X79438596Y-54669299D01*
X79771930Y-54669299D02*
X79771930Y-53669299D01*
X79771930Y-53669299D02*
X80343358Y-54669299D01*
X80343358Y-54669299D02*
X80343358Y-53669299D01*
X81390977Y-54574060D02*
X81343358Y-54621680D01*
X81343358Y-54621680D02*
X81200501Y-54669299D01*
X81200501Y-54669299D02*
X81105263Y-54669299D01*
X81105263Y-54669299D02*
X80962406Y-54621680D01*
X80962406Y-54621680D02*
X80867168Y-54526441D01*
X80867168Y-54526441D02*
X80819549Y-54431203D01*
X80819549Y-54431203D02*
X80771930Y-54240727D01*
X80771930Y-54240727D02*
X80771930Y-54097870D01*
X80771930Y-54097870D02*
X80819549Y-53907394D01*
X80819549Y-53907394D02*
X80867168Y-53812156D01*
X80867168Y-53812156D02*
X80962406Y-53716918D01*
X80962406Y-53716918D02*
X81105263Y-53669299D01*
X81105263Y-53669299D02*
X81200501Y-53669299D01*
X81200501Y-53669299D02*
X81343358Y-53716918D01*
X81343358Y-53716918D02*
X81390977Y-53764537D01*
X81819549Y-54145489D02*
X82152882Y-54145489D01*
X82295739Y-54669299D02*
X81819549Y-54669299D01*
X81819549Y-54669299D02*
X81819549Y-53669299D01*
X81819549Y-53669299D02*
X82295739Y-53669299D01*
X100514786Y-50084060D02*
X100467167Y-50131680D01*
X100467167Y-50131680D02*
X100324310Y-50179299D01*
X100324310Y-50179299D02*
X100229072Y-50179299D01*
X100229072Y-50179299D02*
X100086215Y-50131680D01*
X100086215Y-50131680D02*
X99990977Y-50036441D01*
X99990977Y-50036441D02*
X99943358Y-49941203D01*
X99943358Y-49941203D02*
X99895739Y-49750727D01*
X99895739Y-49750727D02*
X99895739Y-49607870D01*
X99895739Y-49607870D02*
X99943358Y-49417394D01*
X99943358Y-49417394D02*
X99990977Y-49322156D01*
X99990977Y-49322156D02*
X100086215Y-49226918D01*
X100086215Y-49226918D02*
X100229072Y-49179299D01*
X100229072Y-49179299D02*
X100324310Y-49179299D01*
X100324310Y-49179299D02*
X100467167Y-49226918D01*
X100467167Y-49226918D02*
X100514786Y-49274537D01*
X101419548Y-50179299D02*
X100943358Y-50179299D01*
X100943358Y-50179299D02*
X100943358Y-49179299D01*
X101752882Y-50179299D02*
X101752882Y-49179299D01*
X102324310Y-50179299D02*
X101895739Y-49607870D01*
X102324310Y-49179299D02*
X101752882Y-49750727D01*
X54467167Y-54116918D02*
X54371929Y-54069299D01*
X54371929Y-54069299D02*
X54229072Y-54069299D01*
X54229072Y-54069299D02*
X54086215Y-54116918D01*
X54086215Y-54116918D02*
X53990977Y-54212156D01*
X53990977Y-54212156D02*
X53943358Y-54307394D01*
X53943358Y-54307394D02*
X53895739Y-54497870D01*
X53895739Y-54497870D02*
X53895739Y-54640727D01*
X53895739Y-54640727D02*
X53943358Y-54831203D01*
X53943358Y-54831203D02*
X53990977Y-54926441D01*
X53990977Y-54926441D02*
X54086215Y-55021680D01*
X54086215Y-55021680D02*
X54229072Y-55069299D01*
X54229072Y-55069299D02*
X54324310Y-55069299D01*
X54324310Y-55069299D02*
X54467167Y-55021680D01*
X54467167Y-55021680D02*
X54514786Y-54974060D01*
X54514786Y-54974060D02*
X54514786Y-54640727D01*
X54514786Y-54640727D02*
X54324310Y-54640727D01*
X54943358Y-55069299D02*
X54943358Y-54069299D01*
X54943358Y-54069299D02*
X55514786Y-55069299D01*
X55514786Y-55069299D02*
X55514786Y-54069299D01*
X55990977Y-55069299D02*
X55990977Y-54069299D01*
X55990977Y-54069299D02*
X56229072Y-54069299D01*
X56229072Y-54069299D02*
X56371929Y-54116918D01*
X56371929Y-54116918D02*
X56467167Y-54212156D01*
X56467167Y-54212156D02*
X56514786Y-54307394D01*
X56514786Y-54307394D02*
X56562405Y-54497870D01*
X56562405Y-54497870D02*
X56562405Y-54640727D01*
X56562405Y-54640727D02*
X56514786Y-54831203D01*
X56514786Y-54831203D02*
X56467167Y-54926441D01*
X56467167Y-54926441D02*
X56371929Y-55021680D01*
X56371929Y-55021680D02*
X56229072Y-55069299D01*
X56229072Y-55069299D02*
X55990977Y-55069299D01*
X54414786Y-50074060D02*
X54367167Y-50121680D01*
X54367167Y-50121680D02*
X54224310Y-50169299D01*
X54224310Y-50169299D02*
X54129072Y-50169299D01*
X54129072Y-50169299D02*
X53986215Y-50121680D01*
X53986215Y-50121680D02*
X53890977Y-50026441D01*
X53890977Y-50026441D02*
X53843358Y-49931203D01*
X53843358Y-49931203D02*
X53795739Y-49740727D01*
X53795739Y-49740727D02*
X53795739Y-49597870D01*
X53795739Y-49597870D02*
X53843358Y-49407394D01*
X53843358Y-49407394D02*
X53890977Y-49312156D01*
X53890977Y-49312156D02*
X53986215Y-49216918D01*
X53986215Y-49216918D02*
X54129072Y-49169299D01*
X54129072Y-49169299D02*
X54224310Y-49169299D01*
X54224310Y-49169299D02*
X54367167Y-49216918D01*
X54367167Y-49216918D02*
X54414786Y-49264537D01*
X55319548Y-50169299D02*
X54843358Y-50169299D01*
X54843358Y-50169299D02*
X54843358Y-49169299D01*
X55652882Y-50169299D02*
X55652882Y-49169299D01*
X56224310Y-50169299D02*
X55795739Y-49597870D01*
X56224310Y-49169299D02*
X55652882Y-49740727D01*
X54519548Y-56769299D02*
X54043358Y-56769299D01*
X54043358Y-56769299D02*
X53995739Y-57245489D01*
X53995739Y-57245489D02*
X54043358Y-57197870D01*
X54043358Y-57197870D02*
X54138596Y-57150251D01*
X54138596Y-57150251D02*
X54376691Y-57150251D01*
X54376691Y-57150251D02*
X54471929Y-57197870D01*
X54471929Y-57197870D02*
X54519548Y-57245489D01*
X54519548Y-57245489D02*
X54567167Y-57340727D01*
X54567167Y-57340727D02*
X54567167Y-57578822D01*
X54567167Y-57578822D02*
X54519548Y-57674060D01*
X54519548Y-57674060D02*
X54471929Y-57721680D01*
X54471929Y-57721680D02*
X54376691Y-57769299D01*
X54376691Y-57769299D02*
X54138596Y-57769299D01*
X54138596Y-57769299D02*
X54043358Y-57721680D01*
X54043358Y-57721680D02*
X53995739Y-57674060D01*
X54852882Y-56769299D02*
X55186215Y-57769299D01*
X55186215Y-57769299D02*
X55519548Y-56769299D01*
X53943358Y-52669299D02*
X53943358Y-51669299D01*
X53943358Y-51669299D02*
X54181453Y-51669299D01*
X54181453Y-51669299D02*
X54324310Y-51716918D01*
X54324310Y-51716918D02*
X54419548Y-51812156D01*
X54419548Y-51812156D02*
X54467167Y-51907394D01*
X54467167Y-51907394D02*
X54514786Y-52097870D01*
X54514786Y-52097870D02*
X54514786Y-52240727D01*
X54514786Y-52240727D02*
X54467167Y-52431203D01*
X54467167Y-52431203D02*
X54419548Y-52526441D01*
X54419548Y-52526441D02*
X54324310Y-52621680D01*
X54324310Y-52621680D02*
X54181453Y-52669299D01*
X54181453Y-52669299D02*
X53943358Y-52669299D01*
X54943358Y-52669299D02*
X54943358Y-51669299D01*
X55610024Y-51669299D02*
X55800500Y-51669299D01*
X55800500Y-51669299D02*
X55895738Y-51716918D01*
X55895738Y-51716918D02*
X55990976Y-51812156D01*
X55990976Y-51812156D02*
X56038595Y-52002632D01*
X56038595Y-52002632D02*
X56038595Y-52335965D01*
X56038595Y-52335965D02*
X55990976Y-52526441D01*
X55990976Y-52526441D02*
X55895738Y-52621680D01*
X55895738Y-52621680D02*
X55800500Y-52669299D01*
X55800500Y-52669299D02*
X55610024Y-52669299D01*
X55610024Y-52669299D02*
X55514786Y-52621680D01*
X55514786Y-52621680D02*
X55419548Y-52526441D01*
X55419548Y-52526441D02*
X55371929Y-52335965D01*
X55371929Y-52335965D02*
X55371929Y-52002632D01*
X55371929Y-52002632D02*
X55419548Y-51812156D01*
X55419548Y-51812156D02*
X55514786Y-51716918D01*
X55514786Y-51716918D02*
X55610024Y-51669299D01*
X100267167Y-53816918D02*
X100171929Y-53769299D01*
X100171929Y-53769299D02*
X100029072Y-53769299D01*
X100029072Y-53769299D02*
X99886215Y-53816918D01*
X99886215Y-53816918D02*
X99790977Y-53912156D01*
X99790977Y-53912156D02*
X99743358Y-54007394D01*
X99743358Y-54007394D02*
X99695739Y-54197870D01*
X99695739Y-54197870D02*
X99695739Y-54340727D01*
X99695739Y-54340727D02*
X99743358Y-54531203D01*
X99743358Y-54531203D02*
X99790977Y-54626441D01*
X99790977Y-54626441D02*
X99886215Y-54721680D01*
X99886215Y-54721680D02*
X100029072Y-54769299D01*
X100029072Y-54769299D02*
X100124310Y-54769299D01*
X100124310Y-54769299D02*
X100267167Y-54721680D01*
X100267167Y-54721680D02*
X100314786Y-54674060D01*
X100314786Y-54674060D02*
X100314786Y-54340727D01*
X100314786Y-54340727D02*
X100124310Y-54340727D01*
X100743358Y-54769299D02*
X100743358Y-53769299D01*
X100743358Y-53769299D02*
X101314786Y-54769299D01*
X101314786Y-54769299D02*
X101314786Y-53769299D01*
X101790977Y-54769299D02*
X101790977Y-53769299D01*
X101790977Y-53769299D02*
X102029072Y-53769299D01*
X102029072Y-53769299D02*
X102171929Y-53816918D01*
X102171929Y-53816918D02*
X102267167Y-53912156D01*
X102267167Y-53912156D02*
X102314786Y-54007394D01*
X102314786Y-54007394D02*
X102362405Y-54197870D01*
X102362405Y-54197870D02*
X102362405Y-54340727D01*
X102362405Y-54340727D02*
X102314786Y-54531203D01*
X102314786Y-54531203D02*
X102267167Y-54626441D01*
X102267167Y-54626441D02*
X102171929Y-54721680D01*
X102171929Y-54721680D02*
X102029072Y-54769299D01*
X102029072Y-54769299D02*
X101790977Y-54769299D01*
X125357143Y-105954299D02*
X125357143Y-104954299D01*
X125357143Y-104954299D02*
X125738095Y-104954299D01*
X125738095Y-104954299D02*
X125833333Y-105001918D01*
X125833333Y-105001918D02*
X125880952Y-105049537D01*
X125880952Y-105049537D02*
X125928571Y-105144775D01*
X125928571Y-105144775D02*
X125928571Y-105287632D01*
X125928571Y-105287632D02*
X125880952Y-105382870D01*
X125880952Y-105382870D02*
X125833333Y-105430489D01*
X125833333Y-105430489D02*
X125738095Y-105478108D01*
X125738095Y-105478108D02*
X125357143Y-105478108D01*
X126119048Y-106049537D02*
X126880952Y-106049537D01*
X127642857Y-105001918D02*
X127547619Y-104954299D01*
X127547619Y-104954299D02*
X127404762Y-104954299D01*
X127404762Y-104954299D02*
X127261905Y-105001918D01*
X127261905Y-105001918D02*
X127166667Y-105097156D01*
X127166667Y-105097156D02*
X127119048Y-105192394D01*
X127119048Y-105192394D02*
X127071429Y-105382870D01*
X127071429Y-105382870D02*
X127071429Y-105525727D01*
X127071429Y-105525727D02*
X127119048Y-105716203D01*
X127119048Y-105716203D02*
X127166667Y-105811441D01*
X127166667Y-105811441D02*
X127261905Y-105906680D01*
X127261905Y-105906680D02*
X127404762Y-105954299D01*
X127404762Y-105954299D02*
X127500000Y-105954299D01*
X127500000Y-105954299D02*
X127642857Y-105906680D01*
X127642857Y-105906680D02*
X127690476Y-105859060D01*
X127690476Y-105859060D02*
X127690476Y-105525727D01*
X127690476Y-105525727D02*
X127500000Y-105525727D01*
X128119048Y-105954299D02*
X128119048Y-104954299D01*
X128119048Y-104954299D02*
X128690476Y-105954299D01*
X128690476Y-105954299D02*
X128690476Y-104954299D01*
X129166667Y-105954299D02*
X129166667Y-104954299D01*
X129166667Y-104954299D02*
X129404762Y-104954299D01*
X129404762Y-104954299D02*
X129547619Y-105001918D01*
X129547619Y-105001918D02*
X129642857Y-105097156D01*
X129642857Y-105097156D02*
X129690476Y-105192394D01*
X129690476Y-105192394D02*
X129738095Y-105382870D01*
X129738095Y-105382870D02*
X129738095Y-105525727D01*
X129738095Y-105525727D02*
X129690476Y-105716203D01*
X129690476Y-105716203D02*
X129642857Y-105811441D01*
X129642857Y-105811441D02*
X129547619Y-105906680D01*
X129547619Y-105906680D02*
X129404762Y-105954299D01*
X129404762Y-105954299D02*
X129166667Y-105954299D01*
X130690476Y-105954299D02*
X130119048Y-105954299D01*
X130404762Y-105954299D02*
X130404762Y-104954299D01*
X130404762Y-104954299D02*
X130309524Y-105097156D01*
X130309524Y-105097156D02*
X130214286Y-105192394D01*
X130214286Y-105192394D02*
X130119048Y-105240013D01*
X121826680Y-47053332D02*
X121874299Y-46910475D01*
X121874299Y-46910475D02*
X121874299Y-46672380D01*
X121874299Y-46672380D02*
X121826680Y-46577142D01*
X121826680Y-46577142D02*
X121779060Y-46529523D01*
X121779060Y-46529523D02*
X121683822Y-46481904D01*
X121683822Y-46481904D02*
X121588584Y-46481904D01*
X121588584Y-46481904D02*
X121493346Y-46529523D01*
X121493346Y-46529523D02*
X121445727Y-46577142D01*
X121445727Y-46577142D02*
X121398108Y-46672380D01*
X121398108Y-46672380D02*
X121350489Y-46862856D01*
X121350489Y-46862856D02*
X121302870Y-46958094D01*
X121302870Y-46958094D02*
X121255251Y-47005713D01*
X121255251Y-47005713D02*
X121160013Y-47053332D01*
X121160013Y-47053332D02*
X121064775Y-47053332D01*
X121064775Y-47053332D02*
X120969537Y-47005713D01*
X120969537Y-47005713D02*
X120921918Y-46958094D01*
X120921918Y-46958094D02*
X120874299Y-46862856D01*
X120874299Y-46862856D02*
X120874299Y-46624761D01*
X120874299Y-46624761D02*
X120921918Y-46481904D01*
X120874299Y-46148570D02*
X121874299Y-45910475D01*
X121874299Y-45910475D02*
X121160013Y-45719999D01*
X121160013Y-45719999D02*
X121874299Y-45529523D01*
X121874299Y-45529523D02*
X120874299Y-45291428D01*
X120969537Y-44958094D02*
X120921918Y-44910475D01*
X120921918Y-44910475D02*
X120874299Y-44815237D01*
X120874299Y-44815237D02*
X120874299Y-44577142D01*
X120874299Y-44577142D02*
X120921918Y-44481904D01*
X120921918Y-44481904D02*
X120969537Y-44434285D01*
X120969537Y-44434285D02*
X121064775Y-44386666D01*
X121064775Y-44386666D02*
X121160013Y-44386666D01*
X121160013Y-44386666D02*
X121302870Y-44434285D01*
X121302870Y-44434285D02*
X121874299Y-45005713D01*
X121874299Y-45005713D02*
X121874299Y-44386666D01*
X117789299Y-43876641D02*
X116789299Y-43876641D01*
X117789299Y-43400451D02*
X116789299Y-43400451D01*
X116789299Y-43400451D02*
X117789299Y-42829023D01*
X117789299Y-42829023D02*
X116789299Y-42829023D01*
X116789299Y-49186165D02*
X116789299Y-48995689D01*
X116789299Y-48995689D02*
X116836918Y-48900451D01*
X116836918Y-48900451D02*
X116932156Y-48805213D01*
X116932156Y-48805213D02*
X117122632Y-48757594D01*
X117122632Y-48757594D02*
X117455965Y-48757594D01*
X117455965Y-48757594D02*
X117646441Y-48805213D01*
X117646441Y-48805213D02*
X117741680Y-48900451D01*
X117741680Y-48900451D02*
X117789299Y-48995689D01*
X117789299Y-48995689D02*
X117789299Y-49186165D01*
X117789299Y-49186165D02*
X117741680Y-49281403D01*
X117741680Y-49281403D02*
X117646441Y-49376641D01*
X117646441Y-49376641D02*
X117455965Y-49424260D01*
X117455965Y-49424260D02*
X117122632Y-49424260D01*
X117122632Y-49424260D02*
X116932156Y-49376641D01*
X116932156Y-49376641D02*
X116836918Y-49281403D01*
X116836918Y-49281403D02*
X116789299Y-49186165D01*
X116789299Y-48329022D02*
X117598822Y-48329022D01*
X117598822Y-48329022D02*
X117694060Y-48281403D01*
X117694060Y-48281403D02*
X117741680Y-48233784D01*
X117741680Y-48233784D02*
X117789299Y-48138546D01*
X117789299Y-48138546D02*
X117789299Y-47948070D01*
X117789299Y-47948070D02*
X117741680Y-47852832D01*
X117741680Y-47852832D02*
X117694060Y-47805213D01*
X117694060Y-47805213D02*
X117598822Y-47757594D01*
X117598822Y-47757594D02*
X116789299Y-47757594D01*
X116789299Y-47424260D02*
X116789299Y-46852832D01*
X117789299Y-47138546D02*
X116789299Y-47138546D01*
X125369299Y-49186165D02*
X125369299Y-48995689D01*
X125369299Y-48995689D02*
X125416918Y-48900451D01*
X125416918Y-48900451D02*
X125512156Y-48805213D01*
X125512156Y-48805213D02*
X125702632Y-48757594D01*
X125702632Y-48757594D02*
X126035965Y-48757594D01*
X126035965Y-48757594D02*
X126226441Y-48805213D01*
X126226441Y-48805213D02*
X126321680Y-48900451D01*
X126321680Y-48900451D02*
X126369299Y-48995689D01*
X126369299Y-48995689D02*
X126369299Y-49186165D01*
X126369299Y-49186165D02*
X126321680Y-49281403D01*
X126321680Y-49281403D02*
X126226441Y-49376641D01*
X126226441Y-49376641D02*
X126035965Y-49424260D01*
X126035965Y-49424260D02*
X125702632Y-49424260D01*
X125702632Y-49424260D02*
X125512156Y-49376641D01*
X125512156Y-49376641D02*
X125416918Y-49281403D01*
X125416918Y-49281403D02*
X125369299Y-49186165D01*
X125369299Y-48329022D02*
X126178822Y-48329022D01*
X126178822Y-48329022D02*
X126274060Y-48281403D01*
X126274060Y-48281403D02*
X126321680Y-48233784D01*
X126321680Y-48233784D02*
X126369299Y-48138546D01*
X126369299Y-48138546D02*
X126369299Y-47948070D01*
X126369299Y-47948070D02*
X126321680Y-47852832D01*
X126321680Y-47852832D02*
X126274060Y-47805213D01*
X126274060Y-47805213D02*
X126178822Y-47757594D01*
X126178822Y-47757594D02*
X125369299Y-47757594D01*
X125369299Y-47424260D02*
X125369299Y-46852832D01*
X126369299Y-47138546D02*
X125369299Y-47138546D01*
X126369299Y-43656641D02*
X125369299Y-43656641D01*
X126369299Y-43180451D02*
X125369299Y-43180451D01*
X125369299Y-43180451D02*
X126369299Y-42609023D01*
X126369299Y-42609023D02*
X125369299Y-42609023D01*
X113976190Y-97954299D02*
X113976190Y-96954299D01*
X113976190Y-96954299D02*
X114357142Y-96954299D01*
X114357142Y-96954299D02*
X114452380Y-97001918D01*
X114452380Y-97001918D02*
X114499999Y-97049537D01*
X114499999Y-97049537D02*
X114547618Y-97144775D01*
X114547618Y-97144775D02*
X114547618Y-97287632D01*
X114547618Y-97287632D02*
X114499999Y-97382870D01*
X114499999Y-97382870D02*
X114452380Y-97430489D01*
X114452380Y-97430489D02*
X114357142Y-97478108D01*
X114357142Y-97478108D02*
X113976190Y-97478108D01*
X114738095Y-98049537D02*
X115499999Y-98049537D01*
X115642857Y-96954299D02*
X116261904Y-96954299D01*
X116261904Y-96954299D02*
X115928571Y-97335251D01*
X115928571Y-97335251D02*
X116071428Y-97335251D01*
X116071428Y-97335251D02*
X116166666Y-97382870D01*
X116166666Y-97382870D02*
X116214285Y-97430489D01*
X116214285Y-97430489D02*
X116261904Y-97525727D01*
X116261904Y-97525727D02*
X116261904Y-97763822D01*
X116261904Y-97763822D02*
X116214285Y-97859060D01*
X116214285Y-97859060D02*
X116166666Y-97906680D01*
X116166666Y-97906680D02*
X116071428Y-97954299D01*
X116071428Y-97954299D02*
X115785714Y-97954299D01*
X115785714Y-97954299D02*
X115690476Y-97906680D01*
X115690476Y-97906680D02*
X115642857Y-97859060D01*
X116547619Y-96954299D02*
X116880952Y-97954299D01*
X116880952Y-97954299D02*
X117214285Y-96954299D01*
X117452381Y-96954299D02*
X118071428Y-96954299D01*
X118071428Y-96954299D02*
X117738095Y-97335251D01*
X117738095Y-97335251D02*
X117880952Y-97335251D01*
X117880952Y-97335251D02*
X117976190Y-97382870D01*
X117976190Y-97382870D02*
X118023809Y-97430489D01*
X118023809Y-97430489D02*
X118071428Y-97525727D01*
X118071428Y-97525727D02*
X118071428Y-97763822D01*
X118071428Y-97763822D02*
X118023809Y-97859060D01*
X118023809Y-97859060D02*
X117976190Y-97906680D01*
X117976190Y-97906680D02*
X117880952Y-97954299D01*
X117880952Y-97954299D02*
X117595238Y-97954299D01*
X117595238Y-97954299D02*
X117500000Y-97906680D01*
X117500000Y-97906680D02*
X117452381Y-97859060D01*
X128930489Y-112640952D02*
X128978108Y-112498095D01*
X128978108Y-112498095D02*
X129025727Y-112450476D01*
X129025727Y-112450476D02*
X129120965Y-112402857D01*
X129120965Y-112402857D02*
X129263822Y-112402857D01*
X129263822Y-112402857D02*
X129359060Y-112450476D01*
X129359060Y-112450476D02*
X129406680Y-112498095D01*
X129406680Y-112498095D02*
X129454299Y-112593333D01*
X129454299Y-112593333D02*
X129454299Y-112974285D01*
X129454299Y-112974285D02*
X128454299Y-112974285D01*
X128454299Y-112974285D02*
X128454299Y-112640952D01*
X128454299Y-112640952D02*
X128501918Y-112545714D01*
X128501918Y-112545714D02*
X128549537Y-112498095D01*
X128549537Y-112498095D02*
X128644775Y-112450476D01*
X128644775Y-112450476D02*
X128740013Y-112450476D01*
X128740013Y-112450476D02*
X128835251Y-112498095D01*
X128835251Y-112498095D02*
X128882870Y-112545714D01*
X128882870Y-112545714D02*
X128930489Y-112640952D01*
X128930489Y-112640952D02*
X128930489Y-112974285D01*
X128454299Y-112069523D02*
X128454299Y-111402857D01*
X128454299Y-111402857D02*
X129454299Y-112069523D01*
X129454299Y-112069523D02*
X129454299Y-111402857D01*
X129454299Y-110498095D02*
X129454299Y-111069523D01*
X129454299Y-110783809D02*
X128454299Y-110783809D01*
X128454299Y-110783809D02*
X128597156Y-110879047D01*
X128597156Y-110879047D02*
X128692394Y-110974285D01*
X128692394Y-110974285D02*
X128740013Y-111069523D01*
X123273346Y-108330951D02*
X123273346Y-107569047D01*
X123654299Y-107949999D02*
X122892394Y-107949999D01*
X121826680Y-64833332D02*
X121874299Y-64690475D01*
X121874299Y-64690475D02*
X121874299Y-64452380D01*
X121874299Y-64452380D02*
X121826680Y-64357142D01*
X121826680Y-64357142D02*
X121779060Y-64309523D01*
X121779060Y-64309523D02*
X121683822Y-64261904D01*
X121683822Y-64261904D02*
X121588584Y-64261904D01*
X121588584Y-64261904D02*
X121493346Y-64309523D01*
X121493346Y-64309523D02*
X121445727Y-64357142D01*
X121445727Y-64357142D02*
X121398108Y-64452380D01*
X121398108Y-64452380D02*
X121350489Y-64642856D01*
X121350489Y-64642856D02*
X121302870Y-64738094D01*
X121302870Y-64738094D02*
X121255251Y-64785713D01*
X121255251Y-64785713D02*
X121160013Y-64833332D01*
X121160013Y-64833332D02*
X121064775Y-64833332D01*
X121064775Y-64833332D02*
X120969537Y-64785713D01*
X120969537Y-64785713D02*
X120921918Y-64738094D01*
X120921918Y-64738094D02*
X120874299Y-64642856D01*
X120874299Y-64642856D02*
X120874299Y-64404761D01*
X120874299Y-64404761D02*
X120921918Y-64261904D01*
X120874299Y-63928570D02*
X121874299Y-63690475D01*
X121874299Y-63690475D02*
X121160013Y-63499999D01*
X121160013Y-63499999D02*
X121874299Y-63309523D01*
X121874299Y-63309523D02*
X120874299Y-63071428D01*
X120874299Y-62785713D02*
X120874299Y-62166666D01*
X120874299Y-62166666D02*
X121255251Y-62499999D01*
X121255251Y-62499999D02*
X121255251Y-62357142D01*
X121255251Y-62357142D02*
X121302870Y-62261904D01*
X121302870Y-62261904D02*
X121350489Y-62214285D01*
X121350489Y-62214285D02*
X121445727Y-62166666D01*
X121445727Y-62166666D02*
X121683822Y-62166666D01*
X121683822Y-62166666D02*
X121779060Y-62214285D01*
X121779060Y-62214285D02*
X121826680Y-62261904D01*
X121826680Y-62261904D02*
X121874299Y-62357142D01*
X121874299Y-62357142D02*
X121874299Y-62642856D01*
X121874299Y-62642856D02*
X121826680Y-62738094D01*
X121826680Y-62738094D02*
X121779060Y-62785713D01*
X126369299Y-61656641D02*
X125369299Y-61656641D01*
X126369299Y-61180451D02*
X125369299Y-61180451D01*
X125369299Y-61180451D02*
X126369299Y-60609023D01*
X126369299Y-60609023D02*
X125369299Y-60609023D01*
X125369299Y-66966165D02*
X125369299Y-66775689D01*
X125369299Y-66775689D02*
X125416918Y-66680451D01*
X125416918Y-66680451D02*
X125512156Y-66585213D01*
X125512156Y-66585213D02*
X125702632Y-66537594D01*
X125702632Y-66537594D02*
X126035965Y-66537594D01*
X126035965Y-66537594D02*
X126226441Y-66585213D01*
X126226441Y-66585213D02*
X126321680Y-66680451D01*
X126321680Y-66680451D02*
X126369299Y-66775689D01*
X126369299Y-66775689D02*
X126369299Y-66966165D01*
X126369299Y-66966165D02*
X126321680Y-67061403D01*
X126321680Y-67061403D02*
X126226441Y-67156641D01*
X126226441Y-67156641D02*
X126035965Y-67204260D01*
X126035965Y-67204260D02*
X125702632Y-67204260D01*
X125702632Y-67204260D02*
X125512156Y-67156641D01*
X125512156Y-67156641D02*
X125416918Y-67061403D01*
X125416918Y-67061403D02*
X125369299Y-66966165D01*
X125369299Y-66109022D02*
X126178822Y-66109022D01*
X126178822Y-66109022D02*
X126274060Y-66061403D01*
X126274060Y-66061403D02*
X126321680Y-66013784D01*
X126321680Y-66013784D02*
X126369299Y-65918546D01*
X126369299Y-65918546D02*
X126369299Y-65728070D01*
X126369299Y-65728070D02*
X126321680Y-65632832D01*
X126321680Y-65632832D02*
X126274060Y-65585213D01*
X126274060Y-65585213D02*
X126178822Y-65537594D01*
X126178822Y-65537594D02*
X125369299Y-65537594D01*
X125369299Y-65204260D02*
X125369299Y-64632832D01*
X126369299Y-64918546D02*
X125369299Y-64918546D01*
X116789299Y-66966165D02*
X116789299Y-66775689D01*
X116789299Y-66775689D02*
X116836918Y-66680451D01*
X116836918Y-66680451D02*
X116932156Y-66585213D01*
X116932156Y-66585213D02*
X117122632Y-66537594D01*
X117122632Y-66537594D02*
X117455965Y-66537594D01*
X117455965Y-66537594D02*
X117646441Y-66585213D01*
X117646441Y-66585213D02*
X117741680Y-66680451D01*
X117741680Y-66680451D02*
X117789299Y-66775689D01*
X117789299Y-66775689D02*
X117789299Y-66966165D01*
X117789299Y-66966165D02*
X117741680Y-67061403D01*
X117741680Y-67061403D02*
X117646441Y-67156641D01*
X117646441Y-67156641D02*
X117455965Y-67204260D01*
X117455965Y-67204260D02*
X117122632Y-67204260D01*
X117122632Y-67204260D02*
X116932156Y-67156641D01*
X116932156Y-67156641D02*
X116836918Y-67061403D01*
X116836918Y-67061403D02*
X116789299Y-66966165D01*
X116789299Y-66109022D02*
X117598822Y-66109022D01*
X117598822Y-66109022D02*
X117694060Y-66061403D01*
X117694060Y-66061403D02*
X117741680Y-66013784D01*
X117741680Y-66013784D02*
X117789299Y-65918546D01*
X117789299Y-65918546D02*
X117789299Y-65728070D01*
X117789299Y-65728070D02*
X117741680Y-65632832D01*
X117741680Y-65632832D02*
X117694060Y-65585213D01*
X117694060Y-65585213D02*
X117598822Y-65537594D01*
X117598822Y-65537594D02*
X116789299Y-65537594D01*
X116789299Y-65204260D02*
X116789299Y-64632832D01*
X117789299Y-64918546D02*
X116789299Y-64918546D01*
X117789299Y-61656641D02*
X116789299Y-61656641D01*
X117789299Y-61180451D02*
X116789299Y-61180451D01*
X116789299Y-61180451D02*
X117789299Y-60609023D01*
X117789299Y-60609023D02*
X116789299Y-60609023D01*
X109880952Y-109354299D02*
X109880952Y-108354299D01*
X109880952Y-108354299D02*
X110261904Y-108354299D01*
X110261904Y-108354299D02*
X110357142Y-108401918D01*
X110357142Y-108401918D02*
X110404761Y-108449537D01*
X110404761Y-108449537D02*
X110452380Y-108544775D01*
X110452380Y-108544775D02*
X110452380Y-108687632D01*
X110452380Y-108687632D02*
X110404761Y-108782870D01*
X110404761Y-108782870D02*
X110357142Y-108830489D01*
X110357142Y-108830489D02*
X110261904Y-108878108D01*
X110261904Y-108878108D02*
X109880952Y-108878108D01*
X110642857Y-109449537D02*
X111404761Y-109449537D01*
X111642857Y-109354299D02*
X111642857Y-108354299D01*
X111642857Y-108354299D02*
X111880952Y-108354299D01*
X111880952Y-108354299D02*
X112023809Y-108401918D01*
X112023809Y-108401918D02*
X112119047Y-108497156D01*
X112119047Y-108497156D02*
X112166666Y-108592394D01*
X112166666Y-108592394D02*
X112214285Y-108782870D01*
X112214285Y-108782870D02*
X112214285Y-108925727D01*
X112214285Y-108925727D02*
X112166666Y-109116203D01*
X112166666Y-109116203D02*
X112119047Y-109211441D01*
X112119047Y-109211441D02*
X112023809Y-109306680D01*
X112023809Y-109306680D02*
X111880952Y-109354299D01*
X111880952Y-109354299D02*
X111642857Y-109354299D01*
X112547619Y-108354299D02*
X113214285Y-108354299D01*
X113214285Y-108354299D02*
X112785714Y-109354299D01*
X40080952Y-92954299D02*
X40080952Y-91954299D01*
X40080952Y-91954299D02*
X40461904Y-91954299D01*
X40461904Y-91954299D02*
X40557142Y-92001918D01*
X40557142Y-92001918D02*
X40604761Y-92049537D01*
X40604761Y-92049537D02*
X40652380Y-92144775D01*
X40652380Y-92144775D02*
X40652380Y-92287632D01*
X40652380Y-92287632D02*
X40604761Y-92382870D01*
X40604761Y-92382870D02*
X40557142Y-92430489D01*
X40557142Y-92430489D02*
X40461904Y-92478108D01*
X40461904Y-92478108D02*
X40080952Y-92478108D01*
X40842857Y-93049537D02*
X41604761Y-93049537D01*
X41842857Y-92954299D02*
X41842857Y-91954299D01*
X41842857Y-91954299D02*
X42080952Y-91954299D01*
X42080952Y-91954299D02*
X42223809Y-92001918D01*
X42223809Y-92001918D02*
X42319047Y-92097156D01*
X42319047Y-92097156D02*
X42366666Y-92192394D01*
X42366666Y-92192394D02*
X42414285Y-92382870D01*
X42414285Y-92382870D02*
X42414285Y-92525727D01*
X42414285Y-92525727D02*
X42366666Y-92716203D01*
X42366666Y-92716203D02*
X42319047Y-92811441D01*
X42319047Y-92811441D02*
X42223809Y-92906680D01*
X42223809Y-92906680D02*
X42080952Y-92954299D01*
X42080952Y-92954299D02*
X41842857Y-92954299D01*
X43319047Y-91954299D02*
X42842857Y-91954299D01*
X42842857Y-91954299D02*
X42795238Y-92430489D01*
X42795238Y-92430489D02*
X42842857Y-92382870D01*
X42842857Y-92382870D02*
X42938095Y-92335251D01*
X42938095Y-92335251D02*
X43176190Y-92335251D01*
X43176190Y-92335251D02*
X43271428Y-92382870D01*
X43271428Y-92382870D02*
X43319047Y-92430489D01*
X43319047Y-92430489D02*
X43366666Y-92525727D01*
X43366666Y-92525727D02*
X43366666Y-92763822D01*
X43366666Y-92763822D02*
X43319047Y-92859060D01*
X43319047Y-92859060D02*
X43271428Y-92906680D01*
X43271428Y-92906680D02*
X43176190Y-92954299D01*
X43176190Y-92954299D02*
X42938095Y-92954299D01*
X42938095Y-92954299D02*
X42842857Y-92906680D01*
X42842857Y-92906680D02*
X42795238Y-92859060D01*
X124857143Y-98454299D02*
X124857143Y-97454299D01*
X124857143Y-97454299D02*
X125238095Y-97454299D01*
X125238095Y-97454299D02*
X125333333Y-97501918D01*
X125333333Y-97501918D02*
X125380952Y-97549537D01*
X125380952Y-97549537D02*
X125428571Y-97644775D01*
X125428571Y-97644775D02*
X125428571Y-97787632D01*
X125428571Y-97787632D02*
X125380952Y-97882870D01*
X125380952Y-97882870D02*
X125333333Y-97930489D01*
X125333333Y-97930489D02*
X125238095Y-97978108D01*
X125238095Y-97978108D02*
X124857143Y-97978108D01*
X125619048Y-98549537D02*
X126380952Y-98549537D01*
X127142857Y-97501918D02*
X127047619Y-97454299D01*
X127047619Y-97454299D02*
X126904762Y-97454299D01*
X126904762Y-97454299D02*
X126761905Y-97501918D01*
X126761905Y-97501918D02*
X126666667Y-97597156D01*
X126666667Y-97597156D02*
X126619048Y-97692394D01*
X126619048Y-97692394D02*
X126571429Y-97882870D01*
X126571429Y-97882870D02*
X126571429Y-98025727D01*
X126571429Y-98025727D02*
X126619048Y-98216203D01*
X126619048Y-98216203D02*
X126666667Y-98311441D01*
X126666667Y-98311441D02*
X126761905Y-98406680D01*
X126761905Y-98406680D02*
X126904762Y-98454299D01*
X126904762Y-98454299D02*
X127000000Y-98454299D01*
X127000000Y-98454299D02*
X127142857Y-98406680D01*
X127142857Y-98406680D02*
X127190476Y-98359060D01*
X127190476Y-98359060D02*
X127190476Y-98025727D01*
X127190476Y-98025727D02*
X127000000Y-98025727D01*
X127619048Y-98454299D02*
X127619048Y-97454299D01*
X127619048Y-97454299D02*
X128190476Y-98454299D01*
X128190476Y-98454299D02*
X128190476Y-97454299D01*
X128666667Y-98454299D02*
X128666667Y-97454299D01*
X128666667Y-97454299D02*
X128904762Y-97454299D01*
X128904762Y-97454299D02*
X129047619Y-97501918D01*
X129047619Y-97501918D02*
X129142857Y-97597156D01*
X129142857Y-97597156D02*
X129190476Y-97692394D01*
X129190476Y-97692394D02*
X129238095Y-97882870D01*
X129238095Y-97882870D02*
X129238095Y-98025727D01*
X129238095Y-98025727D02*
X129190476Y-98216203D01*
X129190476Y-98216203D02*
X129142857Y-98311441D01*
X129142857Y-98311441D02*
X129047619Y-98406680D01*
X129047619Y-98406680D02*
X128904762Y-98454299D01*
X128904762Y-98454299D02*
X128666667Y-98454299D01*
X129619048Y-97549537D02*
X129666667Y-97501918D01*
X129666667Y-97501918D02*
X129761905Y-97454299D01*
X129761905Y-97454299D02*
X130000000Y-97454299D01*
X130000000Y-97454299D02*
X130095238Y-97501918D01*
X130095238Y-97501918D02*
X130142857Y-97549537D01*
X130142857Y-97549537D02*
X130190476Y-97644775D01*
X130190476Y-97644775D02*
X130190476Y-97740013D01*
X130190476Y-97740013D02*
X130142857Y-97882870D01*
X130142857Y-97882870D02*
X129571429Y-98454299D01*
X129571429Y-98454299D02*
X130190476Y-98454299D01*
X107880952Y-124554299D02*
X107880952Y-123554299D01*
X107880952Y-123554299D02*
X108261904Y-123554299D01*
X108261904Y-123554299D02*
X108357142Y-123601918D01*
X108357142Y-123601918D02*
X108404761Y-123649537D01*
X108404761Y-123649537D02*
X108452380Y-123744775D01*
X108452380Y-123744775D02*
X108452380Y-123887632D01*
X108452380Y-123887632D02*
X108404761Y-123982870D01*
X108404761Y-123982870D02*
X108357142Y-124030489D01*
X108357142Y-124030489D02*
X108261904Y-124078108D01*
X108261904Y-124078108D02*
X107880952Y-124078108D01*
X108642857Y-124649537D02*
X109404761Y-124649537D01*
X109642857Y-124554299D02*
X109642857Y-123554299D01*
X109642857Y-123554299D02*
X109880952Y-123554299D01*
X109880952Y-123554299D02*
X110023809Y-123601918D01*
X110023809Y-123601918D02*
X110119047Y-123697156D01*
X110119047Y-123697156D02*
X110166666Y-123792394D01*
X110166666Y-123792394D02*
X110214285Y-123982870D01*
X110214285Y-123982870D02*
X110214285Y-124125727D01*
X110214285Y-124125727D02*
X110166666Y-124316203D01*
X110166666Y-124316203D02*
X110119047Y-124411441D01*
X110119047Y-124411441D02*
X110023809Y-124506680D01*
X110023809Y-124506680D02*
X109880952Y-124554299D01*
X109880952Y-124554299D02*
X109642857Y-124554299D01*
X111071428Y-123887632D02*
X111071428Y-124554299D01*
X110833333Y-123506680D02*
X110595238Y-124220965D01*
X110595238Y-124220965D02*
X111214285Y-124220965D01*
X121826680Y-82613332D02*
X121874299Y-82470475D01*
X121874299Y-82470475D02*
X121874299Y-82232380D01*
X121874299Y-82232380D02*
X121826680Y-82137142D01*
X121826680Y-82137142D02*
X121779060Y-82089523D01*
X121779060Y-82089523D02*
X121683822Y-82041904D01*
X121683822Y-82041904D02*
X121588584Y-82041904D01*
X121588584Y-82041904D02*
X121493346Y-82089523D01*
X121493346Y-82089523D02*
X121445727Y-82137142D01*
X121445727Y-82137142D02*
X121398108Y-82232380D01*
X121398108Y-82232380D02*
X121350489Y-82422856D01*
X121350489Y-82422856D02*
X121302870Y-82518094D01*
X121302870Y-82518094D02*
X121255251Y-82565713D01*
X121255251Y-82565713D02*
X121160013Y-82613332D01*
X121160013Y-82613332D02*
X121064775Y-82613332D01*
X121064775Y-82613332D02*
X120969537Y-82565713D01*
X120969537Y-82565713D02*
X120921918Y-82518094D01*
X120921918Y-82518094D02*
X120874299Y-82422856D01*
X120874299Y-82422856D02*
X120874299Y-82184761D01*
X120874299Y-82184761D02*
X120921918Y-82041904D01*
X120874299Y-81708570D02*
X121874299Y-81470475D01*
X121874299Y-81470475D02*
X121160013Y-81279999D01*
X121160013Y-81279999D02*
X121874299Y-81089523D01*
X121874299Y-81089523D02*
X120874299Y-80851428D01*
X121207632Y-80041904D02*
X121874299Y-80041904D01*
X120826680Y-80279999D02*
X121540965Y-80518094D01*
X121540965Y-80518094D02*
X121540965Y-79899047D01*
X125369299Y-84746165D02*
X125369299Y-84555689D01*
X125369299Y-84555689D02*
X125416918Y-84460451D01*
X125416918Y-84460451D02*
X125512156Y-84365213D01*
X125512156Y-84365213D02*
X125702632Y-84317594D01*
X125702632Y-84317594D02*
X126035965Y-84317594D01*
X126035965Y-84317594D02*
X126226441Y-84365213D01*
X126226441Y-84365213D02*
X126321680Y-84460451D01*
X126321680Y-84460451D02*
X126369299Y-84555689D01*
X126369299Y-84555689D02*
X126369299Y-84746165D01*
X126369299Y-84746165D02*
X126321680Y-84841403D01*
X126321680Y-84841403D02*
X126226441Y-84936641D01*
X126226441Y-84936641D02*
X126035965Y-84984260D01*
X126035965Y-84984260D02*
X125702632Y-84984260D01*
X125702632Y-84984260D02*
X125512156Y-84936641D01*
X125512156Y-84936641D02*
X125416918Y-84841403D01*
X125416918Y-84841403D02*
X125369299Y-84746165D01*
X125369299Y-83889022D02*
X126178822Y-83889022D01*
X126178822Y-83889022D02*
X126274060Y-83841403D01*
X126274060Y-83841403D02*
X126321680Y-83793784D01*
X126321680Y-83793784D02*
X126369299Y-83698546D01*
X126369299Y-83698546D02*
X126369299Y-83508070D01*
X126369299Y-83508070D02*
X126321680Y-83412832D01*
X126321680Y-83412832D02*
X126274060Y-83365213D01*
X126274060Y-83365213D02*
X126178822Y-83317594D01*
X126178822Y-83317594D02*
X125369299Y-83317594D01*
X125369299Y-82984260D02*
X125369299Y-82412832D01*
X126369299Y-82698546D02*
X125369299Y-82698546D01*
X116789299Y-84746165D02*
X116789299Y-84555689D01*
X116789299Y-84555689D02*
X116836918Y-84460451D01*
X116836918Y-84460451D02*
X116932156Y-84365213D01*
X116932156Y-84365213D02*
X117122632Y-84317594D01*
X117122632Y-84317594D02*
X117455965Y-84317594D01*
X117455965Y-84317594D02*
X117646441Y-84365213D01*
X117646441Y-84365213D02*
X117741680Y-84460451D01*
X117741680Y-84460451D02*
X117789299Y-84555689D01*
X117789299Y-84555689D02*
X117789299Y-84746165D01*
X117789299Y-84746165D02*
X117741680Y-84841403D01*
X117741680Y-84841403D02*
X117646441Y-84936641D01*
X117646441Y-84936641D02*
X117455965Y-84984260D01*
X117455965Y-84984260D02*
X117122632Y-84984260D01*
X117122632Y-84984260D02*
X116932156Y-84936641D01*
X116932156Y-84936641D02*
X116836918Y-84841403D01*
X116836918Y-84841403D02*
X116789299Y-84746165D01*
X116789299Y-83889022D02*
X117598822Y-83889022D01*
X117598822Y-83889022D02*
X117694060Y-83841403D01*
X117694060Y-83841403D02*
X117741680Y-83793784D01*
X117741680Y-83793784D02*
X117789299Y-83698546D01*
X117789299Y-83698546D02*
X117789299Y-83508070D01*
X117789299Y-83508070D02*
X117741680Y-83412832D01*
X117741680Y-83412832D02*
X117694060Y-83365213D01*
X117694060Y-83365213D02*
X117598822Y-83317594D01*
X117598822Y-83317594D02*
X116789299Y-83317594D01*
X116789299Y-82984260D02*
X116789299Y-82412832D01*
X117789299Y-82698546D02*
X116789299Y-82698546D01*
X126369299Y-79436641D02*
X125369299Y-79436641D01*
X126369299Y-78960451D02*
X125369299Y-78960451D01*
X125369299Y-78960451D02*
X126369299Y-78389023D01*
X126369299Y-78389023D02*
X125369299Y-78389023D01*
X117789299Y-79436641D02*
X116789299Y-79436641D01*
X117789299Y-78960451D02*
X116789299Y-78960451D01*
X116789299Y-78960451D02*
X117789299Y-78389023D01*
X117789299Y-78389023D02*
X116789299Y-78389023D01*
X100514786Y-81884060D02*
X100467167Y-81931680D01*
X100467167Y-81931680D02*
X100324310Y-81979299D01*
X100324310Y-81979299D02*
X100229072Y-81979299D01*
X100229072Y-81979299D02*
X100086215Y-81931680D01*
X100086215Y-81931680D02*
X99990977Y-81836441D01*
X99990977Y-81836441D02*
X99943358Y-81741203D01*
X99943358Y-81741203D02*
X99895739Y-81550727D01*
X99895739Y-81550727D02*
X99895739Y-81407870D01*
X99895739Y-81407870D02*
X99943358Y-81217394D01*
X99943358Y-81217394D02*
X99990977Y-81122156D01*
X99990977Y-81122156D02*
X100086215Y-81026918D01*
X100086215Y-81026918D02*
X100229072Y-80979299D01*
X100229072Y-80979299D02*
X100324310Y-80979299D01*
X100324310Y-80979299D02*
X100467167Y-81026918D01*
X100467167Y-81026918D02*
X100514786Y-81074537D01*
X101419548Y-81979299D02*
X100943358Y-81979299D01*
X100943358Y-81979299D02*
X100943358Y-80979299D01*
X101752882Y-81979299D02*
X101752882Y-80979299D01*
X102324310Y-81979299D02*
X101895739Y-81407870D01*
X102324310Y-80979299D02*
X101752882Y-81550727D01*
X100367167Y-86016918D02*
X100271929Y-85969299D01*
X100271929Y-85969299D02*
X100129072Y-85969299D01*
X100129072Y-85969299D02*
X99986215Y-86016918D01*
X99986215Y-86016918D02*
X99890977Y-86112156D01*
X99890977Y-86112156D02*
X99843358Y-86207394D01*
X99843358Y-86207394D02*
X99795739Y-86397870D01*
X99795739Y-86397870D02*
X99795739Y-86540727D01*
X99795739Y-86540727D02*
X99843358Y-86731203D01*
X99843358Y-86731203D02*
X99890977Y-86826441D01*
X99890977Y-86826441D02*
X99986215Y-86921680D01*
X99986215Y-86921680D02*
X100129072Y-86969299D01*
X100129072Y-86969299D02*
X100224310Y-86969299D01*
X100224310Y-86969299D02*
X100367167Y-86921680D01*
X100367167Y-86921680D02*
X100414786Y-86874060D01*
X100414786Y-86874060D02*
X100414786Y-86540727D01*
X100414786Y-86540727D02*
X100224310Y-86540727D01*
X100843358Y-86969299D02*
X100843358Y-85969299D01*
X100843358Y-85969299D02*
X101414786Y-86969299D01*
X101414786Y-86969299D02*
X101414786Y-85969299D01*
X101890977Y-86969299D02*
X101890977Y-85969299D01*
X101890977Y-85969299D02*
X102129072Y-85969299D01*
X102129072Y-85969299D02*
X102271929Y-86016918D01*
X102271929Y-86016918D02*
X102367167Y-86112156D01*
X102367167Y-86112156D02*
X102414786Y-86207394D01*
X102414786Y-86207394D02*
X102462405Y-86397870D01*
X102462405Y-86397870D02*
X102462405Y-86540727D01*
X102462405Y-86540727D02*
X102414786Y-86731203D01*
X102414786Y-86731203D02*
X102367167Y-86826441D01*
X102367167Y-86826441D02*
X102271929Y-86921680D01*
X102271929Y-86921680D02*
X102129072Y-86969299D01*
X102129072Y-86969299D02*
X101890977Y-86969299D01*
X74295739Y-82344649D02*
X74343358Y-82297030D01*
X74343358Y-82297030D02*
X74438596Y-82249411D01*
X74438596Y-82249411D02*
X74676691Y-82249411D01*
X74676691Y-82249411D02*
X74771929Y-82297030D01*
X74771929Y-82297030D02*
X74819548Y-82344649D01*
X74819548Y-82344649D02*
X74867167Y-82439887D01*
X74867167Y-82439887D02*
X74867167Y-82535125D01*
X74867167Y-82535125D02*
X74819548Y-82677982D01*
X74819548Y-82677982D02*
X74248120Y-83249411D01*
X74248120Y-83249411D02*
X74867167Y-83249411D01*
X75295739Y-83154172D02*
X75343358Y-83201792D01*
X75343358Y-83201792D02*
X75295739Y-83249411D01*
X75295739Y-83249411D02*
X75248120Y-83201792D01*
X75248120Y-83201792D02*
X75295739Y-83154172D01*
X75295739Y-83154172D02*
X75295739Y-83249411D01*
X76200500Y-82582744D02*
X76200500Y-83249411D01*
X75962405Y-82201792D02*
X75724310Y-82916077D01*
X75724310Y-82916077D02*
X76343357Y-82916077D01*
X76724310Y-83249411D02*
X76724310Y-82249411D01*
X76724310Y-82249411D02*
X77057643Y-82963696D01*
X77057643Y-82963696D02*
X77390976Y-82249411D01*
X77390976Y-82249411D02*
X77390976Y-83249411D01*
X77867167Y-83249411D02*
X77867167Y-82249411D01*
X77867167Y-82249411D02*
X78200500Y-82963696D01*
X78200500Y-82963696D02*
X78533833Y-82249411D01*
X78533833Y-82249411D02*
X78533833Y-83249411D01*
X74676691Y-84335545D02*
X74819548Y-84383164D01*
X74819548Y-84383164D02*
X74867167Y-84430783D01*
X74867167Y-84430783D02*
X74914786Y-84526021D01*
X74914786Y-84526021D02*
X74914786Y-84668878D01*
X74914786Y-84668878D02*
X74867167Y-84764116D01*
X74867167Y-84764116D02*
X74819548Y-84811736D01*
X74819548Y-84811736D02*
X74724310Y-84859355D01*
X74724310Y-84859355D02*
X74343358Y-84859355D01*
X74343358Y-84859355D02*
X74343358Y-83859355D01*
X74343358Y-83859355D02*
X74676691Y-83859355D01*
X74676691Y-83859355D02*
X74771929Y-83906974D01*
X74771929Y-83906974D02*
X74819548Y-83954593D01*
X74819548Y-83954593D02*
X74867167Y-84049831D01*
X74867167Y-84049831D02*
X74867167Y-84145069D01*
X74867167Y-84145069D02*
X74819548Y-84240307D01*
X74819548Y-84240307D02*
X74771929Y-84287926D01*
X74771929Y-84287926D02*
X74676691Y-84335545D01*
X74676691Y-84335545D02*
X74343358Y-84335545D01*
X75533834Y-83859355D02*
X75724310Y-83859355D01*
X75724310Y-83859355D02*
X75819548Y-83906974D01*
X75819548Y-83906974D02*
X75914786Y-84002212D01*
X75914786Y-84002212D02*
X75962405Y-84192688D01*
X75962405Y-84192688D02*
X75962405Y-84526021D01*
X75962405Y-84526021D02*
X75914786Y-84716497D01*
X75914786Y-84716497D02*
X75819548Y-84811736D01*
X75819548Y-84811736D02*
X75724310Y-84859355D01*
X75724310Y-84859355D02*
X75533834Y-84859355D01*
X75533834Y-84859355D02*
X75438596Y-84811736D01*
X75438596Y-84811736D02*
X75343358Y-84716497D01*
X75343358Y-84716497D02*
X75295739Y-84526021D01*
X75295739Y-84526021D02*
X75295739Y-84192688D01*
X75295739Y-84192688D02*
X75343358Y-84002212D01*
X75343358Y-84002212D02*
X75438596Y-83906974D01*
X75438596Y-83906974D02*
X75533834Y-83859355D01*
X76248120Y-83859355D02*
X76819548Y-83859355D01*
X76533834Y-84859355D02*
X76533834Y-83859355D01*
X77010025Y-83859355D02*
X77581453Y-83859355D01*
X77295739Y-84859355D02*
X77295739Y-83859355D01*
X78105263Y-83859355D02*
X78295739Y-83859355D01*
X78295739Y-83859355D02*
X78390977Y-83906974D01*
X78390977Y-83906974D02*
X78486215Y-84002212D01*
X78486215Y-84002212D02*
X78533834Y-84192688D01*
X78533834Y-84192688D02*
X78533834Y-84526021D01*
X78533834Y-84526021D02*
X78486215Y-84716497D01*
X78486215Y-84716497D02*
X78390977Y-84811736D01*
X78390977Y-84811736D02*
X78295739Y-84859355D01*
X78295739Y-84859355D02*
X78105263Y-84859355D01*
X78105263Y-84859355D02*
X78010025Y-84811736D01*
X78010025Y-84811736D02*
X77914787Y-84716497D01*
X77914787Y-84716497D02*
X77867168Y-84526021D01*
X77867168Y-84526021D02*
X77867168Y-84192688D01*
X77867168Y-84192688D02*
X77914787Y-84002212D01*
X77914787Y-84002212D02*
X78010025Y-83906974D01*
X78010025Y-83906974D02*
X78105263Y-83859355D01*
X78962406Y-84859355D02*
X78962406Y-83859355D01*
X78962406Y-83859355D02*
X79295739Y-84573640D01*
X79295739Y-84573640D02*
X79629072Y-83859355D01*
X79629072Y-83859355D02*
X79629072Y-84859355D01*
X74914786Y-86374060D02*
X74867167Y-86421680D01*
X74867167Y-86421680D02*
X74724310Y-86469299D01*
X74724310Y-86469299D02*
X74629072Y-86469299D01*
X74629072Y-86469299D02*
X74486215Y-86421680D01*
X74486215Y-86421680D02*
X74390977Y-86326441D01*
X74390977Y-86326441D02*
X74343358Y-86231203D01*
X74343358Y-86231203D02*
X74295739Y-86040727D01*
X74295739Y-86040727D02*
X74295739Y-85897870D01*
X74295739Y-85897870D02*
X74343358Y-85707394D01*
X74343358Y-85707394D02*
X74390977Y-85612156D01*
X74390977Y-85612156D02*
X74486215Y-85516918D01*
X74486215Y-85516918D02*
X74629072Y-85469299D01*
X74629072Y-85469299D02*
X74724310Y-85469299D01*
X74724310Y-85469299D02*
X74867167Y-85516918D01*
X74867167Y-85516918D02*
X74914786Y-85564537D01*
X75819548Y-86469299D02*
X75343358Y-86469299D01*
X75343358Y-86469299D02*
X75343358Y-85469299D01*
X76152882Y-85945489D02*
X76486215Y-85945489D01*
X76629072Y-86469299D02*
X76152882Y-86469299D01*
X76152882Y-86469299D02*
X76152882Y-85469299D01*
X76152882Y-85469299D02*
X76629072Y-85469299D01*
X77010025Y-86183584D02*
X77486215Y-86183584D01*
X76914787Y-86469299D02*
X77248120Y-85469299D01*
X77248120Y-85469299D02*
X77581453Y-86469299D01*
X78486215Y-86469299D02*
X78152882Y-85993108D01*
X77914787Y-86469299D02*
X77914787Y-85469299D01*
X77914787Y-85469299D02*
X78295739Y-85469299D01*
X78295739Y-85469299D02*
X78390977Y-85516918D01*
X78390977Y-85516918D02*
X78438596Y-85564537D01*
X78438596Y-85564537D02*
X78486215Y-85659775D01*
X78486215Y-85659775D02*
X78486215Y-85802632D01*
X78486215Y-85802632D02*
X78438596Y-85897870D01*
X78438596Y-85897870D02*
X78390977Y-85945489D01*
X78390977Y-85945489D02*
X78295739Y-85993108D01*
X78295739Y-85993108D02*
X77914787Y-85993108D01*
X78867168Y-86183584D02*
X79343358Y-86183584D01*
X78771930Y-86469299D02*
X79105263Y-85469299D01*
X79105263Y-85469299D02*
X79438596Y-86469299D01*
X79771930Y-86469299D02*
X79771930Y-85469299D01*
X79771930Y-85469299D02*
X80343358Y-86469299D01*
X80343358Y-86469299D02*
X80343358Y-85469299D01*
X81390977Y-86374060D02*
X81343358Y-86421680D01*
X81343358Y-86421680D02*
X81200501Y-86469299D01*
X81200501Y-86469299D02*
X81105263Y-86469299D01*
X81105263Y-86469299D02*
X80962406Y-86421680D01*
X80962406Y-86421680D02*
X80867168Y-86326441D01*
X80867168Y-86326441D02*
X80819549Y-86231203D01*
X80819549Y-86231203D02*
X80771930Y-86040727D01*
X80771930Y-86040727D02*
X80771930Y-85897870D01*
X80771930Y-85897870D02*
X80819549Y-85707394D01*
X80819549Y-85707394D02*
X80867168Y-85612156D01*
X80867168Y-85612156D02*
X80962406Y-85516918D01*
X80962406Y-85516918D02*
X81105263Y-85469299D01*
X81105263Y-85469299D02*
X81200501Y-85469299D01*
X81200501Y-85469299D02*
X81343358Y-85516918D01*
X81343358Y-85516918D02*
X81390977Y-85564537D01*
X81819549Y-85945489D02*
X82152882Y-85945489D01*
X82295739Y-86469299D02*
X81819549Y-86469299D01*
X81819549Y-86469299D02*
X81819549Y-85469299D01*
X81819549Y-85469299D02*
X82295739Y-85469299D01*
X100419548Y-88369299D02*
X99943358Y-88369299D01*
X99943358Y-88369299D02*
X99895739Y-88845489D01*
X99895739Y-88845489D02*
X99943358Y-88797870D01*
X99943358Y-88797870D02*
X100038596Y-88750251D01*
X100038596Y-88750251D02*
X100276691Y-88750251D01*
X100276691Y-88750251D02*
X100371929Y-88797870D01*
X100371929Y-88797870D02*
X100419548Y-88845489D01*
X100419548Y-88845489D02*
X100467167Y-88940727D01*
X100467167Y-88940727D02*
X100467167Y-89178822D01*
X100467167Y-89178822D02*
X100419548Y-89274060D01*
X100419548Y-89274060D02*
X100371929Y-89321680D01*
X100371929Y-89321680D02*
X100276691Y-89369299D01*
X100276691Y-89369299D02*
X100038596Y-89369299D01*
X100038596Y-89369299D02*
X99943358Y-89321680D01*
X99943358Y-89321680D02*
X99895739Y-89274060D01*
X100752882Y-88369299D02*
X101086215Y-89369299D01*
X101086215Y-89369299D02*
X101419548Y-88369299D01*
X99943358Y-84479299D02*
X99943358Y-83479299D01*
X99943358Y-83479299D02*
X100181453Y-83479299D01*
X100181453Y-83479299D02*
X100324310Y-83526918D01*
X100324310Y-83526918D02*
X100419548Y-83622156D01*
X100419548Y-83622156D02*
X100467167Y-83717394D01*
X100467167Y-83717394D02*
X100514786Y-83907870D01*
X100514786Y-83907870D02*
X100514786Y-84050727D01*
X100514786Y-84050727D02*
X100467167Y-84241203D01*
X100467167Y-84241203D02*
X100419548Y-84336441D01*
X100419548Y-84336441D02*
X100324310Y-84431680D01*
X100324310Y-84431680D02*
X100181453Y-84479299D01*
X100181453Y-84479299D02*
X99943358Y-84479299D01*
X100943358Y-84479299D02*
X100943358Y-83479299D01*
X101610024Y-83479299D02*
X101800500Y-83479299D01*
X101800500Y-83479299D02*
X101895738Y-83526918D01*
X101895738Y-83526918D02*
X101990976Y-83622156D01*
X101990976Y-83622156D02*
X102038595Y-83812632D01*
X102038595Y-83812632D02*
X102038595Y-84145965D01*
X102038595Y-84145965D02*
X101990976Y-84336441D01*
X101990976Y-84336441D02*
X101895738Y-84431680D01*
X101895738Y-84431680D02*
X101800500Y-84479299D01*
X101800500Y-84479299D02*
X101610024Y-84479299D01*
X101610024Y-84479299D02*
X101514786Y-84431680D01*
X101514786Y-84431680D02*
X101419548Y-84336441D01*
X101419548Y-84336441D02*
X101371929Y-84145965D01*
X101371929Y-84145965D02*
X101371929Y-83812632D01*
X101371929Y-83812632D02*
X101419548Y-83622156D01*
X101419548Y-83622156D02*
X101514786Y-83526918D01*
X101514786Y-83526918D02*
X101610024Y-83479299D01*
X70886215Y-76697870D02*
X70790977Y-76650251D01*
X70790977Y-76650251D02*
X70743358Y-76602632D01*
X70743358Y-76602632D02*
X70695739Y-76507394D01*
X70695739Y-76507394D02*
X70695739Y-76459775D01*
X70695739Y-76459775D02*
X70743358Y-76364537D01*
X70743358Y-76364537D02*
X70790977Y-76316918D01*
X70790977Y-76316918D02*
X70886215Y-76269299D01*
X70886215Y-76269299D02*
X71076691Y-76269299D01*
X71076691Y-76269299D02*
X71171929Y-76316918D01*
X71171929Y-76316918D02*
X71219548Y-76364537D01*
X71219548Y-76364537D02*
X71267167Y-76459775D01*
X71267167Y-76459775D02*
X71267167Y-76507394D01*
X71267167Y-76507394D02*
X71219548Y-76602632D01*
X71219548Y-76602632D02*
X71171929Y-76650251D01*
X71171929Y-76650251D02*
X71076691Y-76697870D01*
X71076691Y-76697870D02*
X70886215Y-76697870D01*
X70886215Y-76697870D02*
X70790977Y-76745489D01*
X70790977Y-76745489D02*
X70743358Y-76793108D01*
X70743358Y-76793108D02*
X70695739Y-76888346D01*
X70695739Y-76888346D02*
X70695739Y-77078822D01*
X70695739Y-77078822D02*
X70743358Y-77174060D01*
X70743358Y-77174060D02*
X70790977Y-77221680D01*
X70790977Y-77221680D02*
X70886215Y-77269299D01*
X70886215Y-77269299D02*
X71076691Y-77269299D01*
X71076691Y-77269299D02*
X71171929Y-77221680D01*
X71171929Y-77221680D02*
X71219548Y-77174060D01*
X71219548Y-77174060D02*
X71267167Y-77078822D01*
X71267167Y-77078822D02*
X71267167Y-76888346D01*
X71267167Y-76888346D02*
X71219548Y-76793108D01*
X71219548Y-76793108D02*
X71171929Y-76745489D01*
X71171929Y-76745489D02*
X71076691Y-76697870D01*
X71695739Y-77269299D02*
X71695739Y-76269299D01*
X71695739Y-76269299D02*
X72029072Y-76983584D01*
X72029072Y-76983584D02*
X72362405Y-76269299D01*
X72362405Y-76269299D02*
X72362405Y-77269299D01*
X72838596Y-77269299D02*
X72838596Y-76269299D01*
X72838596Y-76269299D02*
X73171929Y-76983584D01*
X73171929Y-76983584D02*
X73505262Y-76269299D01*
X73505262Y-76269299D02*
X73505262Y-77269299D01*
X74600501Y-76269299D02*
X75171929Y-76269299D01*
X74886215Y-77269299D02*
X74886215Y-76269299D01*
X75695739Y-76269299D02*
X75886215Y-76269299D01*
X75886215Y-76269299D02*
X75981453Y-76316918D01*
X75981453Y-76316918D02*
X76076691Y-76412156D01*
X76076691Y-76412156D02*
X76124310Y-76602632D01*
X76124310Y-76602632D02*
X76124310Y-76935965D01*
X76124310Y-76935965D02*
X76076691Y-77126441D01*
X76076691Y-77126441D02*
X75981453Y-77221680D01*
X75981453Y-77221680D02*
X75886215Y-77269299D01*
X75886215Y-77269299D02*
X75695739Y-77269299D01*
X75695739Y-77269299D02*
X75600501Y-77221680D01*
X75600501Y-77221680D02*
X75505263Y-77126441D01*
X75505263Y-77126441D02*
X75457644Y-76935965D01*
X75457644Y-76935965D02*
X75457644Y-76602632D01*
X75457644Y-76602632D02*
X75505263Y-76412156D01*
X75505263Y-76412156D02*
X75600501Y-76316918D01*
X75600501Y-76316918D02*
X75695739Y-76269299D01*
X76552882Y-77269299D02*
X76552882Y-76269299D01*
X76552882Y-76269299D02*
X76933834Y-76269299D01*
X76933834Y-76269299D02*
X77029072Y-76316918D01*
X77029072Y-76316918D02*
X77076691Y-76364537D01*
X77076691Y-76364537D02*
X77124310Y-76459775D01*
X77124310Y-76459775D02*
X77124310Y-76602632D01*
X77124310Y-76602632D02*
X77076691Y-76697870D01*
X77076691Y-76697870D02*
X77029072Y-76745489D01*
X77029072Y-76745489D02*
X76933834Y-76793108D01*
X76933834Y-76793108D02*
X76552882Y-76793108D01*
X78886215Y-77174060D02*
X78838596Y-77221680D01*
X78838596Y-77221680D02*
X78695739Y-77269299D01*
X78695739Y-77269299D02*
X78600501Y-77269299D01*
X78600501Y-77269299D02*
X78457644Y-77221680D01*
X78457644Y-77221680D02*
X78362406Y-77126441D01*
X78362406Y-77126441D02*
X78314787Y-77031203D01*
X78314787Y-77031203D02*
X78267168Y-76840727D01*
X78267168Y-76840727D02*
X78267168Y-76697870D01*
X78267168Y-76697870D02*
X78314787Y-76507394D01*
X78314787Y-76507394D02*
X78362406Y-76412156D01*
X78362406Y-76412156D02*
X78457644Y-76316918D01*
X78457644Y-76316918D02*
X78600501Y-76269299D01*
X78600501Y-76269299D02*
X78695739Y-76269299D01*
X78695739Y-76269299D02*
X78838596Y-76316918D01*
X78838596Y-76316918D02*
X78886215Y-76364537D01*
X79790977Y-77269299D02*
X79314787Y-77269299D01*
X79314787Y-77269299D02*
X79314787Y-76269299D01*
X80124311Y-76745489D02*
X80457644Y-76745489D01*
X80600501Y-77269299D02*
X80124311Y-77269299D01*
X80124311Y-77269299D02*
X80124311Y-76269299D01*
X80124311Y-76269299D02*
X80600501Y-76269299D01*
X80981454Y-76983584D02*
X81457644Y-76983584D01*
X80886216Y-77269299D02*
X81219549Y-76269299D01*
X81219549Y-76269299D02*
X81552882Y-77269299D01*
X82457644Y-77269299D02*
X82124311Y-76793108D01*
X81886216Y-77269299D02*
X81886216Y-76269299D01*
X81886216Y-76269299D02*
X82267168Y-76269299D01*
X82267168Y-76269299D02*
X82362406Y-76316918D01*
X82362406Y-76316918D02*
X82410025Y-76364537D01*
X82410025Y-76364537D02*
X82457644Y-76459775D01*
X82457644Y-76459775D02*
X82457644Y-76602632D01*
X82457644Y-76602632D02*
X82410025Y-76697870D01*
X82410025Y-76697870D02*
X82362406Y-76745489D01*
X82362406Y-76745489D02*
X82267168Y-76793108D01*
X82267168Y-76793108D02*
X81886216Y-76793108D01*
X82838597Y-76983584D02*
X83314787Y-76983584D01*
X82743359Y-77269299D02*
X83076692Y-76269299D01*
X83076692Y-76269299D02*
X83410025Y-77269299D01*
X83743359Y-77269299D02*
X83743359Y-76269299D01*
X83743359Y-76269299D02*
X84314787Y-77269299D01*
X84314787Y-77269299D02*
X84314787Y-76269299D01*
X85362406Y-77174060D02*
X85314787Y-77221680D01*
X85314787Y-77221680D02*
X85171930Y-77269299D01*
X85171930Y-77269299D02*
X85076692Y-77269299D01*
X85076692Y-77269299D02*
X84933835Y-77221680D01*
X84933835Y-77221680D02*
X84838597Y-77126441D01*
X84838597Y-77126441D02*
X84790978Y-77031203D01*
X84790978Y-77031203D02*
X84743359Y-76840727D01*
X84743359Y-76840727D02*
X84743359Y-76697870D01*
X84743359Y-76697870D02*
X84790978Y-76507394D01*
X84790978Y-76507394D02*
X84838597Y-76412156D01*
X84838597Y-76412156D02*
X84933835Y-76316918D01*
X84933835Y-76316918D02*
X85076692Y-76269299D01*
X85076692Y-76269299D02*
X85171930Y-76269299D01*
X85171930Y-76269299D02*
X85314787Y-76316918D01*
X85314787Y-76316918D02*
X85362406Y-76364537D01*
X85790978Y-76745489D02*
X86124311Y-76745489D01*
X86267168Y-77269299D02*
X85790978Y-77269299D01*
X85790978Y-77269299D02*
X85790978Y-76269299D01*
X85790978Y-76269299D02*
X86267168Y-76269299D01*
X54167167Y-86116918D02*
X54071929Y-86069299D01*
X54071929Y-86069299D02*
X53929072Y-86069299D01*
X53929072Y-86069299D02*
X53786215Y-86116918D01*
X53786215Y-86116918D02*
X53690977Y-86212156D01*
X53690977Y-86212156D02*
X53643358Y-86307394D01*
X53643358Y-86307394D02*
X53595739Y-86497870D01*
X53595739Y-86497870D02*
X53595739Y-86640727D01*
X53595739Y-86640727D02*
X53643358Y-86831203D01*
X53643358Y-86831203D02*
X53690977Y-86926441D01*
X53690977Y-86926441D02*
X53786215Y-87021680D01*
X53786215Y-87021680D02*
X53929072Y-87069299D01*
X53929072Y-87069299D02*
X54024310Y-87069299D01*
X54024310Y-87069299D02*
X54167167Y-87021680D01*
X54167167Y-87021680D02*
X54214786Y-86974060D01*
X54214786Y-86974060D02*
X54214786Y-86640727D01*
X54214786Y-86640727D02*
X54024310Y-86640727D01*
X54643358Y-87069299D02*
X54643358Y-86069299D01*
X54643358Y-86069299D02*
X55214786Y-87069299D01*
X55214786Y-87069299D02*
X55214786Y-86069299D01*
X55690977Y-87069299D02*
X55690977Y-86069299D01*
X55690977Y-86069299D02*
X55929072Y-86069299D01*
X55929072Y-86069299D02*
X56071929Y-86116918D01*
X56071929Y-86116918D02*
X56167167Y-86212156D01*
X56167167Y-86212156D02*
X56214786Y-86307394D01*
X56214786Y-86307394D02*
X56262405Y-86497870D01*
X56262405Y-86497870D02*
X56262405Y-86640727D01*
X56262405Y-86640727D02*
X56214786Y-86831203D01*
X56214786Y-86831203D02*
X56167167Y-86926441D01*
X56167167Y-86926441D02*
X56071929Y-87021680D01*
X56071929Y-87021680D02*
X55929072Y-87069299D01*
X55929072Y-87069299D02*
X55690977Y-87069299D01*
X54314786Y-81674060D02*
X54267167Y-81721680D01*
X54267167Y-81721680D02*
X54124310Y-81769299D01*
X54124310Y-81769299D02*
X54029072Y-81769299D01*
X54029072Y-81769299D02*
X53886215Y-81721680D01*
X53886215Y-81721680D02*
X53790977Y-81626441D01*
X53790977Y-81626441D02*
X53743358Y-81531203D01*
X53743358Y-81531203D02*
X53695739Y-81340727D01*
X53695739Y-81340727D02*
X53695739Y-81197870D01*
X53695739Y-81197870D02*
X53743358Y-81007394D01*
X53743358Y-81007394D02*
X53790977Y-80912156D01*
X53790977Y-80912156D02*
X53886215Y-80816918D01*
X53886215Y-80816918D02*
X54029072Y-80769299D01*
X54029072Y-80769299D02*
X54124310Y-80769299D01*
X54124310Y-80769299D02*
X54267167Y-80816918D01*
X54267167Y-80816918D02*
X54314786Y-80864537D01*
X55219548Y-81769299D02*
X54743358Y-81769299D01*
X54743358Y-81769299D02*
X54743358Y-80769299D01*
X55552882Y-81769299D02*
X55552882Y-80769299D01*
X56124310Y-81769299D02*
X55695739Y-81197870D01*
X56124310Y-80769299D02*
X55552882Y-81340727D01*
X53643358Y-84369299D02*
X53643358Y-83369299D01*
X53643358Y-83369299D02*
X53881453Y-83369299D01*
X53881453Y-83369299D02*
X54024310Y-83416918D01*
X54024310Y-83416918D02*
X54119548Y-83512156D01*
X54119548Y-83512156D02*
X54167167Y-83607394D01*
X54167167Y-83607394D02*
X54214786Y-83797870D01*
X54214786Y-83797870D02*
X54214786Y-83940727D01*
X54214786Y-83940727D02*
X54167167Y-84131203D01*
X54167167Y-84131203D02*
X54119548Y-84226441D01*
X54119548Y-84226441D02*
X54024310Y-84321680D01*
X54024310Y-84321680D02*
X53881453Y-84369299D01*
X53881453Y-84369299D02*
X53643358Y-84369299D01*
X54643358Y-84369299D02*
X54643358Y-83369299D01*
X55310024Y-83369299D02*
X55500500Y-83369299D01*
X55500500Y-83369299D02*
X55595738Y-83416918D01*
X55595738Y-83416918D02*
X55690976Y-83512156D01*
X55690976Y-83512156D02*
X55738595Y-83702632D01*
X55738595Y-83702632D02*
X55738595Y-84035965D01*
X55738595Y-84035965D02*
X55690976Y-84226441D01*
X55690976Y-84226441D02*
X55595738Y-84321680D01*
X55595738Y-84321680D02*
X55500500Y-84369299D01*
X55500500Y-84369299D02*
X55310024Y-84369299D01*
X55310024Y-84369299D02*
X55214786Y-84321680D01*
X55214786Y-84321680D02*
X55119548Y-84226441D01*
X55119548Y-84226441D02*
X55071929Y-84035965D01*
X55071929Y-84035965D02*
X55071929Y-83702632D01*
X55071929Y-83702632D02*
X55119548Y-83512156D01*
X55119548Y-83512156D02*
X55214786Y-83416918D01*
X55214786Y-83416918D02*
X55310024Y-83369299D01*
X54419548Y-88169299D02*
X53943358Y-88169299D01*
X53943358Y-88169299D02*
X53895739Y-88645489D01*
X53895739Y-88645489D02*
X53943358Y-88597870D01*
X53943358Y-88597870D02*
X54038596Y-88550251D01*
X54038596Y-88550251D02*
X54276691Y-88550251D01*
X54276691Y-88550251D02*
X54371929Y-88597870D01*
X54371929Y-88597870D02*
X54419548Y-88645489D01*
X54419548Y-88645489D02*
X54467167Y-88740727D01*
X54467167Y-88740727D02*
X54467167Y-88978822D01*
X54467167Y-88978822D02*
X54419548Y-89074060D01*
X54419548Y-89074060D02*
X54371929Y-89121680D01*
X54371929Y-89121680D02*
X54276691Y-89169299D01*
X54276691Y-89169299D02*
X54038596Y-89169299D01*
X54038596Y-89169299D02*
X53943358Y-89121680D01*
X53943358Y-89121680D02*
X53895739Y-89074060D01*
X54752882Y-88169299D02*
X55086215Y-89169299D01*
X55086215Y-89169299D02*
X55419548Y-88169299D01*
X111976190Y-105954299D02*
X111976190Y-104954299D01*
X111976190Y-104954299D02*
X112357142Y-104954299D01*
X112357142Y-104954299D02*
X112452380Y-105001918D01*
X112452380Y-105001918D02*
X112499999Y-105049537D01*
X112499999Y-105049537D02*
X112547618Y-105144775D01*
X112547618Y-105144775D02*
X112547618Y-105287632D01*
X112547618Y-105287632D02*
X112499999Y-105382870D01*
X112499999Y-105382870D02*
X112452380Y-105430489D01*
X112452380Y-105430489D02*
X112357142Y-105478108D01*
X112357142Y-105478108D02*
X111976190Y-105478108D01*
X112738095Y-106049537D02*
X113499999Y-106049537D01*
X114214285Y-104954299D02*
X113738095Y-104954299D01*
X113738095Y-104954299D02*
X113690476Y-105430489D01*
X113690476Y-105430489D02*
X113738095Y-105382870D01*
X113738095Y-105382870D02*
X113833333Y-105335251D01*
X113833333Y-105335251D02*
X114071428Y-105335251D01*
X114071428Y-105335251D02*
X114166666Y-105382870D01*
X114166666Y-105382870D02*
X114214285Y-105430489D01*
X114214285Y-105430489D02*
X114261904Y-105525727D01*
X114261904Y-105525727D02*
X114261904Y-105763822D01*
X114261904Y-105763822D02*
X114214285Y-105859060D01*
X114214285Y-105859060D02*
X114166666Y-105906680D01*
X114166666Y-105906680D02*
X114071428Y-105954299D01*
X114071428Y-105954299D02*
X113833333Y-105954299D01*
X113833333Y-105954299D02*
X113738095Y-105906680D01*
X113738095Y-105906680D02*
X113690476Y-105859060D01*
X114547619Y-104954299D02*
X114880952Y-105954299D01*
X114880952Y-105954299D02*
X115214285Y-104954299D01*
X116071428Y-105954299D02*
X115500000Y-105954299D01*
X115785714Y-105954299D02*
X115785714Y-104954299D01*
X115785714Y-104954299D02*
X115690476Y-105097156D01*
X115690476Y-105097156D02*
X115595238Y-105192394D01*
X115595238Y-105192394D02*
X115500000Y-105240013D01*
D11*
%TO.C,U2*%
X46600000Y-39200000D02*
X112600000Y-39200000D01*
X46600000Y-66400000D02*
X46600000Y-39200000D01*
X52900000Y-43300000D02*
X52900000Y-62300000D01*
X52900000Y-43300000D02*
X103100000Y-43300000D01*
X52900000Y-62300000D02*
X103100000Y-62300000D01*
X103100000Y-43300000D02*
X103100000Y-62300000D01*
X112600000Y-39200000D02*
X112600000Y-66400000D01*
X112600000Y-66400000D02*
X46600000Y-66400000D01*
X71500000Y-49000000D02*
X84500000Y-49000000D01*
X84500000Y-56600000D01*
X71500000Y-56600000D01*
X71500000Y-49000000D01*
D12*
%TO.C,P_GND1*%
X126460000Y-101600000D02*
G75*
G02*
X122460000Y-101600000I-2000000J0D01*
G01*
X122460000Y-101600000D02*
G75*
G02*
X126460000Y-101600000I2000000J0D01*
G01*
D11*
%TO.C,SW2*%
X113920000Y-39720000D02*
X129920000Y-39720000D01*
X113920000Y-51720000D02*
X113920000Y-39720000D01*
X129920000Y-39720000D02*
X129920000Y-51720000D01*
X129920000Y-51720000D02*
X113920000Y-51720000D01*
D12*
%TO.C,P_3V3*%
X118840000Y-93980000D02*
G75*
G02*
X114840000Y-93980000I-2000000J0D01*
G01*
X114840000Y-93980000D02*
G75*
G02*
X118840000Y-93980000I2000000J0D01*
G01*
%TO.C,BZ1*%
X126760000Y-111760000D02*
G75*
G02*
X114560000Y-111760000I-6100000J0D01*
G01*
X114560000Y-111760000D02*
G75*
G02*
X126760000Y-111760000I6100000J0D01*
G01*
D11*
%TO.C,SW3*%
X113920000Y-57500000D02*
X129920000Y-57500000D01*
X113920000Y-69500000D02*
X113920000Y-57500000D01*
X129920000Y-57500000D02*
X129920000Y-69500000D01*
X129920000Y-69500000D02*
X113920000Y-69500000D01*
D12*
%TO.C,P_D7*%
X108700000Y-106900000D02*
G75*
G02*
X104700000Y-106900000I-2000000J0D01*
G01*
X104700000Y-106900000D02*
G75*
G02*
X108700000Y-106900000I2000000J0D01*
G01*
%TO.C,P_D5*%
X43000000Y-88800000D02*
G75*
G02*
X39000000Y-88800000I-2000000J0D01*
G01*
X39000000Y-88800000D02*
G75*
G02*
X43000000Y-88800000I2000000J0D01*
G01*
%TO.C,P_GND2*%
X126460000Y-93980000D02*
G75*
G02*
X122460000Y-93980000I-2000000J0D01*
G01*
X122460000Y-93980000D02*
G75*
G02*
X126460000Y-93980000I2000000J0D01*
G01*
%TO.C,P_D4*%
X107000000Y-122100000D02*
G75*
G02*
X103000000Y-122100000I-2000000J0D01*
G01*
X103000000Y-122100000D02*
G75*
G02*
X107000000Y-122100000I2000000J0D01*
G01*
D11*
%TO.C,SW4*%
X113920000Y-75280000D02*
X129920000Y-75280000D01*
X113920000Y-87280000D02*
X113920000Y-75280000D01*
X129920000Y-75280000D02*
X129920000Y-87280000D01*
X129920000Y-87280000D02*
X113920000Y-87280000D01*
%TO.C,U4*%
X46600000Y-71000000D02*
X112600000Y-71000000D01*
X46600000Y-98200000D02*
X46600000Y-71000000D01*
X52900000Y-75100000D02*
X52900000Y-94100000D01*
X52900000Y-75100000D02*
X103100000Y-75100000D01*
X52900000Y-94100000D02*
X103100000Y-94100000D01*
X103100000Y-75100000D02*
X103100000Y-94100000D01*
X112600000Y-71000000D02*
X112600000Y-98200000D01*
X112600000Y-98200000D02*
X46600000Y-98200000D01*
X71500000Y-80800000D02*
X84500000Y-80800000D01*
X84500000Y-88400000D01*
X71500000Y-88400000D01*
X71500000Y-80800000D01*
D12*
%TO.C,P_5V1*%
X118840000Y-101600000D02*
G75*
G02*
X114840000Y-101600000I-2000000J0D01*
G01*
X114840000Y-101600000D02*
G75*
G02*
X118840000Y-101600000I2000000J0D01*
G01*
%TD*%
%LPC*%
D13*
%TO.C,U2*%
X49600000Y-42050000D03*
X49600000Y-63550000D03*
X109600000Y-42050000D03*
X109600000Y-63550000D03*
D14*
X49600000Y-49500000D03*
X49600000Y-52040000D03*
X49600000Y-54580000D03*
X49600000Y-57120000D03*
X106400000Y-49500000D03*
X106400000Y-52040000D03*
X106400000Y-54580000D03*
X106400000Y-57120000D03*
%TD*%
D15*
%TO.C,P_GND1*%
X124460000Y-101600000D03*
%TD*%
D16*
%TO.C,SW2*%
X115570000Y-43180000D03*
X128270000Y-43180000D03*
X115570000Y-48260000D03*
X128270000Y-48260000D03*
%TD*%
D17*
%TO.C,H7*%
X90000000Y-35000000D03*
%TD*%
%TO.C,H5*%
X40000000Y-35000000D03*
%TD*%
%TO.C,H8*%
X40000000Y-130000000D03*
%TD*%
D15*
%TO.C,P_3V3*%
X116840000Y-93980000D03*
%TD*%
D17*
%TO.C,H10*%
X135000000Y-130000000D03*
%TD*%
D18*
%TO.C,BZ1*%
X120660000Y-107960000D03*
D19*
X120660000Y-115560000D03*
%TD*%
D16*
%TO.C,SW3*%
X115570000Y-60960000D03*
X128270000Y-60960000D03*
X115570000Y-66040000D03*
X128270000Y-66040000D03*
%TD*%
D15*
%TO.C,P_D7*%
X106700000Y-106900000D03*
%TD*%
D17*
%TO.C,H11*%
X135000000Y-80000000D03*
%TD*%
D15*
%TO.C,P_D5*%
X41000000Y-88800000D03*
%TD*%
%TO.C,P_GND2*%
X124460000Y-93980000D03*
%TD*%
%TO.C,P_D4*%
X105000000Y-122100000D03*
%TD*%
D16*
%TO.C,SW4*%
X115570000Y-78740000D03*
X128270000Y-78740000D03*
X115570000Y-83820000D03*
X128270000Y-83820000D03*
%TD*%
D17*
%TO.C,H9*%
X90000000Y-130000000D03*
%TD*%
%TO.C,H6*%
X135000000Y-35000000D03*
%TD*%
D13*
%TO.C,U4*%
X49600000Y-73850000D03*
X49600000Y-95350000D03*
X109600000Y-73850000D03*
X109600000Y-95350000D03*
D14*
X49600000Y-81300000D03*
X49600000Y-83840000D03*
X49600000Y-86380000D03*
X49600000Y-88920000D03*
X106400000Y-81300000D03*
X106400000Y-83840000D03*
X106400000Y-86380000D03*
X106400000Y-88920000D03*
%TD*%
D15*
%TO.C,P_5V1*%
X116840000Y-101600000D03*
%TD*%
D17*
%TO.C,H12*%
X40000000Y-80000000D03*
%TD*%
D20*
%TO.C,U1*%
X56113000Y-122174000D03*
X53573000Y-122174000D03*
X51033000Y-122174000D03*
X48493000Y-122174000D03*
X43413000Y-122174000D03*
X45953000Y-122174000D03*
X38333000Y-106553000D03*
X38333000Y-122174000D03*
X40873000Y-106553000D03*
X43413000Y-106553000D03*
X45953000Y-106553000D03*
X48493000Y-106553000D03*
X51033000Y-106553000D03*
X53573000Y-106553000D03*
X56113000Y-106553000D03*
X40873000Y-122174000D03*
%TD*%
D21*
%TO.C,U6*%
X95000000Y-105000000D03*
X68500000Y-123000000D03*
D22*
X68500000Y-105000000D03*
D23*
X98130000Y-110220000D03*
X98130000Y-112760000D03*
X98130000Y-115300000D03*
X98130000Y-117840000D03*
X62080000Y-107650000D03*
X62080000Y-110190000D03*
X62080000Y-112730000D03*
X62080000Y-115270000D03*
X62080000Y-117810000D03*
X62080000Y-120350000D03*
%TD*%
%LPD*%
M02*
