%TF.GenerationSoftware,KiCad,Pcbnew,9.0.2*%
%TF.CreationDate,2025-05-12T22:54:09+08:00*%
%TF.ProjectId,paxclock_a,70617863-6c6f-4636-9b5f-612e6b696361,rev?*%
%TF.SameCoordinates,Original*%
%TF.FileFunction,Copper,L2,Bot*%
%TF.FilePolarity,Positive*%
%FSLAX46Y46*%
G04 Gerber Fmt 4.6, Leading zero omitted, Abs format (unit mm)*
G04 Created by KiCad (PCBNEW 9.0.2) date 2025-05-12 22:54:09*
%MOMM*%
%LPD*%
G01*
G04 APERTURE LIST*
G04 Aperture macros list*
%AMRoundRect*
0 Rectangle with rounded corners*
0 $1 Rounding radius*
0 $2 $3 $4 $5 $6 $7 $8 $9 X,Y pos of 4 corners*
0 Add a 4 corners polygon primitive as box body*
4,1,4,$2,$3,$4,$5,$6,$7,$8,$9,$2,$3,0*
0 Add four circle primitives for the rounded corners*
1,1,$1+$1,$2,$3*
1,1,$1+$1,$4,$5*
1,1,$1+$1,$6,$7*
1,1,$1+$1,$8,$9*
0 Add four rect primitives between the rounded corners*
20,1,$1+$1,$2,$3,$4,$5,0*
20,1,$1+$1,$4,$5,$6,$7,0*
20,1,$1+$1,$6,$7,$8,$9,0*
20,1,$1+$1,$8,$9,$2,$3,0*%
G04 Aperture macros list end*
%TA.AperFunction,ComponentPad*%
%ADD10C,4.000000*%
%TD*%
%TA.AperFunction,ComponentPad*%
%ADD11RoundRect,0.190500X-1.079500X-0.444500X1.079500X-0.444500X1.079500X0.444500X-1.079500X0.444500X0*%
%TD*%
%TA.AperFunction,ComponentPad*%
%ADD12C,3.000000*%
%TD*%
%TA.AperFunction,ComponentPad*%
%ADD13RoundRect,0.190500X0.444500X-1.079500X0.444500X1.079500X-0.444500X1.079500X-0.444500X-1.079500X0*%
%TD*%
%TA.AperFunction,ComponentPad*%
%ADD14C,5.700000*%
%TD*%
%TA.AperFunction,ComponentPad*%
%ADD15R,2.000000X2.000000*%
%TD*%
%TA.AperFunction,ComponentPad*%
%ADD16C,2.000000*%
%TD*%
%TA.AperFunction,ComponentPad*%
%ADD17RoundRect,0.190500X-0.444500X1.079500X-0.444500X-1.079500X0.444500X-1.079500X0.444500X1.079500X0*%
%TD*%
%TA.AperFunction,ComponentPad*%
%ADD18C,2.540000*%
%TD*%
%TA.AperFunction,ComponentPad*%
%ADD19C,2.430000*%
%TD*%
%TA.AperFunction,ComponentPad*%
%ADD20C,1.200000*%
%TD*%
%TA.AperFunction,Conductor*%
%ADD21C,0.254000*%
%TD*%
%TA.AperFunction,Conductor*%
%ADD22C,0.508000*%
%TD*%
G04 APERTURE END LIST*
D10*
%TO.P,U2,*%
%TO.N,*%
X49600000Y-42050000D03*
X49600000Y-63550000D03*
X109600000Y-42050000D03*
X109600000Y-63550000D03*
D11*
%TO.P,U2,1,CLK*%
%TO.N,Net-(U1-GPIO0)*%
X49600000Y-49500000D03*
%TO.P,U2,2,DIO*%
%TO.N,Net-(U1-GPIO1)*%
X49600000Y-52040000D03*
%TO.P,U2,3,GND*%
%TO.N,/GND*%
X49600000Y-54580000D03*
%TO.P,U2,4,5V*%
%TO.N,Net-(P_5V1-Pad1)*%
X49600000Y-57120000D03*
%TO.P,U2,5,CLK*%
%TO.N,unconnected-(U2-CLK-Pad5)*%
X106400000Y-49500000D03*
%TO.P,U2,6,DIO*%
%TO.N,unconnected-(U2-DIO-Pad6)*%
X106400000Y-52040000D03*
%TO.P,U2,7,GND*%
%TO.N,unconnected-(U2-GND-Pad7)*%
X106400000Y-54580000D03*
%TO.P,U2,8,5V*%
%TO.N,unconnected-(U2-5V-Pad8)*%
X106400000Y-57120000D03*
%TD*%
D12*
%TO.P,P_GND1,1,1*%
%TO.N,/GND*%
X124460000Y-101600000D03*
%TD*%
D13*
%TO.P,SW2,0,IN0*%
%TO.N,unconnected-(SW2-IN0-Pad0)*%
X115570000Y-43180000D03*
%TO.P,SW2,1,IN1*%
%TO.N,/GND*%
X128270000Y-43180000D03*
%TO.P,SW2,2,OUT0*%
%TO.N,Net-(SW2-OUT0)*%
X115570000Y-48260000D03*
%TO.P,SW2,3,OUT1*%
%TO.N,unconnected-(SW2-OUT1-Pad3)*%
X128270000Y-48260000D03*
%TD*%
D14*
%TO.P,H7,1*%
%TO.N,N/C*%
X90000000Y-35000000D03*
%TD*%
%TO.P,H5,1*%
%TO.N,N/C*%
X40000000Y-35000000D03*
%TD*%
%TO.P,H8,1*%
%TO.N,N/C*%
X40000000Y-130000000D03*
%TD*%
D12*
%TO.P,P_3V3,1,1*%
%TO.N,Net-(U1-3V3)*%
X116840000Y-93980000D03*
%TD*%
D14*
%TO.P,H10,1*%
%TO.N,N/C*%
X135000000Y-130000000D03*
%TD*%
D15*
%TO.P,BZ1,1,+*%
%TO.N,Net-(BZ1-+)*%
X120660000Y-107960000D03*
D16*
%TO.P,BZ1,2,-*%
%TO.N,/GND*%
X120660000Y-115560000D03*
%TD*%
D13*
%TO.P,SW3,0,IN0*%
%TO.N,unconnected-(SW3-IN0-Pad0)*%
X115570000Y-60960000D03*
%TO.P,SW3,1,IN1*%
%TO.N,/GND*%
X128270000Y-60960000D03*
%TO.P,SW3,2,OUT0*%
%TO.N,Net-(SW3-OUT0)*%
X115570000Y-66040000D03*
%TO.P,SW3,3,OUT1*%
%TO.N,unconnected-(SW3-OUT1-Pad3)*%
X128270000Y-66040000D03*
%TD*%
D12*
%TO.P,P_D7,1,1*%
%TO.N,Net-(U1-GPIO7)*%
X106700000Y-106900000D03*
%TD*%
D14*
%TO.P,H11,1*%
%TO.N,N/C*%
X135000000Y-80000000D03*
%TD*%
D12*
%TO.P,P_D5,1,1*%
%TO.N,Net-(U1-GPIO5)*%
X41000000Y-88800000D03*
%TD*%
%TO.P,P_GND2,1,1*%
%TO.N,/GND*%
X124460000Y-93980000D03*
%TD*%
%TO.P,P_D4,1,1*%
%TO.N,Net-(U1-GPIO4)*%
X105000000Y-122100000D03*
%TD*%
D13*
%TO.P,SW4,0,IN0*%
%TO.N,unconnected-(SW4-IN0-Pad0)*%
X115570000Y-78740000D03*
%TO.P,SW4,1,IN1*%
%TO.N,/GND*%
X128270000Y-78740000D03*
%TO.P,SW4,2,OUT0*%
%TO.N,Net-(SW4-OUT0)*%
X115570000Y-83820000D03*
%TO.P,SW4,3,OUT1*%
%TO.N,unconnected-(SW4-OUT1-Pad3)*%
X128270000Y-83820000D03*
%TD*%
D14*
%TO.P,H9,1*%
%TO.N,N/C*%
X90000000Y-130000000D03*
%TD*%
%TO.P,H6,1*%
%TO.N,N/C*%
X135000000Y-35000000D03*
%TD*%
D10*
%TO.P,U4,*%
%TO.N,*%
X49600000Y-73850000D03*
X49600000Y-95350000D03*
X109600000Y-73850000D03*
X109600000Y-95350000D03*
D11*
%TO.P,U4,1,CLK*%
%TO.N,Net-(U1-GPIO2)*%
X49600000Y-81300000D03*
%TO.P,U4,2,DIO*%
%TO.N,Net-(U1-GPIO3)*%
X49600000Y-83840000D03*
%TO.P,U4,3,GND*%
%TO.N,/GND*%
X49600000Y-86380000D03*
%TO.P,U4,4,5V*%
%TO.N,Net-(P_5V1-Pad1)*%
X49600000Y-88920000D03*
%TO.P,U4,5,CLK*%
%TO.N,unconnected-(U4-CLK-Pad5)*%
X106400000Y-81300000D03*
%TO.P,U4,6,DIO*%
%TO.N,unconnected-(U4-DIO-Pad6)*%
X106400000Y-83840000D03*
%TO.P,U4,7,GND*%
%TO.N,unconnected-(U4-GND-Pad7)*%
X106400000Y-86380000D03*
%TO.P,U4,8,5V*%
%TO.N,unconnected-(U4-5V-Pad8)*%
X106400000Y-88920000D03*
%TD*%
D12*
%TO.P,P_5V1,1,1*%
%TO.N,Net-(P_5V1-Pad1)*%
X116840000Y-101600000D03*
%TD*%
D14*
%TO.P,H12,1*%
%TO.N,N/C*%
X40000000Y-80000000D03*
%TD*%
D17*
%TO.P,U1,0,GPIO0*%
%TO.N,Net-(U1-GPIO0)*%
X56113000Y-122174000D03*
%TO.P,U1,1,GPIO1*%
%TO.N,Net-(U1-GPIO1)*%
X53573000Y-122174000D03*
%TO.P,U1,2,GPIO2*%
%TO.N,Net-(U1-GPIO2)*%
X51033000Y-122174000D03*
%TO.P,U1,3,GPIO3*%
%TO.N,Net-(U1-GPIO3)*%
X48493000Y-122174000D03*
%TO.P,U1,3.3,3V3*%
%TO.N,Net-(U1-3V3)*%
X43413000Y-122174000D03*
%TO.P,U1,4,GPIO4*%
%TO.N,Net-(U1-GPIO4)*%
X45953000Y-122174000D03*
%TO.P,U1,5,GPIO5*%
%TO.N,Net-(U1-GPIO5)*%
X38333000Y-106553000D03*
%TO.P,U1,5V,5V*%
%TO.N,Net-(P_5V1-Pad1)*%
X38333000Y-122174000D03*
%TO.P,U1,6,GPIO6*%
%TO.N,Net-(BZ1-+)*%
X40873000Y-106553000D03*
%TO.P,U1,7,GPIO7*%
%TO.N,Net-(U1-GPIO7)*%
X43413000Y-106553000D03*
%TO.P,U1,8,SDA*%
%TO.N,Net-(U1-GPIO8)*%
X45953000Y-106553000D03*
%TO.P,U1,9,SCL*%
%TO.N,Net-(U1-GPIO9)*%
X48493000Y-106553000D03*
%TO.P,U1,10,GPIO10*%
%TO.N,Net-(SW2-OUT0)*%
X51033000Y-106553000D03*
%TO.P,U1,20,GPIO20*%
%TO.N,Net-(SW3-OUT0)*%
X53573000Y-106553000D03*
%TO.P,U1,21,GPIO21*%
%TO.N,Net-(SW4-OUT0)*%
X56113000Y-106553000D03*
%TO.P,U1,G,GND*%
%TO.N,/GND*%
X40873000Y-122174000D03*
%TD*%
D18*
%TO.P,U6,*%
%TO.N,*%
X95000000Y-105000000D03*
X68500000Y-123000000D03*
D19*
X68500000Y-105000000D03*
D20*
%TO.P,U6,1,SCL*%
%TO.N,Net-(U1-GPIO9)*%
X98130000Y-110220000D03*
%TO.P,U6,2,SDA*%
%TO.N,Net-(U1-GPIO8)*%
X98130000Y-112760000D03*
%TO.P,U6,3,VCC*%
%TO.N,Net-(P_5V1-Pad1)*%
X98130000Y-115300000D03*
%TO.P,U6,4,GND*%
%TO.N,/GND*%
X98130000Y-117840000D03*
%TO.P,U6,5,32K*%
%TO.N,unconnected-(U6-32K-Pad5)*%
X62080000Y-107650000D03*
%TO.P,U6,6,SQW*%
%TO.N,unconnected-(U6-SQW-Pad6)*%
X62080000Y-110190000D03*
%TO.P,U6,7,SCL*%
%TO.N,unconnected-(U6-SCL-Pad7)*%
X62080000Y-112730000D03*
%TO.P,U6,8,SDA*%
%TO.N,unconnected-(U6-SDA-Pad8)*%
X62080000Y-115270000D03*
%TO.P,U6,9,VCC*%
%TO.N,unconnected-(U6-VCC-Pad9)*%
X62080000Y-117810000D03*
%TO.P,U6,10,GND*%
%TO.N,unconnected-(U6-GND-Pad10)*%
X62080000Y-120350000D03*
%TD*%
D21*
%TO.N,Net-(BZ1-+)*%
X117900000Y-99300000D02*
X120660000Y-102060000D01*
X120660000Y-102060000D02*
X120660000Y-107960000D01*
X40920000Y-106680000D02*
X48300000Y-99300000D01*
X48300000Y-99300000D02*
X117900000Y-99300000D01*
%TO.N,Net-(U1-GPIO9)*%
X51302000Y-109362000D02*
X97272000Y-109362000D01*
X97272000Y-109362000D02*
X98130000Y-110220000D01*
X48493000Y-106553000D02*
X51302000Y-109362000D01*
%TO.N,Net-(U1-GPIO8)*%
X53220000Y-113900000D02*
X97070000Y-113900000D01*
X46000000Y-106680000D02*
X53220000Y-113900000D01*
X97070000Y-113900000D02*
X97940000Y-113030000D01*
D22*
%TO.N,Net-(U1-3V3)*%
X122100000Y-99240000D02*
X122100000Y-110100000D01*
X88672445Y-126795000D02*
X88467445Y-127000000D01*
X91532555Y-127000000D02*
X91327555Y-126795000D01*
X91327555Y-126795000D02*
X88672445Y-126795000D01*
X122100000Y-110100000D02*
X105200000Y-127000000D01*
X116840000Y-93980000D02*
X122100000Y-99240000D01*
X48239000Y-127000000D02*
X43413000Y-122174000D01*
X105200000Y-127000000D02*
X91532555Y-127000000D01*
X88467445Y-127000000D02*
X48239000Y-127000000D01*
D21*
%TO.N,Net-(U1-GPIO4)*%
X69000000Y-120000000D02*
X102900000Y-120000000D01*
X46000000Y-121920000D02*
X47980000Y-123900000D01*
X102900000Y-120000000D02*
X105000000Y-122100000D01*
X65100000Y-123900000D02*
X69000000Y-120000000D01*
X47980000Y-123900000D02*
X65100000Y-123900000D01*
%TO.N,Net-(U1-GPIO7)*%
X49195572Y-100944428D02*
X100744428Y-100944428D01*
X43460000Y-106680000D02*
X49195572Y-100944428D01*
X100744428Y-100944428D02*
X106700000Y-106900000D01*
D22*
%TO.N,Net-(P_5V1-Pad1)*%
X36100000Y-102510000D02*
X49625000Y-88985000D01*
D21*
X96615000Y-116815000D02*
X98130000Y-115300000D01*
D22*
X108000000Y-118100000D02*
X116840000Y-109260000D01*
X45000000Y-84360000D02*
X49625000Y-88985000D01*
X116840000Y-109260000D02*
X116840000Y-101600000D01*
X49625000Y-57150000D02*
X45000000Y-61775000D01*
X100470000Y-118100000D02*
X108000000Y-118100000D01*
D21*
X43692000Y-116815000D02*
X96615000Y-116815000D01*
X38333000Y-122174000D02*
X43692000Y-116815000D01*
D22*
X36100000Y-119640000D02*
X36100000Y-102510000D01*
X45000000Y-61775000D02*
X45000000Y-84360000D01*
X97940000Y-115570000D02*
X100470000Y-118100000D01*
X38380000Y-121920000D02*
X36100000Y-119640000D01*
%TD*%
%TA.AperFunction,Conductor*%
%TO.N,/GND*%
G36*
X139742539Y-30220185D02*
G01*
X139788294Y-30272989D01*
X139799500Y-30324500D01*
X139799500Y-134675500D01*
X139779815Y-134742539D01*
X139727011Y-134788294D01*
X139675500Y-134799500D01*
X35324500Y-134799500D01*
X35257461Y-134779815D01*
X35211706Y-134727011D01*
X35200500Y-134675500D01*
X35200500Y-129828681D01*
X36949500Y-129828681D01*
X36949500Y-130171318D01*
X36987858Y-130511768D01*
X36987861Y-130511782D01*
X37064102Y-130845816D01*
X37064103Y-130845818D01*
X37177264Y-131169216D01*
X37325922Y-131477907D01*
X37325924Y-131477910D01*
X37508211Y-131768018D01*
X37721834Y-132035893D01*
X37964107Y-132278166D01*
X38231982Y-132491789D01*
X38522090Y-132674076D01*
X38830785Y-132822736D01*
X39154183Y-132935897D01*
X39488217Y-133012139D01*
X39488226Y-133012140D01*
X39488231Y-133012141D01*
X39715197Y-133037713D01*
X39828682Y-133050499D01*
X39828685Y-133050500D01*
X39828688Y-133050500D01*
X40171315Y-133050500D01*
X40171316Y-133050499D01*
X40345311Y-133030895D01*
X40511768Y-133012141D01*
X40511771Y-133012140D01*
X40511783Y-133012139D01*
X40845817Y-132935897D01*
X41169215Y-132822736D01*
X41477910Y-132674076D01*
X41768018Y-132491789D01*
X42035893Y-132278166D01*
X42278166Y-132035893D01*
X42491789Y-131768018D01*
X42674076Y-131477910D01*
X42822736Y-131169215D01*
X42935897Y-130845817D01*
X43012139Y-130511783D01*
X43050500Y-130171312D01*
X43050500Y-129828688D01*
X43012139Y-129488217D01*
X42935897Y-129154183D01*
X42822736Y-128830785D01*
X42674076Y-128522090D01*
X42491789Y-128231982D01*
X42278166Y-127964107D01*
X42035893Y-127721834D01*
X41977725Y-127675447D01*
X41957983Y-127659703D01*
X41768018Y-127508211D01*
X41477910Y-127325924D01*
X41477907Y-127325922D01*
X41169216Y-127177264D01*
X40845818Y-127064103D01*
X40845816Y-127064102D01*
X40588024Y-127005262D01*
X40511783Y-126987861D01*
X40511780Y-126987860D01*
X40511768Y-126987858D01*
X40171318Y-126949500D01*
X40171312Y-126949500D01*
X39828688Y-126949500D01*
X39828681Y-126949500D01*
X39488231Y-126987858D01*
X39488217Y-126987861D01*
X39154183Y-127064102D01*
X39154181Y-127064103D01*
X38830783Y-127177264D01*
X38522092Y-127325922D01*
X38231983Y-127508210D01*
X37964107Y-127721833D01*
X37721833Y-127964107D01*
X37508210Y-128231983D01*
X37325922Y-128522092D01*
X37177264Y-128830783D01*
X37064103Y-129154181D01*
X37064102Y-129154183D01*
X36987861Y-129488217D01*
X36987858Y-129488231D01*
X36949500Y-129828681D01*
X35200500Y-129828681D01*
X35200500Y-102450164D01*
X35645499Y-102450164D01*
X35645499Y-102457433D01*
X35645499Y-102579825D01*
X35645500Y-102579838D01*
X35645500Y-119580160D01*
X35645499Y-119580164D01*
X35645499Y-119699836D01*
X35655708Y-119737935D01*
X35658745Y-119749271D01*
X35658746Y-119749276D01*
X35676473Y-119815432D01*
X35676474Y-119815433D01*
X35736309Y-119919070D01*
X35736311Y-119919072D01*
X35827995Y-120010756D01*
X35828001Y-120010761D01*
X37461181Y-121643941D01*
X37494666Y-121705264D01*
X37497500Y-121731622D01*
X37497500Y-123284279D01*
X37511999Y-123375827D01*
X37512000Y-123375830D01*
X37512001Y-123375832D01*
X37568231Y-123486189D01*
X37568233Y-123486191D01*
X37568235Y-123486194D01*
X37655805Y-123573764D01*
X37655807Y-123573765D01*
X37655811Y-123573769D01*
X37766168Y-123629999D01*
X37766170Y-123629999D01*
X37766172Y-123630000D01*
X37857721Y-123644500D01*
X37857726Y-123644500D01*
X38808279Y-123644500D01*
X38899827Y-123630000D01*
X38899827Y-123629999D01*
X38899832Y-123629999D01*
X39010189Y-123573769D01*
X39031143Y-123552815D01*
X39063150Y-123520809D01*
X39097764Y-123486194D01*
X39097769Y-123486189D01*
X39153999Y-123375832D01*
X39158986Y-123344344D01*
X39168500Y-123284279D01*
X39168500Y-121853016D01*
X39188185Y-121785977D01*
X39204814Y-121765340D01*
X39526321Y-121443833D01*
X39587642Y-121410350D01*
X39657334Y-121415334D01*
X39713267Y-121457206D01*
X39737684Y-121522670D01*
X39738000Y-121531516D01*
X39738000Y-122955447D01*
X40473000Y-122220447D01*
X40473000Y-122226661D01*
X40500259Y-122328394D01*
X40552920Y-122419606D01*
X40627394Y-122494080D01*
X40718606Y-122546741D01*
X40820339Y-122574000D01*
X40826552Y-122574000D01*
X39819592Y-123580958D01*
X39819592Y-123580959D01*
X39880958Y-123682472D01*
X39999528Y-123801042D01*
X39999532Y-123801045D01*
X40143026Y-123887789D01*
X40303123Y-123937677D01*
X40372701Y-123943999D01*
X41373308Y-123943999D01*
X41442875Y-123937678D01*
X41442883Y-123937676D01*
X41602970Y-123887791D01*
X41602972Y-123887790D01*
X41746467Y-123801045D01*
X41746471Y-123801042D01*
X41865040Y-123682473D01*
X41926406Y-123580958D01*
X41926406Y-123580957D01*
X40919448Y-122574000D01*
X40925661Y-122574000D01*
X41027394Y-122546741D01*
X41118606Y-122494080D01*
X41193080Y-122419606D01*
X41245741Y-122328394D01*
X41273000Y-122226661D01*
X41273000Y-122220449D01*
X42007998Y-122955447D01*
X42007999Y-122955446D01*
X42007999Y-121392552D01*
X42007998Y-121392551D01*
X41273000Y-122127550D01*
X41273000Y-122121339D01*
X41245741Y-122019606D01*
X41193080Y-121928394D01*
X41118606Y-121853920D01*
X41027394Y-121801259D01*
X40925661Y-121774000D01*
X40919448Y-121774000D01*
X41926406Y-120767040D01*
X41926406Y-120767039D01*
X41865044Y-120665530D01*
X41746471Y-120546957D01*
X41746467Y-120546954D01*
X41602973Y-120460210D01*
X41442876Y-120410322D01*
X41373298Y-120404000D01*
X40865516Y-120404000D01*
X40844270Y-120397761D01*
X40822182Y-120396182D01*
X40811398Y-120388109D01*
X40798477Y-120384315D01*
X40783977Y-120367581D01*
X40766249Y-120354310D01*
X40761541Y-120341689D01*
X40752722Y-120331511D01*
X40749570Y-120309593D01*
X40741832Y-120288846D01*
X40744694Y-120275685D01*
X40744043Y-120271153D01*
X61279500Y-120271153D01*
X61279500Y-120428846D01*
X61310261Y-120583489D01*
X61310264Y-120583501D01*
X61370602Y-120729172D01*
X61370609Y-120729185D01*
X61458210Y-120860288D01*
X61458213Y-120860292D01*
X61569707Y-120971786D01*
X61569711Y-120971789D01*
X61700814Y-121059390D01*
X61700827Y-121059397D01*
X61846498Y-121119735D01*
X61846503Y-121119737D01*
X61994894Y-121149254D01*
X62001153Y-121150499D01*
X62001156Y-121150500D01*
X62001158Y-121150500D01*
X62158844Y-121150500D01*
X62158845Y-121150499D01*
X62313497Y-121119737D01*
X62459179Y-121059394D01*
X62590289Y-120971789D01*
X62701789Y-120860289D01*
X62789394Y-120729179D01*
X62849737Y-120583497D01*
X62880500Y-120428842D01*
X62880500Y-120271158D01*
X62880500Y-120271155D01*
X62880499Y-120271153D01*
X62849738Y-120116510D01*
X62849737Y-120116503D01*
X62805938Y-120010761D01*
X62789397Y-119970827D01*
X62789390Y-119970814D01*
X62701789Y-119839711D01*
X62701786Y-119839707D01*
X62590292Y-119728213D01*
X62590288Y-119728210D01*
X62459185Y-119640609D01*
X62459172Y-119640602D01*
X62313501Y-119580264D01*
X62313489Y-119580261D01*
X62158845Y-119549500D01*
X62158842Y-119549500D01*
X62001158Y-119549500D01*
X62001155Y-119549500D01*
X61846510Y-119580261D01*
X61846498Y-119580264D01*
X61700827Y-119640602D01*
X61700814Y-119640609D01*
X61569711Y-119728210D01*
X61569707Y-119728213D01*
X61458213Y-119839707D01*
X61458210Y-119839711D01*
X61370609Y-119970814D01*
X61370602Y-119970827D01*
X61310264Y-120116498D01*
X61310261Y-120116510D01*
X61279500Y-120271153D01*
X40744043Y-120271153D01*
X40742778Y-120262353D01*
X40751977Y-120242209D01*
X40756684Y-120220573D01*
X40769952Y-120202847D01*
X40771803Y-120198797D01*
X40777821Y-120192333D01*
X43791336Y-117178819D01*
X43852659Y-117145334D01*
X43879017Y-117142500D01*
X61331268Y-117142500D01*
X61398307Y-117162185D01*
X61444062Y-117214989D01*
X61454006Y-117284147D01*
X61434370Y-117335391D01*
X61370609Y-117430814D01*
X61370602Y-117430827D01*
X61310264Y-117576498D01*
X61310261Y-117576510D01*
X61279500Y-117731153D01*
X61279500Y-117888846D01*
X61310261Y-118043489D01*
X61310264Y-118043501D01*
X61370602Y-118189172D01*
X61370609Y-118189185D01*
X61458210Y-118320288D01*
X61458213Y-118320292D01*
X61569707Y-118431786D01*
X61569711Y-118431789D01*
X61700814Y-118519390D01*
X61700827Y-118519397D01*
X61785577Y-118554501D01*
X61846503Y-118579737D01*
X61985639Y-118607413D01*
X62001153Y-118610499D01*
X62001156Y-118610500D01*
X62001158Y-118610500D01*
X62158844Y-118610500D01*
X62158845Y-118610499D01*
X62163081Y-118609656D01*
X62174359Y-118607414D01*
X62174364Y-118607413D01*
X62276722Y-118587051D01*
X62313497Y-118579737D01*
X62449201Y-118523527D01*
X62459172Y-118519397D01*
X62459172Y-118519396D01*
X62459179Y-118519394D01*
X62590289Y-118431789D01*
X62701789Y-118320289D01*
X62789394Y-118189179D01*
X62849737Y-118043497D01*
X62880500Y-117888842D01*
X62880500Y-117731158D01*
X62880500Y-117731155D01*
X62880499Y-117731153D01*
X62856237Y-117609181D01*
X62849737Y-117576503D01*
X62804487Y-117467259D01*
X62789397Y-117430827D01*
X62789390Y-117430814D01*
X62725630Y-117335391D01*
X62704752Y-117268714D01*
X62723236Y-117201333D01*
X62775215Y-117154643D01*
X62828732Y-117142500D01*
X96658114Y-117142500D01*
X96658116Y-117142500D01*
X96741410Y-117120181D01*
X96816090Y-117077065D01*
X97722516Y-116170637D01*
X97783839Y-116137153D01*
X97853530Y-116142137D01*
X97897878Y-116170638D01*
X98255559Y-116528319D01*
X98289044Y-116589642D01*
X98284060Y-116659334D01*
X98242188Y-116715267D01*
X98176724Y-116739684D01*
X98167878Y-116740000D01*
X98043429Y-116740000D01*
X97872415Y-116767085D01*
X97707740Y-116820592D01*
X97553480Y-116899193D01*
X97553463Y-116899203D01*
X97547261Y-116903708D01*
X97547261Y-116903709D01*
X98083553Y-117440000D01*
X98077339Y-117440000D01*
X97975606Y-117467259D01*
X97884394Y-117519920D01*
X97809920Y-117594394D01*
X97757259Y-117685606D01*
X97730000Y-117787339D01*
X97730000Y-117793552D01*
X97193709Y-117257261D01*
X97193708Y-117257261D01*
X97189203Y-117263463D01*
X97189193Y-117263480D01*
X97110592Y-117417740D01*
X97057085Y-117582415D01*
X97030000Y-117753428D01*
X97030000Y-117926571D01*
X97057085Y-118097584D01*
X97110592Y-118262259D01*
X97189196Y-118416525D01*
X97193709Y-118422736D01*
X97193709Y-118422737D01*
X97730000Y-117886446D01*
X97730000Y-117892661D01*
X97757259Y-117994394D01*
X97809920Y-118085606D01*
X97884394Y-118160080D01*
X97975606Y-118212741D01*
X98077339Y-118240000D01*
X98083553Y-118240000D01*
X97547261Y-118776289D01*
X97547262Y-118776290D01*
X97553471Y-118780801D01*
X97707742Y-118859408D01*
X97872415Y-118912914D01*
X98043429Y-118940000D01*
X98216571Y-118940000D01*
X98387584Y-118912914D01*
X98552257Y-118859408D01*
X98706525Y-118780803D01*
X98712736Y-118776289D01*
X98712737Y-118776289D01*
X98176448Y-118240000D01*
X98182661Y-118240000D01*
X98284394Y-118212741D01*
X98375606Y-118160080D01*
X98450080Y-118085606D01*
X98502741Y-117994394D01*
X98530000Y-117892661D01*
X98530000Y-117886446D01*
X99066289Y-118422736D01*
X99070803Y-118416525D01*
X99149408Y-118262257D01*
X99202914Y-118097584D01*
X99230000Y-117926571D01*
X99230000Y-117802122D01*
X99249685Y-117735083D01*
X99302489Y-117689328D01*
X99371647Y-117679384D01*
X99435203Y-117708409D01*
X99441681Y-117714441D01*
X100101968Y-118374728D01*
X100101978Y-118374739D01*
X100106308Y-118379069D01*
X100106309Y-118379070D01*
X100190930Y-118463691D01*
X100294569Y-118523527D01*
X100410164Y-118554500D01*
X100529836Y-118554500D01*
X107932552Y-118554500D01*
X107932568Y-118554501D01*
X107940164Y-118554501D01*
X108059835Y-118554501D01*
X108059836Y-118554501D01*
X108150998Y-118530073D01*
X108151001Y-118530073D01*
X108165105Y-118526293D01*
X108175431Y-118523527D01*
X108279070Y-118463691D01*
X108363691Y-118379070D01*
X108363691Y-118379068D01*
X108373895Y-118368865D01*
X108373898Y-118368860D01*
X117203691Y-109539070D01*
X117220125Y-109510606D01*
X117263527Y-109435431D01*
X117275834Y-109389500D01*
X117294501Y-109319836D01*
X117294501Y-109200164D01*
X117294500Y-109200160D01*
X117294500Y-103333852D01*
X117314185Y-103266813D01*
X117366989Y-103221058D01*
X117386413Y-103214076D01*
X117387781Y-103213710D01*
X117593726Y-103128405D01*
X117786774Y-103016948D01*
X117963624Y-102881247D01*
X118121247Y-102723624D01*
X118256948Y-102546774D01*
X118368405Y-102353726D01*
X118453710Y-102147781D01*
X118511404Y-101932463D01*
X118540500Y-101711457D01*
X118540500Y-101488543D01*
X118511404Y-101267537D01*
X118453710Y-101052219D01*
X118368405Y-100846274D01*
X118256948Y-100653226D01*
X118217867Y-100602294D01*
X118121248Y-100476377D01*
X118121242Y-100476370D01*
X117963629Y-100318757D01*
X117963622Y-100318751D01*
X117786782Y-100183058D01*
X117786780Y-100183057D01*
X117786774Y-100183052D01*
X117593726Y-100071595D01*
X117593722Y-100071593D01*
X117387790Y-99986293D01*
X117387783Y-99986291D01*
X117387781Y-99986290D01*
X117172463Y-99928596D01*
X117172457Y-99928595D01*
X117172452Y-99928594D01*
X116951466Y-99899501D01*
X116951463Y-99899500D01*
X116951457Y-99899500D01*
X116728543Y-99899500D01*
X116728537Y-99899500D01*
X116728533Y-99899501D01*
X116507547Y-99928594D01*
X116507540Y-99928595D01*
X116507537Y-99928596D01*
X116292219Y-99986290D01*
X116292209Y-99986293D01*
X116086277Y-100071593D01*
X116086273Y-100071595D01*
X115893226Y-100183052D01*
X115893217Y-100183058D01*
X115716377Y-100318751D01*
X115716370Y-100318757D01*
X115558757Y-100476370D01*
X115558751Y-100476377D01*
X115423058Y-100653217D01*
X115423052Y-100653226D01*
X115311595Y-100846273D01*
X115311593Y-100846277D01*
X115226293Y-101052209D01*
X115226290Y-101052219D01*
X115184287Y-101208979D01*
X115168597Y-101267534D01*
X115168594Y-101267547D01*
X115139501Y-101488533D01*
X115139500Y-101488549D01*
X115139500Y-101711450D01*
X115139501Y-101711466D01*
X115168594Y-101932452D01*
X115168595Y-101932457D01*
X115168596Y-101932463D01*
X115225895Y-102146307D01*
X115226290Y-102147780D01*
X115226293Y-102147790D01*
X115311593Y-102353722D01*
X115311595Y-102353726D01*
X115423052Y-102546774D01*
X115423057Y-102546780D01*
X115423058Y-102546782D01*
X115558751Y-102723622D01*
X115558757Y-102723629D01*
X115716370Y-102881242D01*
X115716376Y-102881247D01*
X115893226Y-103016948D01*
X116086274Y-103128405D01*
X116292219Y-103213710D01*
X116293579Y-103214074D01*
X116293937Y-103214292D01*
X116296054Y-103215011D01*
X116295968Y-103215263D01*
X116295970Y-103215264D01*
X116295959Y-103215288D01*
X116295893Y-103215484D01*
X116353242Y-103250429D01*
X116383780Y-103313272D01*
X116385500Y-103333852D01*
X116385500Y-109020377D01*
X116365815Y-109087416D01*
X116349181Y-109108058D01*
X107848059Y-117609181D01*
X107786736Y-117642666D01*
X107760378Y-117645500D01*
X100709622Y-117645500D01*
X100642583Y-117625815D01*
X100621941Y-117609181D01*
X98852289Y-115839529D01*
X98818804Y-115778206D01*
X98823788Y-115708514D01*
X98836870Y-115682954D01*
X98839394Y-115679179D01*
X98899737Y-115533497D01*
X98930500Y-115378842D01*
X98930500Y-115221158D01*
X98930500Y-115221155D01*
X98930499Y-115221153D01*
X98899738Y-115066510D01*
X98899737Y-115066503D01*
X98865645Y-114984197D01*
X98839397Y-114920827D01*
X98839390Y-114920814D01*
X98751789Y-114789711D01*
X98751786Y-114789707D01*
X98640292Y-114678213D01*
X98640288Y-114678210D01*
X98509185Y-114590609D01*
X98509172Y-114590602D01*
X98363501Y-114530264D01*
X98363489Y-114530261D01*
X98208845Y-114499500D01*
X98208842Y-114499500D01*
X98051158Y-114499500D01*
X98051155Y-114499500D01*
X97896510Y-114530261D01*
X97896498Y-114530264D01*
X97750827Y-114590602D01*
X97750814Y-114590609D01*
X97619711Y-114678210D01*
X97619707Y-114678213D01*
X97508213Y-114789707D01*
X97508210Y-114789711D01*
X97420609Y-114920814D01*
X97420602Y-114920827D01*
X97360264Y-115066498D01*
X97360261Y-115066510D01*
X97329500Y-115221153D01*
X97329500Y-115378846D01*
X97359457Y-115529450D01*
X97353230Y-115599041D01*
X97325521Y-115641322D01*
X96515664Y-116451181D01*
X96454341Y-116484666D01*
X96427983Y-116487500D01*
X43735115Y-116487500D01*
X43648884Y-116487500D01*
X43565589Y-116509819D01*
X43565587Y-116509819D01*
X43565587Y-116509820D01*
X43490910Y-116552935D01*
X43490907Y-116552937D01*
X39227582Y-120816261D01*
X39166259Y-120849746D01*
X39096567Y-120844762D01*
X39052220Y-120816261D01*
X39010194Y-120774235D01*
X39010191Y-120774233D01*
X39010189Y-120774231D01*
X38899832Y-120718001D01*
X38899830Y-120718000D01*
X38899827Y-120717999D01*
X38808279Y-120703500D01*
X38808274Y-120703500D01*
X37857726Y-120703500D01*
X37857623Y-120703500D01*
X37790584Y-120683815D01*
X37769942Y-120667181D01*
X36590819Y-119488058D01*
X36557334Y-119426735D01*
X36554500Y-119400377D01*
X36554500Y-115191153D01*
X61279500Y-115191153D01*
X61279500Y-115348846D01*
X61310261Y-115503489D01*
X61310264Y-115503501D01*
X61370602Y-115649172D01*
X61370609Y-115649185D01*
X61458210Y-115780288D01*
X61458213Y-115780292D01*
X61569707Y-115891786D01*
X61569711Y-115891789D01*
X61700814Y-115979390D01*
X61700827Y-115979397D01*
X61846498Y-116039735D01*
X61846503Y-116039737D01*
X62001153Y-116070499D01*
X62001156Y-116070500D01*
X62001158Y-116070500D01*
X62158844Y-116070500D01*
X62158845Y-116070499D01*
X62313497Y-116039737D01*
X62459179Y-115979394D01*
X62590289Y-115891789D01*
X62701789Y-115780289D01*
X62789394Y-115649179D01*
X62792649Y-115641322D01*
X62837309Y-115533501D01*
X62849737Y-115503497D01*
X62880500Y-115348842D01*
X62880500Y-115191158D01*
X62880500Y-115191155D01*
X62880499Y-115191153D01*
X62849737Y-115036503D01*
X62849735Y-115036498D01*
X62789397Y-114890827D01*
X62789390Y-114890814D01*
X62701789Y-114759711D01*
X62701786Y-114759707D01*
X62590292Y-114648213D01*
X62590288Y-114648210D01*
X62459185Y-114560609D01*
X62459172Y-114560602D01*
X62313501Y-114500264D01*
X62313489Y-114500261D01*
X62189009Y-114475500D01*
X62189006Y-114475500D01*
X62158842Y-114469500D01*
X62001158Y-114469500D01*
X61970994Y-114475500D01*
X61970991Y-114475500D01*
X61846510Y-114500261D01*
X61846498Y-114500264D01*
X61700827Y-114560602D01*
X61700814Y-114560609D01*
X61569711Y-114648210D01*
X61569707Y-114648213D01*
X61458213Y-114759707D01*
X61458210Y-114759711D01*
X61370609Y-114890814D01*
X61370602Y-114890827D01*
X61310264Y-115036498D01*
X61310261Y-115036510D01*
X61279500Y-115191153D01*
X36554500Y-115191153D01*
X36554500Y-105442720D01*
X37497500Y-105442720D01*
X37497500Y-107663279D01*
X37511999Y-107754827D01*
X37512000Y-107754830D01*
X37512001Y-107754832D01*
X37568231Y-107865189D01*
X37568233Y-107865191D01*
X37568235Y-107865194D01*
X37655805Y-107952764D01*
X37655807Y-107952765D01*
X37655811Y-107952769D01*
X37766168Y-108008999D01*
X37766170Y-108008999D01*
X37766172Y-108009000D01*
X37857721Y-108023500D01*
X37857726Y-108023500D01*
X38808279Y-108023500D01*
X38899827Y-108009000D01*
X38899827Y-108008999D01*
X38899832Y-108008999D01*
X39010189Y-107952769D01*
X39097769Y-107865189D01*
X39153999Y-107754832D01*
X39158115Y-107728844D01*
X39168500Y-107663279D01*
X39168500Y-105442720D01*
X40037500Y-105442720D01*
X40037500Y-107663279D01*
X40051999Y-107754827D01*
X40052000Y-107754830D01*
X40052001Y-107754832D01*
X40108231Y-107865189D01*
X40108233Y-107865191D01*
X40108235Y-107865194D01*
X40195805Y-107952764D01*
X40195807Y-107952765D01*
X40195811Y-107952769D01*
X40306168Y-108008999D01*
X40306170Y-108008999D01*
X40306172Y-108009000D01*
X40397721Y-108023500D01*
X40397726Y-108023500D01*
X41348279Y-108023500D01*
X41439827Y-108009000D01*
X41439827Y-108008999D01*
X41439832Y-108008999D01*
X41550189Y-107952769D01*
X41637769Y-107865189D01*
X41693999Y-107754832D01*
X41698115Y-107728844D01*
X41708500Y-107663279D01*
X41708500Y-106406017D01*
X41728185Y-106338978D01*
X41744819Y-106318336D01*
X42365819Y-105697336D01*
X42427142Y-105663851D01*
X42496834Y-105668835D01*
X42552767Y-105710707D01*
X42577184Y-105776171D01*
X42577500Y-105785017D01*
X42577500Y-107663279D01*
X42591999Y-107754827D01*
X42592000Y-107754830D01*
X42592001Y-107754832D01*
X42648231Y-107865189D01*
X42648233Y-107865191D01*
X42648235Y-107865194D01*
X42735805Y-107952764D01*
X42735807Y-107952765D01*
X42735811Y-107952769D01*
X42846168Y-108008999D01*
X42846170Y-108008999D01*
X42846172Y-108009000D01*
X42937721Y-108023500D01*
X42937726Y-108023500D01*
X43888279Y-108023500D01*
X43979827Y-108009000D01*
X43979827Y-108008999D01*
X43979832Y-108008999D01*
X44090189Y-107952769D01*
X44177769Y-107865189D01*
X44233999Y-107754832D01*
X44238115Y-107728844D01*
X44248500Y-107663279D01*
X44248500Y-106406017D01*
X44268185Y-106338978D01*
X44284819Y-106318336D01*
X44905819Y-105697336D01*
X44967142Y-105663851D01*
X45036834Y-105668835D01*
X45092767Y-105710707D01*
X45117184Y-105776171D01*
X45117500Y-105785017D01*
X45117500Y-107663279D01*
X45131999Y-107754827D01*
X45132000Y-107754830D01*
X45132001Y-107754832D01*
X45188231Y-107865189D01*
X45188233Y-107865191D01*
X45188235Y-107865194D01*
X45275805Y-107952764D01*
X45275807Y-107952765D01*
X45275811Y-107952769D01*
X45386168Y-108008999D01*
X45386170Y-108008999D01*
X45386172Y-108009000D01*
X45477721Y-108023500D01*
X45477726Y-108023500D01*
X46428279Y-108023500D01*
X46519827Y-108009000D01*
X46519827Y-108008999D01*
X46519832Y-108008999D01*
X46630189Y-107952769D01*
X46630194Y-107952764D01*
X46632221Y-107950738D01*
X46635292Y-107949060D01*
X46638088Y-107947030D01*
X46638350Y-107947391D01*
X46693544Y-107917253D01*
X46763236Y-107922237D01*
X46807583Y-107950738D01*
X53018910Y-114162065D01*
X53093590Y-114205181D01*
X53176884Y-114227500D01*
X53176886Y-114227500D01*
X97113114Y-114227500D01*
X97113116Y-114227500D01*
X97196410Y-114205181D01*
X97271090Y-114162065D01*
X97855405Y-113577748D01*
X97916726Y-113544265D01*
X97967272Y-113543814D01*
X98035139Y-113557313D01*
X98051157Y-113560500D01*
X98051158Y-113560500D01*
X98208844Y-113560500D01*
X98208845Y-113560499D01*
X98363497Y-113529737D01*
X98509179Y-113469394D01*
X98640289Y-113381789D01*
X98751789Y-113270289D01*
X98839394Y-113139179D01*
X98899737Y-112993497D01*
X98930500Y-112838842D01*
X98930500Y-112681158D01*
X98930500Y-112681155D01*
X98930499Y-112681153D01*
X98899738Y-112526510D01*
X98899737Y-112526503D01*
X98887309Y-112496498D01*
X98839397Y-112380827D01*
X98839390Y-112380814D01*
X98751789Y-112249711D01*
X98751786Y-112249707D01*
X98640292Y-112138213D01*
X98640288Y-112138210D01*
X98509185Y-112050609D01*
X98509172Y-112050602D01*
X98363501Y-111990264D01*
X98363489Y-111990261D01*
X98208845Y-111959500D01*
X98208842Y-111959500D01*
X98051158Y-111959500D01*
X98051155Y-111959500D01*
X97896510Y-111990261D01*
X97896498Y-111990264D01*
X97750827Y-112050602D01*
X97750814Y-112050609D01*
X97619711Y-112138210D01*
X97619707Y-112138213D01*
X97508213Y-112249707D01*
X97508210Y-112249711D01*
X97420609Y-112380814D01*
X97420602Y-112380827D01*
X97360264Y-112526498D01*
X97360261Y-112526510D01*
X97329500Y-112681153D01*
X97329500Y-112838846D01*
X97360260Y-112993488D01*
X97360262Y-112993493D01*
X97360263Y-112993497D01*
X97360265Y-112993501D01*
X97373394Y-113025198D01*
X97380861Y-113094668D01*
X97349585Y-113157146D01*
X97346513Y-113160330D01*
X96970664Y-113536181D01*
X96909341Y-113569666D01*
X96882983Y-113572500D01*
X62667909Y-113572500D01*
X62600870Y-113552815D01*
X62555115Y-113500011D01*
X62545171Y-113430853D01*
X62574196Y-113367297D01*
X62589246Y-113352645D01*
X62590283Y-113351792D01*
X62590289Y-113351789D01*
X62701789Y-113240289D01*
X62789394Y-113109179D01*
X62849737Y-112963497D01*
X62880500Y-112808842D01*
X62880500Y-112651158D01*
X62880500Y-112651155D01*
X62880499Y-112651153D01*
X62849737Y-112496503D01*
X62801823Y-112380827D01*
X62789397Y-112350827D01*
X62789390Y-112350814D01*
X62701789Y-112219711D01*
X62701786Y-112219707D01*
X62590292Y-112108213D01*
X62590288Y-112108210D01*
X62459185Y-112020609D01*
X62459172Y-112020602D01*
X62313501Y-111960264D01*
X62313489Y-111960261D01*
X62158845Y-111929500D01*
X62158842Y-111929500D01*
X62001158Y-111929500D01*
X62001155Y-111929500D01*
X61846510Y-111960261D01*
X61846498Y-111960264D01*
X61700827Y-112020602D01*
X61700814Y-112020609D01*
X61569711Y-112108210D01*
X61569707Y-112108213D01*
X61458213Y-112219707D01*
X61458210Y-112219711D01*
X61370609Y-112350814D01*
X61370602Y-112350827D01*
X61310264Y-112496498D01*
X61310261Y-112496510D01*
X61279500Y-112651153D01*
X61279500Y-112808846D01*
X61310261Y-112963489D01*
X61310264Y-112963501D01*
X61370602Y-113109172D01*
X61370609Y-113109185D01*
X61458210Y-113240288D01*
X61458213Y-113240292D01*
X61569705Y-113351784D01*
X61570754Y-113352645D01*
X61571155Y-113353234D01*
X61574018Y-113356097D01*
X61573475Y-113356639D01*
X61610089Y-113410390D01*
X61611961Y-113480235D01*
X61575775Y-113540004D01*
X61513020Y-113570721D01*
X61492091Y-113572500D01*
X53407017Y-113572500D01*
X53339978Y-113552815D01*
X53319336Y-113536181D01*
X48018336Y-108235181D01*
X47984851Y-108173858D01*
X47989835Y-108104166D01*
X48031707Y-108048233D01*
X48097171Y-108023816D01*
X48106017Y-108023500D01*
X48968279Y-108023500D01*
X49059827Y-108009000D01*
X49059827Y-108008999D01*
X49059832Y-108008999D01*
X49170189Y-107952769D01*
X49212220Y-107910737D01*
X49273540Y-107877252D01*
X49343232Y-107882235D01*
X49387582Y-107910737D01*
X51100910Y-109624065D01*
X51175590Y-109667181D01*
X51258884Y-109689500D01*
X51345116Y-109689500D01*
X61235280Y-109689500D01*
X61302319Y-109709185D01*
X61348074Y-109761989D01*
X61358018Y-109831147D01*
X61349841Y-109860952D01*
X61310264Y-109956498D01*
X61310261Y-109956510D01*
X61279500Y-110111153D01*
X61279500Y-110268846D01*
X61310261Y-110423489D01*
X61310264Y-110423501D01*
X61370602Y-110569172D01*
X61370609Y-110569185D01*
X61458210Y-110700288D01*
X61458213Y-110700292D01*
X61569707Y-110811786D01*
X61569711Y-110811789D01*
X61700814Y-110899390D01*
X61700827Y-110899397D01*
X61846498Y-110959735D01*
X61846503Y-110959737D01*
X61997312Y-110989735D01*
X62001153Y-110990499D01*
X62001156Y-110990500D01*
X62001158Y-110990500D01*
X62158844Y-110990500D01*
X62158845Y-110990499D01*
X62313497Y-110959737D01*
X62459179Y-110899394D01*
X62590289Y-110811789D01*
X62701789Y-110700289D01*
X62789394Y-110569179D01*
X62849737Y-110423497D01*
X62880500Y-110268842D01*
X62880500Y-110111158D01*
X62880500Y-110111155D01*
X62880499Y-110111153D01*
X62866378Y-110040164D01*
X62849737Y-109956503D01*
X62810159Y-109860952D01*
X62802690Y-109791483D01*
X62833965Y-109729004D01*
X62894054Y-109693352D01*
X62924720Y-109689500D01*
X97084983Y-109689500D01*
X97114423Y-109698144D01*
X97144410Y-109704668D01*
X97149425Y-109708422D01*
X97152022Y-109709185D01*
X97172664Y-109725819D01*
X97325521Y-109878676D01*
X97359006Y-109939999D01*
X97359457Y-109990548D01*
X97329500Y-110141153D01*
X97329500Y-110298846D01*
X97360261Y-110453489D01*
X97360264Y-110453501D01*
X97420602Y-110599172D01*
X97420609Y-110599185D01*
X97508210Y-110730288D01*
X97508213Y-110730292D01*
X97619707Y-110841786D01*
X97619711Y-110841789D01*
X97750814Y-110929390D01*
X97750827Y-110929397D01*
X97824078Y-110959738D01*
X97896503Y-110989737D01*
X98051153Y-111020499D01*
X98051156Y-111020500D01*
X98051158Y-111020500D01*
X98208844Y-111020500D01*
X98208845Y-111020499D01*
X98363497Y-110989737D01*
X98509179Y-110929394D01*
X98640289Y-110841789D01*
X98751789Y-110730289D01*
X98839394Y-110599179D01*
X98899737Y-110453497D01*
X98930500Y-110298842D01*
X98930500Y-110141158D01*
X98930500Y-110141155D01*
X98930499Y-110141153D01*
X98908900Y-110032569D01*
X98899737Y-109986503D01*
X98875263Y-109927417D01*
X98839397Y-109840827D01*
X98839390Y-109840814D01*
X98751789Y-109709711D01*
X98751786Y-109709707D01*
X98640292Y-109598213D01*
X98640288Y-109598210D01*
X98509185Y-109510609D01*
X98509172Y-109510602D01*
X98363501Y-109450264D01*
X98363489Y-109450261D01*
X98208845Y-109419500D01*
X98208842Y-109419500D01*
X98051158Y-109419500D01*
X98051153Y-109419500D01*
X97900548Y-109449457D01*
X97830956Y-109443230D01*
X97788676Y-109415521D01*
X97473091Y-109099936D01*
X97473090Y-109099935D01*
X97398410Y-109056819D01*
X97398411Y-109056819D01*
X97370645Y-109049379D01*
X97315116Y-109034500D01*
X97315114Y-109034500D01*
X51489017Y-109034500D01*
X51421978Y-109014815D01*
X51401336Y-108998181D01*
X50638336Y-108235181D01*
X50604851Y-108173858D01*
X50609835Y-108104166D01*
X50651707Y-108048233D01*
X50717171Y-108023816D01*
X50726017Y-108023500D01*
X51508279Y-108023500D01*
X51599827Y-108009000D01*
X51599827Y-108008999D01*
X51599832Y-108008999D01*
X51710189Y-107952769D01*
X51797769Y-107865189D01*
X51853999Y-107754832D01*
X51858115Y-107728844D01*
X51868500Y-107663279D01*
X51868500Y-105442720D01*
X52737500Y-105442720D01*
X52737500Y-107663279D01*
X52751999Y-107754827D01*
X52752000Y-107754830D01*
X52752001Y-107754832D01*
X52808231Y-107865189D01*
X52808233Y-107865191D01*
X52808235Y-107865194D01*
X52895805Y-107952764D01*
X52895807Y-107952765D01*
X52895811Y-107952769D01*
X53006168Y-108008999D01*
X53006170Y-108008999D01*
X53006172Y-108009000D01*
X53097721Y-108023500D01*
X53097726Y-108023500D01*
X54048279Y-108023500D01*
X54139827Y-108009000D01*
X54139827Y-108008999D01*
X54139832Y-108008999D01*
X54250189Y-107952769D01*
X54337769Y-107865189D01*
X54393999Y-107754832D01*
X54398115Y-107728844D01*
X54408500Y-107663279D01*
X54408500Y-105442720D01*
X55277500Y-105442720D01*
X55277500Y-107663279D01*
X55291999Y-107754827D01*
X55292000Y-107754830D01*
X55292001Y-107754832D01*
X55348231Y-107865189D01*
X55348233Y-107865191D01*
X55348235Y-107865194D01*
X55435805Y-107952764D01*
X55435807Y-107952765D01*
X55435811Y-107952769D01*
X55546168Y-108008999D01*
X55546170Y-108008999D01*
X55546172Y-108009000D01*
X55637721Y-108023500D01*
X55637726Y-108023500D01*
X56588279Y-108023500D01*
X56679827Y-108009000D01*
X56679827Y-108008999D01*
X56679832Y-108008999D01*
X56790189Y-107952769D01*
X56877769Y-107865189D01*
X56933999Y-107754832D01*
X56938115Y-107728844D01*
X56948500Y-107663279D01*
X56948500Y-107571153D01*
X61279500Y-107571153D01*
X61279500Y-107728846D01*
X61310261Y-107883489D01*
X61310264Y-107883501D01*
X61370602Y-108029172D01*
X61370609Y-108029185D01*
X61458210Y-108160288D01*
X61458213Y-108160292D01*
X61569707Y-108271786D01*
X61569711Y-108271789D01*
X61700814Y-108359390D01*
X61700827Y-108359397D01*
X61846498Y-108419735D01*
X61846503Y-108419737D01*
X62001153Y-108450499D01*
X62001156Y-108450500D01*
X62001158Y-108450500D01*
X62158844Y-108450500D01*
X62158845Y-108450499D01*
X62313497Y-108419737D01*
X62459179Y-108359394D01*
X62590289Y-108271789D01*
X62701789Y-108160289D01*
X62789394Y-108029179D01*
X62849737Y-107883497D01*
X62880500Y-107728842D01*
X62880500Y-107571158D01*
X62880500Y-107571155D01*
X62880499Y-107571153D01*
X62855960Y-107447790D01*
X62849737Y-107416503D01*
X62849735Y-107416498D01*
X62789397Y-107270827D01*
X62789390Y-107270814D01*
X62701789Y-107139711D01*
X62701786Y-107139707D01*
X62590292Y-107028213D01*
X62590288Y-107028210D01*
X62459185Y-106940609D01*
X62459172Y-106940602D01*
X62313501Y-106880264D01*
X62313489Y-106880261D01*
X62158845Y-106849500D01*
X62158842Y-106849500D01*
X62001158Y-106849500D01*
X62001155Y-106849500D01*
X61846510Y-106880261D01*
X61846498Y-106880264D01*
X61700827Y-106940602D01*
X61700814Y-106940609D01*
X61569711Y-107028210D01*
X61569707Y-107028213D01*
X61458213Y-107139707D01*
X61458210Y-107139711D01*
X61370609Y-107270814D01*
X61370602Y-107270827D01*
X61310264Y-107416498D01*
X61310261Y-107416510D01*
X61279500Y-107571153D01*
X56948500Y-107571153D01*
X56948500Y-105442720D01*
X56934000Y-105351172D01*
X56933999Y-105351170D01*
X56933999Y-105351168D01*
X56877769Y-105240811D01*
X56877765Y-105240807D01*
X56877764Y-105240805D01*
X56790194Y-105153235D01*
X56790191Y-105153233D01*
X56790189Y-105153231D01*
X56679832Y-105097001D01*
X56679830Y-105097000D01*
X56679827Y-105096999D01*
X56588279Y-105082500D01*
X56588274Y-105082500D01*
X55637726Y-105082500D01*
X55637721Y-105082500D01*
X55546172Y-105096999D01*
X55546168Y-105097001D01*
X55435811Y-105153231D01*
X55435810Y-105153232D01*
X55435805Y-105153235D01*
X55348235Y-105240805D01*
X55348232Y-105240810D01*
X55348231Y-105240811D01*
X55329361Y-105277846D01*
X55292001Y-105351168D01*
X55291999Y-105351172D01*
X55277500Y-105442720D01*
X54408500Y-105442720D01*
X54394000Y-105351172D01*
X54393999Y-105351170D01*
X54393999Y-105351168D01*
X54337769Y-105240811D01*
X54337765Y-105240807D01*
X54337764Y-105240805D01*
X54250194Y-105153235D01*
X54250191Y-105153233D01*
X54250189Y-105153231D01*
X54139832Y-105097001D01*
X54139830Y-105097000D01*
X54139827Y-105096999D01*
X54048279Y-105082500D01*
X54048274Y-105082500D01*
X53097726Y-105082500D01*
X53097721Y-105082500D01*
X53006172Y-105096999D01*
X53006168Y-105097001D01*
X52895811Y-105153231D01*
X52895810Y-105153232D01*
X52895805Y-105153235D01*
X52808235Y-105240805D01*
X52808232Y-105240810D01*
X52808231Y-105240811D01*
X52789361Y-105277846D01*
X52752001Y-105351168D01*
X52751999Y-105351172D01*
X52737500Y-105442720D01*
X51868500Y-105442720D01*
X51854000Y-105351172D01*
X51853999Y-105351170D01*
X51853999Y-105351168D01*
X51797769Y-105240811D01*
X51797765Y-105240807D01*
X51797764Y-105240805D01*
X51710194Y-105153235D01*
X51710191Y-105153233D01*
X51710189Y-105153231D01*
X51599832Y-105097001D01*
X51599830Y-105097000D01*
X51599827Y-105096999D01*
X51508279Y-105082500D01*
X51508274Y-105082500D01*
X50557726Y-105082500D01*
X50557721Y-105082500D01*
X50466172Y-105096999D01*
X50466168Y-105097001D01*
X50355811Y-105153231D01*
X50355810Y-105153232D01*
X50355805Y-105153235D01*
X50268235Y-105240805D01*
X50268232Y-105240810D01*
X50268231Y-105240811D01*
X50249361Y-105277846D01*
X50212001Y-105351168D01*
X50211999Y-105351172D01*
X50197500Y-105442720D01*
X50197500Y-107494983D01*
X50177815Y-107562022D01*
X50125011Y-107607777D01*
X50055853Y-107617721D01*
X49992297Y-107588696D01*
X49985819Y-107582664D01*
X49364819Y-106961664D01*
X49331334Y-106900341D01*
X49328500Y-106873983D01*
X49328500Y-105442720D01*
X49314000Y-105351172D01*
X49313999Y-105351170D01*
X49313999Y-105351168D01*
X49257769Y-105240811D01*
X49257765Y-105240807D01*
X49257764Y-105240805D01*
X49170194Y-105153235D01*
X49170191Y-105153233D01*
X49170189Y-105153231D01*
X49059832Y-105097001D01*
X49059830Y-105097000D01*
X49059827Y-105096999D01*
X48968279Y-105082500D01*
X48968274Y-105082500D01*
X48017726Y-105082500D01*
X48017721Y-105082500D01*
X47926172Y-105096999D01*
X47926168Y-105097001D01*
X47815811Y-105153231D01*
X47815810Y-105153232D01*
X47815805Y-105153235D01*
X47728235Y-105240805D01*
X47728232Y-105240810D01*
X47728231Y-105240811D01*
X47709361Y-105277846D01*
X47672001Y-105351168D01*
X47671999Y-105351172D01*
X47657500Y-105442720D01*
X47657500Y-107574983D01*
X47637815Y-107642022D01*
X47585011Y-107687777D01*
X47515853Y-107697721D01*
X47452297Y-107668696D01*
X47445819Y-107662664D01*
X46824819Y-107041664D01*
X46791334Y-106980341D01*
X46788500Y-106953983D01*
X46788500Y-105442720D01*
X46774000Y-105351172D01*
X46773999Y-105351170D01*
X46773999Y-105351168D01*
X46717769Y-105240811D01*
X46717765Y-105240807D01*
X46717764Y-105240805D01*
X46630194Y-105153235D01*
X46630191Y-105153233D01*
X46630189Y-105153231D01*
X46519832Y-105097001D01*
X46519830Y-105097000D01*
X46519827Y-105096999D01*
X46428279Y-105082500D01*
X46428274Y-105082500D01*
X45820017Y-105082500D01*
X45798771Y-105076261D01*
X45776683Y-105074682D01*
X45765899Y-105066609D01*
X45752978Y-105062815D01*
X45738478Y-105046081D01*
X45720750Y-105032810D01*
X45716042Y-105020189D01*
X45707223Y-105010011D01*
X45704071Y-104988093D01*
X45696333Y-104967346D01*
X45699195Y-104954185D01*
X45697279Y-104940853D01*
X45706478Y-104920709D01*
X45711185Y-104899073D01*
X45719030Y-104888592D01*
X67084500Y-104888592D01*
X67084500Y-105111407D01*
X67118283Y-105324702D01*
X67119354Y-105331464D01*
X67188205Y-105543363D01*
X67289356Y-105741884D01*
X67420317Y-105922136D01*
X67577864Y-106079683D01*
X67758116Y-106210644D01*
X67956637Y-106311795D01*
X68168536Y-106380646D01*
X68251059Y-106393716D01*
X68388593Y-106415500D01*
X68388598Y-106415500D01*
X68611407Y-106415500D01*
X68733658Y-106396136D01*
X68831464Y-106380646D01*
X69043363Y-106311795D01*
X69241884Y-106210644D01*
X69422136Y-106079683D01*
X69579683Y-105922136D01*
X69710644Y-105741884D01*
X69811795Y-105543363D01*
X69880646Y-105331464D01*
X69901547Y-105199500D01*
X69915500Y-105111407D01*
X69915500Y-104888592D01*
X69914815Y-104884269D01*
X93529500Y-104884269D01*
X93529500Y-105115731D01*
X93535440Y-105153232D01*
X93565709Y-105344344D01*
X93637232Y-105564473D01*
X93637233Y-105564476D01*
X93687868Y-105663851D01*
X93727628Y-105741884D01*
X93742318Y-105770713D01*
X93878359Y-105957959D01*
X93878363Y-105957964D01*
X94042035Y-106121636D01*
X94042040Y-106121640D01*
X94164543Y-106210643D01*
X94229290Y-106257684D01*
X94348326Y-106318336D01*
X94435523Y-106362766D01*
X94435526Y-106362767D01*
X94490553Y-106380646D01*
X94655657Y-106434291D01*
X94884269Y-106470500D01*
X94884270Y-106470500D01*
X95115730Y-106470500D01*
X95115731Y-106470500D01*
X95344343Y-106434291D01*
X95564476Y-106362766D01*
X95770710Y-106257684D01*
X95957966Y-106121635D01*
X96121635Y-105957966D01*
X96257684Y-105770710D01*
X96362766Y-105564476D01*
X96434291Y-105344343D01*
X96470500Y-105115731D01*
X96470500Y-104884269D01*
X96434291Y-104655657D01*
X96362766Y-104435524D01*
X96362766Y-104435523D01*
X96326376Y-104364106D01*
X96257684Y-104229290D01*
X96147667Y-104077864D01*
X96121640Y-104042040D01*
X96121636Y-104042035D01*
X95957964Y-103878363D01*
X95957959Y-103878359D01*
X95770713Y-103742318D01*
X95770712Y-103742317D01*
X95770710Y-103742316D01*
X95664512Y-103688205D01*
X95564476Y-103637233D01*
X95564473Y-103637232D01*
X95344344Y-103565709D01*
X95230037Y-103547604D01*
X95115731Y-103529500D01*
X94884269Y-103529500D01*
X94808065Y-103541569D01*
X94655655Y-103565709D01*
X94435526Y-103637232D01*
X94435523Y-103637233D01*
X94229286Y-103742318D01*
X94042040Y-103878359D01*
X94042035Y-103878363D01*
X93878363Y-104042035D01*
X93878359Y-104042040D01*
X93742318Y-104229286D01*
X93637233Y-104435523D01*
X93637232Y-104435526D01*
X93565709Y-104655655D01*
X93531630Y-104870819D01*
X93529500Y-104884269D01*
X69914815Y-104884269D01*
X69880646Y-104668539D01*
X69880646Y-104668536D01*
X69811795Y-104456637D01*
X69710644Y-104258116D01*
X69579683Y-104077864D01*
X69422136Y-103920317D01*
X69241884Y-103789356D01*
X69043363Y-103688205D01*
X68831464Y-103619354D01*
X68831462Y-103619353D01*
X68831460Y-103619353D01*
X68611407Y-103584500D01*
X68611402Y-103584500D01*
X68388598Y-103584500D01*
X68388593Y-103584500D01*
X68168539Y-103619353D01*
X67956634Y-103688206D01*
X67758115Y-103789356D01*
X67655275Y-103864074D01*
X67577864Y-103920317D01*
X67577862Y-103920319D01*
X67577861Y-103920319D01*
X67420319Y-104077861D01*
X67420319Y-104077862D01*
X67420317Y-104077864D01*
X67364074Y-104155275D01*
X67289356Y-104258115D01*
X67188206Y-104456634D01*
X67119353Y-104668539D01*
X67084500Y-104888592D01*
X45719030Y-104888592D01*
X45724453Y-104881347D01*
X45726304Y-104877297D01*
X45732336Y-104870819D01*
X49294908Y-101308247D01*
X49356231Y-101274762D01*
X49382589Y-101271928D01*
X100557411Y-101271928D01*
X100624450Y-101291613D01*
X100645092Y-101308247D01*
X105218340Y-105881495D01*
X105251825Y-105942818D01*
X105246841Y-106012510D01*
X105238046Y-106031176D01*
X105171598Y-106146266D01*
X105171593Y-106146277D01*
X105086293Y-106352209D01*
X105086290Y-106352219D01*
X105028597Y-106567534D01*
X105028594Y-106567547D01*
X104999501Y-106788533D01*
X104999500Y-106788549D01*
X104999500Y-107011450D01*
X104999501Y-107011466D01*
X105028594Y-107232452D01*
X105028595Y-107232457D01*
X105028596Y-107232463D01*
X105028597Y-107232465D01*
X105086290Y-107447780D01*
X105086293Y-107447790D01*
X105152562Y-107607777D01*
X105171595Y-107653726D01*
X105283052Y-107846774D01*
X105283057Y-107846780D01*
X105283058Y-107846782D01*
X105418751Y-108023622D01*
X105418757Y-108023629D01*
X105576370Y-108181242D01*
X105576377Y-108181248D01*
X105694369Y-108271786D01*
X105753226Y-108316948D01*
X105946274Y-108428405D01*
X106152219Y-108513710D01*
X106367537Y-108571404D01*
X106588543Y-108600500D01*
X106588550Y-108600500D01*
X106811450Y-108600500D01*
X106811457Y-108600500D01*
X107032463Y-108571404D01*
X107247781Y-108513710D01*
X107453726Y-108428405D01*
X107646774Y-108316948D01*
X107823624Y-108181247D01*
X107981247Y-108023624D01*
X108116948Y-107846774D01*
X108228405Y-107653726D01*
X108313710Y-107447781D01*
X108371404Y-107232463D01*
X108400500Y-107011457D01*
X108400500Y-106788543D01*
X108371404Y-106567537D01*
X108313710Y-106352219D01*
X108308225Y-106338978D01*
X108228406Y-106146277D01*
X108228405Y-106146274D01*
X108116948Y-105953226D01*
X108061907Y-105881495D01*
X107981248Y-105776377D01*
X107981242Y-105776370D01*
X107823629Y-105618757D01*
X107823622Y-105618751D01*
X107646782Y-105483058D01*
X107646780Y-105483057D01*
X107646774Y-105483052D01*
X107453726Y-105371595D01*
X107453722Y-105371593D01*
X107247790Y-105286293D01*
X107247783Y-105286291D01*
X107247781Y-105286290D01*
X107032463Y-105228596D01*
X107032457Y-105228595D01*
X107032452Y-105228594D01*
X106811466Y-105199501D01*
X106811463Y-105199500D01*
X106811457Y-105199500D01*
X106588543Y-105199500D01*
X106588537Y-105199500D01*
X106588533Y-105199501D01*
X106367547Y-105228594D01*
X106367540Y-105228595D01*
X106367537Y-105228596D01*
X106250962Y-105259832D01*
X106152219Y-105286290D01*
X106152209Y-105286293D01*
X105946277Y-105371593D01*
X105946266Y-105371598D01*
X105831176Y-105438046D01*
X105763276Y-105454519D01*
X105697249Y-105431666D01*
X105681495Y-105418340D01*
X100945519Y-100682364D01*
X100945518Y-100682363D01*
X100870838Y-100639247D01*
X100870839Y-100639247D01*
X100843073Y-100631807D01*
X100787544Y-100616928D01*
X49238688Y-100616928D01*
X49152456Y-100616928D01*
X49096926Y-100631807D01*
X49069161Y-100639247D01*
X48994483Y-100682362D01*
X48994480Y-100682364D01*
X44385626Y-105291217D01*
X44324303Y-105324702D01*
X44254611Y-105319718D01*
X44198678Y-105277846D01*
X44187461Y-105259832D01*
X44184147Y-105253328D01*
X44177769Y-105240811D01*
X44177766Y-105240808D01*
X44177764Y-105240805D01*
X44090194Y-105153235D01*
X44090191Y-105153233D01*
X44090189Y-105153231D01*
X43979832Y-105097001D01*
X43979830Y-105097000D01*
X43979827Y-105096999D01*
X43888279Y-105082500D01*
X43888274Y-105082500D01*
X43280017Y-105082500D01*
X43212978Y-105062815D01*
X43167223Y-105010011D01*
X43157279Y-104940853D01*
X43186304Y-104877297D01*
X43192336Y-104870819D01*
X48399336Y-99663819D01*
X48460659Y-99630334D01*
X48487017Y-99627500D01*
X117712983Y-99627500D01*
X117780022Y-99647185D01*
X117800664Y-99663819D01*
X120296181Y-102159336D01*
X120329666Y-102220659D01*
X120332500Y-102247017D01*
X120332500Y-106635500D01*
X120312815Y-106702539D01*
X120260011Y-106748294D01*
X120208500Y-106759500D01*
X119640247Y-106759500D01*
X119581770Y-106771131D01*
X119581769Y-106771132D01*
X119515447Y-106815447D01*
X119471132Y-106881769D01*
X119471131Y-106881770D01*
X119459500Y-106940247D01*
X119459500Y-108979752D01*
X119471131Y-109038229D01*
X119471132Y-109038230D01*
X119515447Y-109104552D01*
X119581769Y-109148867D01*
X119581770Y-109148868D01*
X119640247Y-109160499D01*
X119640250Y-109160500D01*
X119640252Y-109160500D01*
X121521500Y-109160500D01*
X121588539Y-109180185D01*
X121634294Y-109232989D01*
X121645500Y-109284500D01*
X121645500Y-109860378D01*
X121625815Y-109927417D01*
X121609181Y-109948059D01*
X105048059Y-126509181D01*
X104986736Y-126542666D01*
X104960378Y-126545500D01*
X91772178Y-126545500D01*
X91705139Y-126525815D01*
X91684497Y-126509181D01*
X91606627Y-126431311D01*
X91606621Y-126431306D01*
X91502989Y-126371474D01*
X91502984Y-126371472D01*
X91478558Y-126364926D01*
X91478558Y-126364927D01*
X91432974Y-126352713D01*
X91387391Y-126340499D01*
X91267719Y-126340499D01*
X91260123Y-126340499D01*
X91260107Y-126340500D01*
X88739893Y-126340500D01*
X88739877Y-126340499D01*
X88732281Y-126340499D01*
X88612609Y-126340499D01*
X88521442Y-126364927D01*
X88511963Y-126367466D01*
X88497015Y-126371472D01*
X88497010Y-126371474D01*
X88393378Y-126431306D01*
X88393372Y-126431311D01*
X88315503Y-126509181D01*
X88254180Y-126542666D01*
X88227822Y-126545500D01*
X48478622Y-126545500D01*
X48411583Y-126525815D01*
X48390941Y-126509181D01*
X45737941Y-123856181D01*
X45704456Y-123794858D01*
X45709440Y-123725166D01*
X45751312Y-123669233D01*
X45816776Y-123644816D01*
X45825622Y-123644500D01*
X46428279Y-123644500D01*
X46519827Y-123630000D01*
X46519827Y-123629999D01*
X46519832Y-123629999D01*
X46630189Y-123573769D01*
X46717769Y-123486189D01*
X46770329Y-123383033D01*
X46818303Y-123332239D01*
X46886124Y-123315444D01*
X46952259Y-123337981D01*
X46968494Y-123351649D01*
X47717935Y-124101090D01*
X47778910Y-124162065D01*
X47853590Y-124205181D01*
X47936884Y-124227500D01*
X47936886Y-124227500D01*
X65143114Y-124227500D01*
X65143116Y-124227500D01*
X65226410Y-124205181D01*
X65301090Y-124162065D01*
X66844449Y-122618704D01*
X66905770Y-122585221D01*
X66975461Y-122590205D01*
X67031395Y-122632077D01*
X67055812Y-122697541D01*
X67054601Y-122725784D01*
X67029500Y-122884268D01*
X67029500Y-123115730D01*
X67065709Y-123344344D01*
X67137232Y-123564473D01*
X67137233Y-123564476D01*
X67242318Y-123770713D01*
X67378359Y-123957959D01*
X67378363Y-123957964D01*
X67542035Y-124121636D01*
X67542040Y-124121640D01*
X67687745Y-124227500D01*
X67729290Y-124257684D01*
X67864106Y-124326376D01*
X67935523Y-124362766D01*
X67935526Y-124362767D01*
X68045590Y-124398528D01*
X68155657Y-124434291D01*
X68384269Y-124470500D01*
X68384270Y-124470500D01*
X68615730Y-124470500D01*
X68615731Y-124470500D01*
X68844343Y-124434291D01*
X69064476Y-124362766D01*
X69270710Y-124257684D01*
X69457966Y-124121635D01*
X69621635Y-123957966D01*
X69757684Y-123770710D01*
X69862766Y-123564476D01*
X69934291Y-123344343D01*
X69970500Y-123115731D01*
X69970500Y-122884269D01*
X69934291Y-122655657D01*
X69898528Y-122545590D01*
X69862767Y-122435526D01*
X69862766Y-122435523D01*
X69801548Y-122315378D01*
X69757684Y-122229290D01*
X69717513Y-122173999D01*
X69621640Y-122042040D01*
X69621636Y-122042035D01*
X69457964Y-121878363D01*
X69457959Y-121878359D01*
X69270713Y-121742318D01*
X69270712Y-121742317D01*
X69270710Y-121742316D01*
X69197992Y-121705264D01*
X69064476Y-121637233D01*
X69064473Y-121637232D01*
X68844344Y-121565709D01*
X68717672Y-121545646D01*
X68615731Y-121529500D01*
X68384269Y-121529500D01*
X68225784Y-121554601D01*
X68156491Y-121545646D01*
X68103039Y-121500650D01*
X68082400Y-121433898D01*
X68101125Y-121366585D01*
X68118701Y-121344453D01*
X69099336Y-120363819D01*
X69160659Y-120330334D01*
X69187017Y-120327500D01*
X102712983Y-120327500D01*
X102780022Y-120347185D01*
X102800664Y-120363819D01*
X103518340Y-121081495D01*
X103551825Y-121142818D01*
X103546841Y-121212510D01*
X103538046Y-121231176D01*
X103471598Y-121346266D01*
X103471593Y-121346277D01*
X103386293Y-121552209D01*
X103386290Y-121552219D01*
X103335354Y-121742318D01*
X103328597Y-121767534D01*
X103328594Y-121767547D01*
X103299501Y-121988533D01*
X103299500Y-121988549D01*
X103299500Y-122211450D01*
X103299501Y-122211466D01*
X103328594Y-122432452D01*
X103328595Y-122432457D01*
X103328596Y-122432463D01*
X103382082Y-122632077D01*
X103386290Y-122647780D01*
X103386293Y-122647790D01*
X103455547Y-122814983D01*
X103471595Y-122853726D01*
X103583052Y-123046774D01*
X103583057Y-123046780D01*
X103583058Y-123046782D01*
X103718751Y-123223622D01*
X103718757Y-123223629D01*
X103876370Y-123381242D01*
X103876377Y-123381248D01*
X104002294Y-123477867D01*
X104053226Y-123516948D01*
X104246274Y-123628405D01*
X104452219Y-123713710D01*
X104667537Y-123771404D01*
X104888543Y-123800500D01*
X104888550Y-123800500D01*
X105111450Y-123800500D01*
X105111457Y-123800500D01*
X105332463Y-123771404D01*
X105547781Y-123713710D01*
X105753726Y-123628405D01*
X105946774Y-123516948D01*
X106123624Y-123381247D01*
X106281247Y-123223624D01*
X106416948Y-123046774D01*
X106528405Y-122853726D01*
X106613710Y-122647781D01*
X106671404Y-122432463D01*
X106700500Y-122211457D01*
X106700500Y-121988543D01*
X106671404Y-121767537D01*
X106613710Y-121552219D01*
X106610987Y-121545646D01*
X106564700Y-121433898D01*
X106528405Y-121346274D01*
X106416948Y-121153226D01*
X106281247Y-120976376D01*
X106281242Y-120976370D01*
X106123629Y-120818757D01*
X106123622Y-120818751D01*
X105946782Y-120683058D01*
X105946780Y-120683057D01*
X105946774Y-120683052D01*
X105753726Y-120571595D01*
X105753722Y-120571593D01*
X105547790Y-120486293D01*
X105547783Y-120486291D01*
X105547781Y-120486290D01*
X105332463Y-120428596D01*
X105332457Y-120428595D01*
X105332452Y-120428594D01*
X105111466Y-120399501D01*
X105111463Y-120399500D01*
X105111457Y-120399500D01*
X104888543Y-120399500D01*
X104888537Y-120399500D01*
X104888533Y-120399501D01*
X104667547Y-120428594D01*
X104667540Y-120428595D01*
X104667537Y-120428596D01*
X104452219Y-120486290D01*
X104452209Y-120486293D01*
X104246277Y-120571593D01*
X104246266Y-120571598D01*
X104131176Y-120638046D01*
X104063276Y-120654519D01*
X103997249Y-120631666D01*
X103981495Y-120618340D01*
X103101090Y-119737935D01*
X103101088Y-119737934D01*
X103084245Y-119728210D01*
X103026410Y-119694819D01*
X103026411Y-119694819D01*
X102998645Y-119687379D01*
X102943116Y-119672500D01*
X69043116Y-119672500D01*
X68956884Y-119672500D01*
X68901354Y-119687379D01*
X68873589Y-119694819D01*
X68798911Y-119737934D01*
X65000664Y-123536181D01*
X64939341Y-123569666D01*
X64912983Y-123572500D01*
X57036141Y-123572500D01*
X56969102Y-123552815D01*
X56923347Y-123500011D01*
X56913403Y-123430853D01*
X56925657Y-123392204D01*
X56933999Y-123375832D01*
X56938986Y-123344344D01*
X56948500Y-123284279D01*
X56948500Y-121063720D01*
X56934000Y-120972172D01*
X56933999Y-120972170D01*
X56933999Y-120972168D01*
X56877769Y-120861811D01*
X56877765Y-120861807D01*
X56877764Y-120861805D01*
X56790194Y-120774235D01*
X56790191Y-120774233D01*
X56790189Y-120774231D01*
X56679832Y-120718001D01*
X56679830Y-120718000D01*
X56679827Y-120717999D01*
X56588279Y-120703500D01*
X56588274Y-120703500D01*
X55637726Y-120703500D01*
X55637721Y-120703500D01*
X55546172Y-120717999D01*
X55546168Y-120718001D01*
X55435811Y-120774231D01*
X55435810Y-120774232D01*
X55435805Y-120774235D01*
X55348235Y-120861805D01*
X55348232Y-120861810D01*
X55292001Y-120972168D01*
X55291999Y-120972172D01*
X55277500Y-121063720D01*
X55277500Y-123284279D01*
X55291999Y-123375827D01*
X55292002Y-123375834D01*
X55300343Y-123392204D01*
X55313240Y-123460874D01*
X55286964Y-123525614D01*
X55229858Y-123565872D01*
X55189859Y-123572500D01*
X54496141Y-123572500D01*
X54429102Y-123552815D01*
X54383347Y-123500011D01*
X54373403Y-123430853D01*
X54385657Y-123392204D01*
X54393999Y-123375832D01*
X54398986Y-123344344D01*
X54408500Y-123284279D01*
X54408500Y-121063720D01*
X54394000Y-120972172D01*
X54393999Y-120972170D01*
X54393999Y-120972168D01*
X54337769Y-120861811D01*
X54337765Y-120861807D01*
X54337764Y-120861805D01*
X54250194Y-120774235D01*
X54250191Y-120774233D01*
X54250189Y-120774231D01*
X54139832Y-120718001D01*
X54139830Y-120718000D01*
X54139827Y-120717999D01*
X54048279Y-120703500D01*
X54048274Y-120703500D01*
X53097726Y-120703500D01*
X53097721Y-120703500D01*
X53006172Y-120717999D01*
X53006168Y-120718001D01*
X52895811Y-120774231D01*
X52895810Y-120774232D01*
X52895805Y-120774235D01*
X52808235Y-120861805D01*
X52808232Y-120861810D01*
X52752001Y-120972168D01*
X52751999Y-120972172D01*
X52737500Y-121063720D01*
X52737500Y-123284279D01*
X52751999Y-123375827D01*
X52752002Y-123375834D01*
X52760343Y-123392204D01*
X52773240Y-123460874D01*
X52746964Y-123525614D01*
X52689858Y-123565872D01*
X52649859Y-123572500D01*
X51956141Y-123572500D01*
X51889102Y-123552815D01*
X51843347Y-123500011D01*
X51833403Y-123430853D01*
X51845657Y-123392204D01*
X51853999Y-123375832D01*
X51858986Y-123344344D01*
X51868500Y-123284279D01*
X51868500Y-121063720D01*
X51854000Y-120972172D01*
X51853999Y-120972170D01*
X51853999Y-120972168D01*
X51797769Y-120861811D01*
X51797765Y-120861807D01*
X51797764Y-120861805D01*
X51710194Y-120774235D01*
X51710191Y-120774233D01*
X51710189Y-120774231D01*
X51599832Y-120718001D01*
X51599830Y-120718000D01*
X51599827Y-120717999D01*
X51508279Y-120703500D01*
X51508274Y-120703500D01*
X50557726Y-120703500D01*
X50557721Y-120703500D01*
X50466172Y-120717999D01*
X50466168Y-120718001D01*
X50355811Y-120774231D01*
X50355810Y-120774232D01*
X50355805Y-120774235D01*
X50268235Y-120861805D01*
X50268232Y-120861810D01*
X50212001Y-120972168D01*
X50211999Y-120972172D01*
X50197500Y-121063720D01*
X50197500Y-123284279D01*
X50211999Y-123375827D01*
X50212002Y-123375834D01*
X50220343Y-123392204D01*
X50233240Y-123460874D01*
X50206964Y-123525614D01*
X50149858Y-123565872D01*
X50109859Y-123572500D01*
X49416141Y-123572500D01*
X49349102Y-123552815D01*
X49303347Y-123500011D01*
X49293403Y-123430853D01*
X49305657Y-123392204D01*
X49313999Y-123375832D01*
X49318986Y-123344344D01*
X49328500Y-123284279D01*
X49328500Y-121063720D01*
X49314000Y-120972172D01*
X49313999Y-120972170D01*
X49313999Y-120972168D01*
X49257769Y-120861811D01*
X49257765Y-120861807D01*
X49257764Y-120861805D01*
X49170194Y-120774235D01*
X49170191Y-120774233D01*
X49170189Y-120774231D01*
X49059832Y-120718001D01*
X49059830Y-120718000D01*
X49059827Y-120717999D01*
X48968279Y-120703500D01*
X48968274Y-120703500D01*
X48017726Y-120703500D01*
X48017721Y-120703500D01*
X47926172Y-120717999D01*
X47926168Y-120718001D01*
X47815811Y-120774231D01*
X47815810Y-120774232D01*
X47815805Y-120774235D01*
X47728235Y-120861805D01*
X47728232Y-120861810D01*
X47672001Y-120972168D01*
X47671999Y-120972172D01*
X47657500Y-121063720D01*
X47657500Y-122814983D01*
X47637815Y-122882022D01*
X47585011Y-122927777D01*
X47515853Y-122937721D01*
X47452297Y-122908696D01*
X47445819Y-122902664D01*
X46824819Y-122281664D01*
X46791334Y-122220341D01*
X46788500Y-122193983D01*
X46788500Y-121063720D01*
X46774000Y-120972172D01*
X46773999Y-120972170D01*
X46773999Y-120972168D01*
X46717769Y-120861811D01*
X46717765Y-120861807D01*
X46717764Y-120861805D01*
X46630194Y-120774235D01*
X46630191Y-120774233D01*
X46630189Y-120774231D01*
X46519832Y-120718001D01*
X46519830Y-120718000D01*
X46519827Y-120717999D01*
X46428279Y-120703500D01*
X46428274Y-120703500D01*
X45477726Y-120703500D01*
X45477721Y-120703500D01*
X45386172Y-120717999D01*
X45386168Y-120718001D01*
X45275811Y-120774231D01*
X45275810Y-120774232D01*
X45275805Y-120774235D01*
X45188235Y-120861805D01*
X45188232Y-120861810D01*
X45132001Y-120972168D01*
X45131999Y-120972172D01*
X45117500Y-121063720D01*
X45117500Y-122936378D01*
X45097815Y-123003417D01*
X45045011Y-123049172D01*
X44975853Y-123059116D01*
X44912297Y-123030091D01*
X44905819Y-123024059D01*
X44284819Y-122403059D01*
X44251334Y-122341736D01*
X44248500Y-122315378D01*
X44248500Y-121063720D01*
X44234000Y-120972172D01*
X44233999Y-120972170D01*
X44233999Y-120972168D01*
X44177769Y-120861811D01*
X44177765Y-120861807D01*
X44177764Y-120861805D01*
X44090194Y-120774235D01*
X44090191Y-120774233D01*
X44090189Y-120774231D01*
X43979832Y-120718001D01*
X43979830Y-120718000D01*
X43979827Y-120717999D01*
X43888279Y-120703500D01*
X43888274Y-120703500D01*
X42937726Y-120703500D01*
X42937721Y-120703500D01*
X42846172Y-120717999D01*
X42846168Y-120718001D01*
X42735811Y-120774231D01*
X42735810Y-120774232D01*
X42735805Y-120774235D01*
X42648235Y-120861805D01*
X42648232Y-120861810D01*
X42592001Y-120972168D01*
X42591999Y-120972172D01*
X42577500Y-121063720D01*
X42577500Y-123284279D01*
X42591999Y-123375827D01*
X42592000Y-123375830D01*
X42592001Y-123375832D01*
X42648231Y-123486189D01*
X42648233Y-123486191D01*
X42648235Y-123486194D01*
X42735805Y-123573764D01*
X42735807Y-123573765D01*
X42735811Y-123573769D01*
X42846168Y-123629999D01*
X42846170Y-123629999D01*
X42846172Y-123630000D01*
X42937721Y-123644500D01*
X42937726Y-123644500D01*
X43888279Y-123644500D01*
X43979827Y-123630000D01*
X43979828Y-123629999D01*
X43979832Y-123629999D01*
X44062796Y-123587726D01*
X44131462Y-123574830D01*
X44196203Y-123601105D01*
X44206770Y-123610530D01*
X47875307Y-127279067D01*
X47875309Y-127279070D01*
X47959930Y-127363691D01*
X48019767Y-127398237D01*
X48063570Y-127423528D01*
X48179164Y-127454501D01*
X48179166Y-127454501D01*
X48306432Y-127454501D01*
X48306448Y-127454500D01*
X87944961Y-127454500D01*
X88012000Y-127474185D01*
X88057755Y-127526989D01*
X88067699Y-127596147D01*
X88038674Y-127659703D01*
X88022274Y-127675447D01*
X87964107Y-127721833D01*
X87721833Y-127964107D01*
X87508210Y-128231983D01*
X87325922Y-128522092D01*
X87177264Y-128830783D01*
X87064103Y-129154181D01*
X87064102Y-129154183D01*
X86987861Y-129488217D01*
X86987858Y-129488231D01*
X86949500Y-129828681D01*
X86949500Y-130171318D01*
X86987858Y-130511768D01*
X86987861Y-130511782D01*
X87064102Y-130845816D01*
X87064103Y-130845818D01*
X87177264Y-131169216D01*
X87325922Y-131477907D01*
X87325924Y-131477910D01*
X87508211Y-131768018D01*
X87721834Y-132035893D01*
X87964107Y-132278166D01*
X88231982Y-132491789D01*
X88522090Y-132674076D01*
X88830785Y-132822736D01*
X89154183Y-132935897D01*
X89488217Y-133012139D01*
X89488226Y-133012140D01*
X89488231Y-133012141D01*
X89715197Y-133037713D01*
X89828682Y-133050499D01*
X89828685Y-133050500D01*
X89828688Y-133050500D01*
X90171315Y-133050500D01*
X90171316Y-133050499D01*
X90345311Y-133030895D01*
X90511768Y-133012141D01*
X90511771Y-133012140D01*
X90511783Y-133012139D01*
X90845817Y-132935897D01*
X91169215Y-132822736D01*
X91477910Y-132674076D01*
X91768018Y-132491789D01*
X92035893Y-132278166D01*
X92278166Y-132035893D01*
X92491789Y-131768018D01*
X92674076Y-131477910D01*
X92822736Y-131169215D01*
X92935897Y-130845817D01*
X93012139Y-130511783D01*
X93050500Y-130171312D01*
X93050500Y-129828688D01*
X93050499Y-129828681D01*
X131949500Y-129828681D01*
X131949500Y-130171318D01*
X131987858Y-130511768D01*
X131987861Y-130511782D01*
X132064102Y-130845816D01*
X132064103Y-130845818D01*
X132177264Y-131169216D01*
X132325922Y-131477907D01*
X132325924Y-131477910D01*
X132508211Y-131768018D01*
X132721834Y-132035893D01*
X132964107Y-132278166D01*
X133231982Y-132491789D01*
X133522090Y-132674076D01*
X133830785Y-132822736D01*
X134154183Y-132935897D01*
X134488217Y-133012139D01*
X134488226Y-133012140D01*
X134488231Y-133012141D01*
X134715197Y-133037713D01*
X134828682Y-133050499D01*
X134828685Y-133050500D01*
X134828688Y-133050500D01*
X135171315Y-133050500D01*
X135171316Y-133050499D01*
X135345311Y-133030895D01*
X135511768Y-133012141D01*
X135511771Y-133012140D01*
X135511783Y-133012139D01*
X135845817Y-132935897D01*
X136169215Y-132822736D01*
X136477910Y-132674076D01*
X136768018Y-132491789D01*
X137035893Y-132278166D01*
X137278166Y-132035893D01*
X137491789Y-131768018D01*
X137674076Y-131477910D01*
X137822736Y-131169215D01*
X137935897Y-130845817D01*
X138012139Y-130511783D01*
X138050500Y-130171312D01*
X138050500Y-129828688D01*
X138012139Y-129488217D01*
X137935897Y-129154183D01*
X137822736Y-128830785D01*
X137674076Y-128522090D01*
X137491789Y-128231982D01*
X137278166Y-127964107D01*
X137035893Y-127721834D01*
X136977725Y-127675447D01*
X136957983Y-127659703D01*
X136768018Y-127508211D01*
X136477910Y-127325924D01*
X136477907Y-127325922D01*
X136169216Y-127177264D01*
X135845818Y-127064103D01*
X135845816Y-127064102D01*
X135588024Y-127005262D01*
X135511783Y-126987861D01*
X135511780Y-126987860D01*
X135511768Y-126987858D01*
X135171318Y-126949500D01*
X135171312Y-126949500D01*
X134828688Y-126949500D01*
X134828681Y-126949500D01*
X134488231Y-126987858D01*
X134488217Y-126987861D01*
X134154183Y-127064102D01*
X134154181Y-127064103D01*
X133830783Y-127177264D01*
X133522092Y-127325922D01*
X133231983Y-127508210D01*
X132964107Y-127721833D01*
X132721833Y-127964107D01*
X132508210Y-128231983D01*
X132325922Y-128522092D01*
X132177264Y-128830783D01*
X132064103Y-129154181D01*
X132064102Y-129154183D01*
X131987861Y-129488217D01*
X131987858Y-129488231D01*
X131949500Y-129828681D01*
X93050499Y-129828681D01*
X93012139Y-129488217D01*
X92935897Y-129154183D01*
X92822736Y-128830785D01*
X92674076Y-128522090D01*
X92491789Y-128231982D01*
X92278166Y-127964107D01*
X92035893Y-127721834D01*
X92035892Y-127721833D01*
X91977726Y-127675447D01*
X91937586Y-127618258D01*
X91934736Y-127548447D01*
X91970082Y-127488177D01*
X92032401Y-127456584D01*
X92055039Y-127454500D01*
X105132552Y-127454500D01*
X105132568Y-127454501D01*
X105140164Y-127454501D01*
X105259835Y-127454501D01*
X105259836Y-127454501D01*
X105350998Y-127430073D01*
X105351001Y-127430073D01*
X105365105Y-127426293D01*
X105375431Y-127423527D01*
X105479070Y-127363691D01*
X105563691Y-127279070D01*
X105563691Y-127279068D01*
X105573895Y-127268865D01*
X105573899Y-127268860D01*
X117400812Y-115441947D01*
X119160000Y-115441947D01*
X119160000Y-115678052D01*
X119196934Y-115911247D01*
X119269897Y-116135802D01*
X119377087Y-116346174D01*
X119437338Y-116429104D01*
X119437340Y-116429105D01*
X120177037Y-115689408D01*
X120194075Y-115752993D01*
X120259901Y-115867007D01*
X120352993Y-115960099D01*
X120467007Y-116025925D01*
X120530590Y-116042962D01*
X119790893Y-116782658D01*
X119873828Y-116842914D01*
X120084197Y-116950102D01*
X120308752Y-117023065D01*
X120308751Y-117023065D01*
X120541948Y-117060000D01*
X120778052Y-117060000D01*
X121011247Y-117023065D01*
X121235802Y-116950102D01*
X121446163Y-116842918D01*
X121446169Y-116842914D01*
X121529104Y-116782658D01*
X121529105Y-116782658D01*
X120789408Y-116042962D01*
X120852993Y-116025925D01*
X120967007Y-115960099D01*
X121060099Y-115867007D01*
X121125925Y-115752993D01*
X121142962Y-115689408D01*
X121882658Y-116429105D01*
X121882658Y-116429104D01*
X121942914Y-116346169D01*
X121942918Y-116346163D01*
X122050102Y-116135802D01*
X122123065Y-115911247D01*
X122160000Y-115678052D01*
X122160000Y-115441947D01*
X122123065Y-115208752D01*
X122050102Y-114984197D01*
X121942914Y-114773828D01*
X121882658Y-114690894D01*
X121882658Y-114690893D01*
X121142962Y-115430590D01*
X121125925Y-115367007D01*
X121060099Y-115252993D01*
X120967007Y-115159901D01*
X120852993Y-115094075D01*
X120789409Y-115077037D01*
X121529105Y-114337340D01*
X121529104Y-114337338D01*
X121446174Y-114277087D01*
X121235802Y-114169897D01*
X121011247Y-114096934D01*
X121011248Y-114096934D01*
X120778052Y-114060000D01*
X120541948Y-114060000D01*
X120308752Y-114096934D01*
X120084197Y-114169897D01*
X119873830Y-114277084D01*
X119790894Y-114337340D01*
X120530591Y-115077037D01*
X120467007Y-115094075D01*
X120352993Y-115159901D01*
X120259901Y-115252993D01*
X120194075Y-115367007D01*
X120177037Y-115430591D01*
X119437340Y-114690894D01*
X119377084Y-114773830D01*
X119269897Y-114984197D01*
X119196934Y-115208752D01*
X119160000Y-115441947D01*
X117400812Y-115441947D01*
X122368860Y-110473899D01*
X122368865Y-110473895D01*
X122379068Y-110463691D01*
X122379070Y-110463691D01*
X122463691Y-110379070D01*
X122523527Y-110275431D01*
X122523986Y-110273718D01*
X122525237Y-110269053D01*
X122537604Y-110222892D01*
X122554501Y-110159836D01*
X122554501Y-110040164D01*
X122554501Y-110032569D01*
X122554500Y-110032551D01*
X122554500Y-102762350D01*
X122574185Y-102695311D01*
X122626989Y-102649556D01*
X122696147Y-102639612D01*
X122759703Y-102668637D01*
X122785887Y-102700350D01*
X122793489Y-102713517D01*
X122793494Y-102713524D01*
X122880080Y-102826365D01*
X123782421Y-101924024D01*
X123795359Y-101955258D01*
X123877437Y-102078097D01*
X123981903Y-102182563D01*
X124104742Y-102264641D01*
X124135974Y-102277577D01*
X123233633Y-103179917D01*
X123233633Y-103179918D01*
X123346475Y-103266505D01*
X123346483Y-103266511D01*
X123573517Y-103397590D01*
X123573528Y-103397595D01*
X123815744Y-103497924D01*
X124068979Y-103565777D01*
X124068990Y-103565779D01*
X124328905Y-103599999D01*
X124328920Y-103600000D01*
X124591080Y-103600000D01*
X124591094Y-103599999D01*
X124851009Y-103565779D01*
X124851020Y-103565777D01*
X125104255Y-103497924D01*
X125346471Y-103397595D01*
X125346482Y-103397590D01*
X125573516Y-103266511D01*
X125573534Y-103266499D01*
X125686365Y-103179919D01*
X125686365Y-103179917D01*
X124784025Y-102277578D01*
X124815258Y-102264641D01*
X124938097Y-102182563D01*
X125042563Y-102078097D01*
X125124641Y-101955258D01*
X125137577Y-101924025D01*
X126039917Y-102826365D01*
X126039919Y-102826365D01*
X126126499Y-102713534D01*
X126126511Y-102713516D01*
X126257590Y-102486482D01*
X126257595Y-102486471D01*
X126357924Y-102244255D01*
X126425777Y-101991020D01*
X126425779Y-101991009D01*
X126459999Y-101731094D01*
X126460000Y-101731080D01*
X126460000Y-101468919D01*
X126459999Y-101468905D01*
X126425779Y-101208990D01*
X126425777Y-101208979D01*
X126357924Y-100955744D01*
X126257595Y-100713528D01*
X126257590Y-100713517D01*
X126126511Y-100486483D01*
X126126505Y-100486475D01*
X126039918Y-100373633D01*
X126039917Y-100373633D01*
X125137577Y-101275973D01*
X125124641Y-101244742D01*
X125042563Y-101121903D01*
X124938097Y-101017437D01*
X124815258Y-100935359D01*
X124784023Y-100922421D01*
X125686365Y-100020080D01*
X125573524Y-99933494D01*
X125573516Y-99933488D01*
X125346482Y-99802409D01*
X125346471Y-99802404D01*
X125104255Y-99702075D01*
X124851020Y-99634222D01*
X124851009Y-99634220D01*
X124591094Y-99600000D01*
X124328905Y-99600000D01*
X124068990Y-99634220D01*
X124068979Y-99634222D01*
X123815744Y-99702075D01*
X123573528Y-99802404D01*
X123573517Y-99802409D01*
X123346471Y-99933496D01*
X123233633Y-100020079D01*
X123233633Y-100020080D01*
X124135974Y-100922421D01*
X124104742Y-100935359D01*
X123981903Y-101017437D01*
X123877437Y-101121903D01*
X123795359Y-101244742D01*
X123782421Y-101275974D01*
X122880080Y-100373633D01*
X122880079Y-100373633D01*
X122793494Y-100486473D01*
X122785885Y-100499653D01*
X122735317Y-100547867D01*
X122666710Y-100561088D01*
X122601846Y-100535119D01*
X122561319Y-100478203D01*
X122554500Y-100437650D01*
X122554500Y-99180166D01*
X122554500Y-99180164D01*
X122523527Y-99064569D01*
X122463691Y-98960930D01*
X122379070Y-98876309D01*
X122379069Y-98876308D01*
X122374739Y-98871978D01*
X122374728Y-98871968D01*
X118387399Y-94884639D01*
X118353914Y-94823316D01*
X118358898Y-94753624D01*
X118367706Y-94734936D01*
X118368405Y-94733726D01*
X118453710Y-94527781D01*
X118511404Y-94312463D01*
X118540500Y-94091457D01*
X118540500Y-93868543D01*
X118537915Y-93848905D01*
X122460000Y-93848905D01*
X122460000Y-94111094D01*
X122494220Y-94371009D01*
X122494222Y-94371020D01*
X122562075Y-94624255D01*
X122662404Y-94866471D01*
X122662409Y-94866482D01*
X122793488Y-95093516D01*
X122793494Y-95093524D01*
X122880080Y-95206365D01*
X123782421Y-94304024D01*
X123795359Y-94335258D01*
X123877437Y-94458097D01*
X123981903Y-94562563D01*
X124104742Y-94644641D01*
X124135974Y-94657577D01*
X123233633Y-95559917D01*
X123233633Y-95559918D01*
X123346475Y-95646505D01*
X123346483Y-95646511D01*
X123573517Y-95777590D01*
X123573528Y-95777595D01*
X123815744Y-95877924D01*
X124068979Y-95945777D01*
X124068990Y-95945779D01*
X124328905Y-95979999D01*
X124328920Y-95980000D01*
X124591080Y-95980000D01*
X124591094Y-95979999D01*
X124851009Y-95945779D01*
X124851020Y-95945777D01*
X125104255Y-95877924D01*
X125346471Y-95777595D01*
X125346482Y-95777590D01*
X125573516Y-95646511D01*
X125573534Y-95646499D01*
X125686365Y-95559919D01*
X125686365Y-95559917D01*
X124784025Y-94657578D01*
X124815258Y-94644641D01*
X124938097Y-94562563D01*
X125042563Y-94458097D01*
X125124641Y-94335258D01*
X125137577Y-94304025D01*
X126039917Y-95206365D01*
X126039919Y-95206365D01*
X126126499Y-95093534D01*
X126126511Y-95093516D01*
X126257590Y-94866482D01*
X126257595Y-94866471D01*
X126357924Y-94624255D01*
X126425777Y-94371020D01*
X126425779Y-94371009D01*
X126459999Y-94111094D01*
X126460000Y-94111080D01*
X126460000Y-93848919D01*
X126459999Y-93848905D01*
X126425779Y-93588990D01*
X126425777Y-93588979D01*
X126357924Y-93335744D01*
X126257595Y-93093528D01*
X126257590Y-93093517D01*
X126126511Y-92866483D01*
X126126505Y-92866475D01*
X126039918Y-92753633D01*
X126039917Y-92753633D01*
X125137577Y-93655973D01*
X125124641Y-93624742D01*
X125042563Y-93501903D01*
X124938097Y-93397437D01*
X124815258Y-93315359D01*
X124784023Y-93302421D01*
X125686365Y-92400080D01*
X125573524Y-92313494D01*
X125573516Y-92313488D01*
X125346482Y-92182409D01*
X125346471Y-92182404D01*
X125104255Y-92082075D01*
X124851020Y-92014222D01*
X124851009Y-92014220D01*
X124591094Y-91980000D01*
X124328905Y-91980000D01*
X124068990Y-92014220D01*
X124068979Y-92014222D01*
X123815744Y-92082075D01*
X123573528Y-92182404D01*
X123573517Y-92182409D01*
X123346471Y-92313496D01*
X123233633Y-92400079D01*
X123233633Y-92400080D01*
X124135974Y-93302421D01*
X124104742Y-93315359D01*
X123981903Y-93397437D01*
X123877437Y-93501903D01*
X123795359Y-93624742D01*
X123782421Y-93655974D01*
X122880080Y-92753633D01*
X122880079Y-92753633D01*
X122793496Y-92866471D01*
X122662409Y-93093517D01*
X122662404Y-93093528D01*
X122562075Y-93335744D01*
X122494222Y-93588979D01*
X122494220Y-93588990D01*
X122460000Y-93848905D01*
X118537915Y-93848905D01*
X118511404Y-93647537D01*
X118453710Y-93432219D01*
X118368405Y-93226274D01*
X118256948Y-93033226D01*
X118217867Y-92982294D01*
X118121248Y-92856377D01*
X118121242Y-92856370D01*
X117963629Y-92698757D01*
X117963622Y-92698751D01*
X117786782Y-92563058D01*
X117786780Y-92563056D01*
X117786774Y-92563052D01*
X117786769Y-92563049D01*
X117786766Y-92563047D01*
X117773555Y-92555420D01*
X117593726Y-92451595D01*
X117593722Y-92451593D01*
X117387790Y-92366293D01*
X117387783Y-92366291D01*
X117387781Y-92366290D01*
X117172463Y-92308596D01*
X117172457Y-92308595D01*
X117172452Y-92308594D01*
X116951466Y-92279501D01*
X116951463Y-92279500D01*
X116951457Y-92279500D01*
X116728543Y-92279500D01*
X116728537Y-92279500D01*
X116728533Y-92279501D01*
X116507547Y-92308594D01*
X116507540Y-92308595D01*
X116507537Y-92308596D01*
X116292219Y-92366290D01*
X116292209Y-92366293D01*
X116086277Y-92451593D01*
X116086273Y-92451595D01*
X115893226Y-92563052D01*
X115893217Y-92563058D01*
X115716377Y-92698751D01*
X115716370Y-92698757D01*
X115558757Y-92856370D01*
X115558751Y-92856377D01*
X115423058Y-93033217D01*
X115423052Y-93033226D01*
X115311595Y-93226273D01*
X115311593Y-93226277D01*
X115226293Y-93432209D01*
X115226290Y-93432219D01*
X115184287Y-93588979D01*
X115168597Y-93647534D01*
X115168594Y-93647547D01*
X115139501Y-93868533D01*
X115139501Y-93868540D01*
X115139500Y-93868549D01*
X115139500Y-94091450D01*
X115139501Y-94091466D01*
X115168594Y-94312452D01*
X115168595Y-94312457D01*
X115168596Y-94312463D01*
X115226290Y-94527780D01*
X115226293Y-94527790D01*
X115311593Y-94733722D01*
X115311595Y-94733726D01*
X115423052Y-94926774D01*
X115423057Y-94926780D01*
X115423058Y-94926782D01*
X115558751Y-95103622D01*
X115558757Y-95103629D01*
X115716370Y-95261242D01*
X115716376Y-95261247D01*
X115893226Y-95396948D01*
X116086274Y-95508405D01*
X116292219Y-95593710D01*
X116507537Y-95651404D01*
X116728543Y-95680500D01*
X116728550Y-95680500D01*
X116951450Y-95680500D01*
X116951457Y-95680500D01*
X117172463Y-95651404D01*
X117387781Y-95593710D01*
X117593726Y-95508405D01*
X117594937Y-95507705D01*
X117595344Y-95507606D01*
X117597368Y-95506609D01*
X117597591Y-95507061D01*
X117662832Y-95491219D01*
X117728864Y-95514058D01*
X117744639Y-95527399D01*
X121609181Y-99391941D01*
X121642666Y-99453264D01*
X121645500Y-99479622D01*
X121645500Y-106635500D01*
X121625815Y-106702539D01*
X121573011Y-106748294D01*
X121521500Y-106759500D01*
X121111500Y-106759500D01*
X121044461Y-106739815D01*
X120998706Y-106687011D01*
X120987500Y-106635500D01*
X120987500Y-102016885D01*
X120987500Y-102016884D01*
X120965181Y-101933590D01*
X120922065Y-101858910D01*
X120861090Y-101797935D01*
X118101090Y-99037935D01*
X118026410Y-98994819D01*
X118026411Y-98994819D01*
X117998645Y-98987379D01*
X117943116Y-98972500D01*
X48343116Y-98972500D01*
X48256884Y-98972500D01*
X48201354Y-98987379D01*
X48173589Y-98994819D01*
X48098911Y-99037934D01*
X48098908Y-99037936D01*
X41845626Y-105291217D01*
X41784303Y-105324702D01*
X41714611Y-105319718D01*
X41658678Y-105277846D01*
X41647461Y-105259832D01*
X41644147Y-105253328D01*
X41637769Y-105240811D01*
X41637766Y-105240808D01*
X41637764Y-105240805D01*
X41550194Y-105153235D01*
X41550191Y-105153233D01*
X41550189Y-105153231D01*
X41439832Y-105097001D01*
X41439830Y-105097000D01*
X41439827Y-105096999D01*
X41348279Y-105082500D01*
X41348274Y-105082500D01*
X40397726Y-105082500D01*
X40397721Y-105082500D01*
X40306172Y-105096999D01*
X40306168Y-105097001D01*
X40195811Y-105153231D01*
X40195810Y-105153232D01*
X40195805Y-105153235D01*
X40108235Y-105240805D01*
X40108232Y-105240810D01*
X40108231Y-105240811D01*
X40089361Y-105277846D01*
X40052001Y-105351168D01*
X40051999Y-105351172D01*
X40037500Y-105442720D01*
X39168500Y-105442720D01*
X39154000Y-105351172D01*
X39153999Y-105351170D01*
X39153999Y-105351168D01*
X39097769Y-105240811D01*
X39097765Y-105240807D01*
X39097764Y-105240805D01*
X39010194Y-105153235D01*
X39010191Y-105153233D01*
X39010189Y-105153231D01*
X38899832Y-105097001D01*
X38899830Y-105097000D01*
X38899827Y-105096999D01*
X38808279Y-105082500D01*
X38808274Y-105082500D01*
X37857726Y-105082500D01*
X37857721Y-105082500D01*
X37766172Y-105096999D01*
X37766168Y-105097001D01*
X37655811Y-105153231D01*
X37655810Y-105153232D01*
X37655805Y-105153235D01*
X37568235Y-105240805D01*
X37568232Y-105240810D01*
X37568231Y-105240811D01*
X37549361Y-105277846D01*
X37512001Y-105351168D01*
X37511999Y-105351172D01*
X37497500Y-105442720D01*
X36554500Y-105442720D01*
X36554500Y-102749622D01*
X36574185Y-102682583D01*
X36590819Y-102661941D01*
X44046982Y-95205778D01*
X47399500Y-95205778D01*
X47399500Y-95494221D01*
X47399501Y-95494238D01*
X47437149Y-95780206D01*
X47437150Y-95780211D01*
X47437151Y-95780217D01*
X47490683Y-95980000D01*
X47511809Y-96058844D01*
X47511814Y-96058860D01*
X47622191Y-96325336D01*
X47622199Y-96325352D01*
X47766420Y-96575148D01*
X47766431Y-96575164D01*
X47942024Y-96804002D01*
X47942030Y-96804009D01*
X48145990Y-97007969D01*
X48145996Y-97007974D01*
X48374844Y-97183575D01*
X48374851Y-97183579D01*
X48624647Y-97327800D01*
X48624663Y-97327808D01*
X48891139Y-97438185D01*
X48891145Y-97438186D01*
X48891155Y-97438191D01*
X49169783Y-97512849D01*
X49455772Y-97550500D01*
X49455779Y-97550500D01*
X49744221Y-97550500D01*
X49744228Y-97550500D01*
X50030217Y-97512849D01*
X50308845Y-97438191D01*
X50308857Y-97438185D01*
X50308860Y-97438185D01*
X50575336Y-97327808D01*
X50575339Y-97327806D01*
X50575345Y-97327804D01*
X50825156Y-97183575D01*
X51054004Y-97007974D01*
X51257974Y-96804004D01*
X51433575Y-96575156D01*
X51577804Y-96325345D01*
X51688191Y-96058845D01*
X51762849Y-95780217D01*
X51800500Y-95494228D01*
X51800500Y-95205778D01*
X107399500Y-95205778D01*
X107399500Y-95494221D01*
X107399501Y-95494238D01*
X107437149Y-95780206D01*
X107437150Y-95780211D01*
X107437151Y-95780217D01*
X107490683Y-95980000D01*
X107511809Y-96058844D01*
X107511814Y-96058860D01*
X107622191Y-96325336D01*
X107622199Y-96325352D01*
X107766420Y-96575148D01*
X107766431Y-96575164D01*
X107942024Y-96804002D01*
X107942030Y-96804009D01*
X108145990Y-97007969D01*
X108145996Y-97007974D01*
X108374844Y-97183575D01*
X108374851Y-97183579D01*
X108624647Y-97327800D01*
X108624663Y-97327808D01*
X108891139Y-97438185D01*
X108891145Y-97438186D01*
X108891155Y-97438191D01*
X109169783Y-97512849D01*
X109455772Y-97550500D01*
X109455779Y-97550500D01*
X109744221Y-97550500D01*
X109744228Y-97550500D01*
X110030217Y-97512849D01*
X110308845Y-97438191D01*
X110308857Y-97438185D01*
X110308860Y-97438185D01*
X110575336Y-97327808D01*
X110575339Y-97327806D01*
X110575345Y-97327804D01*
X110825156Y-97183575D01*
X111054004Y-97007974D01*
X111257974Y-96804004D01*
X111433575Y-96575156D01*
X111577804Y-96325345D01*
X111688191Y-96058845D01*
X111762849Y-95780217D01*
X111800500Y-95494228D01*
X111800500Y-95205772D01*
X111762849Y-94919783D01*
X111688191Y-94641155D01*
X111688186Y-94641145D01*
X111688185Y-94641139D01*
X111577808Y-94374663D01*
X111577800Y-94374647D01*
X111433579Y-94124851D01*
X111433575Y-94124844D01*
X111322433Y-93980001D01*
X111257975Y-93895997D01*
X111257969Y-93895990D01*
X111054009Y-93692030D01*
X111054002Y-93692024D01*
X110825164Y-93516431D01*
X110825162Y-93516429D01*
X110825156Y-93516425D01*
X110825151Y-93516422D01*
X110825148Y-93516420D01*
X110575352Y-93372199D01*
X110575336Y-93372191D01*
X110308860Y-93261814D01*
X110308848Y-93261810D01*
X110308845Y-93261809D01*
X110030217Y-93187151D01*
X110030211Y-93187150D01*
X110030206Y-93187149D01*
X109744238Y-93149501D01*
X109744233Y-93149500D01*
X109744228Y-93149500D01*
X109455772Y-93149500D01*
X109455766Y-93149500D01*
X109455761Y-93149501D01*
X109169793Y-93187149D01*
X109169786Y-93187150D01*
X109169783Y-93187151D01*
X109009868Y-93230000D01*
X108891155Y-93261809D01*
X108891139Y-93261814D01*
X108624663Y-93372191D01*
X108624647Y-93372199D01*
X108374851Y-93516420D01*
X108374835Y-93516431D01*
X108145997Y-93692024D01*
X108145990Y-93692030D01*
X107942030Y-93895990D01*
X107942024Y-93895997D01*
X107766431Y-94124835D01*
X107766420Y-94124851D01*
X107622199Y-94374647D01*
X107622191Y-94374663D01*
X107511814Y-94641139D01*
X107511809Y-94641155D01*
X107437152Y-94919780D01*
X107437149Y-94919793D01*
X107399501Y-95205761D01*
X107399500Y-95205778D01*
X51800500Y-95205778D01*
X51800500Y-95205772D01*
X51762849Y-94919783D01*
X51688191Y-94641155D01*
X51688186Y-94641145D01*
X51688185Y-94641139D01*
X51577808Y-94374663D01*
X51577800Y-94374647D01*
X51433579Y-94124851D01*
X51433575Y-94124844D01*
X51322433Y-93980001D01*
X51257975Y-93895997D01*
X51257969Y-93895990D01*
X51054009Y-93692030D01*
X51054002Y-93692024D01*
X50825164Y-93516431D01*
X50825162Y-93516429D01*
X50825156Y-93516425D01*
X50825151Y-93516422D01*
X50825148Y-93516420D01*
X50575352Y-93372199D01*
X50575336Y-93372191D01*
X50308860Y-93261814D01*
X50308848Y-93261810D01*
X50308845Y-93261809D01*
X50030217Y-93187151D01*
X50030211Y-93187150D01*
X50030206Y-93187149D01*
X49744238Y-93149501D01*
X49744233Y-93149500D01*
X49744228Y-93149500D01*
X49455772Y-93149500D01*
X49455766Y-93149500D01*
X49455761Y-93149501D01*
X49169793Y-93187149D01*
X49169786Y-93187150D01*
X49169783Y-93187151D01*
X49009868Y-93230000D01*
X48891155Y-93261809D01*
X48891139Y-93261814D01*
X48624663Y-93372191D01*
X48624647Y-93372199D01*
X48374851Y-93516420D01*
X48374835Y-93516431D01*
X48145997Y-93692024D01*
X48145990Y-93692030D01*
X47942030Y-93895990D01*
X47942024Y-93895997D01*
X47766431Y-94124835D01*
X47766420Y-94124851D01*
X47622199Y-94374647D01*
X47622191Y-94374663D01*
X47511814Y-94641139D01*
X47511809Y-94641155D01*
X47437152Y-94919780D01*
X47437149Y-94919793D01*
X47399501Y-95205761D01*
X47399500Y-95205778D01*
X44046982Y-95205778D01*
X49460941Y-89791819D01*
X49522264Y-89758334D01*
X49548622Y-89755500D01*
X50710279Y-89755500D01*
X50801827Y-89741000D01*
X50801827Y-89740999D01*
X50801832Y-89740999D01*
X50912189Y-89684769D01*
X50999769Y-89597189D01*
X51055999Y-89486832D01*
X51056000Y-89486827D01*
X51070500Y-89395279D01*
X51070500Y-88444720D01*
X104929500Y-88444720D01*
X104929500Y-89395279D01*
X104943999Y-89486827D01*
X104944000Y-89486830D01*
X104944001Y-89486832D01*
X105000231Y-89597189D01*
X105000233Y-89597191D01*
X105000235Y-89597194D01*
X105087805Y-89684764D01*
X105087807Y-89684765D01*
X105087811Y-89684769D01*
X105198168Y-89740999D01*
X105198170Y-89740999D01*
X105198172Y-89741000D01*
X105289721Y-89755500D01*
X105289726Y-89755500D01*
X107510279Y-89755500D01*
X107601827Y-89741000D01*
X107601827Y-89740999D01*
X107601832Y-89740999D01*
X107712189Y-89684769D01*
X107799769Y-89597189D01*
X107855999Y-89486832D01*
X107856000Y-89486827D01*
X107870500Y-89395279D01*
X107870500Y-88444720D01*
X107856000Y-88353172D01*
X107855999Y-88353170D01*
X107855999Y-88353168D01*
X107799769Y-88242811D01*
X107799765Y-88242807D01*
X107799764Y-88242805D01*
X107712194Y-88155235D01*
X107712191Y-88155233D01*
X107712189Y-88155231D01*
X107601832Y-88099001D01*
X107601830Y-88099000D01*
X107601827Y-88098999D01*
X107510279Y-88084500D01*
X107510274Y-88084500D01*
X105289726Y-88084500D01*
X105289721Y-88084500D01*
X105198172Y-88098999D01*
X105198168Y-88099001D01*
X105087811Y-88155231D01*
X105087810Y-88155232D01*
X105087805Y-88155235D01*
X105000235Y-88242805D01*
X105000232Y-88242810D01*
X105000231Y-88242811D01*
X104979376Y-88283742D01*
X104944001Y-88353168D01*
X104943999Y-88353172D01*
X104929500Y-88444720D01*
X51070500Y-88444720D01*
X51056000Y-88353172D01*
X51055999Y-88353170D01*
X51055999Y-88353168D01*
X50999769Y-88242811D01*
X50999765Y-88242807D01*
X50999764Y-88242805D01*
X50912194Y-88155235D01*
X50912191Y-88155233D01*
X50912189Y-88155231D01*
X50801832Y-88099001D01*
X50801830Y-88099000D01*
X50801827Y-88098999D01*
X50710279Y-88084500D01*
X50710274Y-88084500D01*
X49418622Y-88084500D01*
X49351583Y-88064815D01*
X49330941Y-88048181D01*
X49009440Y-87726680D01*
X48975955Y-87665357D01*
X48980939Y-87595665D01*
X49022811Y-87539732D01*
X49088275Y-87515315D01*
X49097121Y-87514999D01*
X50381447Y-87514999D01*
X50381447Y-87514998D01*
X49646448Y-86780000D01*
X49652661Y-86780000D01*
X49754394Y-86752741D01*
X49845606Y-86700080D01*
X49920080Y-86625606D01*
X49972741Y-86534394D01*
X50000000Y-86432661D01*
X50000000Y-86426448D01*
X51006957Y-87433406D01*
X51006958Y-87433406D01*
X51108473Y-87372040D01*
X51227042Y-87253471D01*
X51227045Y-87253467D01*
X51313789Y-87109973D01*
X51363677Y-86949876D01*
X51369999Y-86880298D01*
X51369999Y-85904720D01*
X104929500Y-85904720D01*
X104929500Y-86855279D01*
X104943999Y-86946827D01*
X104944000Y-86946830D01*
X104944001Y-86946832D01*
X105000231Y-87057189D01*
X105000233Y-87057191D01*
X105000235Y-87057194D01*
X105087805Y-87144764D01*
X105087807Y-87144765D01*
X105087811Y-87144769D01*
X105198168Y-87200999D01*
X105198170Y-87200999D01*
X105198172Y-87201000D01*
X105289721Y-87215500D01*
X105289726Y-87215500D01*
X107510279Y-87215500D01*
X107601827Y-87201000D01*
X107601827Y-87200999D01*
X107601832Y-87200999D01*
X107712189Y-87144769D01*
X107799769Y-87057189D01*
X107855999Y-86946832D01*
X107866537Y-86880298D01*
X107870500Y-86855279D01*
X107870500Y-85904720D01*
X107856000Y-85813172D01*
X107855999Y-85813170D01*
X107855999Y-85813168D01*
X107799769Y-85702811D01*
X107799765Y-85702807D01*
X107799764Y-85702805D01*
X107712194Y-85615235D01*
X107712191Y-85615233D01*
X107712189Y-85615231D01*
X107601832Y-85559001D01*
X107601830Y-85559000D01*
X107601827Y-85558999D01*
X107510279Y-85544500D01*
X107510274Y-85544500D01*
X105289726Y-85544500D01*
X105289721Y-85544500D01*
X105198172Y-85558999D01*
X105198168Y-85559001D01*
X105087811Y-85615231D01*
X105087810Y-85615232D01*
X105087805Y-85615235D01*
X105000235Y-85702805D01*
X105000232Y-85702810D01*
X104944001Y-85813168D01*
X104943999Y-85813172D01*
X104929500Y-85904720D01*
X51369999Y-85904720D01*
X51369999Y-85879691D01*
X51363678Y-85810124D01*
X51363676Y-85810116D01*
X51313791Y-85650029D01*
X51313790Y-85650027D01*
X51227045Y-85506532D01*
X51227042Y-85506528D01*
X51108472Y-85387958D01*
X51006959Y-85326592D01*
X51006958Y-85326592D01*
X50000000Y-86333550D01*
X50000000Y-86327339D01*
X49972741Y-86225606D01*
X49920080Y-86134394D01*
X49845606Y-86059920D01*
X49754394Y-86007259D01*
X49652661Y-85980000D01*
X49646449Y-85980000D01*
X50381447Y-85245000D01*
X48818551Y-85245000D01*
X49553552Y-85980000D01*
X49547339Y-85980000D01*
X49445606Y-86007259D01*
X49354394Y-86059920D01*
X49279920Y-86134394D01*
X49227259Y-86225606D01*
X49200000Y-86327339D01*
X49200000Y-86333552D01*
X48193040Y-85326592D01*
X48193039Y-85326592D01*
X48091529Y-85387956D01*
X47972957Y-85506528D01*
X47972954Y-85506532D01*
X47886210Y-85650026D01*
X47836322Y-85810123D01*
X47830000Y-85879701D01*
X47830000Y-86247878D01*
X47810315Y-86314917D01*
X47757511Y-86360672D01*
X47688353Y-86370616D01*
X47624797Y-86341591D01*
X47618319Y-86335559D01*
X45490819Y-84208059D01*
X45457334Y-84146736D01*
X45454500Y-84120378D01*
X45454500Y-83364720D01*
X48129500Y-83364720D01*
X48129500Y-84315279D01*
X48143999Y-84406827D01*
X48144000Y-84406830D01*
X48144001Y-84406832D01*
X48200231Y-84517189D01*
X48200233Y-84517191D01*
X48200235Y-84517194D01*
X48287805Y-84604764D01*
X48287807Y-84604765D01*
X48287811Y-84604769D01*
X48398168Y-84660999D01*
X48398170Y-84660999D01*
X48398172Y-84661000D01*
X48489721Y-84675500D01*
X48489726Y-84675500D01*
X50710279Y-84675500D01*
X50801827Y-84661000D01*
X50801827Y-84660999D01*
X50801832Y-84660999D01*
X50912189Y-84604769D01*
X50999769Y-84517189D01*
X51055999Y-84406832D01*
X51056000Y-84406827D01*
X51070500Y-84315279D01*
X51070500Y-83364720D01*
X104929500Y-83364720D01*
X104929500Y-84315279D01*
X104943999Y-84406827D01*
X104944000Y-84406830D01*
X104944001Y-84406832D01*
X105000231Y-84517189D01*
X105000233Y-84517191D01*
X105000235Y-84517194D01*
X105087805Y-84604764D01*
X105087807Y-84604765D01*
X105087811Y-84604769D01*
X105198168Y-84660999D01*
X105198170Y-84660999D01*
X105198172Y-84661000D01*
X105289721Y-84675500D01*
X105289726Y-84675500D01*
X107510279Y-84675500D01*
X107601827Y-84661000D01*
X107601827Y-84660999D01*
X107601832Y-84660999D01*
X107712189Y-84604769D01*
X107799769Y-84517189D01*
X107855999Y-84406832D01*
X107856000Y-84406827D01*
X107870500Y-84315279D01*
X107870500Y-83364720D01*
X107856000Y-83273172D01*
X107855999Y-83273170D01*
X107855999Y-83273168D01*
X107799769Y-83162811D01*
X107799765Y-83162807D01*
X107799764Y-83162805D01*
X107712194Y-83075235D01*
X107712191Y-83075233D01*
X107712189Y-83075231D01*
X107601832Y-83019001D01*
X107601830Y-83019000D01*
X107601827Y-83018999D01*
X107510279Y-83004500D01*
X107510274Y-83004500D01*
X105289726Y-83004500D01*
X105289721Y-83004500D01*
X105198172Y-83018999D01*
X105198168Y-83019001D01*
X105087811Y-83075231D01*
X105087810Y-83075232D01*
X105087805Y-83075235D01*
X105000235Y-83162805D01*
X105000232Y-83162810D01*
X104944001Y-83273168D01*
X104943999Y-83273172D01*
X104929500Y-83364720D01*
X51070500Y-83364720D01*
X51056000Y-83273172D01*
X51055999Y-83273170D01*
X51055999Y-83273168D01*
X50999769Y-83162811D01*
X50999765Y-83162807D01*
X50999764Y-83162805D01*
X50912194Y-83075235D01*
X50912191Y-83075233D01*
X50912189Y-83075231D01*
X50801832Y-83019001D01*
X50801830Y-83019000D01*
X50801827Y-83018999D01*
X50710279Y-83004500D01*
X50710274Y-83004500D01*
X48489726Y-83004500D01*
X48489721Y-83004500D01*
X48398172Y-83018999D01*
X48398168Y-83019001D01*
X48287811Y-83075231D01*
X48287810Y-83075232D01*
X48287805Y-83075235D01*
X48200235Y-83162805D01*
X48200232Y-83162810D01*
X48144001Y-83273168D01*
X48143999Y-83273172D01*
X48129500Y-83364720D01*
X45454500Y-83364720D01*
X45454500Y-82709720D01*
X114734500Y-82709720D01*
X114734500Y-84930279D01*
X114748999Y-85021827D01*
X114749000Y-85021830D01*
X114749001Y-85021832D01*
X114805231Y-85132189D01*
X114805233Y-85132191D01*
X114805235Y-85132194D01*
X114892805Y-85219764D01*
X114892807Y-85219765D01*
X114892811Y-85219769D01*
X115003168Y-85275999D01*
X115003170Y-85275999D01*
X115003172Y-85276000D01*
X115094721Y-85290500D01*
X115094726Y-85290500D01*
X116045279Y-85290500D01*
X116136827Y-85276000D01*
X116136827Y-85275999D01*
X116136832Y-85275999D01*
X116247189Y-85219769D01*
X116334769Y-85132189D01*
X116390999Y-85021832D01*
X116391000Y-85021827D01*
X116405500Y-84930279D01*
X116405500Y-82709720D01*
X127434500Y-82709720D01*
X127434500Y-84930279D01*
X127448999Y-85021827D01*
X127449000Y-85021830D01*
X127449001Y-85021832D01*
X127505231Y-85132189D01*
X127505233Y-85132191D01*
X127505235Y-85132194D01*
X127592805Y-85219764D01*
X127592807Y-85219765D01*
X127592811Y-85219769D01*
X127703168Y-85275999D01*
X127703170Y-85275999D01*
X127703172Y-85276000D01*
X127794721Y-85290500D01*
X127794726Y-85290500D01*
X128745279Y-85290500D01*
X128836827Y-85276000D01*
X128836827Y-85275999D01*
X128836832Y-85275999D01*
X128947189Y-85219769D01*
X129034769Y-85132189D01*
X129090999Y-85021832D01*
X129091000Y-85021827D01*
X129105500Y-84930279D01*
X129105500Y-82709720D01*
X129091000Y-82618172D01*
X129090999Y-82618170D01*
X129090999Y-82618168D01*
X129034769Y-82507811D01*
X129034765Y-82507807D01*
X129034764Y-82507805D01*
X128947194Y-82420235D01*
X128947191Y-82420233D01*
X128947189Y-82420231D01*
X128836832Y-82364001D01*
X128836830Y-82364000D01*
X128836827Y-82363999D01*
X128745279Y-82349500D01*
X128745274Y-82349500D01*
X127794726Y-82349500D01*
X127794721Y-82349500D01*
X127703172Y-82363999D01*
X127703168Y-82364001D01*
X127592811Y-82420231D01*
X127592810Y-82420232D01*
X127592805Y-82420235D01*
X127505235Y-82507805D01*
X127505232Y-82507810D01*
X127449001Y-82618168D01*
X127448999Y-82618172D01*
X127434500Y-82709720D01*
X116405500Y-82709720D01*
X116391000Y-82618172D01*
X116390999Y-82618170D01*
X116390999Y-82618168D01*
X116334769Y-82507811D01*
X116334765Y-82507807D01*
X116334764Y-82507805D01*
X116247194Y-82420235D01*
X116247191Y-82420233D01*
X116247189Y-82420231D01*
X116136832Y-82364001D01*
X116136830Y-82364000D01*
X116136827Y-82363999D01*
X116045279Y-82349500D01*
X116045274Y-82349500D01*
X115094726Y-82349500D01*
X115094721Y-82349500D01*
X115003172Y-82363999D01*
X115003168Y-82364001D01*
X114892811Y-82420231D01*
X114892810Y-82420232D01*
X114892805Y-82420235D01*
X114805235Y-82507805D01*
X114805232Y-82507810D01*
X114749001Y-82618168D01*
X114748999Y-82618172D01*
X114734500Y-82709720D01*
X45454500Y-82709720D01*
X45454500Y-80824720D01*
X48129500Y-80824720D01*
X48129500Y-81775279D01*
X48143999Y-81866827D01*
X48144000Y-81866830D01*
X48144001Y-81866832D01*
X48200231Y-81977189D01*
X48200233Y-81977191D01*
X48200235Y-81977194D01*
X48287805Y-82064764D01*
X48287807Y-82064765D01*
X48287811Y-82064769D01*
X48398168Y-82120999D01*
X48398170Y-82120999D01*
X48398172Y-82121000D01*
X48489721Y-82135500D01*
X48489726Y-82135500D01*
X50710279Y-82135500D01*
X50801827Y-82121000D01*
X50801827Y-82120999D01*
X50801832Y-82120999D01*
X50912189Y-82064769D01*
X50999769Y-81977189D01*
X51055999Y-81866832D01*
X51056000Y-81866827D01*
X51070500Y-81775279D01*
X51070500Y-80824720D01*
X104929500Y-80824720D01*
X104929500Y-81775279D01*
X104943999Y-81866827D01*
X104944000Y-81866830D01*
X104944001Y-81866832D01*
X105000231Y-81977189D01*
X105000233Y-81977191D01*
X105000235Y-81977194D01*
X105087805Y-82064764D01*
X105087807Y-82064765D01*
X105087811Y-82064769D01*
X105198168Y-82120999D01*
X105198170Y-82120999D01*
X105198172Y-82121000D01*
X105289721Y-82135500D01*
X105289726Y-82135500D01*
X107510279Y-82135500D01*
X107601827Y-82121000D01*
X107601827Y-82120999D01*
X107601832Y-82120999D01*
X107712189Y-82064769D01*
X107799769Y-81977189D01*
X107855999Y-81866832D01*
X107856000Y-81866827D01*
X107870500Y-81775279D01*
X107870500Y-80824720D01*
X107856000Y-80733172D01*
X107855999Y-80733170D01*
X107855999Y-80733168D01*
X107799769Y-80622811D01*
X107799765Y-80622807D01*
X107799764Y-80622805D01*
X107712194Y-80535235D01*
X107712191Y-80535233D01*
X107712189Y-80535231D01*
X107601832Y-80479001D01*
X107601830Y-80479000D01*
X107601827Y-80478999D01*
X107510279Y-80464500D01*
X107510274Y-80464500D01*
X105289726Y-80464500D01*
X105289721Y-80464500D01*
X105198172Y-80478999D01*
X105198168Y-80479001D01*
X105087811Y-80535231D01*
X105087810Y-80535232D01*
X105087805Y-80535235D01*
X105000235Y-80622805D01*
X105000232Y-80622810D01*
X104944001Y-80733168D01*
X104943999Y-80733172D01*
X104929500Y-80824720D01*
X51070500Y-80824720D01*
X51056000Y-80733172D01*
X51055999Y-80733170D01*
X51055999Y-80733168D01*
X50999769Y-80622811D01*
X50999765Y-80622807D01*
X50999764Y-80622805D01*
X50912194Y-80535235D01*
X50912191Y-80535233D01*
X50912189Y-80535231D01*
X50801832Y-80479001D01*
X50801830Y-80479000D01*
X50801827Y-80478999D01*
X50710279Y-80464500D01*
X50710274Y-80464500D01*
X48489726Y-80464500D01*
X48489721Y-80464500D01*
X48398172Y-80478999D01*
X48398168Y-80479001D01*
X48287811Y-80535231D01*
X48287810Y-80535232D01*
X48287805Y-80535235D01*
X48200235Y-80622805D01*
X48200232Y-80622810D01*
X48144001Y-80733168D01*
X48143999Y-80733172D01*
X48129500Y-80824720D01*
X45454500Y-80824720D01*
X45454500Y-77629720D01*
X114734500Y-77629720D01*
X114734500Y-79850279D01*
X114748999Y-79941827D01*
X114749000Y-79941830D01*
X114749001Y-79941832D01*
X114805231Y-80052189D01*
X114805233Y-80052191D01*
X114805235Y-80052194D01*
X114892805Y-80139764D01*
X114892807Y-80139765D01*
X114892811Y-80139769D01*
X115003168Y-80195999D01*
X115003170Y-80195999D01*
X115003172Y-80196000D01*
X115094721Y-80210500D01*
X115094726Y-80210500D01*
X116045279Y-80210500D01*
X116136827Y-80196000D01*
X116136827Y-80195999D01*
X116136832Y-80195999D01*
X116247189Y-80139769D01*
X116247194Y-80139764D01*
X116300150Y-80086809D01*
X116334764Y-80052194D01*
X116334769Y-80052189D01*
X116390999Y-79941832D01*
X116395583Y-79912890D01*
X116405500Y-79850279D01*
X116405500Y-77958551D01*
X127135000Y-77958551D01*
X127135000Y-79521447D01*
X127870000Y-78786447D01*
X127870000Y-78792661D01*
X127897259Y-78894394D01*
X127949920Y-78985606D01*
X128024394Y-79060080D01*
X128115606Y-79112741D01*
X128217339Y-79140000D01*
X128223552Y-79140000D01*
X127216592Y-80146958D01*
X127216592Y-80146959D01*
X127277958Y-80248472D01*
X127396528Y-80367042D01*
X127396532Y-80367045D01*
X127540026Y-80453789D01*
X127700123Y-80503677D01*
X127769701Y-80509999D01*
X128770308Y-80509999D01*
X128839875Y-80503678D01*
X128839883Y-80503676D01*
X128999970Y-80453791D01*
X128999972Y-80453790D01*
X129143467Y-80367045D01*
X129143471Y-80367042D01*
X129262040Y-80248473D01*
X129323406Y-80146958D01*
X129323406Y-80146957D01*
X129089339Y-79912890D01*
X129005130Y-79828681D01*
X131949500Y-79828681D01*
X131949500Y-80171318D01*
X131987858Y-80511768D01*
X131987861Y-80511782D01*
X132064102Y-80845816D01*
X132064103Y-80845818D01*
X132177264Y-81169216D01*
X132325922Y-81477907D01*
X132325924Y-81477910D01*
X132508211Y-81768018D01*
X132721834Y-82035893D01*
X132964107Y-82278166D01*
X133231982Y-82491789D01*
X133522090Y-82674076D01*
X133830785Y-82822736D01*
X134154183Y-82935897D01*
X134488217Y-83012139D01*
X134488226Y-83012140D01*
X134488231Y-83012141D01*
X134715197Y-83037713D01*
X134828682Y-83050499D01*
X134828685Y-83050500D01*
X134828688Y-83050500D01*
X135171315Y-83050500D01*
X135171316Y-83050499D01*
X135345311Y-83030895D01*
X135511768Y-83012141D01*
X135511771Y-83012140D01*
X135511783Y-83012139D01*
X135845817Y-82935897D01*
X136169215Y-82822736D01*
X136477910Y-82674076D01*
X136768018Y-82491789D01*
X137035893Y-82278166D01*
X137278166Y-82035893D01*
X137491789Y-81768018D01*
X137674076Y-81477910D01*
X137822736Y-81169215D01*
X137935897Y-80845817D01*
X138012139Y-80511783D01*
X138013053Y-80503677D01*
X138041806Y-80248472D01*
X138050500Y-80171312D01*
X138050500Y-79828688D01*
X138012139Y-79488217D01*
X137935897Y-79154183D01*
X137822736Y-78830785D01*
X137674076Y-78522090D01*
X137491789Y-78231982D01*
X137278166Y-77964107D01*
X137035893Y-77721834D01*
X136768018Y-77508211D01*
X136500681Y-77340232D01*
X136477907Y-77325922D01*
X136169216Y-77177264D01*
X135845818Y-77064103D01*
X135845816Y-77064102D01*
X135588024Y-77005262D01*
X135511783Y-76987861D01*
X135511780Y-76987860D01*
X135511768Y-76987858D01*
X135171318Y-76949500D01*
X135171312Y-76949500D01*
X134828688Y-76949500D01*
X134828681Y-76949500D01*
X134488231Y-76987858D01*
X134488217Y-76987861D01*
X134154183Y-77064102D01*
X134154181Y-77064103D01*
X133830783Y-77177264D01*
X133522092Y-77325922D01*
X133231983Y-77508210D01*
X132964107Y-77721833D01*
X132721833Y-77964107D01*
X132508210Y-78231983D01*
X132325922Y-78522092D01*
X132177264Y-78830783D01*
X132064103Y-79154181D01*
X132064102Y-79154183D01*
X131987861Y-79488217D01*
X131987858Y-79488231D01*
X131949500Y-79828681D01*
X129005130Y-79828681D01*
X128316448Y-79140000D01*
X128322661Y-79140000D01*
X128424394Y-79112741D01*
X128515606Y-79060080D01*
X128590080Y-78985606D01*
X128642741Y-78894394D01*
X128670000Y-78792661D01*
X128670000Y-78786449D01*
X129404998Y-79521447D01*
X129404999Y-79521446D01*
X129404999Y-77958552D01*
X129404998Y-77958551D01*
X128670000Y-78693550D01*
X128670000Y-78687339D01*
X128642741Y-78585606D01*
X128590080Y-78494394D01*
X128515606Y-78419920D01*
X128424394Y-78367259D01*
X128322661Y-78340000D01*
X128316449Y-78340000D01*
X129323406Y-77333040D01*
X129323406Y-77333039D01*
X129262044Y-77231530D01*
X129143471Y-77112957D01*
X129143467Y-77112954D01*
X128999973Y-77026210D01*
X128839876Y-76976322D01*
X128770298Y-76970000D01*
X127769691Y-76970000D01*
X127700124Y-76976321D01*
X127700116Y-76976323D01*
X127540029Y-77026208D01*
X127540027Y-77026209D01*
X127396532Y-77112954D01*
X127396528Y-77112957D01*
X127277956Y-77231529D01*
X127216592Y-77333039D01*
X127216592Y-77333040D01*
X128223552Y-78340000D01*
X128217339Y-78340000D01*
X128115606Y-78367259D01*
X128024394Y-78419920D01*
X127949920Y-78494394D01*
X127897259Y-78585606D01*
X127870000Y-78687339D01*
X127870000Y-78693551D01*
X127135000Y-77958551D01*
X116405500Y-77958551D01*
X116405500Y-77629720D01*
X116391000Y-77538172D01*
X116390999Y-77538170D01*
X116390999Y-77538168D01*
X116334769Y-77427811D01*
X116334765Y-77427807D01*
X116334764Y-77427805D01*
X116247194Y-77340235D01*
X116247191Y-77340233D01*
X116247189Y-77340231D01*
X116136832Y-77284001D01*
X116136830Y-77284000D01*
X116136827Y-77283999D01*
X116045279Y-77269500D01*
X116045274Y-77269500D01*
X115094726Y-77269500D01*
X115094721Y-77269500D01*
X115003172Y-77283999D01*
X115003168Y-77284001D01*
X114892811Y-77340231D01*
X114892810Y-77340232D01*
X114892805Y-77340235D01*
X114805235Y-77427805D01*
X114805232Y-77427810D01*
X114805231Y-77427811D01*
X114764265Y-77508211D01*
X114749001Y-77538168D01*
X114748999Y-77538172D01*
X114734500Y-77629720D01*
X45454500Y-77629720D01*
X45454500Y-73705778D01*
X47399500Y-73705778D01*
X47399500Y-73994221D01*
X47399501Y-73994238D01*
X47437149Y-74280206D01*
X47437150Y-74280211D01*
X47437151Y-74280217D01*
X47437152Y-74280219D01*
X47511809Y-74558844D01*
X47511814Y-74558860D01*
X47622191Y-74825336D01*
X47622199Y-74825352D01*
X47766420Y-75075148D01*
X47766431Y-75075164D01*
X47942024Y-75304002D01*
X47942030Y-75304009D01*
X48145990Y-75507969D01*
X48145996Y-75507974D01*
X48374844Y-75683575D01*
X48374851Y-75683579D01*
X48624647Y-75827800D01*
X48624663Y-75827808D01*
X48891139Y-75938185D01*
X48891145Y-75938186D01*
X48891155Y-75938191D01*
X49169783Y-76012849D01*
X49455772Y-76050500D01*
X49455779Y-76050500D01*
X49744221Y-76050500D01*
X49744228Y-76050500D01*
X50030217Y-76012849D01*
X50308845Y-75938191D01*
X50308857Y-75938185D01*
X50308860Y-75938185D01*
X50575336Y-75827808D01*
X50575339Y-75827806D01*
X50575345Y-75827804D01*
X50825156Y-75683575D01*
X51054004Y-75507974D01*
X51257974Y-75304004D01*
X51433575Y-75075156D01*
X51577804Y-74825345D01*
X51688191Y-74558845D01*
X51762849Y-74280217D01*
X51800500Y-73994228D01*
X51800500Y-73705778D01*
X107399500Y-73705778D01*
X107399500Y-73994221D01*
X107399501Y-73994238D01*
X107437149Y-74280206D01*
X107437150Y-74280211D01*
X107437151Y-74280217D01*
X107437152Y-74280219D01*
X107511809Y-74558844D01*
X107511814Y-74558860D01*
X107622191Y-74825336D01*
X107622199Y-74825352D01*
X107766420Y-75075148D01*
X107766431Y-75075164D01*
X107942024Y-75304002D01*
X107942030Y-75304009D01*
X108145990Y-75507969D01*
X108145996Y-75507974D01*
X108374844Y-75683575D01*
X108374851Y-75683579D01*
X108624647Y-75827800D01*
X108624663Y-75827808D01*
X108891139Y-75938185D01*
X108891145Y-75938186D01*
X108891155Y-75938191D01*
X109169783Y-76012849D01*
X109455772Y-76050500D01*
X109455779Y-76050500D01*
X109744221Y-76050500D01*
X109744228Y-76050500D01*
X110030217Y-76012849D01*
X110308845Y-75938191D01*
X110308857Y-75938185D01*
X110308860Y-75938185D01*
X110575336Y-75827808D01*
X110575339Y-75827806D01*
X110575345Y-75827804D01*
X110825156Y-75683575D01*
X111054004Y-75507974D01*
X111257974Y-75304004D01*
X111433575Y-75075156D01*
X111577804Y-74825345D01*
X111688191Y-74558845D01*
X111762849Y-74280217D01*
X111800500Y-73994228D01*
X111800500Y-73705772D01*
X111762849Y-73419783D01*
X111688191Y-73141155D01*
X111688186Y-73141145D01*
X111688185Y-73141139D01*
X111577808Y-72874663D01*
X111577800Y-72874647D01*
X111433579Y-72624851D01*
X111433575Y-72624844D01*
X111257974Y-72395996D01*
X111257969Y-72395990D01*
X111054009Y-72192030D01*
X111054002Y-72192024D01*
X110825164Y-72016431D01*
X110825162Y-72016429D01*
X110825156Y-72016425D01*
X110825151Y-72016422D01*
X110825148Y-72016420D01*
X110575352Y-71872199D01*
X110575336Y-71872191D01*
X110308860Y-71761814D01*
X110308848Y-71761810D01*
X110308845Y-71761809D01*
X110030217Y-71687151D01*
X110030211Y-71687150D01*
X110030206Y-71687149D01*
X109744238Y-71649501D01*
X109744233Y-71649500D01*
X109744228Y-71649500D01*
X109455772Y-71649500D01*
X109455766Y-71649500D01*
X109455761Y-71649501D01*
X109169793Y-71687149D01*
X109169786Y-71687150D01*
X109169783Y-71687151D01*
X108891155Y-71761809D01*
X108891139Y-71761814D01*
X108624663Y-71872191D01*
X108624647Y-71872199D01*
X108374851Y-72016420D01*
X108374835Y-72016431D01*
X108145997Y-72192024D01*
X108145990Y-72192030D01*
X107942030Y-72395990D01*
X107942024Y-72395997D01*
X107766431Y-72624835D01*
X107766420Y-72624851D01*
X107622199Y-72874647D01*
X107622191Y-72874663D01*
X107511814Y-73141139D01*
X107511809Y-73141155D01*
X107437152Y-73419780D01*
X107437149Y-73419793D01*
X107399501Y-73705761D01*
X107399500Y-73705778D01*
X51800500Y-73705778D01*
X51800500Y-73705772D01*
X51762849Y-73419783D01*
X51688191Y-73141155D01*
X51688186Y-73141145D01*
X51688185Y-73141139D01*
X51577808Y-72874663D01*
X51577800Y-72874647D01*
X51433579Y-72624851D01*
X51433575Y-72624844D01*
X51257974Y-72395996D01*
X51257969Y-72395990D01*
X51054009Y-72192030D01*
X51054002Y-72192024D01*
X50825164Y-72016431D01*
X50825162Y-72016429D01*
X50825156Y-72016425D01*
X50825151Y-72016422D01*
X50825148Y-72016420D01*
X50575352Y-71872199D01*
X50575336Y-71872191D01*
X50308860Y-71761814D01*
X50308848Y-71761810D01*
X50308845Y-71761809D01*
X50030217Y-71687151D01*
X50030211Y-71687150D01*
X50030206Y-71687149D01*
X49744238Y-71649501D01*
X49744233Y-71649500D01*
X49744228Y-71649500D01*
X49455772Y-71649500D01*
X49455766Y-71649500D01*
X49455761Y-71649501D01*
X49169793Y-71687149D01*
X49169786Y-71687150D01*
X49169783Y-71687151D01*
X48891155Y-71761809D01*
X48891139Y-71761814D01*
X48624663Y-71872191D01*
X48624647Y-71872199D01*
X48374851Y-72016420D01*
X48374835Y-72016431D01*
X48145997Y-72192024D01*
X48145990Y-72192030D01*
X47942030Y-72395990D01*
X47942024Y-72395997D01*
X47766431Y-72624835D01*
X47766420Y-72624851D01*
X47622199Y-72874647D01*
X47622191Y-72874663D01*
X47511814Y-73141139D01*
X47511809Y-73141155D01*
X47437152Y-73419780D01*
X47437149Y-73419793D01*
X47399501Y-73705761D01*
X47399500Y-73705778D01*
X45454500Y-73705778D01*
X45454500Y-63405778D01*
X47399500Y-63405778D01*
X47399500Y-63694221D01*
X47399501Y-63694238D01*
X47437149Y-63980206D01*
X47437150Y-63980211D01*
X47437151Y-63980217D01*
X47437152Y-63980219D01*
X47511809Y-64258844D01*
X47511814Y-64258860D01*
X47622191Y-64525336D01*
X47622199Y-64525352D01*
X47766420Y-64775148D01*
X47766431Y-64775164D01*
X47942024Y-65004002D01*
X47942030Y-65004009D01*
X48145990Y-65207969D01*
X48145996Y-65207974D01*
X48374844Y-65383575D01*
X48374851Y-65383579D01*
X48624647Y-65527800D01*
X48624663Y-65527808D01*
X48891139Y-65638185D01*
X48891145Y-65638186D01*
X48891155Y-65638191D01*
X49169783Y-65712849D01*
X49455772Y-65750500D01*
X49455779Y-65750500D01*
X49744221Y-65750500D01*
X49744228Y-65750500D01*
X50030217Y-65712849D01*
X50308845Y-65638191D01*
X50308857Y-65638185D01*
X50308860Y-65638185D01*
X50575336Y-65527808D01*
X50575339Y-65527806D01*
X50575345Y-65527804D01*
X50825156Y-65383575D01*
X51054004Y-65207974D01*
X51257974Y-65004004D01*
X51433575Y-64775156D01*
X51577804Y-64525345D01*
X51688191Y-64258845D01*
X51762849Y-63980217D01*
X51800500Y-63694228D01*
X51800500Y-63405778D01*
X107399500Y-63405778D01*
X107399500Y-63694221D01*
X107399501Y-63694238D01*
X107437149Y-63980206D01*
X107437150Y-63980211D01*
X107437151Y-63980217D01*
X107437152Y-63980219D01*
X107511809Y-64258844D01*
X107511814Y-64258860D01*
X107622191Y-64525336D01*
X107622199Y-64525352D01*
X107766420Y-64775148D01*
X107766431Y-64775164D01*
X107942024Y-65004002D01*
X107942030Y-65004009D01*
X108145990Y-65207969D01*
X108145996Y-65207974D01*
X108374844Y-65383575D01*
X108374851Y-65383579D01*
X108624647Y-65527800D01*
X108624663Y-65527808D01*
X108891139Y-65638185D01*
X108891145Y-65638186D01*
X108891155Y-65638191D01*
X109169783Y-65712849D01*
X109455772Y-65750500D01*
X109455779Y-65750500D01*
X109744221Y-65750500D01*
X109744228Y-65750500D01*
X110030217Y-65712849D01*
X110308845Y-65638191D01*
X110308857Y-65638185D01*
X110308860Y-65638185D01*
X110575336Y-65527808D01*
X110575339Y-65527806D01*
X110575345Y-65527804D01*
X110825156Y-65383575D01*
X111054004Y-65207974D01*
X111257974Y-65004004D01*
X111305849Y-64941611D01*
X111314973Y-64929720D01*
X114734500Y-64929720D01*
X114734500Y-67150279D01*
X114748999Y-67241827D01*
X114749000Y-67241830D01*
X114749001Y-67241832D01*
X114805231Y-67352189D01*
X114805233Y-67352191D01*
X114805235Y-67352194D01*
X114892805Y-67439764D01*
X114892807Y-67439765D01*
X114892811Y-67439769D01*
X115003168Y-67495999D01*
X115003170Y-67495999D01*
X115003172Y-67496000D01*
X115094721Y-67510500D01*
X115094726Y-67510500D01*
X116045279Y-67510500D01*
X116136827Y-67496000D01*
X116136827Y-67495999D01*
X116136832Y-67495999D01*
X116247189Y-67439769D01*
X116334769Y-67352189D01*
X116390999Y-67241832D01*
X116391000Y-67241827D01*
X116405500Y-67150279D01*
X116405500Y-64929720D01*
X127434500Y-64929720D01*
X127434500Y-67150279D01*
X127448999Y-67241827D01*
X127449000Y-67241830D01*
X127449001Y-67241832D01*
X127505231Y-67352189D01*
X127505233Y-67352191D01*
X127505235Y-67352194D01*
X127592805Y-67439764D01*
X127592807Y-67439765D01*
X127592811Y-67439769D01*
X127703168Y-67495999D01*
X127703170Y-67495999D01*
X127703172Y-67496000D01*
X127794721Y-67510500D01*
X127794726Y-67510500D01*
X128745279Y-67510500D01*
X128836827Y-67496000D01*
X128836827Y-67495999D01*
X128836832Y-67495999D01*
X128947189Y-67439769D01*
X129034769Y-67352189D01*
X129090999Y-67241832D01*
X129091000Y-67241827D01*
X129105500Y-67150279D01*
X129105500Y-64929720D01*
X129091000Y-64838172D01*
X129090999Y-64838170D01*
X129090999Y-64838168D01*
X129034769Y-64727811D01*
X129034765Y-64727807D01*
X129034764Y-64727805D01*
X128947194Y-64640235D01*
X128947191Y-64640233D01*
X128947189Y-64640231D01*
X128836832Y-64584001D01*
X128836830Y-64584000D01*
X128836827Y-64583999D01*
X128745279Y-64569500D01*
X128745274Y-64569500D01*
X127794726Y-64569500D01*
X127794721Y-64569500D01*
X127703172Y-64583999D01*
X127703168Y-64584001D01*
X127592811Y-64640231D01*
X127592810Y-64640232D01*
X127592805Y-64640235D01*
X127505235Y-64727805D01*
X127505232Y-64727810D01*
X127505231Y-64727811D01*
X127481103Y-64775165D01*
X127449001Y-64838168D01*
X127448999Y-64838172D01*
X127434500Y-64929720D01*
X116405500Y-64929720D01*
X116391000Y-64838172D01*
X116390999Y-64838170D01*
X116390999Y-64838168D01*
X116334769Y-64727811D01*
X116334765Y-64727807D01*
X116334764Y-64727805D01*
X116247194Y-64640235D01*
X116247191Y-64640233D01*
X116247189Y-64640231D01*
X116136832Y-64584001D01*
X116136830Y-64584000D01*
X116136827Y-64583999D01*
X116045279Y-64569500D01*
X116045274Y-64569500D01*
X115094726Y-64569500D01*
X115094721Y-64569500D01*
X115003172Y-64583999D01*
X115003168Y-64584001D01*
X114892811Y-64640231D01*
X114892810Y-64640232D01*
X114892805Y-64640235D01*
X114805235Y-64727805D01*
X114805232Y-64727810D01*
X114805231Y-64727811D01*
X114781103Y-64775165D01*
X114749001Y-64838168D01*
X114748999Y-64838172D01*
X114734500Y-64929720D01*
X111314973Y-64929720D01*
X111376631Y-64849368D01*
X111433568Y-64775165D01*
X111433569Y-64775164D01*
X111433575Y-64775156D01*
X111577804Y-64525345D01*
X111688191Y-64258845D01*
X111762849Y-63980217D01*
X111800500Y-63694228D01*
X111800500Y-63405772D01*
X111762849Y-63119783D01*
X111688191Y-62841155D01*
X111688186Y-62841145D01*
X111688185Y-62841139D01*
X111577808Y-62574663D01*
X111577800Y-62574647D01*
X111433579Y-62324851D01*
X111433575Y-62324844D01*
X111257974Y-62095996D01*
X111257969Y-62095990D01*
X111054009Y-61892030D01*
X111054002Y-61892024D01*
X110825164Y-61716431D01*
X110825162Y-61716429D01*
X110825156Y-61716425D01*
X110825151Y-61716422D01*
X110825148Y-61716420D01*
X110575352Y-61572199D01*
X110575336Y-61572191D01*
X110308860Y-61461814D01*
X110308848Y-61461810D01*
X110308845Y-61461809D01*
X110030217Y-61387151D01*
X110030211Y-61387150D01*
X110030206Y-61387149D01*
X109744238Y-61349501D01*
X109744233Y-61349500D01*
X109744228Y-61349500D01*
X109455772Y-61349500D01*
X109455766Y-61349500D01*
X109455761Y-61349501D01*
X109169793Y-61387149D01*
X109169786Y-61387150D01*
X109169783Y-61387151D01*
X109079624Y-61411309D01*
X108891155Y-61461809D01*
X108891139Y-61461814D01*
X108624663Y-61572191D01*
X108624647Y-61572199D01*
X108374851Y-61716420D01*
X108374835Y-61716431D01*
X108145997Y-61892024D01*
X108145990Y-61892030D01*
X107942030Y-62095990D01*
X107942024Y-62095997D01*
X107766431Y-62324835D01*
X107766420Y-62324851D01*
X107622199Y-62574647D01*
X107622191Y-62574663D01*
X107511814Y-62841139D01*
X107511809Y-62841155D01*
X107437152Y-63119780D01*
X107437149Y-63119793D01*
X107399501Y-63405761D01*
X107399500Y-63405778D01*
X51800500Y-63405778D01*
X51800500Y-63405772D01*
X51762849Y-63119783D01*
X51688191Y-62841155D01*
X51688186Y-62841145D01*
X51688185Y-62841139D01*
X51577808Y-62574663D01*
X51577800Y-62574647D01*
X51433579Y-62324851D01*
X51433575Y-62324844D01*
X51257974Y-62095996D01*
X51257969Y-62095990D01*
X51054009Y-61892030D01*
X51054002Y-61892024D01*
X50825164Y-61716431D01*
X50825162Y-61716429D01*
X50825156Y-61716425D01*
X50825151Y-61716422D01*
X50825148Y-61716420D01*
X50575352Y-61572199D01*
X50575336Y-61572191D01*
X50308860Y-61461814D01*
X50308848Y-61461810D01*
X50308845Y-61461809D01*
X50030217Y-61387151D01*
X50030211Y-61387150D01*
X50030206Y-61387149D01*
X49744238Y-61349501D01*
X49744233Y-61349500D01*
X49744228Y-61349500D01*
X49455772Y-61349500D01*
X49455766Y-61349500D01*
X49455761Y-61349501D01*
X49169793Y-61387149D01*
X49169786Y-61387150D01*
X49169783Y-61387151D01*
X49079624Y-61411309D01*
X48891155Y-61461809D01*
X48891139Y-61461814D01*
X48624663Y-61572191D01*
X48624647Y-61572199D01*
X48374851Y-61716420D01*
X48374835Y-61716431D01*
X48145997Y-61892024D01*
X48145990Y-61892030D01*
X47942030Y-62095990D01*
X47942024Y-62095997D01*
X47766431Y-62324835D01*
X47766420Y-62324851D01*
X47622199Y-62574647D01*
X47622191Y-62574663D01*
X47511814Y-62841139D01*
X47511809Y-62841155D01*
X47437152Y-63119780D01*
X47437149Y-63119793D01*
X47399501Y-63405761D01*
X47399500Y-63405778D01*
X45454500Y-63405778D01*
X45454500Y-62014622D01*
X45474185Y-61947583D01*
X45490819Y-61926941D01*
X47568040Y-59849720D01*
X114734500Y-59849720D01*
X114734500Y-62070279D01*
X114748999Y-62161827D01*
X114749000Y-62161830D01*
X114749001Y-62161832D01*
X114805231Y-62272189D01*
X114805233Y-62272191D01*
X114805235Y-62272194D01*
X114892805Y-62359764D01*
X114892807Y-62359765D01*
X114892811Y-62359769D01*
X115003168Y-62415999D01*
X115003170Y-62415999D01*
X115003172Y-62416000D01*
X115094721Y-62430500D01*
X115094726Y-62430500D01*
X116045279Y-62430500D01*
X116136827Y-62416000D01*
X116136827Y-62415999D01*
X116136832Y-62415999D01*
X116247189Y-62359769D01*
X116247194Y-62359764D01*
X116300150Y-62306809D01*
X116334764Y-62272194D01*
X116334769Y-62272189D01*
X116390999Y-62161832D01*
X116391000Y-62161827D01*
X116405500Y-62070279D01*
X116405500Y-60178551D01*
X127135000Y-60178551D01*
X127135000Y-61741447D01*
X127870000Y-61006447D01*
X127870000Y-61012661D01*
X127897259Y-61114394D01*
X127949920Y-61205606D01*
X128024394Y-61280080D01*
X128115606Y-61332741D01*
X128217339Y-61360000D01*
X128223552Y-61360000D01*
X127216592Y-62366958D01*
X127216592Y-62366959D01*
X127277958Y-62468472D01*
X127396528Y-62587042D01*
X127396532Y-62587045D01*
X127540026Y-62673789D01*
X127700123Y-62723677D01*
X127769701Y-62729999D01*
X128770308Y-62729999D01*
X128839875Y-62723678D01*
X128839883Y-62723676D01*
X128999970Y-62673791D01*
X128999972Y-62673790D01*
X129143467Y-62587045D01*
X129143471Y-62587042D01*
X129262040Y-62468473D01*
X129323406Y-62366958D01*
X129323406Y-62366957D01*
X128316448Y-61360000D01*
X128322661Y-61360000D01*
X128424394Y-61332741D01*
X128515606Y-61280080D01*
X128590080Y-61205606D01*
X128642741Y-61114394D01*
X128670000Y-61012661D01*
X128670000Y-61006449D01*
X129404998Y-61741447D01*
X129404999Y-61741446D01*
X129404999Y-60178552D01*
X129404998Y-60178551D01*
X128670000Y-60913550D01*
X128670000Y-60907339D01*
X128642741Y-60805606D01*
X128590080Y-60714394D01*
X128515606Y-60639920D01*
X128424394Y-60587259D01*
X128322661Y-60560000D01*
X128316449Y-60560000D01*
X129323406Y-59553040D01*
X129323406Y-59553039D01*
X129262044Y-59451530D01*
X129143471Y-59332957D01*
X129143467Y-59332954D01*
X128999973Y-59246210D01*
X128839876Y-59196322D01*
X128770298Y-59190000D01*
X127769691Y-59190000D01*
X127700124Y-59196321D01*
X127700116Y-59196323D01*
X127540029Y-59246208D01*
X127540027Y-59246209D01*
X127396532Y-59332954D01*
X127396528Y-59332957D01*
X127277956Y-59451529D01*
X127216592Y-59553039D01*
X127216592Y-59553040D01*
X128223552Y-60560000D01*
X128217339Y-60560000D01*
X128115606Y-60587259D01*
X128024394Y-60639920D01*
X127949920Y-60714394D01*
X127897259Y-60805606D01*
X127870000Y-60907339D01*
X127870000Y-60913551D01*
X127135000Y-60178551D01*
X116405500Y-60178551D01*
X116405500Y-59849720D01*
X116391000Y-59758172D01*
X116390999Y-59758170D01*
X116390999Y-59758168D01*
X116334769Y-59647811D01*
X116334765Y-59647807D01*
X116334764Y-59647805D01*
X116247194Y-59560235D01*
X116247191Y-59560233D01*
X116247189Y-59560231D01*
X116136832Y-59504001D01*
X116136830Y-59504000D01*
X116136827Y-59503999D01*
X116045279Y-59489500D01*
X116045274Y-59489500D01*
X115094726Y-59489500D01*
X115094721Y-59489500D01*
X115003172Y-59503999D01*
X115003168Y-59504001D01*
X114892811Y-59560231D01*
X114892810Y-59560232D01*
X114892805Y-59560235D01*
X114805235Y-59647805D01*
X114805232Y-59647810D01*
X114749001Y-59758168D01*
X114748999Y-59758172D01*
X114734500Y-59849720D01*
X47568040Y-59849720D01*
X49425941Y-57991819D01*
X49487264Y-57958334D01*
X49513622Y-57955500D01*
X50710279Y-57955500D01*
X50801827Y-57941000D01*
X50801827Y-57940999D01*
X50801832Y-57940999D01*
X50912189Y-57884769D01*
X50999769Y-57797189D01*
X51055999Y-57686832D01*
X51056000Y-57686827D01*
X51070500Y-57595279D01*
X51070500Y-56644720D01*
X104929500Y-56644720D01*
X104929500Y-57595279D01*
X104943999Y-57686827D01*
X104944000Y-57686830D01*
X104944001Y-57686832D01*
X105000231Y-57797189D01*
X105000233Y-57797191D01*
X105000235Y-57797194D01*
X105087805Y-57884764D01*
X105087807Y-57884765D01*
X105087811Y-57884769D01*
X105198168Y-57940999D01*
X105198170Y-57940999D01*
X105198172Y-57941000D01*
X105289721Y-57955500D01*
X105289726Y-57955500D01*
X107510279Y-57955500D01*
X107601827Y-57941000D01*
X107601827Y-57940999D01*
X107601832Y-57940999D01*
X107712189Y-57884769D01*
X107799769Y-57797189D01*
X107855999Y-57686832D01*
X107856000Y-57686827D01*
X107870500Y-57595279D01*
X107870500Y-56644720D01*
X107856000Y-56553172D01*
X107855999Y-56553170D01*
X107855999Y-56553168D01*
X107799769Y-56442811D01*
X107799765Y-56442807D01*
X107799764Y-56442805D01*
X107712194Y-56355235D01*
X107712191Y-56355233D01*
X107712189Y-56355231D01*
X107601832Y-56299001D01*
X107601830Y-56299000D01*
X107601827Y-56298999D01*
X107510279Y-56284500D01*
X107510274Y-56284500D01*
X105289726Y-56284500D01*
X105289721Y-56284500D01*
X105198172Y-56298999D01*
X105198168Y-56299001D01*
X105087811Y-56355231D01*
X105087810Y-56355232D01*
X105087805Y-56355235D01*
X105000235Y-56442805D01*
X105000232Y-56442810D01*
X104944001Y-56553168D01*
X104943999Y-56553172D01*
X104929500Y-56644720D01*
X51070500Y-56644720D01*
X51056000Y-56553172D01*
X51055999Y-56553170D01*
X51055999Y-56553168D01*
X50999769Y-56442811D01*
X50999765Y-56442807D01*
X50999764Y-56442805D01*
X50912194Y-56355235D01*
X50912191Y-56355233D01*
X50912189Y-56355231D01*
X50801832Y-56299001D01*
X50801830Y-56299000D01*
X50801827Y-56298999D01*
X50710279Y-56284500D01*
X50710274Y-56284500D01*
X48489726Y-56284500D01*
X48489721Y-56284500D01*
X48398172Y-56298999D01*
X48398168Y-56299001D01*
X48287811Y-56355231D01*
X48287810Y-56355232D01*
X48287805Y-56355235D01*
X48200235Y-56442805D01*
X48200232Y-56442810D01*
X48144001Y-56553168D01*
X48143999Y-56553172D01*
X48129500Y-56644720D01*
X48129500Y-57595279D01*
X48143999Y-57686827D01*
X48144000Y-57686830D01*
X48144001Y-57686832D01*
X48200231Y-57797189D01*
X48200232Y-57797190D01*
X48204662Y-57805884D01*
X48201174Y-57807660D01*
X48218200Y-57855514D01*
X48202313Y-57923553D01*
X48182077Y-57950162D01*
X44636311Y-61495927D01*
X44636307Y-61495933D01*
X44576472Y-61599568D01*
X44576473Y-61599568D01*
X44576473Y-61599570D01*
X44545499Y-61715165D01*
X44545499Y-61844825D01*
X44545500Y-61844838D01*
X44545500Y-84292551D01*
X44545499Y-84292569D01*
X44545499Y-84419835D01*
X44569926Y-84511000D01*
X44576472Y-84535429D01*
X44576474Y-84535434D01*
X44636306Y-84639066D01*
X44636311Y-84639072D01*
X44727995Y-84730756D01*
X44728001Y-84730761D01*
X48149967Y-88152727D01*
X48183452Y-88214050D01*
X48178468Y-88283742D01*
X48172771Y-88296702D01*
X48144002Y-88353164D01*
X48143999Y-88353172D01*
X48129500Y-88444720D01*
X48129500Y-89395279D01*
X48143999Y-89486827D01*
X48144000Y-89486830D01*
X48144001Y-89486832D01*
X48200231Y-89597189D01*
X48200234Y-89597192D01*
X48205970Y-89605088D01*
X48204047Y-89606484D01*
X48230944Y-89655741D01*
X48225960Y-89725433D01*
X48197459Y-89769780D01*
X35736311Y-102230927D01*
X35736307Y-102230933D01*
X35676498Y-102334524D01*
X35676497Y-102334527D01*
X35676473Y-102334569D01*
X35676473Y-102334570D01*
X35645499Y-102450164D01*
X35200500Y-102450164D01*
X35200500Y-88688549D01*
X39299500Y-88688549D01*
X39299500Y-88911450D01*
X39299501Y-88911466D01*
X39328594Y-89132452D01*
X39328595Y-89132457D01*
X39328596Y-89132463D01*
X39328597Y-89132465D01*
X39386290Y-89347780D01*
X39386293Y-89347790D01*
X39471593Y-89553722D01*
X39471595Y-89553726D01*
X39583052Y-89746774D01*
X39583057Y-89746780D01*
X39583058Y-89746782D01*
X39718751Y-89923622D01*
X39718757Y-89923629D01*
X39876370Y-90081242D01*
X39876376Y-90081247D01*
X40053226Y-90216948D01*
X40246274Y-90328405D01*
X40452219Y-90413710D01*
X40667537Y-90471404D01*
X40888543Y-90500500D01*
X40888550Y-90500500D01*
X41111450Y-90500500D01*
X41111457Y-90500500D01*
X41332463Y-90471404D01*
X41547781Y-90413710D01*
X41753726Y-90328405D01*
X41946774Y-90216948D01*
X42123624Y-90081247D01*
X42281247Y-89923624D01*
X42416948Y-89746774D01*
X42528405Y-89553726D01*
X42613710Y-89347781D01*
X42671404Y-89132463D01*
X42700500Y-88911457D01*
X42700500Y-88688543D01*
X42671404Y-88467537D01*
X42613710Y-88252219D01*
X42528405Y-88046274D01*
X42416948Y-87853226D01*
X42377867Y-87802294D01*
X42281248Y-87676377D01*
X42281242Y-87676370D01*
X42123629Y-87518757D01*
X42123622Y-87518751D01*
X41946782Y-87383058D01*
X41946780Y-87383057D01*
X41946774Y-87383052D01*
X41753726Y-87271595D01*
X41753722Y-87271593D01*
X41547790Y-87186293D01*
X41547783Y-87186291D01*
X41547781Y-87186290D01*
X41332463Y-87128596D01*
X41332457Y-87128595D01*
X41332452Y-87128594D01*
X41111466Y-87099501D01*
X41111463Y-87099500D01*
X41111457Y-87099500D01*
X40888543Y-87099500D01*
X40888537Y-87099500D01*
X40888533Y-87099501D01*
X40667547Y-87128594D01*
X40667540Y-87128595D01*
X40667537Y-87128596D01*
X40452219Y-87186290D01*
X40452209Y-87186293D01*
X40246277Y-87271593D01*
X40246273Y-87271595D01*
X40053226Y-87383052D01*
X40053217Y-87383058D01*
X39876377Y-87518751D01*
X39876370Y-87518757D01*
X39718757Y-87676370D01*
X39718751Y-87676377D01*
X39583058Y-87853217D01*
X39583052Y-87853226D01*
X39471595Y-88046273D01*
X39471593Y-88046277D01*
X39386293Y-88252209D01*
X39386290Y-88252219D01*
X39377844Y-88283742D01*
X39328597Y-88467534D01*
X39328594Y-88467547D01*
X39299501Y-88688533D01*
X39299500Y-88688549D01*
X35200500Y-88688549D01*
X35200500Y-79828681D01*
X36949500Y-79828681D01*
X36949500Y-80171318D01*
X36987858Y-80511768D01*
X36987861Y-80511782D01*
X37064102Y-80845816D01*
X37064103Y-80845818D01*
X37177264Y-81169216D01*
X37325922Y-81477907D01*
X37325924Y-81477910D01*
X37508211Y-81768018D01*
X37721834Y-82035893D01*
X37964107Y-82278166D01*
X38231982Y-82491789D01*
X38522090Y-82674076D01*
X38830785Y-82822736D01*
X39154183Y-82935897D01*
X39488217Y-83012139D01*
X39488226Y-83012140D01*
X39488231Y-83012141D01*
X39715197Y-83037713D01*
X39828682Y-83050499D01*
X39828685Y-83050500D01*
X39828688Y-83050500D01*
X40171315Y-83050500D01*
X40171316Y-83050499D01*
X40345311Y-83030895D01*
X40511768Y-83012141D01*
X40511771Y-83012140D01*
X40511783Y-83012139D01*
X40845817Y-82935897D01*
X41169215Y-82822736D01*
X41477910Y-82674076D01*
X41768018Y-82491789D01*
X42035893Y-82278166D01*
X42278166Y-82035893D01*
X42491789Y-81768018D01*
X42674076Y-81477910D01*
X42822736Y-81169215D01*
X42935897Y-80845817D01*
X43012139Y-80511783D01*
X43013053Y-80503677D01*
X43041806Y-80248472D01*
X43050500Y-80171312D01*
X43050500Y-79828688D01*
X43012139Y-79488217D01*
X42935897Y-79154183D01*
X42822736Y-78830785D01*
X42674076Y-78522090D01*
X42491789Y-78231982D01*
X42278166Y-77964107D01*
X42035893Y-77721834D01*
X41768018Y-77508211D01*
X41500681Y-77340232D01*
X41477907Y-77325922D01*
X41169216Y-77177264D01*
X40845818Y-77064103D01*
X40845816Y-77064102D01*
X40588024Y-77005262D01*
X40511783Y-76987861D01*
X40511780Y-76987860D01*
X40511768Y-76987858D01*
X40171318Y-76949500D01*
X40171312Y-76949500D01*
X39828688Y-76949500D01*
X39828681Y-76949500D01*
X39488231Y-76987858D01*
X39488217Y-76987861D01*
X39154183Y-77064102D01*
X39154181Y-77064103D01*
X38830783Y-77177264D01*
X38522092Y-77325922D01*
X38231983Y-77508210D01*
X37964107Y-77721833D01*
X37721833Y-77964107D01*
X37508210Y-78231983D01*
X37325922Y-78522092D01*
X37177264Y-78830783D01*
X37064103Y-79154181D01*
X37064102Y-79154183D01*
X36987861Y-79488217D01*
X36987858Y-79488231D01*
X36949500Y-79828681D01*
X35200500Y-79828681D01*
X35200500Y-54079701D01*
X47830000Y-54079701D01*
X47830000Y-55080308D01*
X47836321Y-55149875D01*
X47836323Y-55149883D01*
X47886208Y-55309970D01*
X47886209Y-55309972D01*
X47972954Y-55453467D01*
X47972957Y-55453471D01*
X48091530Y-55572044D01*
X48193039Y-55633406D01*
X48193040Y-55633406D01*
X48228224Y-55598223D01*
X49200000Y-54626447D01*
X49200000Y-54632661D01*
X49227259Y-54734394D01*
X49279920Y-54825606D01*
X49354394Y-54900080D01*
X49445606Y-54952741D01*
X49547339Y-54980000D01*
X49553552Y-54980000D01*
X48818551Y-55714998D01*
X48818552Y-55714999D01*
X50381447Y-55714999D01*
X50381447Y-55714998D01*
X49646448Y-54980000D01*
X49652661Y-54980000D01*
X49754394Y-54952741D01*
X49845606Y-54900080D01*
X49920080Y-54825606D01*
X49972741Y-54734394D01*
X50000000Y-54632661D01*
X50000000Y-54626448D01*
X51006957Y-55633406D01*
X51006958Y-55633406D01*
X51108473Y-55572040D01*
X51227042Y-55453471D01*
X51227045Y-55453467D01*
X51313789Y-55309973D01*
X51363677Y-55149876D01*
X51369999Y-55080298D01*
X51369999Y-54104720D01*
X104929500Y-54104720D01*
X104929500Y-55055279D01*
X104943999Y-55146827D01*
X104944000Y-55146830D01*
X104944001Y-55146832D01*
X105000231Y-55257189D01*
X105000233Y-55257191D01*
X105000235Y-55257194D01*
X105087805Y-55344764D01*
X105087807Y-55344765D01*
X105087811Y-55344769D01*
X105198168Y-55400999D01*
X105198170Y-55400999D01*
X105198172Y-55401000D01*
X105289721Y-55415500D01*
X105289726Y-55415500D01*
X107510279Y-55415500D01*
X107601827Y-55401000D01*
X107601827Y-55400999D01*
X107601832Y-55400999D01*
X107712189Y-55344769D01*
X107799769Y-55257189D01*
X107855999Y-55146832D01*
X107856000Y-55146827D01*
X107870500Y-55055279D01*
X107870500Y-54104720D01*
X107856000Y-54013172D01*
X107855999Y-54013170D01*
X107855999Y-54013168D01*
X107799769Y-53902811D01*
X107799765Y-53902807D01*
X107799764Y-53902805D01*
X107712194Y-53815235D01*
X107712191Y-53815233D01*
X107712189Y-53815231D01*
X107601832Y-53759001D01*
X107601830Y-53759000D01*
X107601827Y-53758999D01*
X107510279Y-53744500D01*
X107510274Y-53744500D01*
X105289726Y-53744500D01*
X105289721Y-53744500D01*
X105198172Y-53758999D01*
X105198168Y-53759001D01*
X105087811Y-53815231D01*
X105087810Y-53815232D01*
X105087805Y-53815235D01*
X105000235Y-53902805D01*
X105000232Y-53902810D01*
X104944001Y-54013168D01*
X104943999Y-54013172D01*
X104929500Y-54104720D01*
X51369999Y-54104720D01*
X51369999Y-54079691D01*
X51363678Y-54010124D01*
X51363676Y-54010116D01*
X51313791Y-53850029D01*
X51313790Y-53850027D01*
X51227045Y-53706532D01*
X51227042Y-53706528D01*
X51108472Y-53587958D01*
X51006959Y-53526592D01*
X51006958Y-53526592D01*
X50000000Y-54533550D01*
X50000000Y-54527339D01*
X49972741Y-54425606D01*
X49920080Y-54334394D01*
X49845606Y-54259920D01*
X49754394Y-54207259D01*
X49652661Y-54180000D01*
X49646449Y-54180000D01*
X50381447Y-53445000D01*
X48818551Y-53445000D01*
X49553552Y-54180000D01*
X49547339Y-54180000D01*
X49445606Y-54207259D01*
X49354394Y-54259920D01*
X49279920Y-54334394D01*
X49227259Y-54425606D01*
X49200000Y-54527339D01*
X49200000Y-54533552D01*
X48193040Y-53526592D01*
X48193039Y-53526592D01*
X48091529Y-53587956D01*
X47972957Y-53706528D01*
X47972954Y-53706532D01*
X47886210Y-53850026D01*
X47836322Y-54010123D01*
X47830000Y-54079701D01*
X35200500Y-54079701D01*
X35200500Y-51564720D01*
X48129500Y-51564720D01*
X48129500Y-52515279D01*
X48143999Y-52606827D01*
X48144000Y-52606830D01*
X48144001Y-52606832D01*
X48200231Y-52717189D01*
X48200233Y-52717191D01*
X48200235Y-52717194D01*
X48287805Y-52804764D01*
X48287807Y-52804765D01*
X48287811Y-52804769D01*
X48398168Y-52860999D01*
X48398170Y-52860999D01*
X48398172Y-52861000D01*
X48489721Y-52875500D01*
X48489726Y-52875500D01*
X50710279Y-52875500D01*
X50801827Y-52861000D01*
X50801827Y-52860999D01*
X50801832Y-52860999D01*
X50912189Y-52804769D01*
X50999769Y-52717189D01*
X51055999Y-52606832D01*
X51056000Y-52606827D01*
X51070500Y-52515279D01*
X51070500Y-51564720D01*
X104929500Y-51564720D01*
X104929500Y-52515279D01*
X104943999Y-52606827D01*
X104944000Y-52606830D01*
X104944001Y-52606832D01*
X105000231Y-52717189D01*
X105000233Y-52717191D01*
X105000235Y-52717194D01*
X105087805Y-52804764D01*
X105087807Y-52804765D01*
X105087811Y-52804769D01*
X105198168Y-52860999D01*
X105198170Y-52860999D01*
X105198172Y-52861000D01*
X105289721Y-52875500D01*
X105289726Y-52875500D01*
X107510279Y-52875500D01*
X107601827Y-52861000D01*
X107601827Y-52860999D01*
X107601832Y-52860999D01*
X107712189Y-52804769D01*
X107799769Y-52717189D01*
X107855999Y-52606832D01*
X107856000Y-52606827D01*
X107870500Y-52515279D01*
X107870500Y-51564720D01*
X107856000Y-51473172D01*
X107855999Y-51473170D01*
X107855999Y-51473168D01*
X107799769Y-51362811D01*
X107799765Y-51362807D01*
X107799764Y-51362805D01*
X107712194Y-51275235D01*
X107712191Y-51275233D01*
X107712189Y-51275231D01*
X107601832Y-51219001D01*
X107601830Y-51219000D01*
X107601827Y-51218999D01*
X107510279Y-51204500D01*
X107510274Y-51204500D01*
X105289726Y-51204500D01*
X105289721Y-51204500D01*
X105198172Y-51218999D01*
X105198168Y-51219001D01*
X105087811Y-51275231D01*
X105087810Y-51275232D01*
X105087805Y-51275235D01*
X105000235Y-51362805D01*
X105000232Y-51362810D01*
X104944001Y-51473168D01*
X104943999Y-51473172D01*
X104929500Y-51564720D01*
X51070500Y-51564720D01*
X51056000Y-51473172D01*
X51055999Y-51473170D01*
X51055999Y-51473168D01*
X50999769Y-51362811D01*
X50999765Y-51362807D01*
X50999764Y-51362805D01*
X50912194Y-51275235D01*
X50912191Y-51275233D01*
X50912189Y-51275231D01*
X50801832Y-51219001D01*
X50801830Y-51219000D01*
X50801827Y-51218999D01*
X50710279Y-51204500D01*
X50710274Y-51204500D01*
X48489726Y-51204500D01*
X48489721Y-51204500D01*
X48398172Y-51218999D01*
X48398168Y-51219001D01*
X48287811Y-51275231D01*
X48287810Y-51275232D01*
X48287805Y-51275235D01*
X48200235Y-51362805D01*
X48200232Y-51362810D01*
X48144001Y-51473168D01*
X48143999Y-51473172D01*
X48129500Y-51564720D01*
X35200500Y-51564720D01*
X35200500Y-49024720D01*
X48129500Y-49024720D01*
X48129500Y-49975279D01*
X48143999Y-50066827D01*
X48144000Y-50066830D01*
X48144001Y-50066832D01*
X48200231Y-50177189D01*
X48200233Y-50177191D01*
X48200235Y-50177194D01*
X48287805Y-50264764D01*
X48287807Y-50264765D01*
X48287811Y-50264769D01*
X48398168Y-50320999D01*
X48398170Y-50320999D01*
X48398172Y-50321000D01*
X48489721Y-50335500D01*
X48489726Y-50335500D01*
X50710279Y-50335500D01*
X50801827Y-50321000D01*
X50801827Y-50320999D01*
X50801832Y-50320999D01*
X50912189Y-50264769D01*
X50999769Y-50177189D01*
X51055999Y-50066832D01*
X51056000Y-50066827D01*
X51070500Y-49975279D01*
X51070500Y-49024720D01*
X104929500Y-49024720D01*
X104929500Y-49975279D01*
X104943999Y-50066827D01*
X104944000Y-50066830D01*
X104944001Y-50066832D01*
X105000231Y-50177189D01*
X105000233Y-50177191D01*
X105000235Y-50177194D01*
X105087805Y-50264764D01*
X105087807Y-50264765D01*
X105087811Y-50264769D01*
X105198168Y-50320999D01*
X105198170Y-50320999D01*
X105198172Y-50321000D01*
X105289721Y-50335500D01*
X105289726Y-50335500D01*
X107510279Y-50335500D01*
X107601827Y-50321000D01*
X107601827Y-50320999D01*
X107601832Y-50320999D01*
X107712189Y-50264769D01*
X107799769Y-50177189D01*
X107855999Y-50066832D01*
X107856000Y-50066827D01*
X107870500Y-49975279D01*
X107870500Y-49024720D01*
X107856000Y-48933172D01*
X107855999Y-48933170D01*
X107855999Y-48933168D01*
X107799769Y-48822811D01*
X107799765Y-48822807D01*
X107799764Y-48822805D01*
X107712194Y-48735235D01*
X107712191Y-48735233D01*
X107712189Y-48735231D01*
X107601832Y-48679001D01*
X107601830Y-48679000D01*
X107601827Y-48678999D01*
X107510279Y-48664500D01*
X107510274Y-48664500D01*
X105289726Y-48664500D01*
X105289721Y-48664500D01*
X105198172Y-48678999D01*
X105198168Y-48679001D01*
X105087811Y-48735231D01*
X105087810Y-48735232D01*
X105087805Y-48735235D01*
X105000235Y-48822805D01*
X105000232Y-48822810D01*
X104944001Y-48933168D01*
X104943999Y-48933172D01*
X104929500Y-49024720D01*
X51070500Y-49024720D01*
X51056000Y-48933172D01*
X51055999Y-48933170D01*
X51055999Y-48933168D01*
X50999769Y-48822811D01*
X50999765Y-48822807D01*
X50999764Y-48822805D01*
X50912194Y-48735235D01*
X50912191Y-48735233D01*
X50912189Y-48735231D01*
X50801832Y-48679001D01*
X50801830Y-48679000D01*
X50801827Y-48678999D01*
X50710279Y-48664500D01*
X50710274Y-48664500D01*
X48489726Y-48664500D01*
X48489721Y-48664500D01*
X48398172Y-48678999D01*
X48398168Y-48679001D01*
X48287811Y-48735231D01*
X48287810Y-48735232D01*
X48287805Y-48735235D01*
X48200235Y-48822805D01*
X48200232Y-48822810D01*
X48144001Y-48933168D01*
X48143999Y-48933172D01*
X48129500Y-49024720D01*
X35200500Y-49024720D01*
X35200500Y-47149720D01*
X114734500Y-47149720D01*
X114734500Y-49370279D01*
X114748999Y-49461827D01*
X114749000Y-49461830D01*
X114749001Y-49461832D01*
X114805231Y-49572189D01*
X114805233Y-49572191D01*
X114805235Y-49572194D01*
X114892805Y-49659764D01*
X114892807Y-49659765D01*
X114892811Y-49659769D01*
X115003168Y-49715999D01*
X115003170Y-49715999D01*
X115003172Y-49716000D01*
X115094721Y-49730500D01*
X115094726Y-49730500D01*
X116045279Y-49730500D01*
X116136827Y-49716000D01*
X116136827Y-49715999D01*
X116136832Y-49715999D01*
X116247189Y-49659769D01*
X116334769Y-49572189D01*
X116390999Y-49461832D01*
X116391000Y-49461827D01*
X116405500Y-49370279D01*
X116405500Y-47149720D01*
X127434500Y-47149720D01*
X127434500Y-49370279D01*
X127448999Y-49461827D01*
X127449000Y-49461830D01*
X127449001Y-49461832D01*
X127505231Y-49572189D01*
X127505233Y-49572191D01*
X127505235Y-49572194D01*
X127592805Y-49659764D01*
X127592807Y-49659765D01*
X127592811Y-49659769D01*
X127703168Y-49715999D01*
X127703170Y-49715999D01*
X127703172Y-49716000D01*
X127794721Y-49730500D01*
X127794726Y-49730500D01*
X128745279Y-49730500D01*
X128836827Y-49716000D01*
X128836827Y-49715999D01*
X128836832Y-49715999D01*
X128947189Y-49659769D01*
X129034769Y-49572189D01*
X129090999Y-49461832D01*
X129091000Y-49461827D01*
X129105500Y-49370279D01*
X129105500Y-47149720D01*
X129091000Y-47058172D01*
X129090999Y-47058170D01*
X129090999Y-47058168D01*
X129034769Y-46947811D01*
X129034765Y-46947807D01*
X129034764Y-46947805D01*
X128947194Y-46860235D01*
X128947191Y-46860233D01*
X128947189Y-46860231D01*
X128836832Y-46804001D01*
X128836830Y-46804000D01*
X128836827Y-46803999D01*
X128745279Y-46789500D01*
X128745274Y-46789500D01*
X127794726Y-46789500D01*
X127794721Y-46789500D01*
X127703172Y-46803999D01*
X127703168Y-46804001D01*
X127592811Y-46860231D01*
X127592810Y-46860232D01*
X127592805Y-46860235D01*
X127505235Y-46947805D01*
X127505232Y-46947810D01*
X127449001Y-47058168D01*
X127448999Y-47058172D01*
X127434500Y-47149720D01*
X116405500Y-47149720D01*
X116391000Y-47058172D01*
X116390999Y-47058170D01*
X116390999Y-47058168D01*
X116334769Y-46947811D01*
X116334765Y-46947807D01*
X116334764Y-46947805D01*
X116247194Y-46860235D01*
X116247191Y-46860233D01*
X116247189Y-46860231D01*
X116136832Y-46804001D01*
X116136830Y-46804000D01*
X116136827Y-46803999D01*
X116045279Y-46789500D01*
X116045274Y-46789500D01*
X115094726Y-46789500D01*
X115094721Y-46789500D01*
X115003172Y-46803999D01*
X115003168Y-46804001D01*
X114892811Y-46860231D01*
X114892810Y-46860232D01*
X114892805Y-46860235D01*
X114805235Y-46947805D01*
X114805232Y-46947810D01*
X114749001Y-47058168D01*
X114748999Y-47058172D01*
X114734500Y-47149720D01*
X35200500Y-47149720D01*
X35200500Y-41905778D01*
X47399500Y-41905778D01*
X47399500Y-42194221D01*
X47399501Y-42194238D01*
X47437149Y-42480206D01*
X47437150Y-42480211D01*
X47437151Y-42480217D01*
X47437152Y-42480219D01*
X47511809Y-42758844D01*
X47511814Y-42758860D01*
X47622191Y-43025336D01*
X47622199Y-43025352D01*
X47766420Y-43275148D01*
X47766431Y-43275164D01*
X47942024Y-43504002D01*
X47942030Y-43504009D01*
X48145990Y-43707969D01*
X48145996Y-43707974D01*
X48374844Y-43883575D01*
X48374851Y-43883579D01*
X48624647Y-44027800D01*
X48624663Y-44027808D01*
X48891139Y-44138185D01*
X48891145Y-44138186D01*
X48891155Y-44138191D01*
X49169783Y-44212849D01*
X49455772Y-44250500D01*
X49455779Y-44250500D01*
X49744221Y-44250500D01*
X49744228Y-44250500D01*
X50030217Y-44212849D01*
X50308845Y-44138191D01*
X50308857Y-44138185D01*
X50308860Y-44138185D01*
X50575336Y-44027808D01*
X50575339Y-44027806D01*
X50575345Y-44027804D01*
X50825156Y-43883575D01*
X51054004Y-43707974D01*
X51257974Y-43504004D01*
X51433575Y-43275156D01*
X51577804Y-43025345D01*
X51668138Y-42807259D01*
X51688185Y-42758860D01*
X51688185Y-42758857D01*
X51688191Y-42758845D01*
X51762849Y-42480217D01*
X51800500Y-42194228D01*
X51800500Y-41905778D01*
X107399500Y-41905778D01*
X107399500Y-42194221D01*
X107399501Y-42194238D01*
X107437149Y-42480206D01*
X107437150Y-42480211D01*
X107437151Y-42480217D01*
X107437152Y-42480219D01*
X107511809Y-42758844D01*
X107511814Y-42758860D01*
X107622191Y-43025336D01*
X107622199Y-43025352D01*
X107766420Y-43275148D01*
X107766431Y-43275164D01*
X107942024Y-43504002D01*
X107942030Y-43504009D01*
X108145990Y-43707969D01*
X108145996Y-43707974D01*
X108374844Y-43883575D01*
X108374851Y-43883579D01*
X108624647Y-44027800D01*
X108624663Y-44027808D01*
X108891139Y-44138185D01*
X108891145Y-44138186D01*
X108891155Y-44138191D01*
X109169783Y-44212849D01*
X109455772Y-44250500D01*
X109455779Y-44250500D01*
X109744221Y-44250500D01*
X109744228Y-44250500D01*
X110030217Y-44212849D01*
X110308845Y-44138191D01*
X110308857Y-44138185D01*
X110308860Y-44138185D01*
X110575336Y-44027808D01*
X110575339Y-44027806D01*
X110575345Y-44027804D01*
X110825156Y-43883575D01*
X111054004Y-43707974D01*
X111257974Y-43504004D01*
X111433575Y-43275156D01*
X111577804Y-43025345D01*
X111668138Y-42807259D01*
X111688185Y-42758860D01*
X111688185Y-42758857D01*
X111688191Y-42758845D01*
X111762849Y-42480217D01*
X111800500Y-42194228D01*
X111800500Y-42069720D01*
X114734500Y-42069720D01*
X114734500Y-44290279D01*
X114748999Y-44381827D01*
X114749000Y-44381830D01*
X114749001Y-44381832D01*
X114805231Y-44492189D01*
X114805233Y-44492191D01*
X114805235Y-44492194D01*
X114892805Y-44579764D01*
X114892807Y-44579765D01*
X114892811Y-44579769D01*
X115003168Y-44635999D01*
X115003170Y-44635999D01*
X115003172Y-44636000D01*
X115094721Y-44650500D01*
X115094726Y-44650500D01*
X116045279Y-44650500D01*
X116136827Y-44636000D01*
X116136827Y-44635999D01*
X116136832Y-44635999D01*
X116247189Y-44579769D01*
X116247194Y-44579764D01*
X116300150Y-44526809D01*
X116334764Y-44492194D01*
X116334769Y-44492189D01*
X116390999Y-44381832D01*
X116391000Y-44381827D01*
X116405500Y-44290279D01*
X116405500Y-42398551D01*
X127135000Y-42398551D01*
X127135000Y-43961447D01*
X127870000Y-43226447D01*
X127870000Y-43232661D01*
X127897259Y-43334394D01*
X127949920Y-43425606D01*
X128024394Y-43500080D01*
X128115606Y-43552741D01*
X128217339Y-43580000D01*
X128223552Y-43580000D01*
X127216592Y-44586958D01*
X127216592Y-44586959D01*
X127277958Y-44688472D01*
X127396528Y-44807042D01*
X127396532Y-44807045D01*
X127540026Y-44893789D01*
X127700123Y-44943677D01*
X127769701Y-44949999D01*
X128770308Y-44949999D01*
X128839875Y-44943678D01*
X128839883Y-44943676D01*
X128999970Y-44893791D01*
X128999972Y-44893790D01*
X129143467Y-44807045D01*
X129143471Y-44807042D01*
X129262040Y-44688473D01*
X129323406Y-44586958D01*
X129323406Y-44586957D01*
X128316448Y-43580000D01*
X128322661Y-43580000D01*
X128424394Y-43552741D01*
X128515606Y-43500080D01*
X128590080Y-43425606D01*
X128642741Y-43334394D01*
X128670000Y-43232661D01*
X128670000Y-43226449D01*
X129404998Y-43961447D01*
X129404999Y-43961446D01*
X129404999Y-42398552D01*
X129404998Y-42398551D01*
X128670000Y-43133550D01*
X128670000Y-43127339D01*
X128642741Y-43025606D01*
X128590080Y-42934394D01*
X128515606Y-42859920D01*
X128424394Y-42807259D01*
X128322661Y-42780000D01*
X128316449Y-42780000D01*
X129323406Y-41773040D01*
X129323406Y-41773039D01*
X129262044Y-41671530D01*
X129143471Y-41552957D01*
X129143467Y-41552954D01*
X128999973Y-41466210D01*
X128839876Y-41416322D01*
X128770298Y-41410000D01*
X127769691Y-41410000D01*
X127700124Y-41416321D01*
X127700116Y-41416323D01*
X127540029Y-41466208D01*
X127540027Y-41466209D01*
X127396532Y-41552954D01*
X127396528Y-41552957D01*
X127277956Y-41671529D01*
X127216592Y-41773039D01*
X127216592Y-41773040D01*
X128223552Y-42780000D01*
X128217339Y-42780000D01*
X128115606Y-42807259D01*
X128024394Y-42859920D01*
X127949920Y-42934394D01*
X127897259Y-43025606D01*
X127870000Y-43127339D01*
X127870000Y-43133551D01*
X127135000Y-42398551D01*
X116405500Y-42398551D01*
X116405500Y-42069720D01*
X116391000Y-41978172D01*
X116390999Y-41978170D01*
X116390999Y-41978168D01*
X116334769Y-41867811D01*
X116334765Y-41867807D01*
X116334764Y-41867805D01*
X116247194Y-41780235D01*
X116247191Y-41780233D01*
X116247189Y-41780231D01*
X116136832Y-41724001D01*
X116136830Y-41724000D01*
X116136827Y-41723999D01*
X116045279Y-41709500D01*
X116045274Y-41709500D01*
X115094726Y-41709500D01*
X115094721Y-41709500D01*
X115003172Y-41723999D01*
X115003168Y-41724001D01*
X114892811Y-41780231D01*
X114892810Y-41780232D01*
X114892805Y-41780235D01*
X114805235Y-41867805D01*
X114805232Y-41867810D01*
X114805231Y-41867811D01*
X114785889Y-41905772D01*
X114749001Y-41978168D01*
X114748999Y-41978172D01*
X114734500Y-42069720D01*
X111800500Y-42069720D01*
X111800500Y-41905772D01*
X111762849Y-41619783D01*
X111688191Y-41341155D01*
X111688186Y-41341145D01*
X111688185Y-41341139D01*
X111577808Y-41074663D01*
X111577800Y-41074647D01*
X111433579Y-40824851D01*
X111433575Y-40824844D01*
X111257974Y-40595996D01*
X111257969Y-40595990D01*
X111054009Y-40392030D01*
X111054002Y-40392024D01*
X110825164Y-40216431D01*
X110825162Y-40216429D01*
X110825156Y-40216425D01*
X110825151Y-40216422D01*
X110825148Y-40216420D01*
X110575352Y-40072199D01*
X110575336Y-40072191D01*
X110308860Y-39961814D01*
X110308848Y-39961810D01*
X110308845Y-39961809D01*
X110030217Y-39887151D01*
X110030211Y-39887150D01*
X110030206Y-39887149D01*
X109744238Y-39849501D01*
X109744233Y-39849500D01*
X109744228Y-39849500D01*
X109455772Y-39849500D01*
X109455766Y-39849500D01*
X109455761Y-39849501D01*
X109169793Y-39887149D01*
X109169786Y-39887150D01*
X109169783Y-39887151D01*
X108891155Y-39961809D01*
X108891139Y-39961814D01*
X108624663Y-40072191D01*
X108624647Y-40072199D01*
X108374851Y-40216420D01*
X108374835Y-40216431D01*
X108145997Y-40392024D01*
X108145990Y-40392030D01*
X107942030Y-40595990D01*
X107942024Y-40595997D01*
X107766431Y-40824835D01*
X107766420Y-40824851D01*
X107622199Y-41074647D01*
X107622191Y-41074663D01*
X107511814Y-41341139D01*
X107511809Y-41341155D01*
X107437152Y-41619780D01*
X107437149Y-41619793D01*
X107399501Y-41905761D01*
X107399500Y-41905778D01*
X51800500Y-41905778D01*
X51800500Y-41905772D01*
X51762849Y-41619783D01*
X51688191Y-41341155D01*
X51688186Y-41341145D01*
X51688185Y-41341139D01*
X51577808Y-41074663D01*
X51577800Y-41074647D01*
X51433579Y-40824851D01*
X51433575Y-40824844D01*
X51257974Y-40595996D01*
X51257969Y-40595990D01*
X51054009Y-40392030D01*
X51054002Y-40392024D01*
X50825164Y-40216431D01*
X50825162Y-40216429D01*
X50825156Y-40216425D01*
X50825151Y-40216422D01*
X50825148Y-40216420D01*
X50575352Y-40072199D01*
X50575336Y-40072191D01*
X50308860Y-39961814D01*
X50308848Y-39961810D01*
X50308845Y-39961809D01*
X50030217Y-39887151D01*
X50030211Y-39887150D01*
X50030206Y-39887149D01*
X49744238Y-39849501D01*
X49744233Y-39849500D01*
X49744228Y-39849500D01*
X49455772Y-39849500D01*
X49455766Y-39849500D01*
X49455761Y-39849501D01*
X49169793Y-39887149D01*
X49169786Y-39887150D01*
X49169783Y-39887151D01*
X48891155Y-39961809D01*
X48891139Y-39961814D01*
X48624663Y-40072191D01*
X48624647Y-40072199D01*
X48374851Y-40216420D01*
X48374835Y-40216431D01*
X48145997Y-40392024D01*
X48145990Y-40392030D01*
X47942030Y-40595990D01*
X47942024Y-40595997D01*
X47766431Y-40824835D01*
X47766420Y-40824851D01*
X47622199Y-41074647D01*
X47622191Y-41074663D01*
X47511814Y-41341139D01*
X47511809Y-41341155D01*
X47437152Y-41619780D01*
X47437149Y-41619793D01*
X47399501Y-41905761D01*
X47399500Y-41905778D01*
X35200500Y-41905778D01*
X35200500Y-34828681D01*
X36949500Y-34828681D01*
X36949500Y-35171318D01*
X36987858Y-35511768D01*
X36987861Y-35511782D01*
X37064102Y-35845816D01*
X37064103Y-35845818D01*
X37177264Y-36169216D01*
X37325922Y-36477907D01*
X37325924Y-36477910D01*
X37508211Y-36768018D01*
X37721834Y-37035893D01*
X37964107Y-37278166D01*
X38231982Y-37491789D01*
X38522090Y-37674076D01*
X38830785Y-37822736D01*
X39154183Y-37935897D01*
X39488217Y-38012139D01*
X39488226Y-38012140D01*
X39488231Y-38012141D01*
X39715197Y-38037713D01*
X39828682Y-38050499D01*
X39828685Y-38050500D01*
X39828688Y-38050500D01*
X40171315Y-38050500D01*
X40171316Y-38050499D01*
X40345311Y-38030895D01*
X40511768Y-38012141D01*
X40511771Y-38012140D01*
X40511783Y-38012139D01*
X40845817Y-37935897D01*
X41169215Y-37822736D01*
X41477910Y-37674076D01*
X41768018Y-37491789D01*
X42035893Y-37278166D01*
X42278166Y-37035893D01*
X42491789Y-36768018D01*
X42674076Y-36477910D01*
X42822736Y-36169215D01*
X42935897Y-35845817D01*
X43012139Y-35511783D01*
X43050500Y-35171312D01*
X43050500Y-34828688D01*
X43050499Y-34828681D01*
X86949500Y-34828681D01*
X86949500Y-35171318D01*
X86987858Y-35511768D01*
X86987861Y-35511782D01*
X87064102Y-35845816D01*
X87064103Y-35845818D01*
X87177264Y-36169216D01*
X87325922Y-36477907D01*
X87325924Y-36477910D01*
X87508211Y-36768018D01*
X87721834Y-37035893D01*
X87964107Y-37278166D01*
X88231982Y-37491789D01*
X88522090Y-37674076D01*
X88830785Y-37822736D01*
X89154183Y-37935897D01*
X89488217Y-38012139D01*
X89488226Y-38012140D01*
X89488231Y-38012141D01*
X89715197Y-38037713D01*
X89828682Y-38050499D01*
X89828685Y-38050500D01*
X89828688Y-38050500D01*
X90171315Y-38050500D01*
X90171316Y-38050499D01*
X90345311Y-38030895D01*
X90511768Y-38012141D01*
X90511771Y-38012140D01*
X90511783Y-38012139D01*
X90845817Y-37935897D01*
X91169215Y-37822736D01*
X91477910Y-37674076D01*
X91768018Y-37491789D01*
X92035893Y-37278166D01*
X92278166Y-37035893D01*
X92491789Y-36768018D01*
X92674076Y-36477910D01*
X92822736Y-36169215D01*
X92935897Y-35845817D01*
X93012139Y-35511783D01*
X93050500Y-35171312D01*
X93050500Y-34828688D01*
X93050499Y-34828681D01*
X131949500Y-34828681D01*
X131949500Y-35171318D01*
X131987858Y-35511768D01*
X131987861Y-35511782D01*
X132064102Y-35845816D01*
X132064103Y-35845818D01*
X132177264Y-36169216D01*
X132325922Y-36477907D01*
X132325924Y-36477910D01*
X132508211Y-36768018D01*
X132721834Y-37035893D01*
X132964107Y-37278166D01*
X133231982Y-37491789D01*
X133522090Y-37674076D01*
X133830785Y-37822736D01*
X134154183Y-37935897D01*
X134488217Y-38012139D01*
X134488226Y-38012140D01*
X134488231Y-38012141D01*
X134715197Y-38037713D01*
X134828682Y-38050499D01*
X134828685Y-38050500D01*
X134828688Y-38050500D01*
X135171315Y-38050500D01*
X135171316Y-38050499D01*
X135345311Y-38030895D01*
X135511768Y-38012141D01*
X135511771Y-38012140D01*
X135511783Y-38012139D01*
X135845817Y-37935897D01*
X136169215Y-37822736D01*
X136477910Y-37674076D01*
X136768018Y-37491789D01*
X137035893Y-37278166D01*
X137278166Y-37035893D01*
X137491789Y-36768018D01*
X137674076Y-36477910D01*
X137822736Y-36169215D01*
X137935897Y-35845817D01*
X138012139Y-35511783D01*
X138050500Y-35171312D01*
X138050500Y-34828688D01*
X138012139Y-34488217D01*
X137935897Y-34154183D01*
X137822736Y-33830785D01*
X137674076Y-33522090D01*
X137491789Y-33231982D01*
X137278166Y-32964107D01*
X137035893Y-32721834D01*
X136768018Y-32508211D01*
X136477910Y-32325924D01*
X136477907Y-32325922D01*
X136169216Y-32177264D01*
X135845818Y-32064103D01*
X135845816Y-32064102D01*
X135588024Y-32005262D01*
X135511783Y-31987861D01*
X135511780Y-31987860D01*
X135511768Y-31987858D01*
X135171318Y-31949500D01*
X135171312Y-31949500D01*
X134828688Y-31949500D01*
X134828681Y-31949500D01*
X134488231Y-31987858D01*
X134488217Y-31987861D01*
X134154183Y-32064102D01*
X134154181Y-32064103D01*
X133830783Y-32177264D01*
X133522092Y-32325922D01*
X133231983Y-32508210D01*
X132964107Y-32721833D01*
X132721833Y-32964107D01*
X132508210Y-33231983D01*
X132325922Y-33522092D01*
X132177264Y-33830783D01*
X132064103Y-34154181D01*
X132064102Y-34154183D01*
X131987861Y-34488217D01*
X131987858Y-34488231D01*
X131949500Y-34828681D01*
X93050499Y-34828681D01*
X93012139Y-34488217D01*
X92935897Y-34154183D01*
X92822736Y-33830785D01*
X92674076Y-33522090D01*
X92491789Y-33231982D01*
X92278166Y-32964107D01*
X92035893Y-32721834D01*
X91768018Y-32508211D01*
X91477910Y-32325924D01*
X91477907Y-32325922D01*
X91169216Y-32177264D01*
X90845818Y-32064103D01*
X90845816Y-32064102D01*
X90588024Y-32005262D01*
X90511783Y-31987861D01*
X90511780Y-31987860D01*
X90511768Y-31987858D01*
X90171318Y-31949500D01*
X90171312Y-31949500D01*
X89828688Y-31949500D01*
X89828681Y-31949500D01*
X89488231Y-31987858D01*
X89488217Y-31987861D01*
X89154183Y-32064102D01*
X89154181Y-32064103D01*
X88830783Y-32177264D01*
X88522092Y-32325922D01*
X88231983Y-32508210D01*
X87964107Y-32721833D01*
X87721833Y-32964107D01*
X87508210Y-33231983D01*
X87325922Y-33522092D01*
X87177264Y-33830783D01*
X87064103Y-34154181D01*
X87064102Y-34154183D01*
X86987861Y-34488217D01*
X86987858Y-34488231D01*
X86949500Y-34828681D01*
X43050499Y-34828681D01*
X43012139Y-34488217D01*
X42935897Y-34154183D01*
X42822736Y-33830785D01*
X42674076Y-33522090D01*
X42491789Y-33231982D01*
X42278166Y-32964107D01*
X42035893Y-32721834D01*
X41768018Y-32508211D01*
X41477910Y-32325924D01*
X41477907Y-32325922D01*
X41169216Y-32177264D01*
X40845818Y-32064103D01*
X40845816Y-32064102D01*
X40588024Y-32005262D01*
X40511783Y-31987861D01*
X40511780Y-31987860D01*
X40511768Y-31987858D01*
X40171318Y-31949500D01*
X40171312Y-31949500D01*
X39828688Y-31949500D01*
X39828681Y-31949500D01*
X39488231Y-31987858D01*
X39488217Y-31987861D01*
X39154183Y-32064102D01*
X39154181Y-32064103D01*
X38830783Y-32177264D01*
X38522092Y-32325922D01*
X38231983Y-32508210D01*
X37964107Y-32721833D01*
X37721833Y-32964107D01*
X37508210Y-33231983D01*
X37325922Y-33522092D01*
X37177264Y-33830783D01*
X37064103Y-34154181D01*
X37064102Y-34154183D01*
X36987861Y-34488217D01*
X36987858Y-34488231D01*
X36949500Y-34828681D01*
X35200500Y-34828681D01*
X35200500Y-30324500D01*
X35220185Y-30257461D01*
X35272989Y-30211706D01*
X35324500Y-30200500D01*
X139675500Y-30200500D01*
X139742539Y-30220185D01*
G37*
%TD.AperFunction*%
%TD*%
M02*
