%TF.GenerationSoftware,KiCad,Pcbnew,9.0.2*%
%TF.CreationDate,2025-05-12T22:54:16+08:00*%
%TF.ProjectId,paxclock_a,70617863-6c6f-4636-9b5f-612e6b696361,rev?*%
%TF.SameCoordinates,Original*%
%TF.FileFunction,Drillmap*%
%TF.FilePolarity,Positive*%
%FSLAX45Y45*%
G04 Gerber Fmt 4.5, Leading zero omitted, Abs format (unit mm)*
G04 Created by KiCad (PCBNEW 9.0.2) date 2025-05-12 22:54:16*
%MOMM*%
%LPD*%
G01*
G04 APERTURE LIST*
%ADD10C,0.038100*%
%ADD11C,0.100000*%
%ADD12C,0.200000*%
%ADD13C,0.150000*%
%ADD14C,0.320000*%
%ADD15C,0.330000*%
G04 APERTURE END LIST*
D10*
X14000000Y-13500000D02*
X3500000Y-13500000D01*
D11*
X14000000Y-13500000D02*
X14000000Y-3000000D01*
D10*
X3500000Y-13500000D02*
X3500000Y-3000000D01*
X14000000Y-3000000D02*
X3500000Y-3000000D01*
D12*
D11*
X3793300Y-10615300D02*
X3873300Y-10695300D01*
X3873300Y-10615300D02*
X3793300Y-10695300D01*
X3793300Y-12177400D02*
X3873300Y-12257400D01*
X3873300Y-12177400D02*
X3793300Y-12257400D01*
X4047300Y-10615300D02*
X4127300Y-10695300D01*
X4127300Y-10615300D02*
X4047300Y-10695300D01*
X4047300Y-12177400D02*
X4127300Y-12257400D01*
X4127300Y-12177400D02*
X4047300Y-12257400D01*
X4301300Y-10615300D02*
X4381300Y-10695300D01*
X4381300Y-10615300D02*
X4301300Y-10695300D01*
X4301300Y-12177400D02*
X4381300Y-12257400D01*
X4381300Y-12177400D02*
X4301300Y-12257400D01*
X4555300Y-10615300D02*
X4635300Y-10695300D01*
X4635300Y-10615300D02*
X4555300Y-10695300D01*
X4555300Y-12177400D02*
X4635300Y-12257400D01*
X4635300Y-12177400D02*
X4555300Y-12257400D01*
X4809300Y-10615300D02*
X4889300Y-10695300D01*
X4889300Y-10615300D02*
X4809300Y-10695300D01*
X4809300Y-12177400D02*
X4889300Y-12257400D01*
X4889300Y-12177400D02*
X4809300Y-12257400D01*
X4920000Y-4910000D02*
X5000000Y-4990000D01*
X5000000Y-4910000D02*
X4920000Y-4990000D01*
X4920000Y-5164000D02*
X5000000Y-5244000D01*
X5000000Y-5164000D02*
X4920000Y-5244000D01*
X4920000Y-5418000D02*
X5000000Y-5498000D01*
X5000000Y-5418000D02*
X4920000Y-5498000D01*
X4920000Y-5672000D02*
X5000000Y-5752000D01*
X5000000Y-5672000D02*
X4920000Y-5752000D01*
X4920000Y-8090000D02*
X5000000Y-8170000D01*
X5000000Y-8090000D02*
X4920000Y-8170000D01*
X4920000Y-8344000D02*
X5000000Y-8424000D01*
X5000000Y-8344000D02*
X4920000Y-8424000D01*
X4920000Y-8598000D02*
X5000000Y-8678000D01*
X5000000Y-8598000D02*
X4920000Y-8678000D01*
X4920000Y-8852000D02*
X5000000Y-8932000D01*
X5000000Y-8852000D02*
X4920000Y-8932000D01*
X5063300Y-10615300D02*
X5143300Y-10695300D01*
X5143300Y-10615300D02*
X5063300Y-10695300D01*
X5063300Y-12177400D02*
X5143300Y-12257400D01*
X5143300Y-12177400D02*
X5063300Y-12257400D01*
X5317300Y-10615300D02*
X5397300Y-10695300D01*
X5397300Y-10615300D02*
X5317300Y-10695300D01*
X5317300Y-12177400D02*
X5397300Y-12257400D01*
X5397300Y-12177400D02*
X5317300Y-12257400D01*
X5571300Y-10615300D02*
X5651300Y-10695300D01*
X5651300Y-10615300D02*
X5571300Y-10695300D01*
X5571300Y-12177400D02*
X5651300Y-12257400D01*
X5651300Y-12177400D02*
X5571300Y-12257400D01*
X6168000Y-10725000D02*
X6248000Y-10805000D01*
X6248000Y-10725000D02*
X6168000Y-10805000D01*
X6168000Y-10979000D02*
X6248000Y-11059000D01*
X6248000Y-10979000D02*
X6168000Y-11059000D01*
X6168000Y-11233000D02*
X6248000Y-11313000D01*
X6248000Y-11233000D02*
X6168000Y-11313000D01*
X6168000Y-11487000D02*
X6248000Y-11567000D01*
X6248000Y-11487000D02*
X6168000Y-11567000D01*
X6168000Y-11741000D02*
X6248000Y-11821000D01*
X6248000Y-11741000D02*
X6168000Y-11821000D01*
X6168000Y-11995000D02*
X6248000Y-12075000D01*
X6248000Y-11995000D02*
X6168000Y-12075000D01*
X9773000Y-10982000D02*
X9853000Y-11062000D01*
X9853000Y-10982000D02*
X9773000Y-11062000D01*
X9773000Y-11236000D02*
X9853000Y-11316000D01*
X9853000Y-11236000D02*
X9773000Y-11316000D01*
X9773000Y-11490000D02*
X9853000Y-11570000D01*
X9853000Y-11490000D02*
X9773000Y-11570000D01*
X9773000Y-11744000D02*
X9853000Y-11824000D01*
X9853000Y-11744000D02*
X9773000Y-11824000D01*
X10600000Y-4910000D02*
X10680000Y-4990000D01*
X10680000Y-4910000D02*
X10600000Y-4990000D01*
X10600000Y-5164000D02*
X10680000Y-5244000D01*
X10680000Y-5164000D02*
X10600000Y-5244000D01*
X10600000Y-5418000D02*
X10680000Y-5498000D01*
X10680000Y-5418000D02*
X10600000Y-5498000D01*
X10600000Y-5672000D02*
X10680000Y-5752000D01*
X10680000Y-5672000D02*
X10600000Y-5752000D01*
X10600000Y-8090000D02*
X10680000Y-8170000D01*
X10680000Y-8090000D02*
X10600000Y-8170000D01*
X10600000Y-8344000D02*
X10680000Y-8424000D01*
X10680000Y-8344000D02*
X10600000Y-8424000D01*
X10600000Y-8598000D02*
X10680000Y-8678000D01*
X10680000Y-8598000D02*
X10600000Y-8678000D01*
X10600000Y-8852000D02*
X10680000Y-8932000D01*
X10680000Y-8852000D02*
X10600000Y-8932000D01*
X11517000Y-4278000D02*
X11597000Y-4358000D01*
X11597000Y-4278000D02*
X11517000Y-4358000D01*
X11517000Y-4786000D02*
X11597000Y-4866000D01*
X11597000Y-4786000D02*
X11517000Y-4866000D01*
X11517000Y-6056000D02*
X11597000Y-6136000D01*
X11597000Y-6056000D02*
X11517000Y-6136000D01*
X11517000Y-6564000D02*
X11597000Y-6644000D01*
X11597000Y-6564000D02*
X11517000Y-6644000D01*
X11517000Y-7834000D02*
X11597000Y-7914000D01*
X11597000Y-7834000D02*
X11517000Y-7914000D01*
X11517000Y-8342000D02*
X11597000Y-8422000D01*
X11597000Y-8342000D02*
X11517000Y-8422000D01*
X12787000Y-4278000D02*
X12867000Y-4358000D01*
X12867000Y-4278000D02*
X12787000Y-4358000D01*
X12787000Y-4786000D02*
X12867000Y-4866000D01*
X12867000Y-4786000D02*
X12787000Y-4866000D01*
X12787000Y-6056000D02*
X12867000Y-6136000D01*
X12867000Y-6056000D02*
X12787000Y-6136000D01*
X12787000Y-6564000D02*
X12867000Y-6644000D01*
X12867000Y-6564000D02*
X12787000Y-6644000D01*
X12787000Y-7834000D02*
X12867000Y-7914000D01*
X12867000Y-7834000D02*
X12787000Y-7914000D01*
X12787000Y-8342000D02*
X12867000Y-8422000D01*
X12867000Y-8342000D02*
X12787000Y-8422000D01*
X12116000Y-10796000D02*
G75*
G02*
X12016000Y-10796000I-50000J0D01*
G01*
X12016000Y-10796000D02*
G75*
G02*
X12116000Y-10796000I50000J0D01*
G01*
X12116000Y-11556000D02*
G75*
G02*
X12016000Y-11556000I-50000J0D01*
G01*
X12016000Y-11556000D02*
G75*
G02*
X12116000Y-11556000I50000J0D01*
G01*
D13*
X4100000Y-8805000D02*
X4100000Y-8955000D01*
X4025000Y-8880000D02*
X4175000Y-8880000D01*
X10500000Y-12135000D02*
X10500000Y-12285000D01*
X10425000Y-12210000D02*
X10575000Y-12210000D01*
X10670000Y-10615000D02*
X10670000Y-10765000D01*
X10595000Y-10690000D02*
X10745000Y-10690000D01*
X11684000Y-9323000D02*
X11684000Y-9473000D01*
X11609000Y-9398000D02*
X11759000Y-9398000D01*
X11684000Y-10085000D02*
X11684000Y-10235000D01*
X11609000Y-10160000D02*
X11759000Y-10160000D01*
X12446000Y-9323000D02*
X12446000Y-9473000D01*
X12371000Y-9398000D02*
X12521000Y-9398000D01*
X12446000Y-10085000D02*
X12446000Y-10235000D01*
X12371000Y-10160000D02*
X12521000Y-10160000D01*
D12*
X6920711Y-10570711D02*
X6920711Y-10429289D01*
X6779289Y-10429289D01*
X6779289Y-10570711D01*
X6920711Y-10570711D01*
X6920711Y-12370711D02*
X6920711Y-12229289D01*
X6779289Y-12229289D01*
X6779289Y-12370711D01*
X6920711Y-12370711D01*
X9570711Y-10570711D02*
X9570711Y-10429289D01*
X9429289Y-10429289D01*
X9429289Y-10570711D01*
X9570711Y-10570711D01*
D14*
X4000000Y-3660000D02*
X4160000Y-3500000D01*
X4000000Y-3340000D01*
X3840000Y-3500000D01*
X4000000Y-3660000D01*
X4000000Y-8160000D02*
X4160000Y-8000000D01*
X4000000Y-7840000D01*
X3840000Y-8000000D01*
X4000000Y-8160000D01*
X4000000Y-13160000D02*
X4160000Y-13000000D01*
X4000000Y-12840000D01*
X3840000Y-13000000D01*
X4000000Y-13160000D01*
X9000000Y-3660000D02*
X9160000Y-3500000D01*
X9000000Y-3340000D01*
X8840000Y-3500000D01*
X9000000Y-3660000D01*
X9000000Y-13160000D02*
X9160000Y-13000000D01*
X9000000Y-12840000D01*
X8840000Y-13000000D01*
X9000000Y-13160000D01*
X13500000Y-3660000D02*
X13660000Y-3500000D01*
X13500000Y-3340000D01*
X13340000Y-3500000D01*
X13500000Y-3660000D01*
X13500000Y-8160000D02*
X13660000Y-8000000D01*
X13500000Y-7840000D01*
X13340000Y-8000000D01*
X13500000Y-8160000D01*
X13500000Y-13160000D02*
X13660000Y-13000000D01*
X13500000Y-12840000D01*
X13340000Y-13000000D01*
X13500000Y-13160000D01*
D15*
X4795000Y-4040000D02*
X5125000Y-4370000D01*
X5125000Y-4040000D02*
X4795000Y-4370000D01*
X5125000Y-4205000D02*
G75*
G02*
X4795000Y-4205000I-165000J0D01*
G01*
X4795000Y-4205000D02*
G75*
G02*
X5125000Y-4205000I165000J0D01*
G01*
X4795000Y-6190000D02*
X5125000Y-6520000D01*
X5125000Y-6190000D02*
X4795000Y-6520000D01*
X5125000Y-6355000D02*
G75*
G02*
X4795000Y-6355000I-165000J0D01*
G01*
X4795000Y-6355000D02*
G75*
G02*
X5125000Y-6355000I165000J0D01*
G01*
X4795000Y-7220000D02*
X5125000Y-7550000D01*
X5125000Y-7220000D02*
X4795000Y-7550000D01*
X5125000Y-7385000D02*
G75*
G02*
X4795000Y-7385000I-165000J0D01*
G01*
X4795000Y-7385000D02*
G75*
G02*
X5125000Y-7385000I165000J0D01*
G01*
X4795000Y-9370000D02*
X5125000Y-9700000D01*
X5125000Y-9370000D02*
X4795000Y-9700000D01*
X5125000Y-9535000D02*
G75*
G02*
X4795000Y-9535000I-165000J0D01*
G01*
X4795000Y-9535000D02*
G75*
G02*
X5125000Y-9535000I165000J0D01*
G01*
X10795000Y-4040000D02*
X11125000Y-4370000D01*
X11125000Y-4040000D02*
X10795000Y-4370000D01*
X11125000Y-4205000D02*
G75*
G02*
X10795000Y-4205000I-165000J0D01*
G01*
X10795000Y-4205000D02*
G75*
G02*
X11125000Y-4205000I165000J0D01*
G01*
X10795000Y-6190000D02*
X11125000Y-6520000D01*
X11125000Y-6190000D02*
X10795000Y-6520000D01*
X11125000Y-6355000D02*
G75*
G02*
X10795000Y-6355000I-165000J0D01*
G01*
X10795000Y-6355000D02*
G75*
G02*
X11125000Y-6355000I165000J0D01*
G01*
X10795000Y-7220000D02*
X11125000Y-7550000D01*
X11125000Y-7220000D02*
X10795000Y-7550000D01*
X11125000Y-7385000D02*
G75*
G02*
X10795000Y-7385000I-165000J0D01*
G01*
X10795000Y-7385000D02*
G75*
G02*
X11125000Y-7385000I165000J0D01*
G01*
X10795000Y-9370000D02*
X11125000Y-9700000D01*
X11125000Y-9370000D02*
X10795000Y-9700000D01*
X11125000Y-9535000D02*
G75*
G02*
X10795000Y-9535000I-165000J0D01*
G01*
X10795000Y-9535000D02*
G75*
G02*
X11125000Y-9535000I165000J0D01*
G01*
D12*
X3758872Y-13816484D02*
X3758872Y-13616484D01*
X3758872Y-13616484D02*
X3806491Y-13616484D01*
X3806491Y-13616484D02*
X3835062Y-13626008D01*
X3835062Y-13626008D02*
X3854110Y-13645055D01*
X3854110Y-13645055D02*
X3863634Y-13664103D01*
X3863634Y-13664103D02*
X3873157Y-13702198D01*
X3873157Y-13702198D02*
X3873157Y-13730769D01*
X3873157Y-13730769D02*
X3863634Y-13768865D01*
X3863634Y-13768865D02*
X3854110Y-13787912D01*
X3854110Y-13787912D02*
X3835062Y-13806960D01*
X3835062Y-13806960D02*
X3806491Y-13816484D01*
X3806491Y-13816484D02*
X3758872Y-13816484D01*
X3958872Y-13816484D02*
X3958872Y-13683150D01*
X3958872Y-13721246D02*
X3968396Y-13702198D01*
X3968396Y-13702198D02*
X3977919Y-13692674D01*
X3977919Y-13692674D02*
X3996967Y-13683150D01*
X3996967Y-13683150D02*
X4016015Y-13683150D01*
X4082681Y-13816484D02*
X4082681Y-13683150D01*
X4082681Y-13616484D02*
X4073157Y-13626008D01*
X4073157Y-13626008D02*
X4082681Y-13635531D01*
X4082681Y-13635531D02*
X4092205Y-13626008D01*
X4092205Y-13626008D02*
X4082681Y-13616484D01*
X4082681Y-13616484D02*
X4082681Y-13635531D01*
X4206491Y-13816484D02*
X4187443Y-13806960D01*
X4187443Y-13806960D02*
X4177919Y-13787912D01*
X4177919Y-13787912D02*
X4177919Y-13616484D01*
X4311253Y-13816484D02*
X4292205Y-13806960D01*
X4292205Y-13806960D02*
X4282681Y-13787912D01*
X4282681Y-13787912D02*
X4282681Y-13616484D01*
X4539824Y-13816484D02*
X4539824Y-13616484D01*
X4539824Y-13616484D02*
X4606491Y-13759341D01*
X4606491Y-13759341D02*
X4673158Y-13616484D01*
X4673158Y-13616484D02*
X4673158Y-13816484D01*
X4854110Y-13816484D02*
X4854110Y-13711722D01*
X4854110Y-13711722D02*
X4844586Y-13692674D01*
X4844586Y-13692674D02*
X4825539Y-13683150D01*
X4825539Y-13683150D02*
X4787443Y-13683150D01*
X4787443Y-13683150D02*
X4768396Y-13692674D01*
X4854110Y-13806960D02*
X4835062Y-13816484D01*
X4835062Y-13816484D02*
X4787443Y-13816484D01*
X4787443Y-13816484D02*
X4768396Y-13806960D01*
X4768396Y-13806960D02*
X4758872Y-13787912D01*
X4758872Y-13787912D02*
X4758872Y-13768865D01*
X4758872Y-13768865D02*
X4768396Y-13749817D01*
X4768396Y-13749817D02*
X4787443Y-13740293D01*
X4787443Y-13740293D02*
X4835062Y-13740293D01*
X4835062Y-13740293D02*
X4854110Y-13730769D01*
X4949348Y-13683150D02*
X4949348Y-13883150D01*
X4949348Y-13692674D02*
X4968396Y-13683150D01*
X4968396Y-13683150D02*
X5006491Y-13683150D01*
X5006491Y-13683150D02*
X5025539Y-13692674D01*
X5025539Y-13692674D02*
X5035062Y-13702198D01*
X5035062Y-13702198D02*
X5044586Y-13721246D01*
X5044586Y-13721246D02*
X5044586Y-13778388D01*
X5044586Y-13778388D02*
X5035062Y-13797436D01*
X5035062Y-13797436D02*
X5025539Y-13806960D01*
X5025539Y-13806960D02*
X5006491Y-13816484D01*
X5006491Y-13816484D02*
X4968396Y-13816484D01*
X4968396Y-13816484D02*
X4949348Y-13806960D01*
X5130300Y-13797436D02*
X5139824Y-13806960D01*
X5139824Y-13806960D02*
X5130300Y-13816484D01*
X5130300Y-13816484D02*
X5120777Y-13806960D01*
X5120777Y-13806960D02*
X5130300Y-13797436D01*
X5130300Y-13797436D02*
X5130300Y-13816484D01*
X5130300Y-13692674D02*
X5139824Y-13702198D01*
X5139824Y-13702198D02*
X5130300Y-13711722D01*
X5130300Y-13711722D02*
X5120777Y-13702198D01*
X5120777Y-13702198D02*
X5130300Y-13692674D01*
X5130300Y-13692674D02*
X5130300Y-13711722D01*
D11*
X3418095Y-14105000D02*
X3498095Y-14185000D01*
X3498095Y-14105000D02*
X3418095Y-14185000D01*
D12*
X3796967Y-14036484D02*
X3816015Y-14036484D01*
X3816015Y-14036484D02*
X3835062Y-14046008D01*
X3835062Y-14046008D02*
X3844586Y-14055531D01*
X3844586Y-14055531D02*
X3854110Y-14074579D01*
X3854110Y-14074579D02*
X3863634Y-14112674D01*
X3863634Y-14112674D02*
X3863634Y-14160293D01*
X3863634Y-14160293D02*
X3854110Y-14198388D01*
X3854110Y-14198388D02*
X3844586Y-14217436D01*
X3844586Y-14217436D02*
X3835062Y-14226960D01*
X3835062Y-14226960D02*
X3816015Y-14236484D01*
X3816015Y-14236484D02*
X3796967Y-14236484D01*
X3796967Y-14236484D02*
X3777919Y-14226960D01*
X3777919Y-14226960D02*
X3768396Y-14217436D01*
X3768396Y-14217436D02*
X3758872Y-14198388D01*
X3758872Y-14198388D02*
X3749348Y-14160293D01*
X3749348Y-14160293D02*
X3749348Y-14112674D01*
X3749348Y-14112674D02*
X3758872Y-14074579D01*
X3758872Y-14074579D02*
X3768396Y-14055531D01*
X3768396Y-14055531D02*
X3777919Y-14046008D01*
X3777919Y-14046008D02*
X3796967Y-14036484D01*
X3949348Y-14217436D02*
X3958872Y-14226960D01*
X3958872Y-14226960D02*
X3949348Y-14236484D01*
X3949348Y-14236484D02*
X3939824Y-14226960D01*
X3939824Y-14226960D02*
X3949348Y-14217436D01*
X3949348Y-14217436D02*
X3949348Y-14236484D01*
X4073157Y-14122198D02*
X4054110Y-14112674D01*
X4054110Y-14112674D02*
X4044586Y-14103150D01*
X4044586Y-14103150D02*
X4035062Y-14084103D01*
X4035062Y-14084103D02*
X4035062Y-14074579D01*
X4035062Y-14074579D02*
X4044586Y-14055531D01*
X4044586Y-14055531D02*
X4054110Y-14046008D01*
X4054110Y-14046008D02*
X4073157Y-14036484D01*
X4073157Y-14036484D02*
X4111253Y-14036484D01*
X4111253Y-14036484D02*
X4130300Y-14046008D01*
X4130300Y-14046008D02*
X4139824Y-14055531D01*
X4139824Y-14055531D02*
X4149348Y-14074579D01*
X4149348Y-14074579D02*
X4149348Y-14084103D01*
X4149348Y-14084103D02*
X4139824Y-14103150D01*
X4139824Y-14103150D02*
X4130300Y-14112674D01*
X4130300Y-14112674D02*
X4111253Y-14122198D01*
X4111253Y-14122198D02*
X4073157Y-14122198D01*
X4073157Y-14122198D02*
X4054110Y-14131722D01*
X4054110Y-14131722D02*
X4044586Y-14141246D01*
X4044586Y-14141246D02*
X4035062Y-14160293D01*
X4035062Y-14160293D02*
X4035062Y-14198388D01*
X4035062Y-14198388D02*
X4044586Y-14217436D01*
X4044586Y-14217436D02*
X4054110Y-14226960D01*
X4054110Y-14226960D02*
X4073157Y-14236484D01*
X4073157Y-14236484D02*
X4111253Y-14236484D01*
X4111253Y-14236484D02*
X4130300Y-14226960D01*
X4130300Y-14226960D02*
X4139824Y-14217436D01*
X4139824Y-14217436D02*
X4149348Y-14198388D01*
X4149348Y-14198388D02*
X4149348Y-14160293D01*
X4149348Y-14160293D02*
X4139824Y-14141246D01*
X4139824Y-14141246D02*
X4130300Y-14131722D01*
X4130300Y-14131722D02*
X4111253Y-14122198D01*
X4273158Y-14036484D02*
X4292205Y-14036484D01*
X4292205Y-14036484D02*
X4311253Y-14046008D01*
X4311253Y-14046008D02*
X4320777Y-14055531D01*
X4320777Y-14055531D02*
X4330300Y-14074579D01*
X4330300Y-14074579D02*
X4339824Y-14112674D01*
X4339824Y-14112674D02*
X4339824Y-14160293D01*
X4339824Y-14160293D02*
X4330300Y-14198388D01*
X4330300Y-14198388D02*
X4320777Y-14217436D01*
X4320777Y-14217436D02*
X4311253Y-14226960D01*
X4311253Y-14226960D02*
X4292205Y-14236484D01*
X4292205Y-14236484D02*
X4273158Y-14236484D01*
X4273158Y-14236484D02*
X4254110Y-14226960D01*
X4254110Y-14226960D02*
X4244586Y-14217436D01*
X4244586Y-14217436D02*
X4235062Y-14198388D01*
X4235062Y-14198388D02*
X4225539Y-14160293D01*
X4225539Y-14160293D02*
X4225539Y-14112674D01*
X4225539Y-14112674D02*
X4235062Y-14074579D01*
X4235062Y-14074579D02*
X4244586Y-14055531D01*
X4244586Y-14055531D02*
X4254110Y-14046008D01*
X4254110Y-14046008D02*
X4273158Y-14036484D01*
X4463634Y-14036484D02*
X4482681Y-14036484D01*
X4482681Y-14036484D02*
X4501729Y-14046008D01*
X4501729Y-14046008D02*
X4511253Y-14055531D01*
X4511253Y-14055531D02*
X4520777Y-14074579D01*
X4520777Y-14074579D02*
X4530300Y-14112674D01*
X4530300Y-14112674D02*
X4530300Y-14160293D01*
X4530300Y-14160293D02*
X4520777Y-14198388D01*
X4520777Y-14198388D02*
X4511253Y-14217436D01*
X4511253Y-14217436D02*
X4501729Y-14226960D01*
X4501729Y-14226960D02*
X4482681Y-14236484D01*
X4482681Y-14236484D02*
X4463634Y-14236484D01*
X4463634Y-14236484D02*
X4444586Y-14226960D01*
X4444586Y-14226960D02*
X4435062Y-14217436D01*
X4435062Y-14217436D02*
X4425539Y-14198388D01*
X4425539Y-14198388D02*
X4416015Y-14160293D01*
X4416015Y-14160293D02*
X4416015Y-14112674D01*
X4416015Y-14112674D02*
X4425539Y-14074579D01*
X4425539Y-14074579D02*
X4435062Y-14055531D01*
X4435062Y-14055531D02*
X4444586Y-14046008D01*
X4444586Y-14046008D02*
X4463634Y-14036484D01*
X4616015Y-14236484D02*
X4616015Y-14103150D01*
X4616015Y-14122198D02*
X4625539Y-14112674D01*
X4625539Y-14112674D02*
X4644586Y-14103150D01*
X4644586Y-14103150D02*
X4673158Y-14103150D01*
X4673158Y-14103150D02*
X4692205Y-14112674D01*
X4692205Y-14112674D02*
X4701729Y-14131722D01*
X4701729Y-14131722D02*
X4701729Y-14236484D01*
X4701729Y-14131722D02*
X4711253Y-14112674D01*
X4711253Y-14112674D02*
X4730300Y-14103150D01*
X4730300Y-14103150D02*
X4758872Y-14103150D01*
X4758872Y-14103150D02*
X4777920Y-14112674D01*
X4777920Y-14112674D02*
X4787443Y-14131722D01*
X4787443Y-14131722D02*
X4787443Y-14236484D01*
X4882681Y-14236484D02*
X4882681Y-14103150D01*
X4882681Y-14122198D02*
X4892205Y-14112674D01*
X4892205Y-14112674D02*
X4911253Y-14103150D01*
X4911253Y-14103150D02*
X4939824Y-14103150D01*
X4939824Y-14103150D02*
X4958872Y-14112674D01*
X4958872Y-14112674D02*
X4968396Y-14131722D01*
X4968396Y-14131722D02*
X4968396Y-14236484D01*
X4968396Y-14131722D02*
X4977920Y-14112674D01*
X4977920Y-14112674D02*
X4996967Y-14103150D01*
X4996967Y-14103150D02*
X5025539Y-14103150D01*
X5025539Y-14103150D02*
X5044586Y-14112674D01*
X5044586Y-14112674D02*
X5054110Y-14131722D01*
X5054110Y-14131722D02*
X5054110Y-14236484D01*
X5444586Y-14026960D02*
X5273158Y-14284103D01*
X5701729Y-14036484D02*
X5720777Y-14036484D01*
X5720777Y-14036484D02*
X5739824Y-14046008D01*
X5739824Y-14046008D02*
X5749348Y-14055531D01*
X5749348Y-14055531D02*
X5758872Y-14074579D01*
X5758872Y-14074579D02*
X5768396Y-14112674D01*
X5768396Y-14112674D02*
X5768396Y-14160293D01*
X5768396Y-14160293D02*
X5758872Y-14198388D01*
X5758872Y-14198388D02*
X5749348Y-14217436D01*
X5749348Y-14217436D02*
X5739824Y-14226960D01*
X5739824Y-14226960D02*
X5720777Y-14236484D01*
X5720777Y-14236484D02*
X5701729Y-14236484D01*
X5701729Y-14236484D02*
X5682681Y-14226960D01*
X5682681Y-14226960D02*
X5673158Y-14217436D01*
X5673158Y-14217436D02*
X5663634Y-14198388D01*
X5663634Y-14198388D02*
X5654110Y-14160293D01*
X5654110Y-14160293D02*
X5654110Y-14112674D01*
X5654110Y-14112674D02*
X5663634Y-14074579D01*
X5663634Y-14074579D02*
X5673158Y-14055531D01*
X5673158Y-14055531D02*
X5682681Y-14046008D01*
X5682681Y-14046008D02*
X5701729Y-14036484D01*
X5854110Y-14217436D02*
X5863634Y-14226960D01*
X5863634Y-14226960D02*
X5854110Y-14236484D01*
X5854110Y-14236484D02*
X5844586Y-14226960D01*
X5844586Y-14226960D02*
X5854110Y-14217436D01*
X5854110Y-14217436D02*
X5854110Y-14236484D01*
X5987443Y-14036484D02*
X6006491Y-14036484D01*
X6006491Y-14036484D02*
X6025539Y-14046008D01*
X6025539Y-14046008D02*
X6035062Y-14055531D01*
X6035062Y-14055531D02*
X6044586Y-14074579D01*
X6044586Y-14074579D02*
X6054110Y-14112674D01*
X6054110Y-14112674D02*
X6054110Y-14160293D01*
X6054110Y-14160293D02*
X6044586Y-14198388D01*
X6044586Y-14198388D02*
X6035062Y-14217436D01*
X6035062Y-14217436D02*
X6025539Y-14226960D01*
X6025539Y-14226960D02*
X6006491Y-14236484D01*
X6006491Y-14236484D02*
X5987443Y-14236484D01*
X5987443Y-14236484D02*
X5968396Y-14226960D01*
X5968396Y-14226960D02*
X5958872Y-14217436D01*
X5958872Y-14217436D02*
X5949348Y-14198388D01*
X5949348Y-14198388D02*
X5939824Y-14160293D01*
X5939824Y-14160293D02*
X5939824Y-14112674D01*
X5939824Y-14112674D02*
X5949348Y-14074579D01*
X5949348Y-14074579D02*
X5958872Y-14055531D01*
X5958872Y-14055531D02*
X5968396Y-14046008D01*
X5968396Y-14046008D02*
X5987443Y-14036484D01*
X6120777Y-14036484D02*
X6244586Y-14036484D01*
X6244586Y-14036484D02*
X6177920Y-14112674D01*
X6177920Y-14112674D02*
X6206491Y-14112674D01*
X6206491Y-14112674D02*
X6225539Y-14122198D01*
X6225539Y-14122198D02*
X6235062Y-14131722D01*
X6235062Y-14131722D02*
X6244586Y-14150769D01*
X6244586Y-14150769D02*
X6244586Y-14198388D01*
X6244586Y-14198388D02*
X6235062Y-14217436D01*
X6235062Y-14217436D02*
X6225539Y-14226960D01*
X6225539Y-14226960D02*
X6206491Y-14236484D01*
X6206491Y-14236484D02*
X6149348Y-14236484D01*
X6149348Y-14236484D02*
X6130301Y-14226960D01*
X6130301Y-14226960D02*
X6120777Y-14217436D01*
X6435062Y-14236484D02*
X6320777Y-14236484D01*
X6377920Y-14236484D02*
X6377920Y-14036484D01*
X6377920Y-14036484D02*
X6358872Y-14065055D01*
X6358872Y-14065055D02*
X6339824Y-14084103D01*
X6339824Y-14084103D02*
X6320777Y-14093627D01*
X6616015Y-14036484D02*
X6520777Y-14036484D01*
X6520777Y-14036484D02*
X6511253Y-14131722D01*
X6511253Y-14131722D02*
X6520777Y-14122198D01*
X6520777Y-14122198D02*
X6539824Y-14112674D01*
X6539824Y-14112674D02*
X6587443Y-14112674D01*
X6587443Y-14112674D02*
X6606491Y-14122198D01*
X6606491Y-14122198D02*
X6616015Y-14131722D01*
X6616015Y-14131722D02*
X6625539Y-14150769D01*
X6625539Y-14150769D02*
X6625539Y-14198388D01*
X6625539Y-14198388D02*
X6616015Y-14217436D01*
X6616015Y-14217436D02*
X6606491Y-14226960D01*
X6606491Y-14226960D02*
X6587443Y-14236484D01*
X6587443Y-14236484D02*
X6539824Y-14236484D01*
X6539824Y-14236484D02*
X6520777Y-14226960D01*
X6520777Y-14226960D02*
X6511253Y-14217436D01*
X6701729Y-14036484D02*
X6701729Y-14074579D01*
X6777920Y-14036484D02*
X6777920Y-14074579D01*
X7073158Y-14312674D02*
X7063634Y-14303150D01*
X7063634Y-14303150D02*
X7044586Y-14274579D01*
X7044586Y-14274579D02*
X7035063Y-14255531D01*
X7035063Y-14255531D02*
X7025539Y-14226960D01*
X7025539Y-14226960D02*
X7016015Y-14179341D01*
X7016015Y-14179341D02*
X7016015Y-14141246D01*
X7016015Y-14141246D02*
X7025539Y-14093627D01*
X7025539Y-14093627D02*
X7035063Y-14065055D01*
X7035063Y-14065055D02*
X7044586Y-14046008D01*
X7044586Y-14046008D02*
X7063634Y-14017436D01*
X7063634Y-14017436D02*
X7073158Y-14007912D01*
X7244586Y-14036484D02*
X7149348Y-14036484D01*
X7149348Y-14036484D02*
X7139824Y-14131722D01*
X7139824Y-14131722D02*
X7149348Y-14122198D01*
X7149348Y-14122198D02*
X7168396Y-14112674D01*
X7168396Y-14112674D02*
X7216015Y-14112674D01*
X7216015Y-14112674D02*
X7235063Y-14122198D01*
X7235063Y-14122198D02*
X7244586Y-14131722D01*
X7244586Y-14131722D02*
X7254110Y-14150769D01*
X7254110Y-14150769D02*
X7254110Y-14198388D01*
X7254110Y-14198388D02*
X7244586Y-14217436D01*
X7244586Y-14217436D02*
X7235063Y-14226960D01*
X7235063Y-14226960D02*
X7216015Y-14236484D01*
X7216015Y-14236484D02*
X7168396Y-14236484D01*
X7168396Y-14236484D02*
X7149348Y-14226960D01*
X7149348Y-14226960D02*
X7139824Y-14217436D01*
X7425539Y-14103150D02*
X7425539Y-14236484D01*
X7377920Y-14026960D02*
X7330301Y-14169817D01*
X7330301Y-14169817D02*
X7454110Y-14169817D01*
X7682682Y-14236484D02*
X7682682Y-14036484D01*
X7768396Y-14236484D02*
X7768396Y-14131722D01*
X7768396Y-14131722D02*
X7758872Y-14112674D01*
X7758872Y-14112674D02*
X7739825Y-14103150D01*
X7739825Y-14103150D02*
X7711253Y-14103150D01*
X7711253Y-14103150D02*
X7692205Y-14112674D01*
X7692205Y-14112674D02*
X7682682Y-14122198D01*
X7892205Y-14236484D02*
X7873158Y-14226960D01*
X7873158Y-14226960D02*
X7863634Y-14217436D01*
X7863634Y-14217436D02*
X7854110Y-14198388D01*
X7854110Y-14198388D02*
X7854110Y-14141246D01*
X7854110Y-14141246D02*
X7863634Y-14122198D01*
X7863634Y-14122198D02*
X7873158Y-14112674D01*
X7873158Y-14112674D02*
X7892205Y-14103150D01*
X7892205Y-14103150D02*
X7920777Y-14103150D01*
X7920777Y-14103150D02*
X7939825Y-14112674D01*
X7939825Y-14112674D02*
X7949348Y-14122198D01*
X7949348Y-14122198D02*
X7958872Y-14141246D01*
X7958872Y-14141246D02*
X7958872Y-14198388D01*
X7958872Y-14198388D02*
X7949348Y-14217436D01*
X7949348Y-14217436D02*
X7939825Y-14226960D01*
X7939825Y-14226960D02*
X7920777Y-14236484D01*
X7920777Y-14236484D02*
X7892205Y-14236484D01*
X8073158Y-14236484D02*
X8054110Y-14226960D01*
X8054110Y-14226960D02*
X8044586Y-14207912D01*
X8044586Y-14207912D02*
X8044586Y-14036484D01*
X8225539Y-14226960D02*
X8206491Y-14236484D01*
X8206491Y-14236484D02*
X8168396Y-14236484D01*
X8168396Y-14236484D02*
X8149348Y-14226960D01*
X8149348Y-14226960D02*
X8139825Y-14207912D01*
X8139825Y-14207912D02*
X8139825Y-14131722D01*
X8139825Y-14131722D02*
X8149348Y-14112674D01*
X8149348Y-14112674D02*
X8168396Y-14103150D01*
X8168396Y-14103150D02*
X8206491Y-14103150D01*
X8206491Y-14103150D02*
X8225539Y-14112674D01*
X8225539Y-14112674D02*
X8235063Y-14131722D01*
X8235063Y-14131722D02*
X8235063Y-14150769D01*
X8235063Y-14150769D02*
X8139825Y-14169817D01*
X8311253Y-14226960D02*
X8330301Y-14236484D01*
X8330301Y-14236484D02*
X8368396Y-14236484D01*
X8368396Y-14236484D02*
X8387444Y-14226960D01*
X8387444Y-14226960D02*
X8396968Y-14207912D01*
X8396968Y-14207912D02*
X8396968Y-14198388D01*
X8396968Y-14198388D02*
X8387444Y-14179341D01*
X8387444Y-14179341D02*
X8368396Y-14169817D01*
X8368396Y-14169817D02*
X8339825Y-14169817D01*
X8339825Y-14169817D02*
X8320777Y-14160293D01*
X8320777Y-14160293D02*
X8311253Y-14141246D01*
X8311253Y-14141246D02*
X8311253Y-14131722D01*
X8311253Y-14131722D02*
X8320777Y-14112674D01*
X8320777Y-14112674D02*
X8339825Y-14103150D01*
X8339825Y-14103150D02*
X8368396Y-14103150D01*
X8368396Y-14103150D02*
X8387444Y-14112674D01*
X8463634Y-14312674D02*
X8473158Y-14303150D01*
X8473158Y-14303150D02*
X8492206Y-14274579D01*
X8492206Y-14274579D02*
X8501729Y-14255531D01*
X8501729Y-14255531D02*
X8511253Y-14226960D01*
X8511253Y-14226960D02*
X8520777Y-14179341D01*
X8520777Y-14179341D02*
X8520777Y-14141246D01*
X8520777Y-14141246D02*
X8511253Y-14093627D01*
X8511253Y-14093627D02*
X8501729Y-14065055D01*
X8501729Y-14065055D02*
X8492206Y-14046008D01*
X8492206Y-14046008D02*
X8473158Y-14017436D01*
X8473158Y-14017436D02*
X8463634Y-14007912D01*
D11*
X3498095Y-14409000D02*
G75*
G02*
X3398095Y-14409000I-50000J0D01*
G01*
X3398095Y-14409000D02*
G75*
G02*
X3498095Y-14409000I50000J0D01*
G01*
D12*
X3863634Y-14500484D02*
X3749348Y-14500484D01*
X3806491Y-14500484D02*
X3806491Y-14300484D01*
X3806491Y-14300484D02*
X3787443Y-14329055D01*
X3787443Y-14329055D02*
X3768396Y-14348103D01*
X3768396Y-14348103D02*
X3749348Y-14357627D01*
X3949348Y-14481436D02*
X3958872Y-14490960D01*
X3958872Y-14490960D02*
X3949348Y-14500484D01*
X3949348Y-14500484D02*
X3939824Y-14490960D01*
X3939824Y-14490960D02*
X3949348Y-14481436D01*
X3949348Y-14481436D02*
X3949348Y-14500484D01*
X4082681Y-14300484D02*
X4101729Y-14300484D01*
X4101729Y-14300484D02*
X4120777Y-14310008D01*
X4120777Y-14310008D02*
X4130300Y-14319531D01*
X4130300Y-14319531D02*
X4139824Y-14338579D01*
X4139824Y-14338579D02*
X4149348Y-14376674D01*
X4149348Y-14376674D02*
X4149348Y-14424293D01*
X4149348Y-14424293D02*
X4139824Y-14462388D01*
X4139824Y-14462388D02*
X4130300Y-14481436D01*
X4130300Y-14481436D02*
X4120777Y-14490960D01*
X4120777Y-14490960D02*
X4101729Y-14500484D01*
X4101729Y-14500484D02*
X4082681Y-14500484D01*
X4082681Y-14500484D02*
X4063634Y-14490960D01*
X4063634Y-14490960D02*
X4054110Y-14481436D01*
X4054110Y-14481436D02*
X4044586Y-14462388D01*
X4044586Y-14462388D02*
X4035062Y-14424293D01*
X4035062Y-14424293D02*
X4035062Y-14376674D01*
X4035062Y-14376674D02*
X4044586Y-14338579D01*
X4044586Y-14338579D02*
X4054110Y-14319531D01*
X4054110Y-14319531D02*
X4063634Y-14310008D01*
X4063634Y-14310008D02*
X4082681Y-14300484D01*
X4273158Y-14300484D02*
X4292205Y-14300484D01*
X4292205Y-14300484D02*
X4311253Y-14310008D01*
X4311253Y-14310008D02*
X4320777Y-14319531D01*
X4320777Y-14319531D02*
X4330300Y-14338579D01*
X4330300Y-14338579D02*
X4339824Y-14376674D01*
X4339824Y-14376674D02*
X4339824Y-14424293D01*
X4339824Y-14424293D02*
X4330300Y-14462388D01*
X4330300Y-14462388D02*
X4320777Y-14481436D01*
X4320777Y-14481436D02*
X4311253Y-14490960D01*
X4311253Y-14490960D02*
X4292205Y-14500484D01*
X4292205Y-14500484D02*
X4273158Y-14500484D01*
X4273158Y-14500484D02*
X4254110Y-14490960D01*
X4254110Y-14490960D02*
X4244586Y-14481436D01*
X4244586Y-14481436D02*
X4235062Y-14462388D01*
X4235062Y-14462388D02*
X4225539Y-14424293D01*
X4225539Y-14424293D02*
X4225539Y-14376674D01*
X4225539Y-14376674D02*
X4235062Y-14338579D01*
X4235062Y-14338579D02*
X4244586Y-14319531D01*
X4244586Y-14319531D02*
X4254110Y-14310008D01*
X4254110Y-14310008D02*
X4273158Y-14300484D01*
X4463634Y-14300484D02*
X4482681Y-14300484D01*
X4482681Y-14300484D02*
X4501729Y-14310008D01*
X4501729Y-14310008D02*
X4511253Y-14319531D01*
X4511253Y-14319531D02*
X4520777Y-14338579D01*
X4520777Y-14338579D02*
X4530300Y-14376674D01*
X4530300Y-14376674D02*
X4530300Y-14424293D01*
X4530300Y-14424293D02*
X4520777Y-14462388D01*
X4520777Y-14462388D02*
X4511253Y-14481436D01*
X4511253Y-14481436D02*
X4501729Y-14490960D01*
X4501729Y-14490960D02*
X4482681Y-14500484D01*
X4482681Y-14500484D02*
X4463634Y-14500484D01*
X4463634Y-14500484D02*
X4444586Y-14490960D01*
X4444586Y-14490960D02*
X4435062Y-14481436D01*
X4435062Y-14481436D02*
X4425539Y-14462388D01*
X4425539Y-14462388D02*
X4416015Y-14424293D01*
X4416015Y-14424293D02*
X4416015Y-14376674D01*
X4416015Y-14376674D02*
X4425539Y-14338579D01*
X4425539Y-14338579D02*
X4435062Y-14319531D01*
X4435062Y-14319531D02*
X4444586Y-14310008D01*
X4444586Y-14310008D02*
X4463634Y-14300484D01*
X4616015Y-14500484D02*
X4616015Y-14367150D01*
X4616015Y-14386198D02*
X4625539Y-14376674D01*
X4625539Y-14376674D02*
X4644586Y-14367150D01*
X4644586Y-14367150D02*
X4673158Y-14367150D01*
X4673158Y-14367150D02*
X4692205Y-14376674D01*
X4692205Y-14376674D02*
X4701729Y-14395722D01*
X4701729Y-14395722D02*
X4701729Y-14500484D01*
X4701729Y-14395722D02*
X4711253Y-14376674D01*
X4711253Y-14376674D02*
X4730300Y-14367150D01*
X4730300Y-14367150D02*
X4758872Y-14367150D01*
X4758872Y-14367150D02*
X4777920Y-14376674D01*
X4777920Y-14376674D02*
X4787443Y-14395722D01*
X4787443Y-14395722D02*
X4787443Y-14500484D01*
X4882681Y-14500484D02*
X4882681Y-14367150D01*
X4882681Y-14386198D02*
X4892205Y-14376674D01*
X4892205Y-14376674D02*
X4911253Y-14367150D01*
X4911253Y-14367150D02*
X4939824Y-14367150D01*
X4939824Y-14367150D02*
X4958872Y-14376674D01*
X4958872Y-14376674D02*
X4968396Y-14395722D01*
X4968396Y-14395722D02*
X4968396Y-14500484D01*
X4968396Y-14395722D02*
X4977920Y-14376674D01*
X4977920Y-14376674D02*
X4996967Y-14367150D01*
X4996967Y-14367150D02*
X5025539Y-14367150D01*
X5025539Y-14367150D02*
X5044586Y-14376674D01*
X5044586Y-14376674D02*
X5054110Y-14395722D01*
X5054110Y-14395722D02*
X5054110Y-14500484D01*
X5444586Y-14290960D02*
X5273158Y-14548103D01*
X5701729Y-14300484D02*
X5720777Y-14300484D01*
X5720777Y-14300484D02*
X5739824Y-14310008D01*
X5739824Y-14310008D02*
X5749348Y-14319531D01*
X5749348Y-14319531D02*
X5758872Y-14338579D01*
X5758872Y-14338579D02*
X5768396Y-14376674D01*
X5768396Y-14376674D02*
X5768396Y-14424293D01*
X5768396Y-14424293D02*
X5758872Y-14462388D01*
X5758872Y-14462388D02*
X5749348Y-14481436D01*
X5749348Y-14481436D02*
X5739824Y-14490960D01*
X5739824Y-14490960D02*
X5720777Y-14500484D01*
X5720777Y-14500484D02*
X5701729Y-14500484D01*
X5701729Y-14500484D02*
X5682681Y-14490960D01*
X5682681Y-14490960D02*
X5673158Y-14481436D01*
X5673158Y-14481436D02*
X5663634Y-14462388D01*
X5663634Y-14462388D02*
X5654110Y-14424293D01*
X5654110Y-14424293D02*
X5654110Y-14376674D01*
X5654110Y-14376674D02*
X5663634Y-14338579D01*
X5663634Y-14338579D02*
X5673158Y-14319531D01*
X5673158Y-14319531D02*
X5682681Y-14310008D01*
X5682681Y-14310008D02*
X5701729Y-14300484D01*
X5854110Y-14481436D02*
X5863634Y-14490960D01*
X5863634Y-14490960D02*
X5854110Y-14500484D01*
X5854110Y-14500484D02*
X5844586Y-14490960D01*
X5844586Y-14490960D02*
X5854110Y-14481436D01*
X5854110Y-14481436D02*
X5854110Y-14500484D01*
X5987443Y-14300484D02*
X6006491Y-14300484D01*
X6006491Y-14300484D02*
X6025539Y-14310008D01*
X6025539Y-14310008D02*
X6035062Y-14319531D01*
X6035062Y-14319531D02*
X6044586Y-14338579D01*
X6044586Y-14338579D02*
X6054110Y-14376674D01*
X6054110Y-14376674D02*
X6054110Y-14424293D01*
X6054110Y-14424293D02*
X6044586Y-14462388D01*
X6044586Y-14462388D02*
X6035062Y-14481436D01*
X6035062Y-14481436D02*
X6025539Y-14490960D01*
X6025539Y-14490960D02*
X6006491Y-14500484D01*
X6006491Y-14500484D02*
X5987443Y-14500484D01*
X5987443Y-14500484D02*
X5968396Y-14490960D01*
X5968396Y-14490960D02*
X5958872Y-14481436D01*
X5958872Y-14481436D02*
X5949348Y-14462388D01*
X5949348Y-14462388D02*
X5939824Y-14424293D01*
X5939824Y-14424293D02*
X5939824Y-14376674D01*
X5939824Y-14376674D02*
X5949348Y-14338579D01*
X5949348Y-14338579D02*
X5958872Y-14319531D01*
X5958872Y-14319531D02*
X5968396Y-14310008D01*
X5968396Y-14310008D02*
X5987443Y-14300484D01*
X6120777Y-14300484D02*
X6244586Y-14300484D01*
X6244586Y-14300484D02*
X6177920Y-14376674D01*
X6177920Y-14376674D02*
X6206491Y-14376674D01*
X6206491Y-14376674D02*
X6225539Y-14386198D01*
X6225539Y-14386198D02*
X6235062Y-14395722D01*
X6235062Y-14395722D02*
X6244586Y-14414769D01*
X6244586Y-14414769D02*
X6244586Y-14462388D01*
X6244586Y-14462388D02*
X6235062Y-14481436D01*
X6235062Y-14481436D02*
X6225539Y-14490960D01*
X6225539Y-14490960D02*
X6206491Y-14500484D01*
X6206491Y-14500484D02*
X6149348Y-14500484D01*
X6149348Y-14500484D02*
X6130301Y-14490960D01*
X6130301Y-14490960D02*
X6120777Y-14481436D01*
X6339824Y-14500484D02*
X6377920Y-14500484D01*
X6377920Y-14500484D02*
X6396967Y-14490960D01*
X6396967Y-14490960D02*
X6406491Y-14481436D01*
X6406491Y-14481436D02*
X6425539Y-14452865D01*
X6425539Y-14452865D02*
X6435062Y-14414769D01*
X6435062Y-14414769D02*
X6435062Y-14338579D01*
X6435062Y-14338579D02*
X6425539Y-14319531D01*
X6425539Y-14319531D02*
X6416015Y-14310008D01*
X6416015Y-14310008D02*
X6396967Y-14300484D01*
X6396967Y-14300484D02*
X6358872Y-14300484D01*
X6358872Y-14300484D02*
X6339824Y-14310008D01*
X6339824Y-14310008D02*
X6330301Y-14319531D01*
X6330301Y-14319531D02*
X6320777Y-14338579D01*
X6320777Y-14338579D02*
X6320777Y-14386198D01*
X6320777Y-14386198D02*
X6330301Y-14405246D01*
X6330301Y-14405246D02*
X6339824Y-14414769D01*
X6339824Y-14414769D02*
X6358872Y-14424293D01*
X6358872Y-14424293D02*
X6396967Y-14424293D01*
X6396967Y-14424293D02*
X6416015Y-14414769D01*
X6416015Y-14414769D02*
X6425539Y-14405246D01*
X6425539Y-14405246D02*
X6435062Y-14386198D01*
X6606491Y-14367150D02*
X6606491Y-14500484D01*
X6558872Y-14290960D02*
X6511253Y-14433817D01*
X6511253Y-14433817D02*
X6635062Y-14433817D01*
X6701729Y-14300484D02*
X6701729Y-14338579D01*
X6777920Y-14300484D02*
X6777920Y-14338579D01*
X7073158Y-14576674D02*
X7063634Y-14567150D01*
X7063634Y-14567150D02*
X7044586Y-14538579D01*
X7044586Y-14538579D02*
X7035063Y-14519531D01*
X7035063Y-14519531D02*
X7025539Y-14490960D01*
X7025539Y-14490960D02*
X7016015Y-14443341D01*
X7016015Y-14443341D02*
X7016015Y-14405246D01*
X7016015Y-14405246D02*
X7025539Y-14357627D01*
X7025539Y-14357627D02*
X7035063Y-14329055D01*
X7035063Y-14329055D02*
X7044586Y-14310008D01*
X7044586Y-14310008D02*
X7063634Y-14281436D01*
X7063634Y-14281436D02*
X7073158Y-14271912D01*
X7139824Y-14319531D02*
X7149348Y-14310008D01*
X7149348Y-14310008D02*
X7168396Y-14300484D01*
X7168396Y-14300484D02*
X7216015Y-14300484D01*
X7216015Y-14300484D02*
X7235063Y-14310008D01*
X7235063Y-14310008D02*
X7244586Y-14319531D01*
X7244586Y-14319531D02*
X7254110Y-14338579D01*
X7254110Y-14338579D02*
X7254110Y-14357627D01*
X7254110Y-14357627D02*
X7244586Y-14386198D01*
X7244586Y-14386198D02*
X7130301Y-14500484D01*
X7130301Y-14500484D02*
X7254110Y-14500484D01*
X7492205Y-14500484D02*
X7492205Y-14300484D01*
X7577920Y-14500484D02*
X7577920Y-14395722D01*
X7577920Y-14395722D02*
X7568396Y-14376674D01*
X7568396Y-14376674D02*
X7549348Y-14367150D01*
X7549348Y-14367150D02*
X7520777Y-14367150D01*
X7520777Y-14367150D02*
X7501729Y-14376674D01*
X7501729Y-14376674D02*
X7492205Y-14386198D01*
X7701729Y-14500484D02*
X7682682Y-14490960D01*
X7682682Y-14490960D02*
X7673158Y-14481436D01*
X7673158Y-14481436D02*
X7663634Y-14462388D01*
X7663634Y-14462388D02*
X7663634Y-14405246D01*
X7663634Y-14405246D02*
X7673158Y-14386198D01*
X7673158Y-14386198D02*
X7682682Y-14376674D01*
X7682682Y-14376674D02*
X7701729Y-14367150D01*
X7701729Y-14367150D02*
X7730301Y-14367150D01*
X7730301Y-14367150D02*
X7749348Y-14376674D01*
X7749348Y-14376674D02*
X7758872Y-14386198D01*
X7758872Y-14386198D02*
X7768396Y-14405246D01*
X7768396Y-14405246D02*
X7768396Y-14462388D01*
X7768396Y-14462388D02*
X7758872Y-14481436D01*
X7758872Y-14481436D02*
X7749348Y-14490960D01*
X7749348Y-14490960D02*
X7730301Y-14500484D01*
X7730301Y-14500484D02*
X7701729Y-14500484D01*
X7882682Y-14500484D02*
X7863634Y-14490960D01*
X7863634Y-14490960D02*
X7854110Y-14471912D01*
X7854110Y-14471912D02*
X7854110Y-14300484D01*
X8035063Y-14490960D02*
X8016015Y-14500484D01*
X8016015Y-14500484D02*
X7977920Y-14500484D01*
X7977920Y-14500484D02*
X7958872Y-14490960D01*
X7958872Y-14490960D02*
X7949348Y-14471912D01*
X7949348Y-14471912D02*
X7949348Y-14395722D01*
X7949348Y-14395722D02*
X7958872Y-14376674D01*
X7958872Y-14376674D02*
X7977920Y-14367150D01*
X7977920Y-14367150D02*
X8016015Y-14367150D01*
X8016015Y-14367150D02*
X8035063Y-14376674D01*
X8035063Y-14376674D02*
X8044586Y-14395722D01*
X8044586Y-14395722D02*
X8044586Y-14414769D01*
X8044586Y-14414769D02*
X7949348Y-14433817D01*
X8120777Y-14490960D02*
X8139825Y-14500484D01*
X8139825Y-14500484D02*
X8177920Y-14500484D01*
X8177920Y-14500484D02*
X8196967Y-14490960D01*
X8196967Y-14490960D02*
X8206491Y-14471912D01*
X8206491Y-14471912D02*
X8206491Y-14462388D01*
X8206491Y-14462388D02*
X8196967Y-14443341D01*
X8196967Y-14443341D02*
X8177920Y-14433817D01*
X8177920Y-14433817D02*
X8149348Y-14433817D01*
X8149348Y-14433817D02*
X8130301Y-14424293D01*
X8130301Y-14424293D02*
X8120777Y-14405246D01*
X8120777Y-14405246D02*
X8120777Y-14395722D01*
X8120777Y-14395722D02*
X8130301Y-14376674D01*
X8130301Y-14376674D02*
X8149348Y-14367150D01*
X8149348Y-14367150D02*
X8177920Y-14367150D01*
X8177920Y-14367150D02*
X8196967Y-14376674D01*
X8273158Y-14576674D02*
X8282682Y-14567150D01*
X8282682Y-14567150D02*
X8301729Y-14538579D01*
X8301729Y-14538579D02*
X8311253Y-14519531D01*
X8311253Y-14519531D02*
X8320777Y-14490960D01*
X8320777Y-14490960D02*
X8330301Y-14443341D01*
X8330301Y-14443341D02*
X8330301Y-14405246D01*
X8330301Y-14405246D02*
X8320777Y-14357627D01*
X8320777Y-14357627D02*
X8311253Y-14329055D01*
X8311253Y-14329055D02*
X8301729Y-14310008D01*
X8301729Y-14310008D02*
X8282682Y-14281436D01*
X8282682Y-14281436D02*
X8273158Y-14271912D01*
D13*
X3423095Y-14598000D02*
X3423095Y-14748000D01*
X3348095Y-14673000D02*
X3498095Y-14673000D01*
D12*
X3863634Y-14764484D02*
X3749348Y-14764484D01*
X3806491Y-14764484D02*
X3806491Y-14564484D01*
X3806491Y-14564484D02*
X3787443Y-14593055D01*
X3787443Y-14593055D02*
X3768396Y-14612103D01*
X3768396Y-14612103D02*
X3749348Y-14621627D01*
X3949348Y-14745436D02*
X3958872Y-14754960D01*
X3958872Y-14754960D02*
X3949348Y-14764484D01*
X3949348Y-14764484D02*
X3939824Y-14754960D01*
X3939824Y-14754960D02*
X3949348Y-14745436D01*
X3949348Y-14745436D02*
X3949348Y-14764484D01*
X4139824Y-14564484D02*
X4044586Y-14564484D01*
X4044586Y-14564484D02*
X4035062Y-14659722D01*
X4035062Y-14659722D02*
X4044586Y-14650198D01*
X4044586Y-14650198D02*
X4063634Y-14640674D01*
X4063634Y-14640674D02*
X4111253Y-14640674D01*
X4111253Y-14640674D02*
X4130300Y-14650198D01*
X4130300Y-14650198D02*
X4139824Y-14659722D01*
X4139824Y-14659722D02*
X4149348Y-14678769D01*
X4149348Y-14678769D02*
X4149348Y-14726388D01*
X4149348Y-14726388D02*
X4139824Y-14745436D01*
X4139824Y-14745436D02*
X4130300Y-14754960D01*
X4130300Y-14754960D02*
X4111253Y-14764484D01*
X4111253Y-14764484D02*
X4063634Y-14764484D01*
X4063634Y-14764484D02*
X4044586Y-14754960D01*
X4044586Y-14754960D02*
X4035062Y-14745436D01*
X4273158Y-14564484D02*
X4292205Y-14564484D01*
X4292205Y-14564484D02*
X4311253Y-14574008D01*
X4311253Y-14574008D02*
X4320777Y-14583531D01*
X4320777Y-14583531D02*
X4330300Y-14602579D01*
X4330300Y-14602579D02*
X4339824Y-14640674D01*
X4339824Y-14640674D02*
X4339824Y-14688293D01*
X4339824Y-14688293D02*
X4330300Y-14726388D01*
X4330300Y-14726388D02*
X4320777Y-14745436D01*
X4320777Y-14745436D02*
X4311253Y-14754960D01*
X4311253Y-14754960D02*
X4292205Y-14764484D01*
X4292205Y-14764484D02*
X4273158Y-14764484D01*
X4273158Y-14764484D02*
X4254110Y-14754960D01*
X4254110Y-14754960D02*
X4244586Y-14745436D01*
X4244586Y-14745436D02*
X4235062Y-14726388D01*
X4235062Y-14726388D02*
X4225539Y-14688293D01*
X4225539Y-14688293D02*
X4225539Y-14640674D01*
X4225539Y-14640674D02*
X4235062Y-14602579D01*
X4235062Y-14602579D02*
X4244586Y-14583531D01*
X4244586Y-14583531D02*
X4254110Y-14574008D01*
X4254110Y-14574008D02*
X4273158Y-14564484D01*
X4463634Y-14564484D02*
X4482681Y-14564484D01*
X4482681Y-14564484D02*
X4501729Y-14574008D01*
X4501729Y-14574008D02*
X4511253Y-14583531D01*
X4511253Y-14583531D02*
X4520777Y-14602579D01*
X4520777Y-14602579D02*
X4530300Y-14640674D01*
X4530300Y-14640674D02*
X4530300Y-14688293D01*
X4530300Y-14688293D02*
X4520777Y-14726388D01*
X4520777Y-14726388D02*
X4511253Y-14745436D01*
X4511253Y-14745436D02*
X4501729Y-14754960D01*
X4501729Y-14754960D02*
X4482681Y-14764484D01*
X4482681Y-14764484D02*
X4463634Y-14764484D01*
X4463634Y-14764484D02*
X4444586Y-14754960D01*
X4444586Y-14754960D02*
X4435062Y-14745436D01*
X4435062Y-14745436D02*
X4425539Y-14726388D01*
X4425539Y-14726388D02*
X4416015Y-14688293D01*
X4416015Y-14688293D02*
X4416015Y-14640674D01*
X4416015Y-14640674D02*
X4425539Y-14602579D01*
X4425539Y-14602579D02*
X4435062Y-14583531D01*
X4435062Y-14583531D02*
X4444586Y-14574008D01*
X4444586Y-14574008D02*
X4463634Y-14564484D01*
X4616015Y-14764484D02*
X4616015Y-14631150D01*
X4616015Y-14650198D02*
X4625539Y-14640674D01*
X4625539Y-14640674D02*
X4644586Y-14631150D01*
X4644586Y-14631150D02*
X4673158Y-14631150D01*
X4673158Y-14631150D02*
X4692205Y-14640674D01*
X4692205Y-14640674D02*
X4701729Y-14659722D01*
X4701729Y-14659722D02*
X4701729Y-14764484D01*
X4701729Y-14659722D02*
X4711253Y-14640674D01*
X4711253Y-14640674D02*
X4730300Y-14631150D01*
X4730300Y-14631150D02*
X4758872Y-14631150D01*
X4758872Y-14631150D02*
X4777920Y-14640674D01*
X4777920Y-14640674D02*
X4787443Y-14659722D01*
X4787443Y-14659722D02*
X4787443Y-14764484D01*
X4882681Y-14764484D02*
X4882681Y-14631150D01*
X4882681Y-14650198D02*
X4892205Y-14640674D01*
X4892205Y-14640674D02*
X4911253Y-14631150D01*
X4911253Y-14631150D02*
X4939824Y-14631150D01*
X4939824Y-14631150D02*
X4958872Y-14640674D01*
X4958872Y-14640674D02*
X4968396Y-14659722D01*
X4968396Y-14659722D02*
X4968396Y-14764484D01*
X4968396Y-14659722D02*
X4977920Y-14640674D01*
X4977920Y-14640674D02*
X4996967Y-14631150D01*
X4996967Y-14631150D02*
X5025539Y-14631150D01*
X5025539Y-14631150D02*
X5044586Y-14640674D01*
X5044586Y-14640674D02*
X5054110Y-14659722D01*
X5054110Y-14659722D02*
X5054110Y-14764484D01*
X5444586Y-14554960D02*
X5273158Y-14812103D01*
X5701729Y-14564484D02*
X5720777Y-14564484D01*
X5720777Y-14564484D02*
X5739824Y-14574008D01*
X5739824Y-14574008D02*
X5749348Y-14583531D01*
X5749348Y-14583531D02*
X5758872Y-14602579D01*
X5758872Y-14602579D02*
X5768396Y-14640674D01*
X5768396Y-14640674D02*
X5768396Y-14688293D01*
X5768396Y-14688293D02*
X5758872Y-14726388D01*
X5758872Y-14726388D02*
X5749348Y-14745436D01*
X5749348Y-14745436D02*
X5739824Y-14754960D01*
X5739824Y-14754960D02*
X5720777Y-14764484D01*
X5720777Y-14764484D02*
X5701729Y-14764484D01*
X5701729Y-14764484D02*
X5682681Y-14754960D01*
X5682681Y-14754960D02*
X5673158Y-14745436D01*
X5673158Y-14745436D02*
X5663634Y-14726388D01*
X5663634Y-14726388D02*
X5654110Y-14688293D01*
X5654110Y-14688293D02*
X5654110Y-14640674D01*
X5654110Y-14640674D02*
X5663634Y-14602579D01*
X5663634Y-14602579D02*
X5673158Y-14583531D01*
X5673158Y-14583531D02*
X5682681Y-14574008D01*
X5682681Y-14574008D02*
X5701729Y-14564484D01*
X5854110Y-14745436D02*
X5863634Y-14754960D01*
X5863634Y-14754960D02*
X5854110Y-14764484D01*
X5854110Y-14764484D02*
X5844586Y-14754960D01*
X5844586Y-14754960D02*
X5854110Y-14745436D01*
X5854110Y-14745436D02*
X5854110Y-14764484D01*
X5987443Y-14564484D02*
X6006491Y-14564484D01*
X6006491Y-14564484D02*
X6025539Y-14574008D01*
X6025539Y-14574008D02*
X6035062Y-14583531D01*
X6035062Y-14583531D02*
X6044586Y-14602579D01*
X6044586Y-14602579D02*
X6054110Y-14640674D01*
X6054110Y-14640674D02*
X6054110Y-14688293D01*
X6054110Y-14688293D02*
X6044586Y-14726388D01*
X6044586Y-14726388D02*
X6035062Y-14745436D01*
X6035062Y-14745436D02*
X6025539Y-14754960D01*
X6025539Y-14754960D02*
X6006491Y-14764484D01*
X6006491Y-14764484D02*
X5987443Y-14764484D01*
X5987443Y-14764484D02*
X5968396Y-14754960D01*
X5968396Y-14754960D02*
X5958872Y-14745436D01*
X5958872Y-14745436D02*
X5949348Y-14726388D01*
X5949348Y-14726388D02*
X5939824Y-14688293D01*
X5939824Y-14688293D02*
X5939824Y-14640674D01*
X5939824Y-14640674D02*
X5949348Y-14602579D01*
X5949348Y-14602579D02*
X5958872Y-14583531D01*
X5958872Y-14583531D02*
X5968396Y-14574008D01*
X5968396Y-14574008D02*
X5987443Y-14564484D01*
X6235062Y-14564484D02*
X6139824Y-14564484D01*
X6139824Y-14564484D02*
X6130301Y-14659722D01*
X6130301Y-14659722D02*
X6139824Y-14650198D01*
X6139824Y-14650198D02*
X6158872Y-14640674D01*
X6158872Y-14640674D02*
X6206491Y-14640674D01*
X6206491Y-14640674D02*
X6225539Y-14650198D01*
X6225539Y-14650198D02*
X6235062Y-14659722D01*
X6235062Y-14659722D02*
X6244586Y-14678769D01*
X6244586Y-14678769D02*
X6244586Y-14726388D01*
X6244586Y-14726388D02*
X6235062Y-14745436D01*
X6235062Y-14745436D02*
X6225539Y-14754960D01*
X6225539Y-14754960D02*
X6206491Y-14764484D01*
X6206491Y-14764484D02*
X6158872Y-14764484D01*
X6158872Y-14764484D02*
X6139824Y-14754960D01*
X6139824Y-14754960D02*
X6130301Y-14745436D01*
X6339824Y-14764484D02*
X6377920Y-14764484D01*
X6377920Y-14764484D02*
X6396967Y-14754960D01*
X6396967Y-14754960D02*
X6406491Y-14745436D01*
X6406491Y-14745436D02*
X6425539Y-14716865D01*
X6425539Y-14716865D02*
X6435062Y-14678769D01*
X6435062Y-14678769D02*
X6435062Y-14602579D01*
X6435062Y-14602579D02*
X6425539Y-14583531D01*
X6425539Y-14583531D02*
X6416015Y-14574008D01*
X6416015Y-14574008D02*
X6396967Y-14564484D01*
X6396967Y-14564484D02*
X6358872Y-14564484D01*
X6358872Y-14564484D02*
X6339824Y-14574008D01*
X6339824Y-14574008D02*
X6330301Y-14583531D01*
X6330301Y-14583531D02*
X6320777Y-14602579D01*
X6320777Y-14602579D02*
X6320777Y-14650198D01*
X6320777Y-14650198D02*
X6330301Y-14669246D01*
X6330301Y-14669246D02*
X6339824Y-14678769D01*
X6339824Y-14678769D02*
X6358872Y-14688293D01*
X6358872Y-14688293D02*
X6396967Y-14688293D01*
X6396967Y-14688293D02*
X6416015Y-14678769D01*
X6416015Y-14678769D02*
X6425539Y-14669246D01*
X6425539Y-14669246D02*
X6435062Y-14650198D01*
X6625539Y-14764484D02*
X6511253Y-14764484D01*
X6568396Y-14764484D02*
X6568396Y-14564484D01*
X6568396Y-14564484D02*
X6549348Y-14593055D01*
X6549348Y-14593055D02*
X6530301Y-14612103D01*
X6530301Y-14612103D02*
X6511253Y-14621627D01*
X6701729Y-14564484D02*
X6701729Y-14602579D01*
X6777920Y-14564484D02*
X6777920Y-14602579D01*
X7073158Y-14840674D02*
X7063634Y-14831150D01*
X7063634Y-14831150D02*
X7044586Y-14802579D01*
X7044586Y-14802579D02*
X7035063Y-14783531D01*
X7035063Y-14783531D02*
X7025539Y-14754960D01*
X7025539Y-14754960D02*
X7016015Y-14707341D01*
X7016015Y-14707341D02*
X7016015Y-14669246D01*
X7016015Y-14669246D02*
X7025539Y-14621627D01*
X7025539Y-14621627D02*
X7035063Y-14593055D01*
X7035063Y-14593055D02*
X7044586Y-14574008D01*
X7044586Y-14574008D02*
X7063634Y-14545436D01*
X7063634Y-14545436D02*
X7073158Y-14535912D01*
X7130301Y-14564484D02*
X7263634Y-14564484D01*
X7263634Y-14564484D02*
X7177920Y-14764484D01*
X7492205Y-14764484D02*
X7492205Y-14564484D01*
X7577920Y-14764484D02*
X7577920Y-14659722D01*
X7577920Y-14659722D02*
X7568396Y-14640674D01*
X7568396Y-14640674D02*
X7549348Y-14631150D01*
X7549348Y-14631150D02*
X7520777Y-14631150D01*
X7520777Y-14631150D02*
X7501729Y-14640674D01*
X7501729Y-14640674D02*
X7492205Y-14650198D01*
X7701729Y-14764484D02*
X7682682Y-14754960D01*
X7682682Y-14754960D02*
X7673158Y-14745436D01*
X7673158Y-14745436D02*
X7663634Y-14726388D01*
X7663634Y-14726388D02*
X7663634Y-14669246D01*
X7663634Y-14669246D02*
X7673158Y-14650198D01*
X7673158Y-14650198D02*
X7682682Y-14640674D01*
X7682682Y-14640674D02*
X7701729Y-14631150D01*
X7701729Y-14631150D02*
X7730301Y-14631150D01*
X7730301Y-14631150D02*
X7749348Y-14640674D01*
X7749348Y-14640674D02*
X7758872Y-14650198D01*
X7758872Y-14650198D02*
X7768396Y-14669246D01*
X7768396Y-14669246D02*
X7768396Y-14726388D01*
X7768396Y-14726388D02*
X7758872Y-14745436D01*
X7758872Y-14745436D02*
X7749348Y-14754960D01*
X7749348Y-14754960D02*
X7730301Y-14764484D01*
X7730301Y-14764484D02*
X7701729Y-14764484D01*
X7882682Y-14764484D02*
X7863634Y-14754960D01*
X7863634Y-14754960D02*
X7854110Y-14735912D01*
X7854110Y-14735912D02*
X7854110Y-14564484D01*
X8035063Y-14754960D02*
X8016015Y-14764484D01*
X8016015Y-14764484D02*
X7977920Y-14764484D01*
X7977920Y-14764484D02*
X7958872Y-14754960D01*
X7958872Y-14754960D02*
X7949348Y-14735912D01*
X7949348Y-14735912D02*
X7949348Y-14659722D01*
X7949348Y-14659722D02*
X7958872Y-14640674D01*
X7958872Y-14640674D02*
X7977920Y-14631150D01*
X7977920Y-14631150D02*
X8016015Y-14631150D01*
X8016015Y-14631150D02*
X8035063Y-14640674D01*
X8035063Y-14640674D02*
X8044586Y-14659722D01*
X8044586Y-14659722D02*
X8044586Y-14678769D01*
X8044586Y-14678769D02*
X7949348Y-14697817D01*
X8120777Y-14754960D02*
X8139825Y-14764484D01*
X8139825Y-14764484D02*
X8177920Y-14764484D01*
X8177920Y-14764484D02*
X8196967Y-14754960D01*
X8196967Y-14754960D02*
X8206491Y-14735912D01*
X8206491Y-14735912D02*
X8206491Y-14726388D01*
X8206491Y-14726388D02*
X8196967Y-14707341D01*
X8196967Y-14707341D02*
X8177920Y-14697817D01*
X8177920Y-14697817D02*
X8149348Y-14697817D01*
X8149348Y-14697817D02*
X8130301Y-14688293D01*
X8130301Y-14688293D02*
X8120777Y-14669246D01*
X8120777Y-14669246D02*
X8120777Y-14659722D01*
X8120777Y-14659722D02*
X8130301Y-14640674D01*
X8130301Y-14640674D02*
X8149348Y-14631150D01*
X8149348Y-14631150D02*
X8177920Y-14631150D01*
X8177920Y-14631150D02*
X8196967Y-14640674D01*
X8273158Y-14840674D02*
X8282682Y-14831150D01*
X8282682Y-14831150D02*
X8301729Y-14802579D01*
X8301729Y-14802579D02*
X8311253Y-14783531D01*
X8311253Y-14783531D02*
X8320777Y-14754960D01*
X8320777Y-14754960D02*
X8330301Y-14707341D01*
X8330301Y-14707341D02*
X8330301Y-14669246D01*
X8330301Y-14669246D02*
X8320777Y-14621627D01*
X8320777Y-14621627D02*
X8311253Y-14593055D01*
X8311253Y-14593055D02*
X8301729Y-14574008D01*
X8301729Y-14574008D02*
X8282682Y-14545436D01*
X8282682Y-14545436D02*
X8273158Y-14535912D01*
X3468806Y-15013711D02*
X3468806Y-14872289D01*
X3327384Y-14872289D01*
X3327384Y-15013711D01*
X3468806Y-15013711D01*
X3749348Y-14853531D02*
X3758872Y-14844008D01*
X3758872Y-14844008D02*
X3777919Y-14834484D01*
X3777919Y-14834484D02*
X3825538Y-14834484D01*
X3825538Y-14834484D02*
X3844586Y-14844008D01*
X3844586Y-14844008D02*
X3854110Y-14853531D01*
X3854110Y-14853531D02*
X3863634Y-14872579D01*
X3863634Y-14872579D02*
X3863634Y-14891627D01*
X3863634Y-14891627D02*
X3854110Y-14920198D01*
X3854110Y-14920198D02*
X3739824Y-15034484D01*
X3739824Y-15034484D02*
X3863634Y-15034484D01*
X3949348Y-15015436D02*
X3958872Y-15024960D01*
X3958872Y-15024960D02*
X3949348Y-15034484D01*
X3949348Y-15034484D02*
X3939824Y-15024960D01*
X3939824Y-15024960D02*
X3949348Y-15015436D01*
X3949348Y-15015436D02*
X3949348Y-15034484D01*
X4082681Y-14834484D02*
X4101729Y-14834484D01*
X4101729Y-14834484D02*
X4120777Y-14844008D01*
X4120777Y-14844008D02*
X4130300Y-14853531D01*
X4130300Y-14853531D02*
X4139824Y-14872579D01*
X4139824Y-14872579D02*
X4149348Y-14910674D01*
X4149348Y-14910674D02*
X4149348Y-14958293D01*
X4149348Y-14958293D02*
X4139824Y-14996388D01*
X4139824Y-14996388D02*
X4130300Y-15015436D01*
X4130300Y-15015436D02*
X4120777Y-15024960D01*
X4120777Y-15024960D02*
X4101729Y-15034484D01*
X4101729Y-15034484D02*
X4082681Y-15034484D01*
X4082681Y-15034484D02*
X4063634Y-15024960D01*
X4063634Y-15024960D02*
X4054110Y-15015436D01*
X4054110Y-15015436D02*
X4044586Y-14996388D01*
X4044586Y-14996388D02*
X4035062Y-14958293D01*
X4035062Y-14958293D02*
X4035062Y-14910674D01*
X4035062Y-14910674D02*
X4044586Y-14872579D01*
X4044586Y-14872579D02*
X4054110Y-14853531D01*
X4054110Y-14853531D02*
X4063634Y-14844008D01*
X4063634Y-14844008D02*
X4082681Y-14834484D01*
X4273158Y-14834484D02*
X4292205Y-14834484D01*
X4292205Y-14834484D02*
X4311253Y-14844008D01*
X4311253Y-14844008D02*
X4320777Y-14853531D01*
X4320777Y-14853531D02*
X4330300Y-14872579D01*
X4330300Y-14872579D02*
X4339824Y-14910674D01*
X4339824Y-14910674D02*
X4339824Y-14958293D01*
X4339824Y-14958293D02*
X4330300Y-14996388D01*
X4330300Y-14996388D02*
X4320777Y-15015436D01*
X4320777Y-15015436D02*
X4311253Y-15024960D01*
X4311253Y-15024960D02*
X4292205Y-15034484D01*
X4292205Y-15034484D02*
X4273158Y-15034484D01*
X4273158Y-15034484D02*
X4254110Y-15024960D01*
X4254110Y-15024960D02*
X4244586Y-15015436D01*
X4244586Y-15015436D02*
X4235062Y-14996388D01*
X4235062Y-14996388D02*
X4225539Y-14958293D01*
X4225539Y-14958293D02*
X4225539Y-14910674D01*
X4225539Y-14910674D02*
X4235062Y-14872579D01*
X4235062Y-14872579D02*
X4244586Y-14853531D01*
X4244586Y-14853531D02*
X4254110Y-14844008D01*
X4254110Y-14844008D02*
X4273158Y-14834484D01*
X4463634Y-14834484D02*
X4482681Y-14834484D01*
X4482681Y-14834484D02*
X4501729Y-14844008D01*
X4501729Y-14844008D02*
X4511253Y-14853531D01*
X4511253Y-14853531D02*
X4520777Y-14872579D01*
X4520777Y-14872579D02*
X4530300Y-14910674D01*
X4530300Y-14910674D02*
X4530300Y-14958293D01*
X4530300Y-14958293D02*
X4520777Y-14996388D01*
X4520777Y-14996388D02*
X4511253Y-15015436D01*
X4511253Y-15015436D02*
X4501729Y-15024960D01*
X4501729Y-15024960D02*
X4482681Y-15034484D01*
X4482681Y-15034484D02*
X4463634Y-15034484D01*
X4463634Y-15034484D02*
X4444586Y-15024960D01*
X4444586Y-15024960D02*
X4435062Y-15015436D01*
X4435062Y-15015436D02*
X4425539Y-14996388D01*
X4425539Y-14996388D02*
X4416015Y-14958293D01*
X4416015Y-14958293D02*
X4416015Y-14910674D01*
X4416015Y-14910674D02*
X4425539Y-14872579D01*
X4425539Y-14872579D02*
X4435062Y-14853531D01*
X4435062Y-14853531D02*
X4444586Y-14844008D01*
X4444586Y-14844008D02*
X4463634Y-14834484D01*
X4616015Y-15034484D02*
X4616015Y-14901150D01*
X4616015Y-14920198D02*
X4625539Y-14910674D01*
X4625539Y-14910674D02*
X4644586Y-14901150D01*
X4644586Y-14901150D02*
X4673158Y-14901150D01*
X4673158Y-14901150D02*
X4692205Y-14910674D01*
X4692205Y-14910674D02*
X4701729Y-14929722D01*
X4701729Y-14929722D02*
X4701729Y-15034484D01*
X4701729Y-14929722D02*
X4711253Y-14910674D01*
X4711253Y-14910674D02*
X4730300Y-14901150D01*
X4730300Y-14901150D02*
X4758872Y-14901150D01*
X4758872Y-14901150D02*
X4777920Y-14910674D01*
X4777920Y-14910674D02*
X4787443Y-14929722D01*
X4787443Y-14929722D02*
X4787443Y-15034484D01*
X4882681Y-15034484D02*
X4882681Y-14901150D01*
X4882681Y-14920198D02*
X4892205Y-14910674D01*
X4892205Y-14910674D02*
X4911253Y-14901150D01*
X4911253Y-14901150D02*
X4939824Y-14901150D01*
X4939824Y-14901150D02*
X4958872Y-14910674D01*
X4958872Y-14910674D02*
X4968396Y-14929722D01*
X4968396Y-14929722D02*
X4968396Y-15034484D01*
X4968396Y-14929722D02*
X4977920Y-14910674D01*
X4977920Y-14910674D02*
X4996967Y-14901150D01*
X4996967Y-14901150D02*
X5025539Y-14901150D01*
X5025539Y-14901150D02*
X5044586Y-14910674D01*
X5044586Y-14910674D02*
X5054110Y-14929722D01*
X5054110Y-14929722D02*
X5054110Y-15034484D01*
X5444586Y-14824960D02*
X5273158Y-15082103D01*
X5701729Y-14834484D02*
X5720777Y-14834484D01*
X5720777Y-14834484D02*
X5739824Y-14844008D01*
X5739824Y-14844008D02*
X5749348Y-14853531D01*
X5749348Y-14853531D02*
X5758872Y-14872579D01*
X5758872Y-14872579D02*
X5768396Y-14910674D01*
X5768396Y-14910674D02*
X5768396Y-14958293D01*
X5768396Y-14958293D02*
X5758872Y-14996388D01*
X5758872Y-14996388D02*
X5749348Y-15015436D01*
X5749348Y-15015436D02*
X5739824Y-15024960D01*
X5739824Y-15024960D02*
X5720777Y-15034484D01*
X5720777Y-15034484D02*
X5701729Y-15034484D01*
X5701729Y-15034484D02*
X5682681Y-15024960D01*
X5682681Y-15024960D02*
X5673158Y-15015436D01*
X5673158Y-15015436D02*
X5663634Y-14996388D01*
X5663634Y-14996388D02*
X5654110Y-14958293D01*
X5654110Y-14958293D02*
X5654110Y-14910674D01*
X5654110Y-14910674D02*
X5663634Y-14872579D01*
X5663634Y-14872579D02*
X5673158Y-14853531D01*
X5673158Y-14853531D02*
X5682681Y-14844008D01*
X5682681Y-14844008D02*
X5701729Y-14834484D01*
X5854110Y-15015436D02*
X5863634Y-15024960D01*
X5863634Y-15024960D02*
X5854110Y-15034484D01*
X5854110Y-15034484D02*
X5844586Y-15024960D01*
X5844586Y-15024960D02*
X5854110Y-15015436D01*
X5854110Y-15015436D02*
X5854110Y-15034484D01*
X5987443Y-14834484D02*
X6006491Y-14834484D01*
X6006491Y-14834484D02*
X6025539Y-14844008D01*
X6025539Y-14844008D02*
X6035062Y-14853531D01*
X6035062Y-14853531D02*
X6044586Y-14872579D01*
X6044586Y-14872579D02*
X6054110Y-14910674D01*
X6054110Y-14910674D02*
X6054110Y-14958293D01*
X6054110Y-14958293D02*
X6044586Y-14996388D01*
X6044586Y-14996388D02*
X6035062Y-15015436D01*
X6035062Y-15015436D02*
X6025539Y-15024960D01*
X6025539Y-15024960D02*
X6006491Y-15034484D01*
X6006491Y-15034484D02*
X5987443Y-15034484D01*
X5987443Y-15034484D02*
X5968396Y-15024960D01*
X5968396Y-15024960D02*
X5958872Y-15015436D01*
X5958872Y-15015436D02*
X5949348Y-14996388D01*
X5949348Y-14996388D02*
X5939824Y-14958293D01*
X5939824Y-14958293D02*
X5939824Y-14910674D01*
X5939824Y-14910674D02*
X5949348Y-14872579D01*
X5949348Y-14872579D02*
X5958872Y-14853531D01*
X5958872Y-14853531D02*
X5968396Y-14844008D01*
X5968396Y-14844008D02*
X5987443Y-14834484D01*
X6120777Y-14834484D02*
X6254110Y-14834484D01*
X6254110Y-14834484D02*
X6168396Y-15034484D01*
X6358872Y-14920198D02*
X6339824Y-14910674D01*
X6339824Y-14910674D02*
X6330301Y-14901150D01*
X6330301Y-14901150D02*
X6320777Y-14882103D01*
X6320777Y-14882103D02*
X6320777Y-14872579D01*
X6320777Y-14872579D02*
X6330301Y-14853531D01*
X6330301Y-14853531D02*
X6339824Y-14844008D01*
X6339824Y-14844008D02*
X6358872Y-14834484D01*
X6358872Y-14834484D02*
X6396967Y-14834484D01*
X6396967Y-14834484D02*
X6416015Y-14844008D01*
X6416015Y-14844008D02*
X6425539Y-14853531D01*
X6425539Y-14853531D02*
X6435062Y-14872579D01*
X6435062Y-14872579D02*
X6435062Y-14882103D01*
X6435062Y-14882103D02*
X6425539Y-14901150D01*
X6425539Y-14901150D02*
X6416015Y-14910674D01*
X6416015Y-14910674D02*
X6396967Y-14920198D01*
X6396967Y-14920198D02*
X6358872Y-14920198D01*
X6358872Y-14920198D02*
X6339824Y-14929722D01*
X6339824Y-14929722D02*
X6330301Y-14939246D01*
X6330301Y-14939246D02*
X6320777Y-14958293D01*
X6320777Y-14958293D02*
X6320777Y-14996388D01*
X6320777Y-14996388D02*
X6330301Y-15015436D01*
X6330301Y-15015436D02*
X6339824Y-15024960D01*
X6339824Y-15024960D02*
X6358872Y-15034484D01*
X6358872Y-15034484D02*
X6396967Y-15034484D01*
X6396967Y-15034484D02*
X6416015Y-15024960D01*
X6416015Y-15024960D02*
X6425539Y-15015436D01*
X6425539Y-15015436D02*
X6435062Y-14996388D01*
X6435062Y-14996388D02*
X6435062Y-14958293D01*
X6435062Y-14958293D02*
X6425539Y-14939246D01*
X6425539Y-14939246D02*
X6416015Y-14929722D01*
X6416015Y-14929722D02*
X6396967Y-14920198D01*
X6501729Y-14834484D02*
X6635062Y-14834484D01*
X6635062Y-14834484D02*
X6549348Y-15034484D01*
X6701729Y-14834484D02*
X6701729Y-14872579D01*
X6777920Y-14834484D02*
X6777920Y-14872579D01*
X7073158Y-15110674D02*
X7063634Y-15101150D01*
X7063634Y-15101150D02*
X7044586Y-15072579D01*
X7044586Y-15072579D02*
X7035063Y-15053531D01*
X7035063Y-15053531D02*
X7025539Y-15024960D01*
X7025539Y-15024960D02*
X7016015Y-14977341D01*
X7016015Y-14977341D02*
X7016015Y-14939246D01*
X7016015Y-14939246D02*
X7025539Y-14891627D01*
X7025539Y-14891627D02*
X7035063Y-14863055D01*
X7035063Y-14863055D02*
X7044586Y-14844008D01*
X7044586Y-14844008D02*
X7063634Y-14815436D01*
X7063634Y-14815436D02*
X7073158Y-14805912D01*
X7130301Y-14834484D02*
X7254110Y-14834484D01*
X7254110Y-14834484D02*
X7187443Y-14910674D01*
X7187443Y-14910674D02*
X7216015Y-14910674D01*
X7216015Y-14910674D02*
X7235063Y-14920198D01*
X7235063Y-14920198D02*
X7244586Y-14929722D01*
X7244586Y-14929722D02*
X7254110Y-14948769D01*
X7254110Y-14948769D02*
X7254110Y-14996388D01*
X7254110Y-14996388D02*
X7244586Y-15015436D01*
X7244586Y-15015436D02*
X7235063Y-15024960D01*
X7235063Y-15024960D02*
X7216015Y-15034484D01*
X7216015Y-15034484D02*
X7158872Y-15034484D01*
X7158872Y-15034484D02*
X7139824Y-15024960D01*
X7139824Y-15024960D02*
X7130301Y-15015436D01*
X7492205Y-15034484D02*
X7492205Y-14834484D01*
X7577920Y-15034484D02*
X7577920Y-14929722D01*
X7577920Y-14929722D02*
X7568396Y-14910674D01*
X7568396Y-14910674D02*
X7549348Y-14901150D01*
X7549348Y-14901150D02*
X7520777Y-14901150D01*
X7520777Y-14901150D02*
X7501729Y-14910674D01*
X7501729Y-14910674D02*
X7492205Y-14920198D01*
X7701729Y-15034484D02*
X7682682Y-15024960D01*
X7682682Y-15024960D02*
X7673158Y-15015436D01*
X7673158Y-15015436D02*
X7663634Y-14996388D01*
X7663634Y-14996388D02*
X7663634Y-14939246D01*
X7663634Y-14939246D02*
X7673158Y-14920198D01*
X7673158Y-14920198D02*
X7682682Y-14910674D01*
X7682682Y-14910674D02*
X7701729Y-14901150D01*
X7701729Y-14901150D02*
X7730301Y-14901150D01*
X7730301Y-14901150D02*
X7749348Y-14910674D01*
X7749348Y-14910674D02*
X7758872Y-14920198D01*
X7758872Y-14920198D02*
X7768396Y-14939246D01*
X7768396Y-14939246D02*
X7768396Y-14996388D01*
X7768396Y-14996388D02*
X7758872Y-15015436D01*
X7758872Y-15015436D02*
X7749348Y-15024960D01*
X7749348Y-15024960D02*
X7730301Y-15034484D01*
X7730301Y-15034484D02*
X7701729Y-15034484D01*
X7882682Y-15034484D02*
X7863634Y-15024960D01*
X7863634Y-15024960D02*
X7854110Y-15005912D01*
X7854110Y-15005912D02*
X7854110Y-14834484D01*
X8035063Y-15024960D02*
X8016015Y-15034484D01*
X8016015Y-15034484D02*
X7977920Y-15034484D01*
X7977920Y-15034484D02*
X7958872Y-15024960D01*
X7958872Y-15024960D02*
X7949348Y-15005912D01*
X7949348Y-15005912D02*
X7949348Y-14929722D01*
X7949348Y-14929722D02*
X7958872Y-14910674D01*
X7958872Y-14910674D02*
X7977920Y-14901150D01*
X7977920Y-14901150D02*
X8016015Y-14901150D01*
X8016015Y-14901150D02*
X8035063Y-14910674D01*
X8035063Y-14910674D02*
X8044586Y-14929722D01*
X8044586Y-14929722D02*
X8044586Y-14948769D01*
X8044586Y-14948769D02*
X7949348Y-14967817D01*
X8120777Y-15024960D02*
X8139825Y-15034484D01*
X8139825Y-15034484D02*
X8177920Y-15034484D01*
X8177920Y-15034484D02*
X8196967Y-15024960D01*
X8196967Y-15024960D02*
X8206491Y-15005912D01*
X8206491Y-15005912D02*
X8206491Y-14996388D01*
X8206491Y-14996388D02*
X8196967Y-14977341D01*
X8196967Y-14977341D02*
X8177920Y-14967817D01*
X8177920Y-14967817D02*
X8149348Y-14967817D01*
X8149348Y-14967817D02*
X8130301Y-14958293D01*
X8130301Y-14958293D02*
X8120777Y-14939246D01*
X8120777Y-14939246D02*
X8120777Y-14929722D01*
X8120777Y-14929722D02*
X8130301Y-14910674D01*
X8130301Y-14910674D02*
X8149348Y-14901150D01*
X8149348Y-14901150D02*
X8177920Y-14901150D01*
X8177920Y-14901150D02*
X8196967Y-14910674D01*
X8273158Y-15110674D02*
X8282682Y-15101150D01*
X8282682Y-15101150D02*
X8301729Y-15072579D01*
X8301729Y-15072579D02*
X8311253Y-15053531D01*
X8311253Y-15053531D02*
X8320777Y-15024960D01*
X8320777Y-15024960D02*
X8330301Y-14977341D01*
X8330301Y-14977341D02*
X8330301Y-14939246D01*
X8330301Y-14939246D02*
X8320777Y-14891627D01*
X8320777Y-14891627D02*
X8311253Y-14863055D01*
X8311253Y-14863055D02*
X8301729Y-14844008D01*
X8301729Y-14844008D02*
X8282682Y-14815436D01*
X8282682Y-14815436D02*
X8273158Y-14805912D01*
X3398095Y-15363000D02*
X3498095Y-15263000D01*
X3398095Y-15163000D01*
X3298095Y-15263000D01*
X3398095Y-15363000D01*
X3739824Y-15154484D02*
X3863634Y-15154484D01*
X3863634Y-15154484D02*
X3796967Y-15230674D01*
X3796967Y-15230674D02*
X3825538Y-15230674D01*
X3825538Y-15230674D02*
X3844586Y-15240198D01*
X3844586Y-15240198D02*
X3854110Y-15249722D01*
X3854110Y-15249722D02*
X3863634Y-15268769D01*
X3863634Y-15268769D02*
X3863634Y-15316388D01*
X3863634Y-15316388D02*
X3854110Y-15335436D01*
X3854110Y-15335436D02*
X3844586Y-15344960D01*
X3844586Y-15344960D02*
X3825538Y-15354484D01*
X3825538Y-15354484D02*
X3768396Y-15354484D01*
X3768396Y-15354484D02*
X3749348Y-15344960D01*
X3749348Y-15344960D02*
X3739824Y-15335436D01*
X3949348Y-15335436D02*
X3958872Y-15344960D01*
X3958872Y-15344960D02*
X3949348Y-15354484D01*
X3949348Y-15354484D02*
X3939824Y-15344960D01*
X3939824Y-15344960D02*
X3949348Y-15335436D01*
X3949348Y-15335436D02*
X3949348Y-15354484D01*
X4035062Y-15173531D02*
X4044586Y-15164008D01*
X4044586Y-15164008D02*
X4063634Y-15154484D01*
X4063634Y-15154484D02*
X4111253Y-15154484D01*
X4111253Y-15154484D02*
X4130300Y-15164008D01*
X4130300Y-15164008D02*
X4139824Y-15173531D01*
X4139824Y-15173531D02*
X4149348Y-15192579D01*
X4149348Y-15192579D02*
X4149348Y-15211627D01*
X4149348Y-15211627D02*
X4139824Y-15240198D01*
X4139824Y-15240198D02*
X4025538Y-15354484D01*
X4025538Y-15354484D02*
X4149348Y-15354484D01*
X4273158Y-15154484D02*
X4292205Y-15154484D01*
X4292205Y-15154484D02*
X4311253Y-15164008D01*
X4311253Y-15164008D02*
X4320777Y-15173531D01*
X4320777Y-15173531D02*
X4330300Y-15192579D01*
X4330300Y-15192579D02*
X4339824Y-15230674D01*
X4339824Y-15230674D02*
X4339824Y-15278293D01*
X4339824Y-15278293D02*
X4330300Y-15316388D01*
X4330300Y-15316388D02*
X4320777Y-15335436D01*
X4320777Y-15335436D02*
X4311253Y-15344960D01*
X4311253Y-15344960D02*
X4292205Y-15354484D01*
X4292205Y-15354484D02*
X4273158Y-15354484D01*
X4273158Y-15354484D02*
X4254110Y-15344960D01*
X4254110Y-15344960D02*
X4244586Y-15335436D01*
X4244586Y-15335436D02*
X4235062Y-15316388D01*
X4235062Y-15316388D02*
X4225539Y-15278293D01*
X4225539Y-15278293D02*
X4225539Y-15230674D01*
X4225539Y-15230674D02*
X4235062Y-15192579D01*
X4235062Y-15192579D02*
X4244586Y-15173531D01*
X4244586Y-15173531D02*
X4254110Y-15164008D01*
X4254110Y-15164008D02*
X4273158Y-15154484D01*
X4463634Y-15154484D02*
X4482681Y-15154484D01*
X4482681Y-15154484D02*
X4501729Y-15164008D01*
X4501729Y-15164008D02*
X4511253Y-15173531D01*
X4511253Y-15173531D02*
X4520777Y-15192579D01*
X4520777Y-15192579D02*
X4530300Y-15230674D01*
X4530300Y-15230674D02*
X4530300Y-15278293D01*
X4530300Y-15278293D02*
X4520777Y-15316388D01*
X4520777Y-15316388D02*
X4511253Y-15335436D01*
X4511253Y-15335436D02*
X4501729Y-15344960D01*
X4501729Y-15344960D02*
X4482681Y-15354484D01*
X4482681Y-15354484D02*
X4463634Y-15354484D01*
X4463634Y-15354484D02*
X4444586Y-15344960D01*
X4444586Y-15344960D02*
X4435062Y-15335436D01*
X4435062Y-15335436D02*
X4425539Y-15316388D01*
X4425539Y-15316388D02*
X4416015Y-15278293D01*
X4416015Y-15278293D02*
X4416015Y-15230674D01*
X4416015Y-15230674D02*
X4425539Y-15192579D01*
X4425539Y-15192579D02*
X4435062Y-15173531D01*
X4435062Y-15173531D02*
X4444586Y-15164008D01*
X4444586Y-15164008D02*
X4463634Y-15154484D01*
X4616015Y-15354484D02*
X4616015Y-15221150D01*
X4616015Y-15240198D02*
X4625539Y-15230674D01*
X4625539Y-15230674D02*
X4644586Y-15221150D01*
X4644586Y-15221150D02*
X4673158Y-15221150D01*
X4673158Y-15221150D02*
X4692205Y-15230674D01*
X4692205Y-15230674D02*
X4701729Y-15249722D01*
X4701729Y-15249722D02*
X4701729Y-15354484D01*
X4701729Y-15249722D02*
X4711253Y-15230674D01*
X4711253Y-15230674D02*
X4730300Y-15221150D01*
X4730300Y-15221150D02*
X4758872Y-15221150D01*
X4758872Y-15221150D02*
X4777920Y-15230674D01*
X4777920Y-15230674D02*
X4787443Y-15249722D01*
X4787443Y-15249722D02*
X4787443Y-15354484D01*
X4882681Y-15354484D02*
X4882681Y-15221150D01*
X4882681Y-15240198D02*
X4892205Y-15230674D01*
X4892205Y-15230674D02*
X4911253Y-15221150D01*
X4911253Y-15221150D02*
X4939824Y-15221150D01*
X4939824Y-15221150D02*
X4958872Y-15230674D01*
X4958872Y-15230674D02*
X4968396Y-15249722D01*
X4968396Y-15249722D02*
X4968396Y-15354484D01*
X4968396Y-15249722D02*
X4977920Y-15230674D01*
X4977920Y-15230674D02*
X4996967Y-15221150D01*
X4996967Y-15221150D02*
X5025539Y-15221150D01*
X5025539Y-15221150D02*
X5044586Y-15230674D01*
X5044586Y-15230674D02*
X5054110Y-15249722D01*
X5054110Y-15249722D02*
X5054110Y-15354484D01*
X5444586Y-15144960D02*
X5273158Y-15402103D01*
X5701729Y-15154484D02*
X5720777Y-15154484D01*
X5720777Y-15154484D02*
X5739824Y-15164008D01*
X5739824Y-15164008D02*
X5749348Y-15173531D01*
X5749348Y-15173531D02*
X5758872Y-15192579D01*
X5758872Y-15192579D02*
X5768396Y-15230674D01*
X5768396Y-15230674D02*
X5768396Y-15278293D01*
X5768396Y-15278293D02*
X5758872Y-15316388D01*
X5758872Y-15316388D02*
X5749348Y-15335436D01*
X5749348Y-15335436D02*
X5739824Y-15344960D01*
X5739824Y-15344960D02*
X5720777Y-15354484D01*
X5720777Y-15354484D02*
X5701729Y-15354484D01*
X5701729Y-15354484D02*
X5682681Y-15344960D01*
X5682681Y-15344960D02*
X5673158Y-15335436D01*
X5673158Y-15335436D02*
X5663634Y-15316388D01*
X5663634Y-15316388D02*
X5654110Y-15278293D01*
X5654110Y-15278293D02*
X5654110Y-15230674D01*
X5654110Y-15230674D02*
X5663634Y-15192579D01*
X5663634Y-15192579D02*
X5673158Y-15173531D01*
X5673158Y-15173531D02*
X5682681Y-15164008D01*
X5682681Y-15164008D02*
X5701729Y-15154484D01*
X5854110Y-15335436D02*
X5863634Y-15344960D01*
X5863634Y-15344960D02*
X5854110Y-15354484D01*
X5854110Y-15354484D02*
X5844586Y-15344960D01*
X5844586Y-15344960D02*
X5854110Y-15335436D01*
X5854110Y-15335436D02*
X5854110Y-15354484D01*
X6054110Y-15354484D02*
X5939824Y-15354484D01*
X5996967Y-15354484D02*
X5996967Y-15154484D01*
X5996967Y-15154484D02*
X5977920Y-15183055D01*
X5977920Y-15183055D02*
X5958872Y-15202103D01*
X5958872Y-15202103D02*
X5939824Y-15211627D01*
X6130301Y-15173531D02*
X6139824Y-15164008D01*
X6139824Y-15164008D02*
X6158872Y-15154484D01*
X6158872Y-15154484D02*
X6206491Y-15154484D01*
X6206491Y-15154484D02*
X6225539Y-15164008D01*
X6225539Y-15164008D02*
X6235062Y-15173531D01*
X6235062Y-15173531D02*
X6244586Y-15192579D01*
X6244586Y-15192579D02*
X6244586Y-15211627D01*
X6244586Y-15211627D02*
X6235062Y-15240198D01*
X6235062Y-15240198D02*
X6120777Y-15354484D01*
X6120777Y-15354484D02*
X6244586Y-15354484D01*
X6416015Y-15154484D02*
X6377920Y-15154484D01*
X6377920Y-15154484D02*
X6358872Y-15164008D01*
X6358872Y-15164008D02*
X6349348Y-15173531D01*
X6349348Y-15173531D02*
X6330301Y-15202103D01*
X6330301Y-15202103D02*
X6320777Y-15240198D01*
X6320777Y-15240198D02*
X6320777Y-15316388D01*
X6320777Y-15316388D02*
X6330301Y-15335436D01*
X6330301Y-15335436D02*
X6339824Y-15344960D01*
X6339824Y-15344960D02*
X6358872Y-15354484D01*
X6358872Y-15354484D02*
X6396967Y-15354484D01*
X6396967Y-15354484D02*
X6416015Y-15344960D01*
X6416015Y-15344960D02*
X6425539Y-15335436D01*
X6425539Y-15335436D02*
X6435062Y-15316388D01*
X6435062Y-15316388D02*
X6435062Y-15268769D01*
X6435062Y-15268769D02*
X6425539Y-15249722D01*
X6425539Y-15249722D02*
X6416015Y-15240198D01*
X6416015Y-15240198D02*
X6396967Y-15230674D01*
X6396967Y-15230674D02*
X6358872Y-15230674D01*
X6358872Y-15230674D02*
X6339824Y-15240198D01*
X6339824Y-15240198D02*
X6330301Y-15249722D01*
X6330301Y-15249722D02*
X6320777Y-15268769D01*
X6558872Y-15154484D02*
X6577920Y-15154484D01*
X6577920Y-15154484D02*
X6596967Y-15164008D01*
X6596967Y-15164008D02*
X6606491Y-15173531D01*
X6606491Y-15173531D02*
X6616015Y-15192579D01*
X6616015Y-15192579D02*
X6625539Y-15230674D01*
X6625539Y-15230674D02*
X6625539Y-15278293D01*
X6625539Y-15278293D02*
X6616015Y-15316388D01*
X6616015Y-15316388D02*
X6606491Y-15335436D01*
X6606491Y-15335436D02*
X6596967Y-15344960D01*
X6596967Y-15344960D02*
X6577920Y-15354484D01*
X6577920Y-15354484D02*
X6558872Y-15354484D01*
X6558872Y-15354484D02*
X6539824Y-15344960D01*
X6539824Y-15344960D02*
X6530301Y-15335436D01*
X6530301Y-15335436D02*
X6520777Y-15316388D01*
X6520777Y-15316388D02*
X6511253Y-15278293D01*
X6511253Y-15278293D02*
X6511253Y-15230674D01*
X6511253Y-15230674D02*
X6520777Y-15192579D01*
X6520777Y-15192579D02*
X6530301Y-15173531D01*
X6530301Y-15173531D02*
X6539824Y-15164008D01*
X6539824Y-15164008D02*
X6558872Y-15154484D01*
X6701729Y-15154484D02*
X6701729Y-15192579D01*
X6777920Y-15154484D02*
X6777920Y-15192579D01*
X7073158Y-15430674D02*
X7063634Y-15421150D01*
X7063634Y-15421150D02*
X7044586Y-15392579D01*
X7044586Y-15392579D02*
X7035063Y-15373531D01*
X7035063Y-15373531D02*
X7025539Y-15344960D01*
X7025539Y-15344960D02*
X7016015Y-15297341D01*
X7016015Y-15297341D02*
X7016015Y-15259246D01*
X7016015Y-15259246D02*
X7025539Y-15211627D01*
X7025539Y-15211627D02*
X7035063Y-15183055D01*
X7035063Y-15183055D02*
X7044586Y-15164008D01*
X7044586Y-15164008D02*
X7063634Y-15135436D01*
X7063634Y-15135436D02*
X7073158Y-15125912D01*
X7177920Y-15240198D02*
X7158872Y-15230674D01*
X7158872Y-15230674D02*
X7149348Y-15221150D01*
X7149348Y-15221150D02*
X7139824Y-15202103D01*
X7139824Y-15202103D02*
X7139824Y-15192579D01*
X7139824Y-15192579D02*
X7149348Y-15173531D01*
X7149348Y-15173531D02*
X7158872Y-15164008D01*
X7158872Y-15164008D02*
X7177920Y-15154484D01*
X7177920Y-15154484D02*
X7216015Y-15154484D01*
X7216015Y-15154484D02*
X7235063Y-15164008D01*
X7235063Y-15164008D02*
X7244586Y-15173531D01*
X7244586Y-15173531D02*
X7254110Y-15192579D01*
X7254110Y-15192579D02*
X7254110Y-15202103D01*
X7254110Y-15202103D02*
X7244586Y-15221150D01*
X7244586Y-15221150D02*
X7235063Y-15230674D01*
X7235063Y-15230674D02*
X7216015Y-15240198D01*
X7216015Y-15240198D02*
X7177920Y-15240198D01*
X7177920Y-15240198D02*
X7158872Y-15249722D01*
X7158872Y-15249722D02*
X7149348Y-15259246D01*
X7149348Y-15259246D02*
X7139824Y-15278293D01*
X7139824Y-15278293D02*
X7139824Y-15316388D01*
X7139824Y-15316388D02*
X7149348Y-15335436D01*
X7149348Y-15335436D02*
X7158872Y-15344960D01*
X7158872Y-15344960D02*
X7177920Y-15354484D01*
X7177920Y-15354484D02*
X7216015Y-15354484D01*
X7216015Y-15354484D02*
X7235063Y-15344960D01*
X7235063Y-15344960D02*
X7244586Y-15335436D01*
X7244586Y-15335436D02*
X7254110Y-15316388D01*
X7254110Y-15316388D02*
X7254110Y-15278293D01*
X7254110Y-15278293D02*
X7244586Y-15259246D01*
X7244586Y-15259246D02*
X7235063Y-15249722D01*
X7235063Y-15249722D02*
X7216015Y-15240198D01*
X7492205Y-15354484D02*
X7492205Y-15154484D01*
X7577920Y-15354484D02*
X7577920Y-15249722D01*
X7577920Y-15249722D02*
X7568396Y-15230674D01*
X7568396Y-15230674D02*
X7549348Y-15221150D01*
X7549348Y-15221150D02*
X7520777Y-15221150D01*
X7520777Y-15221150D02*
X7501729Y-15230674D01*
X7501729Y-15230674D02*
X7492205Y-15240198D01*
X7701729Y-15354484D02*
X7682682Y-15344960D01*
X7682682Y-15344960D02*
X7673158Y-15335436D01*
X7673158Y-15335436D02*
X7663634Y-15316388D01*
X7663634Y-15316388D02*
X7663634Y-15259246D01*
X7663634Y-15259246D02*
X7673158Y-15240198D01*
X7673158Y-15240198D02*
X7682682Y-15230674D01*
X7682682Y-15230674D02*
X7701729Y-15221150D01*
X7701729Y-15221150D02*
X7730301Y-15221150D01*
X7730301Y-15221150D02*
X7749348Y-15230674D01*
X7749348Y-15230674D02*
X7758872Y-15240198D01*
X7758872Y-15240198D02*
X7768396Y-15259246D01*
X7768396Y-15259246D02*
X7768396Y-15316388D01*
X7768396Y-15316388D02*
X7758872Y-15335436D01*
X7758872Y-15335436D02*
X7749348Y-15344960D01*
X7749348Y-15344960D02*
X7730301Y-15354484D01*
X7730301Y-15354484D02*
X7701729Y-15354484D01*
X7882682Y-15354484D02*
X7863634Y-15344960D01*
X7863634Y-15344960D02*
X7854110Y-15325912D01*
X7854110Y-15325912D02*
X7854110Y-15154484D01*
X8035063Y-15344960D02*
X8016015Y-15354484D01*
X8016015Y-15354484D02*
X7977920Y-15354484D01*
X7977920Y-15354484D02*
X7958872Y-15344960D01*
X7958872Y-15344960D02*
X7949348Y-15325912D01*
X7949348Y-15325912D02*
X7949348Y-15249722D01*
X7949348Y-15249722D02*
X7958872Y-15230674D01*
X7958872Y-15230674D02*
X7977920Y-15221150D01*
X7977920Y-15221150D02*
X8016015Y-15221150D01*
X8016015Y-15221150D02*
X8035063Y-15230674D01*
X8035063Y-15230674D02*
X8044586Y-15249722D01*
X8044586Y-15249722D02*
X8044586Y-15268769D01*
X8044586Y-15268769D02*
X7949348Y-15287817D01*
X8120777Y-15344960D02*
X8139825Y-15354484D01*
X8139825Y-15354484D02*
X8177920Y-15354484D01*
X8177920Y-15354484D02*
X8196967Y-15344960D01*
X8196967Y-15344960D02*
X8206491Y-15325912D01*
X8206491Y-15325912D02*
X8206491Y-15316388D01*
X8206491Y-15316388D02*
X8196967Y-15297341D01*
X8196967Y-15297341D02*
X8177920Y-15287817D01*
X8177920Y-15287817D02*
X8149348Y-15287817D01*
X8149348Y-15287817D02*
X8130301Y-15278293D01*
X8130301Y-15278293D02*
X8120777Y-15259246D01*
X8120777Y-15259246D02*
X8120777Y-15249722D01*
X8120777Y-15249722D02*
X8130301Y-15230674D01*
X8130301Y-15230674D02*
X8149348Y-15221150D01*
X8149348Y-15221150D02*
X8177920Y-15221150D01*
X8177920Y-15221150D02*
X8196967Y-15230674D01*
X8273158Y-15430674D02*
X8282682Y-15421150D01*
X8282682Y-15421150D02*
X8301729Y-15392579D01*
X8301729Y-15392579D02*
X8311253Y-15373531D01*
X8311253Y-15373531D02*
X8320777Y-15344960D01*
X8320777Y-15344960D02*
X8330301Y-15297341D01*
X8330301Y-15297341D02*
X8330301Y-15259246D01*
X8330301Y-15259246D02*
X8320777Y-15211627D01*
X8320777Y-15211627D02*
X8311253Y-15183055D01*
X8311253Y-15183055D02*
X8301729Y-15164008D01*
X8301729Y-15164008D02*
X8282682Y-15135436D01*
X8282682Y-15135436D02*
X8273158Y-15125912D01*
X3298095Y-15483000D02*
X3498095Y-15683000D01*
X3498095Y-15483000D02*
X3298095Y-15683000D01*
X3498095Y-15583000D02*
G75*
G02*
X3298095Y-15583000I-100000J0D01*
G01*
X3298095Y-15583000D02*
G75*
G02*
X3498095Y-15583000I100000J0D01*
G01*
X3739824Y-15474484D02*
X3863634Y-15474484D01*
X3863634Y-15474484D02*
X3796967Y-15550674D01*
X3796967Y-15550674D02*
X3825538Y-15550674D01*
X3825538Y-15550674D02*
X3844586Y-15560198D01*
X3844586Y-15560198D02*
X3854110Y-15569722D01*
X3854110Y-15569722D02*
X3863634Y-15588769D01*
X3863634Y-15588769D02*
X3863634Y-15636388D01*
X3863634Y-15636388D02*
X3854110Y-15655436D01*
X3854110Y-15655436D02*
X3844586Y-15664960D01*
X3844586Y-15664960D02*
X3825538Y-15674484D01*
X3825538Y-15674484D02*
X3768396Y-15674484D01*
X3768396Y-15674484D02*
X3749348Y-15664960D01*
X3749348Y-15664960D02*
X3739824Y-15655436D01*
X3949348Y-15655436D02*
X3958872Y-15664960D01*
X3958872Y-15664960D02*
X3949348Y-15674484D01*
X3949348Y-15674484D02*
X3939824Y-15664960D01*
X3939824Y-15664960D02*
X3949348Y-15655436D01*
X3949348Y-15655436D02*
X3949348Y-15674484D01*
X4025538Y-15474484D02*
X4149348Y-15474484D01*
X4149348Y-15474484D02*
X4082681Y-15550674D01*
X4082681Y-15550674D02*
X4111253Y-15550674D01*
X4111253Y-15550674D02*
X4130300Y-15560198D01*
X4130300Y-15560198D02*
X4139824Y-15569722D01*
X4139824Y-15569722D02*
X4149348Y-15588769D01*
X4149348Y-15588769D02*
X4149348Y-15636388D01*
X4149348Y-15636388D02*
X4139824Y-15655436D01*
X4139824Y-15655436D02*
X4130300Y-15664960D01*
X4130300Y-15664960D02*
X4111253Y-15674484D01*
X4111253Y-15674484D02*
X4054110Y-15674484D01*
X4054110Y-15674484D02*
X4035062Y-15664960D01*
X4035062Y-15664960D02*
X4025538Y-15655436D01*
X4273158Y-15474484D02*
X4292205Y-15474484D01*
X4292205Y-15474484D02*
X4311253Y-15484008D01*
X4311253Y-15484008D02*
X4320777Y-15493531D01*
X4320777Y-15493531D02*
X4330300Y-15512579D01*
X4330300Y-15512579D02*
X4339824Y-15550674D01*
X4339824Y-15550674D02*
X4339824Y-15598293D01*
X4339824Y-15598293D02*
X4330300Y-15636388D01*
X4330300Y-15636388D02*
X4320777Y-15655436D01*
X4320777Y-15655436D02*
X4311253Y-15664960D01*
X4311253Y-15664960D02*
X4292205Y-15674484D01*
X4292205Y-15674484D02*
X4273158Y-15674484D01*
X4273158Y-15674484D02*
X4254110Y-15664960D01*
X4254110Y-15664960D02*
X4244586Y-15655436D01*
X4244586Y-15655436D02*
X4235062Y-15636388D01*
X4235062Y-15636388D02*
X4225539Y-15598293D01*
X4225539Y-15598293D02*
X4225539Y-15550674D01*
X4225539Y-15550674D02*
X4235062Y-15512579D01*
X4235062Y-15512579D02*
X4244586Y-15493531D01*
X4244586Y-15493531D02*
X4254110Y-15484008D01*
X4254110Y-15484008D02*
X4273158Y-15474484D01*
X4463634Y-15474484D02*
X4482681Y-15474484D01*
X4482681Y-15474484D02*
X4501729Y-15484008D01*
X4501729Y-15484008D02*
X4511253Y-15493531D01*
X4511253Y-15493531D02*
X4520777Y-15512579D01*
X4520777Y-15512579D02*
X4530300Y-15550674D01*
X4530300Y-15550674D02*
X4530300Y-15598293D01*
X4530300Y-15598293D02*
X4520777Y-15636388D01*
X4520777Y-15636388D02*
X4511253Y-15655436D01*
X4511253Y-15655436D02*
X4501729Y-15664960D01*
X4501729Y-15664960D02*
X4482681Y-15674484D01*
X4482681Y-15674484D02*
X4463634Y-15674484D01*
X4463634Y-15674484D02*
X4444586Y-15664960D01*
X4444586Y-15664960D02*
X4435062Y-15655436D01*
X4435062Y-15655436D02*
X4425539Y-15636388D01*
X4425539Y-15636388D02*
X4416015Y-15598293D01*
X4416015Y-15598293D02*
X4416015Y-15550674D01*
X4416015Y-15550674D02*
X4425539Y-15512579D01*
X4425539Y-15512579D02*
X4435062Y-15493531D01*
X4435062Y-15493531D02*
X4444586Y-15484008D01*
X4444586Y-15484008D02*
X4463634Y-15474484D01*
X4616015Y-15674484D02*
X4616015Y-15541150D01*
X4616015Y-15560198D02*
X4625539Y-15550674D01*
X4625539Y-15550674D02*
X4644586Y-15541150D01*
X4644586Y-15541150D02*
X4673158Y-15541150D01*
X4673158Y-15541150D02*
X4692205Y-15550674D01*
X4692205Y-15550674D02*
X4701729Y-15569722D01*
X4701729Y-15569722D02*
X4701729Y-15674484D01*
X4701729Y-15569722D02*
X4711253Y-15550674D01*
X4711253Y-15550674D02*
X4730300Y-15541150D01*
X4730300Y-15541150D02*
X4758872Y-15541150D01*
X4758872Y-15541150D02*
X4777920Y-15550674D01*
X4777920Y-15550674D02*
X4787443Y-15569722D01*
X4787443Y-15569722D02*
X4787443Y-15674484D01*
X4882681Y-15674484D02*
X4882681Y-15541150D01*
X4882681Y-15560198D02*
X4892205Y-15550674D01*
X4892205Y-15550674D02*
X4911253Y-15541150D01*
X4911253Y-15541150D02*
X4939824Y-15541150D01*
X4939824Y-15541150D02*
X4958872Y-15550674D01*
X4958872Y-15550674D02*
X4968396Y-15569722D01*
X4968396Y-15569722D02*
X4968396Y-15674484D01*
X4968396Y-15569722D02*
X4977920Y-15550674D01*
X4977920Y-15550674D02*
X4996967Y-15541150D01*
X4996967Y-15541150D02*
X5025539Y-15541150D01*
X5025539Y-15541150D02*
X5044586Y-15550674D01*
X5044586Y-15550674D02*
X5054110Y-15569722D01*
X5054110Y-15569722D02*
X5054110Y-15674484D01*
X5444586Y-15464960D02*
X5273158Y-15722103D01*
X5701729Y-15474484D02*
X5720777Y-15474484D01*
X5720777Y-15474484D02*
X5739824Y-15484008D01*
X5739824Y-15484008D02*
X5749348Y-15493531D01*
X5749348Y-15493531D02*
X5758872Y-15512579D01*
X5758872Y-15512579D02*
X5768396Y-15550674D01*
X5768396Y-15550674D02*
X5768396Y-15598293D01*
X5768396Y-15598293D02*
X5758872Y-15636388D01*
X5758872Y-15636388D02*
X5749348Y-15655436D01*
X5749348Y-15655436D02*
X5739824Y-15664960D01*
X5739824Y-15664960D02*
X5720777Y-15674484D01*
X5720777Y-15674484D02*
X5701729Y-15674484D01*
X5701729Y-15674484D02*
X5682681Y-15664960D01*
X5682681Y-15664960D02*
X5673158Y-15655436D01*
X5673158Y-15655436D02*
X5663634Y-15636388D01*
X5663634Y-15636388D02*
X5654110Y-15598293D01*
X5654110Y-15598293D02*
X5654110Y-15550674D01*
X5654110Y-15550674D02*
X5663634Y-15512579D01*
X5663634Y-15512579D02*
X5673158Y-15493531D01*
X5673158Y-15493531D02*
X5682681Y-15484008D01*
X5682681Y-15484008D02*
X5701729Y-15474484D01*
X5854110Y-15655436D02*
X5863634Y-15664960D01*
X5863634Y-15664960D02*
X5854110Y-15674484D01*
X5854110Y-15674484D02*
X5844586Y-15664960D01*
X5844586Y-15664960D02*
X5854110Y-15655436D01*
X5854110Y-15655436D02*
X5854110Y-15674484D01*
X6054110Y-15674484D02*
X5939824Y-15674484D01*
X5996967Y-15674484D02*
X5996967Y-15474484D01*
X5996967Y-15474484D02*
X5977920Y-15503055D01*
X5977920Y-15503055D02*
X5958872Y-15522103D01*
X5958872Y-15522103D02*
X5939824Y-15531627D01*
X6130301Y-15493531D02*
X6139824Y-15484008D01*
X6139824Y-15484008D02*
X6158872Y-15474484D01*
X6158872Y-15474484D02*
X6206491Y-15474484D01*
X6206491Y-15474484D02*
X6225539Y-15484008D01*
X6225539Y-15484008D02*
X6235062Y-15493531D01*
X6235062Y-15493531D02*
X6244586Y-15512579D01*
X6244586Y-15512579D02*
X6244586Y-15531627D01*
X6244586Y-15531627D02*
X6235062Y-15560198D01*
X6235062Y-15560198D02*
X6120777Y-15674484D01*
X6120777Y-15674484D02*
X6244586Y-15674484D01*
X6339824Y-15674484D02*
X6377920Y-15674484D01*
X6377920Y-15674484D02*
X6396967Y-15664960D01*
X6396967Y-15664960D02*
X6406491Y-15655436D01*
X6406491Y-15655436D02*
X6425539Y-15626865D01*
X6425539Y-15626865D02*
X6435062Y-15588769D01*
X6435062Y-15588769D02*
X6435062Y-15512579D01*
X6435062Y-15512579D02*
X6425539Y-15493531D01*
X6425539Y-15493531D02*
X6416015Y-15484008D01*
X6416015Y-15484008D02*
X6396967Y-15474484D01*
X6396967Y-15474484D02*
X6358872Y-15474484D01*
X6358872Y-15474484D02*
X6339824Y-15484008D01*
X6339824Y-15484008D02*
X6330301Y-15493531D01*
X6330301Y-15493531D02*
X6320777Y-15512579D01*
X6320777Y-15512579D02*
X6320777Y-15560198D01*
X6320777Y-15560198D02*
X6330301Y-15579246D01*
X6330301Y-15579246D02*
X6339824Y-15588769D01*
X6339824Y-15588769D02*
X6358872Y-15598293D01*
X6358872Y-15598293D02*
X6396967Y-15598293D01*
X6396967Y-15598293D02*
X6416015Y-15588769D01*
X6416015Y-15588769D02*
X6425539Y-15579246D01*
X6425539Y-15579246D02*
X6435062Y-15560198D01*
X6530301Y-15674484D02*
X6568396Y-15674484D01*
X6568396Y-15674484D02*
X6587443Y-15664960D01*
X6587443Y-15664960D02*
X6596967Y-15655436D01*
X6596967Y-15655436D02*
X6616015Y-15626865D01*
X6616015Y-15626865D02*
X6625539Y-15588769D01*
X6625539Y-15588769D02*
X6625539Y-15512579D01*
X6625539Y-15512579D02*
X6616015Y-15493531D01*
X6616015Y-15493531D02*
X6606491Y-15484008D01*
X6606491Y-15484008D02*
X6587443Y-15474484D01*
X6587443Y-15474484D02*
X6549348Y-15474484D01*
X6549348Y-15474484D02*
X6530301Y-15484008D01*
X6530301Y-15484008D02*
X6520777Y-15493531D01*
X6520777Y-15493531D02*
X6511253Y-15512579D01*
X6511253Y-15512579D02*
X6511253Y-15560198D01*
X6511253Y-15560198D02*
X6520777Y-15579246D01*
X6520777Y-15579246D02*
X6530301Y-15588769D01*
X6530301Y-15588769D02*
X6549348Y-15598293D01*
X6549348Y-15598293D02*
X6587443Y-15598293D01*
X6587443Y-15598293D02*
X6606491Y-15588769D01*
X6606491Y-15588769D02*
X6616015Y-15579246D01*
X6616015Y-15579246D02*
X6625539Y-15560198D01*
X6701729Y-15474484D02*
X6701729Y-15512579D01*
X6777920Y-15474484D02*
X6777920Y-15512579D01*
X7073158Y-15750674D02*
X7063634Y-15741150D01*
X7063634Y-15741150D02*
X7044586Y-15712579D01*
X7044586Y-15712579D02*
X7035063Y-15693531D01*
X7035063Y-15693531D02*
X7025539Y-15664960D01*
X7025539Y-15664960D02*
X7016015Y-15617341D01*
X7016015Y-15617341D02*
X7016015Y-15579246D01*
X7016015Y-15579246D02*
X7025539Y-15531627D01*
X7025539Y-15531627D02*
X7035063Y-15503055D01*
X7035063Y-15503055D02*
X7044586Y-15484008D01*
X7044586Y-15484008D02*
X7063634Y-15455436D01*
X7063634Y-15455436D02*
X7073158Y-15445912D01*
X7177920Y-15560198D02*
X7158872Y-15550674D01*
X7158872Y-15550674D02*
X7149348Y-15541150D01*
X7149348Y-15541150D02*
X7139824Y-15522103D01*
X7139824Y-15522103D02*
X7139824Y-15512579D01*
X7139824Y-15512579D02*
X7149348Y-15493531D01*
X7149348Y-15493531D02*
X7158872Y-15484008D01*
X7158872Y-15484008D02*
X7177920Y-15474484D01*
X7177920Y-15474484D02*
X7216015Y-15474484D01*
X7216015Y-15474484D02*
X7235063Y-15484008D01*
X7235063Y-15484008D02*
X7244586Y-15493531D01*
X7244586Y-15493531D02*
X7254110Y-15512579D01*
X7254110Y-15512579D02*
X7254110Y-15522103D01*
X7254110Y-15522103D02*
X7244586Y-15541150D01*
X7244586Y-15541150D02*
X7235063Y-15550674D01*
X7235063Y-15550674D02*
X7216015Y-15560198D01*
X7216015Y-15560198D02*
X7177920Y-15560198D01*
X7177920Y-15560198D02*
X7158872Y-15569722D01*
X7158872Y-15569722D02*
X7149348Y-15579246D01*
X7149348Y-15579246D02*
X7139824Y-15598293D01*
X7139824Y-15598293D02*
X7139824Y-15636388D01*
X7139824Y-15636388D02*
X7149348Y-15655436D01*
X7149348Y-15655436D02*
X7158872Y-15664960D01*
X7158872Y-15664960D02*
X7177920Y-15674484D01*
X7177920Y-15674484D02*
X7216015Y-15674484D01*
X7216015Y-15674484D02*
X7235063Y-15664960D01*
X7235063Y-15664960D02*
X7244586Y-15655436D01*
X7244586Y-15655436D02*
X7254110Y-15636388D01*
X7254110Y-15636388D02*
X7254110Y-15598293D01*
X7254110Y-15598293D02*
X7244586Y-15579246D01*
X7244586Y-15579246D02*
X7235063Y-15569722D01*
X7235063Y-15569722D02*
X7216015Y-15560198D01*
X7492205Y-15674484D02*
X7492205Y-15474484D01*
X7577920Y-15674484D02*
X7577920Y-15569722D01*
X7577920Y-15569722D02*
X7568396Y-15550674D01*
X7568396Y-15550674D02*
X7549348Y-15541150D01*
X7549348Y-15541150D02*
X7520777Y-15541150D01*
X7520777Y-15541150D02*
X7501729Y-15550674D01*
X7501729Y-15550674D02*
X7492205Y-15560198D01*
X7701729Y-15674484D02*
X7682682Y-15664960D01*
X7682682Y-15664960D02*
X7673158Y-15655436D01*
X7673158Y-15655436D02*
X7663634Y-15636388D01*
X7663634Y-15636388D02*
X7663634Y-15579246D01*
X7663634Y-15579246D02*
X7673158Y-15560198D01*
X7673158Y-15560198D02*
X7682682Y-15550674D01*
X7682682Y-15550674D02*
X7701729Y-15541150D01*
X7701729Y-15541150D02*
X7730301Y-15541150D01*
X7730301Y-15541150D02*
X7749348Y-15550674D01*
X7749348Y-15550674D02*
X7758872Y-15560198D01*
X7758872Y-15560198D02*
X7768396Y-15579246D01*
X7768396Y-15579246D02*
X7768396Y-15636388D01*
X7768396Y-15636388D02*
X7758872Y-15655436D01*
X7758872Y-15655436D02*
X7749348Y-15664960D01*
X7749348Y-15664960D02*
X7730301Y-15674484D01*
X7730301Y-15674484D02*
X7701729Y-15674484D01*
X7882682Y-15674484D02*
X7863634Y-15664960D01*
X7863634Y-15664960D02*
X7854110Y-15645912D01*
X7854110Y-15645912D02*
X7854110Y-15474484D01*
X8035063Y-15664960D02*
X8016015Y-15674484D01*
X8016015Y-15674484D02*
X7977920Y-15674484D01*
X7977920Y-15674484D02*
X7958872Y-15664960D01*
X7958872Y-15664960D02*
X7949348Y-15645912D01*
X7949348Y-15645912D02*
X7949348Y-15569722D01*
X7949348Y-15569722D02*
X7958872Y-15550674D01*
X7958872Y-15550674D02*
X7977920Y-15541150D01*
X7977920Y-15541150D02*
X8016015Y-15541150D01*
X8016015Y-15541150D02*
X8035063Y-15550674D01*
X8035063Y-15550674D02*
X8044586Y-15569722D01*
X8044586Y-15569722D02*
X8044586Y-15588769D01*
X8044586Y-15588769D02*
X7949348Y-15607817D01*
X8120777Y-15664960D02*
X8139825Y-15674484D01*
X8139825Y-15674484D02*
X8177920Y-15674484D01*
X8177920Y-15674484D02*
X8196967Y-15664960D01*
X8196967Y-15664960D02*
X8206491Y-15645912D01*
X8206491Y-15645912D02*
X8206491Y-15636388D01*
X8206491Y-15636388D02*
X8196967Y-15617341D01*
X8196967Y-15617341D02*
X8177920Y-15607817D01*
X8177920Y-15607817D02*
X8149348Y-15607817D01*
X8149348Y-15607817D02*
X8130301Y-15598293D01*
X8130301Y-15598293D02*
X8120777Y-15579246D01*
X8120777Y-15579246D02*
X8120777Y-15569722D01*
X8120777Y-15569722D02*
X8130301Y-15550674D01*
X8130301Y-15550674D02*
X8149348Y-15541150D01*
X8149348Y-15541150D02*
X8177920Y-15541150D01*
X8177920Y-15541150D02*
X8196967Y-15550674D01*
X8273158Y-15750674D02*
X8282682Y-15741150D01*
X8282682Y-15741150D02*
X8301729Y-15712579D01*
X8301729Y-15712579D02*
X8311253Y-15693531D01*
X8311253Y-15693531D02*
X8320777Y-15664960D01*
X8320777Y-15664960D02*
X8330301Y-15617341D01*
X8330301Y-15617341D02*
X8330301Y-15579246D01*
X8330301Y-15579246D02*
X8320777Y-15531627D01*
X8320777Y-15531627D02*
X8311253Y-15503055D01*
X8311253Y-15503055D02*
X8301729Y-15484008D01*
X8301729Y-15484008D02*
X8282682Y-15455436D01*
X8282682Y-15455436D02*
X8273158Y-15445912D01*
M02*
